<svg width="612" height="637" viewBox="0 0 612 637" fill="none" xmlns="http://www.w3.org/2000/svg">
<path fill-rule="evenodd" clip-rule="evenodd" d="M553.233 31.0919C624.068 100.666 543.664 218.434 549.582 317.524C555.597 418.249 656.237 532.321 587.582 606.237C518.756 680.336 397.115 595.482 296.081 590.447C213.773 586.346 118.354 636.539 58.4965 579.874C-1.14333 523.414 42.0787 425.882 35.768 344.017C29.1403 258.042 -31.1383 164.133 21.1653 95.6026C74.2221 26.0848 180.636 50.9588 267.468 40.4307C365.821 28.506 482.534 -38.3494 553.233 31.0919Z" fill="url(#paint0_linear_742_3003)"/>
<path opacity="0.3" d="M76.6198 448.46C90.8798 448.46 102.44 445.908 102.44 442.76C102.44 439.612 90.8798 437.06 76.6198 437.06C62.3598 437.06 50.7998 439.612 50.7998 442.76C50.7998 445.908 62.3598 448.46 76.6198 448.46Z" fill="black"/>
<path d="M81.0602 249.29C83.2402 249.29 85.0102 247.52 85.0102 245.34C85.0102 245.22 85.0002 245.1 84.9902 244.98C85.5102 245.56 86.2602 245.93 87.1002 245.93C88.6602 245.93 89.9202 244.67 89.9202 243.11C89.9202 243.1 89.9202 243.09 89.9202 243.09C90.5202 243.45 91.2202 243.66 91.9702 243.66C94.1502 243.66 95.9202 241.89 95.9202 239.71C95.9202 238.72 95.5502 237.81 94.9502 237.11C96.4502 237.05 97.6502 235.81 97.6502 234.3C97.6502 234.14 97.6302 233.98 97.6102 233.83C99.0002 233.22 99.9702 231.83 99.9702 230.21C99.9702 229.17 99.5702 228.22 98.9102 227.52C99.9502 226.95 100.65 225.84 100.65 224.58C100.65 223.34 99.9702 222.25 98.9702 221.67C99.6702 220.96 100.11 219.98 100.11 218.9C100.11 217.19 99.0302 215.74 97.5202 215.19C97.6102 214.91 97.6602 214.62 97.6602 214.31C97.6602 212.79 96.4602 211.56 94.9602 211.5C95.5702 210.81 95.9302 209.9 95.9302 208.9C95.9302 206.72 94.1602 204.95 91.9802 204.95C91.2302 204.95 90.5302 205.16 89.9302 205.52C89.9302 205.51 89.9302 205.5 89.9302 205.5C89.9302 203.94 88.6702 202.68 87.1102 202.68C86.2702 202.68 85.5202 203.05 85.0002 203.63C85.0102 203.51 85.0202 203.39 85.0202 203.27C85.0202 201.09 83.2502 199.32 81.0702 199.32C79.3802 199.32 77.9502 200.38 77.3802 201.86C76.8802 201.1 76.0102 200.59 75.0302 200.59C73.8902 200.59 72.9102 201.27 72.4702 202.24C71.7502 201.24 70.5802 200.59 69.2602 200.59C67.0802 200.59 65.3102 202.36 65.3102 204.54C65.3102 204.56 65.3102 204.57 65.3102 204.59C65.0002 204.47 64.6602 204.4 64.3102 204.4C62.7502 204.4 61.4902 205.66 61.4902 207.22C61.4902 207.34 61.5002 207.46 61.5102 207.57C61.2502 207.52 60.9902 207.49 60.7102 207.49C58.5302 207.49 56.7602 209.26 56.7602 211.44C56.7602 212.08 56.9102 212.69 57.1902 213.23C56.0002 213.56 55.1302 214.65 55.1302 215.94C55.1302 216.87 55.5902 217.7 56.2902 218.21C55.0002 218.42 53.5002 220.2 54.2202 222.16C53.8702 222.63 53.6602 223.21 53.6602 223.84C53.6602 224.75 54.0902 225.55 54.7602 226.07C53.3602 226.07 52.6902 230.48 56.1702 230.48C55.5402 231 55.1302 231.78 55.1302 232.66C55.1302 233.95 56.0002 235.04 57.1902 235.37C56.9202 235.91 56.7602 236.51 56.7602 237.16C56.7602 239.34 58.5302 241.11 60.7102 241.11C60.9802 241.11 61.2502 241.08 61.5102 241.03C61.5002 241.15 61.4902 241.26 61.4902 241.38C61.4902 242.94 62.7502 244.2 64.3102 244.2C64.6602 244.2 65.0002 244.13 65.3102 244.01C65.3102 244.03 65.3102 244.04 65.3102 244.06C65.3102 246.24 67.0802 248.01 69.2602 248.01C70.5802 248.01 71.7502 247.36 72.4702 246.36C72.9102 247.33 73.8902 248.01 75.0302 248.01C76.0102 248.01 76.8802 247.51 77.3802 246.74C77.9302 248.24 79.3702 249.29 81.0602 249.29Z" fill="#4D0100"/>
<path d="M77.2202 209.38C68.5002 209.38 61.4302 215.65 61.4302 225.89C61.4302 238.67 65.3402 245.03 69.7002 247.99C70.8302 247.86 71.8102 247.25 72.4502 246.37C72.8902 247.34 73.8702 248.02 75.0102 248.02C75.9902 248.02 76.8602 247.52 77.3602 246.75C77.9302 248.24 79.3702 249.29 81.0502 249.29C83.2302 249.29 85.0002 247.52 85.0002 245.34C85.0002 245.22 84.9902 245.1 84.9802 244.98C85.5002 245.56 86.2502 245.93 87.0902 245.93C87.1002 245.93 87.1102 245.93 87.1202 245.93C90.4202 242.4 93.0002 236.26 93.0002 225.89C93.0102 215.64 85.9402 209.38 77.2202 209.38Z" fill="#3D0000"/>
<path d="M98.6002 255.53C97.8102 254.66 96.9102 253.97 95.9302 253.55L83.1602 248.16V227.38H71.1802V248.15L58.4102 253.54C57.4402 253.95 56.5302 254.65 55.7402 255.52H98.6002V255.53Z" fill="#A25742"/>
<path d="M71.1802 244.22C73.4102 246.89 76.1002 247.66 78.1102 247.66C79.5802 247.66 81.4202 247.24 83.1702 245.97V227.38H71.1802V244.22Z" fill="#893D30"/>
<path d="M89.5902 226.02C89.5902 242.33 81.8402 245.6 77.2702 245.6C72.7002 245.6 64.9502 242.34 64.9502 226.02C64.9502 217.81 70.4702 212.79 77.2702 212.79C84.0702 212.79 89.5902 217.81 89.5902 226.02Z" fill="#AD5D4B"/>
<path d="M87.9802 225.87C87.9202 225.65 87.7902 225.5 87.5602 225.5C87.5602 225.5 80.5702 225.5 79.8102 225.5C79.1602 225.5 78.1702 225.96 77.2902 225.96C76.4102 225.96 75.4202 225.5 74.7702 225.5C74.0202 225.5 67.0202 225.5 67.0202 225.5C66.7902 225.5 66.6602 225.64 66.6002 225.87H64.4502V226.63H66.5902C66.8402 228.36 67.6902 231.5 68.1202 231.5H74.1202C74.8202 231.5 75.8402 229.99 76.2202 229.02C76.4502 228.42 76.9402 228.16 77.2902 228.16C77.6402 228.16 78.1302 228.42 78.3602 229.02C78.7402 229.98 79.7602 231.5 80.4602 231.5H86.4602C86.8902 231.5 87.7402 228.37 87.9902 226.63H90.1302V225.87H87.9802ZM74.1402 231.26C73.5802 231.26 68.9002 231.27 68.4302 231.27C67.9602 231.27 66.4702 226.12 67.7102 226.12C67.7102 226.12 73.6102 226.12 74.2102 226.12C77.6702 226.12 74.6902 231.26 74.1402 231.26ZM86.1502 231.27C85.6802 231.27 80.9902 231.26 80.4402 231.26C79.8802 231.26 76.9102 226.12 80.3702 226.12C80.9702 226.12 86.8702 226.12 86.8702 226.12C88.1002 226.12 86.6202 231.27 86.1502 231.27Z" fill="#003E4D"/>
<path opacity="0.3" d="M74.1404 231.26C73.5804 231.26 68.9004 231.27 68.4304 231.27C67.9604 231.27 66.4704 226.12 67.7104 226.12C67.7104 226.12 73.6104 226.12 74.2104 226.12C77.6704 226.12 74.6904 231.26 74.1404 231.26Z" fill="#E7EAE1"/>
<path opacity="0.3" d="M86.1501 231.27C85.6801 231.27 80.9901 231.26 80.4401 231.26C79.8801 231.26 76.9101 226.12 80.3701 226.12C80.9701 226.12 86.8701 226.12 86.8701 226.12C88.1001 226.12 86.6201 231.27 86.1501 231.27Z" fill="#E7EAE1"/>
<path d="M77.2702 212.79C70.4602 212.79 64.9502 217.81 64.9502 226.02C64.9502 226.53 64.9602 227.02 64.9702 227.5C65.1102 227.22 65.2302 226.93 65.2902 226.6C65.3502 226.27 65.3502 225.93 65.3002 225.62C66.4402 225.4 67.3902 224.56 67.7102 223.4C67.7702 223.41 67.8202 223.43 67.8802 223.44C69.2902 223.68 70.6602 223.23 71.6502 222.33C72.1002 222.81 72.7002 223.16 73.4002 223.28C74.2502 223.43 75.0802 223.21 75.7302 222.74C76.3502 223.76 77.3802 224.51 78.6402 224.73C79.9402 224.95 81.2102 224.56 82.1402 223.75C82.5902 224.46 83.3302 224.98 84.2202 225.13C84.9502 225.25 85.6702 225.11 86.2702 224.77C86.8102 226.09 87.9902 227.1 89.4902 227.36C89.5102 227.36 89.5202 227.36 89.5402 227.37C89.5402 227.52 89.5602 227.67 89.5802 227.82C89.6002 227.24 89.6202 226.64 89.6202 226.02C89.5902 217.81 84.0702 212.79 77.2702 212.79Z" fill="#3D0000"/>
<path d="M96.9204 227.44C96.2204 219.44 89.9004 207.8 82.7704 206.59C77.8404 205.75 72.0804 205.41 67.8004 208.47C63.4004 211.62 62.9204 214.78 61.5104 219.62C61.1704 220.79 61.3304 221.19 60.8204 222.18C60.3904 223.02 59.4004 223.18 59.1904 224.37C58.9004 226.05 60.0304 227.65 61.7204 227.94C63.4004 228.23 65.0004 227.1 65.2904 225.41C65.3504 225.08 65.3504 224.74 65.3004 224.43C66.4404 224.21 67.3904 223.37 67.7104 222.21C67.7704 222.22 67.8204 222.24 67.8804 222.25C69.2904 222.49 70.6604 222.04 71.6504 221.14C72.1004 221.62 72.7004 221.97 73.4004 222.09C74.2504 222.24 75.0804 222.02 75.7304 221.55C76.3504 222.57 77.3804 223.32 78.6404 223.54C79.9404 223.76 81.2104 223.37 82.1404 222.56C82.5904 223.27 83.3304 223.79 84.2204 223.94C84.9504 224.06 85.6704 223.92 86.2704 223.58C86.8104 224.9 87.9904 225.91 89.4904 226.17C89.5104 226.17 89.5204 226.17 89.5404 226.18C89.5504 227.29 90.1404 228.29 91.0804 228.83C90.9304 229.11 90.8204 229.43 90.7604 229.76C90.4704 231.44 91.6004 233.04 93.2904 233.33C94.9704 233.62 96.5704 232.49 96.8604 230.8C97.0004 229.78 97.0204 228.65 96.9204 227.44Z" fill="#4D0100"/>
<path d="M77.7203 196.44C71.6103 196.44 66.0703 198.87 62.0103 202.82L65.8603 216.4C67.5603 213.26 72.2203 211 77.7203 211C82.9703 211 87.4603 213.06 89.3403 215.97L93.1503 202.54C89.1103 198.77 83.6803 196.44 77.7203 196.44Z" fill="#DDDDDD"/>
<path d="M81.4203 203.12H78.5803V200.28H76.8603V203.12H74.0103V204.85H76.8603V207.69H78.5803V204.85H81.4203V203.12Z" fill="#16C4B3"/>
<path d="M76.7102 198.03C74.1402 197.73 65.8402 199.81 63.4302 203.33C63.4302 203.33 63.7702 205.73 64.8802 208.29C69.6502 204.27 76.7102 198.03 76.7102 198.03Z" fill="#F4F4F4"/>
<path d="M71.9003 215.06C70.3403 216.89 78.5403 218.52 83.4203 218.96C87.3303 219.32 90.6803 219.55 87.9003 216.19C82.9003 210.17 73.3603 213.34 71.9003 215.06Z" fill="#5B0909"/>
<path d="M62.2701 310.82L76.7801 316.63L90.9801 311.53C90.9801 311.53 94.7501 322.51 94.7501 333.47C94.7501 338.94 89.2501 382.43 89.2501 382.76L82.6301 434.47L78.2101 437.38L78.5001 406.69L78.7101 375.8C78.7101 375.8 78.1701 349.62 78.4201 342.78C78.5001 340.54 79.1801 333.85 79.1801 333.85L77.6601 333.8L74.9101 333.79C74.9101 333.79 75.6501 340.41 75.7501 342.62C76.0301 349.47 75.4301 375.68 75.4301 375.68L75.7501 406.38L75.5601 437.24L71.1601 435.39L64.7101 383.53C64.7101 381.27 59.3001 337.28 59.0401 333.35C58.6501 327.89 62.2701 310.82 62.2701 310.82Z" fill="#A25742"/>
<path d="M92.9099 311.07L92.6699 304.78H60.4399L60.2899 310.53C60.1099 311.14 55.6199 326.1 55.7899 331.3C55.8499 333.27 57.8399 345.6 59.8699 358.18C60.7899 363.89 62.5799 371.65 62.5799 375.19C62.5799 382.41 91.0899 382.4 91.4499 375.19C92.0799 362.65 98.1599 335.34 97.9699 331.37C97.4899 321.11 92.9499 311.17 92.9099 311.07Z" fill="#16C4B3"/>
<path d="M65.5001 365.17C62.8301 354.43 59.6101 341.5 59.2401 339.16C58.5001 334.51 58.9901 321.33 59.3601 313.75C58.0201 318.55 55.6701 327.52 55.7901 331.29C55.8501 333.26 57.2701 345.45 59.3001 358.03C60.2201 363.74 61.2101 369.79 61.9901 374.98C62.5401 378.62 68.3701 379.63 68.3701 379.63C67.6401 376.7 66.3801 368.71 65.5001 365.17Z" fill="#0EAF9C"/>
<path d="M94.0099 313.77C94.6499 319.62 95.4599 330.05 94.5099 339.25C93.9799 344.35 87.3599 369.37 84.6499 379.83C84.6499 379.83 89.1199 379.03 90.8199 376.82C93.1799 373.75 98.1599 335.35 97.9699 331.37C97.6399 324.31 95.3899 317.4 94.0099 313.77Z" fill="#0EAF9C"/>
<path d="M69.7499 432.55C69.7499 432.55 67.0799 436.94 66.8599 438.41C66.6399 439.88 66.1699 444.01 67.3799 444.53C68.5899 445.05 73.6599 445.14 74.3499 444.7C75.0399 444.27 76.5099 441.35 76.6399 439.7C76.7699 438.05 75.7799 431.47 75.7799 431.47L69.7499 432.55Z" fill="#0EAF9C"/>
<path d="M69.87 432.01C69.87 432.01 67.12 437.5 68.91 439.67C69.63 440.54 76.06 438.88 75.78 431.52C75.51 424.17 69.87 432.01 69.87 432.01Z" fill="#A25742"/>
<path d="M83.9901 432.55C83.9901 432.55 86.6601 436.94 86.8801 438.41C87.1001 439.88 87.5701 444.01 86.3601 444.53C85.1501 445.05 80.0801 445.14 79.3901 444.7C78.7001 444.27 77.2301 441.35 77.1001 439.7C76.9701 438.05 77.9601 431.47 77.9601 431.47L83.9901 432.55Z" fill="#0EAF9C"/>
<path d="M83.8701 432.01C83.8701 432.01 86.6201 437.5 84.8301 439.67C84.1101 440.54 77.6801 438.88 77.9601 431.52C78.2401 424.17 83.8701 432.01 83.8701 432.01Z" fill="#A25742"/>
<path d="M92.5699 306.82L101.75 261.34C101.75 257.81 99.2999 253.92 96.2799 252.65L83.4299 247.25C80.5599 252.33 77.1699 254.67 77.1699 254.67C77.1699 254.67 73.7999 252.18 71.0099 247.25L58.1599 252.65C55.1399 253.92 52.6899 257.81 52.6899 261.34L62.6199 306.82H92.5699Z" fill="#16C4B3"/>
<path d="M103.74 344.29C102.5 332.74 95.4601 309.04 95.3701 299.97C95.2701 289.88 102.63 260.82 102.63 260.82C102.63 257.44 99.5701 253.05 96.4201 251.83L86.3901 247.97L78.0801 289.97L78.3801 355.56C78.3801 355.56 104.61 352.45 103.74 344.29Z" fill="#DDDDDD"/>
<path d="M90.46 253.87L89.79 249.72L96.95 252.59C100.02 253.77 90.46 253.87 90.46 253.87Z" fill="#F4F4F4"/>
<path d="M91.2097 265.08L89.0497 261.74L90.2197 258.31L88.8497 248.92L86.3797 247.96L78.4497 288.09L91.2097 265.08Z" fill="#F4F4F4"/>
<path d="M98.4299 270.06H87.9399V275.32H98.4299V270.06Z" fill="#003E4D"/>
<path d="M98.16 270.34H88.23V275.03H98.16V270.34Z" fill="#F4F4F4"/>
<path d="M93.88 269.5H92.5V270.66H93.88V269.5Z" fill="#B7BDBD"/>
<path d="M92.0301 270.8H88.8901V274.67H92.0301V270.8Z" fill="#B7BDBD"/>
<g opacity="0.2">
<path d="M98.33 317.76C96.85 320.98 94.95 324.53 92.56 328.52C90.39 329.96 95.26 336.04 96.85 335.02C98.35 333.12 99.71 331.23 100.94 329.34C100.1 325.54 99.18 321.57 98.33 317.76Z" fill="#48545B"/>
</g>
<path d="M94.2602 325.99C92.4902 326.85 88.8702 328.74 89.4202 329.6C90.1502 330.73 87.8302 332.82 86.8802 334.01C85.9302 335.2 93.9402 340.05 95.8302 337.74C96.7902 336.56 97.9002 333.32 98.7602 330.43C97.5302 330.22 95.3902 328.03 94.2602 325.99Z" fill="#A25742"/>
<path d="M86.9001 327.67C86.9001 327.67 85.6601 349.83 87.7001 349.54C89.7401 349.25 98.1901 346.9 99.9401 343.42C101.69 339.93 98.1901 332.05 98.1901 332.05L86.9001 327.67Z" fill="#F4F4F4"/>
<path d="M99.3099 330.37C97.7199 331.38 91.8099 324.18 93.9799 322.74C109.64 296.55 105.27 293.71 99.2599 275.26C100.46 268.13 95.5799 257.78 97.8599 257.13L97.8399 252.83C106.15 257.64 106.29 262.95 109.43 271.2C114.19 283.73 117.62 307.26 99.3099 330.37Z" fill="#DDDDDD"/>
<path d="M50.92 344.29C52.16 332.74 59.2 309.04 59.29 299.97C59.39 289.88 52.03 260.82 52.03 260.82C52.03 257.44 55.09 253.05 58.24 251.83L68.28 247.97L79.51 292.31L78.37 355.57C78.38 355.56 50.05 352.45 50.92 344.29Z" fill="#DDDDDD"/>
<path d="M64.1998 253.87L64.8698 249.72L57.7098 252.59C54.6398 253.77 64.1998 253.87 64.1998 253.87Z" fill="#F4F4F4"/>
<path d="M63.4502 265.08L65.6102 261.74L64.4402 258.31L65.8102 248.92L68.2802 247.96L79.5102 292.3L63.4502 265.08Z" fill="#F4F4F4"/>
<g opacity="0.2">
<path d="M56.3302 317.76C57.8102 320.98 59.7102 324.53 62.1002 328.52C64.2702 329.96 59.4002 336.04 57.8102 335.02C56.3102 333.12 54.9502 331.23 53.7202 329.34C54.5702 325.54 55.4902 321.57 56.3302 317.76Z" fill="#48545B"/>
</g>
<path d="M60.3999 325.99C62.1699 326.85 65.7899 328.74 65.2399 329.6C64.5099 330.73 66.8299 332.82 67.7799 334.01C68.7299 335.2 60.7199 340.05 58.8299 337.74C57.8699 336.56 56.7599 333.32 55.8999 330.43C57.1299 330.22 59.2699 328.03 60.3999 325.99Z" fill="#A25742"/>
<path d="M67.76 327.67C67.76 327.67 69 349.83 66.96 349.54C64.92 349.25 56.47 346.9 54.72 343.42C52.97 339.93 56.47 332.05 56.47 332.05L67.76 327.67Z" fill="#F4F4F4"/>
<path d="M55.35 330.37C56.94 331.38 62.85 324.18 60.68 322.74C45.02 296.55 49.39 293.71 55.4 275.26C54.2 268.13 59.08 257.78 56.8 257.13L56.82 252.83C48.51 257.64 48.37 262.95 45.23 271.2C40.47 283.73 37.04 307.26 55.35 330.37Z" fill="#DDDDDD"/>
<path opacity="0.3" d="M534.34 442.76C534.34 439 520.53 435.95 503.49 435.95C486.45 435.95 472.64 439 472.64 442.76C472.64 446.52 486.45 449.57 503.49 449.57C520.52 449.58 534.34 446.53 534.34 442.76Z" fill="black"/>
<path d="M535.539 285.83V253.7C535.539 249.92 532.359 245.75 528.449 244.39L512.239 239.09V216.81H495.219V239.1L479.009 244.4C475.089 245.76 471.919 249.93 471.919 253.71V285.84H535.539V285.83Z" fill="#994D3C"/>
<path d="M517.899 212.28C517.899 231.52 509.049 235.37 503.829 235.37C498.609 235.37 489.759 231.52 489.759 212.28C489.759 202.6 496.059 196.67 503.829 196.67C511.599 196.67 517.899 202.59 517.899 212.28Z" fill="#AD5D4B"/>
<path d="M492.319 216.03C492.889 219.07 492.219 221.76 490.809 222.02C489.409 222.28 487.809 220.03 487.229 216.98C486.659 213.94 487.329 211.25 488.739 210.99C490.149 210.74 491.749 212.99 492.319 216.03Z" fill="#AD5D4B"/>
<path d="M515.129 216.03C514.559 219.07 515.229 221.76 516.639 222.02C518.039 222.28 519.639 220.03 520.219 216.98C520.789 213.94 520.119 211.25 518.709 210.99C517.299 210.74 515.699 212.99 515.129 216.03Z" fill="#AD5D4B"/>
<path d="M520.5 320.77L535.63 253.7C535.63 249.9 532.42 245.69 528.48 244.32L512.29 238.99L503.93 244.22L495.17 238.98L478.98 244.31C475.04 245.68 471.83 249.88 471.83 253.69L483.85 323.14L520.5 320.77Z" fill="#E7EAE1"/>
<path d="M495.209 219.61V231.97C497.809 236.32 501.319 238.14 503.719 238.57C506.119 239 509.629 238.7 512.229 235.44V222.65L503.719 218.99L495.209 219.61Z" fill="#893D30"/>
<path d="M516.45 218.26L503.72 215.41L490.99 218.26C491.42 222.37 492.6 228.3 492.6 228.3C495.63 233.89 500.52 235.52 503.72 235.52C506.92 235.52 511.81 234.26 514.84 228.81C514.84 228.81 516.03 222.31 516.45 218.26Z" fill="#E7EAE1"/>
<path d="M503.719 216.02V221.54C503.719 221.54 493.349 224.04 491.729 218.82L503.719 216.02Z" fill="#F6F7F5"/>
<path d="M506.97 244.27H500.95V248.02L502.44 249.41L501.34 281.44L503.95 283.44L506.57 281.44L505.46 249.4L506.97 248.02V244.27Z" fill="#003E4D"/>
<path d="M503.92 244.23L499.15 250.45L492.05 240.2L495.21 237.14L503.92 244.23Z" fill="#F6F7F5"/>
<path d="M503.919 244.23L508.879 250.45L515.399 240.2L512.219 237.14L503.919 244.23Z" fill="#F6F7F5"/>
<path d="M516.18 207.03C516.47 206.92 516.77 206.85 517.09 206.82C515.14 200.55 509.94 196.87 503.82 196.87C496.73 196.87 490.89 201.78 489.89 209.96C489.94 210.43 489.97 210.92 489.97 211.42C489.97 211.42 491.62 208.07 491.55 204.95C491.51 203.33 496 199.92 503.68 203.98C511.8 202.11 515.52 205.47 516.18 207.03Z" fill="#994D3C"/>
<path d="M492.11 196.19C486.9 203.05 489.96 206.13 489.96 211.33C489.96 211.33 491.61 207.82 491.54 204.7C491.5 203.08 495.99 199.23 503.67 202.53C512.72 199.55 516.31 203.59 516.31 204.78C516.31 207.16 515.57 206.48 517.53 211.76C519.21 205.1 519.88 201.05 515.13 195.31C510.43 189.63 498.45 187.83 492.11 196.19Z" fill="#3A3A3A"/>
<path d="M489.89 209.93L489.25 211.08L491.16 219.68L491.579 218.24L489.89 209.93Z" fill="#E7EAE1"/>
<path d="M517.5 209.93L518.14 211.08L516.23 219.68L515.81 218.24L517.5 209.93Z" fill="#E7EAE1"/>
<path d="M509.049 195C497.269 195.52 492.919 201.63 492.919 198.31C492.919 194.99 497.149 191.86 502.379 191.32C507.609 190.78 512.369 194.86 509.049 195Z" fill="#494949"/>
<path d="M523 313.3L503.93 313.87L485.28 314.07C485.28 314.07 484.01 326.12 484.01 338.14C484.01 344.14 489.55 435.1 489.55 435.1L498.9 434.86L502.73 338.54L502.78 338.49L504.73 338.48L509.21 436.07L519.11 436.24C519.11 436.24 524.28 341.33 524.63 337.02C525.13 331.04 523 313.3 523 313.3Z" fill="#0269AF"/>
<path d="M530.88 352.52C530.88 319.96 535.12 254.1 535.12 254.1C535.12 249.89 531.92 245.23 527.99 243.71L514.44 238.45C514.44 238.45 508.22 314.19 520.65 321.48C521.99 358.19 530.88 357.94 530.88 352.52Z" fill="#DDDDDD"/>
<path d="M520.53 258.92L518.3 251.99L520.05 250.87L518.88 239.9C518.88 239.9 514.62 236.99 514.44 238.17C510.63 262.56 513.25 292.46 513.25 292.46L520.53 258.92Z" fill="#F4F4F4"/>
<path d="M528.25 244.23L519.78 241.22L520.68 245.98C524.92 245.68 530.44 245.14 528.25 244.23Z" fill="#F6F7F5"/>
<path d="M528.83 262.36H518.38V267.6H528.83V262.36Z" fill="#003E4D"/>
<path d="M528.55 262.64H518.66V267.32H528.55V262.64Z" fill="#F4F4F4"/>
<path d="M524.29 261.8H522.92V262.95H524.29V261.8Z" fill="#B7BDBD"/>
<path d="M522.45 263.1H519.32V266.95H522.45V263.1Z" fill="#B7BDBD"/>
<path d="M499.49 442.01C499.49 443.69 497.56 445.05 495.17 445.05H492.29C489.91 445.05 487.97 443.69 487.97 442.01V435.53C487.97 433.85 489.9 433.58 492.29 433.58H495.17C497.55 433.58 499.49 433.85 499.49 435.53V442.01Z" fill="#003E61"/>
<path d="M499.49 440.26C499.49 441.52 497.56 442.53 495.17 442.53H492.29C489.91 442.53 487.97 441.51 487.97 440.26V435.41C487.97 434.15 489.9 431.45 492.29 431.45H495.17C497.55 431.45 499.49 434.15 499.49 435.41V440.26Z" fill="#3F5E77"/>
<path d="M519.93 442.01C519.93 443.69 518 445.05 515.61 445.05H512.73C510.35 445.05 508.41 443.69 508.41 442.01V435.53C508.41 433.85 510.34 433.58 512.73 433.58H515.61C517.99 433.58 519.93 433.85 519.93 435.53V442.01Z" fill="#003E61"/>
<path d="M519.93 440.26C519.93 441.52 518 442.53 515.61 442.53H512.73C510.35 442.53 508.41 441.51 508.41 440.26V435.41C508.41 434.15 510.34 431.45 512.73 431.45H515.61C517.99 431.45 519.93 434.15 519.93 435.41V440.26Z" fill="#3F5E77"/>
<path d="M528.13 272.05C530.31 290.21 527.08 294.27 519.44 319.86C519.33 319.93 519.23 320.04 519.14 320.17C519.61 320.72 520.1 321.17 520.64 321.48C520.85 327.12 521.23 331.89 521.74 335.9C525.59 331.92 528.81 328.02 531.5 324.21C532.17 305.92 533.23 285.97 534.03 272.05H528.13Z" fill="#B7BDBD"/>
<path d="M527.76 326.72C525.96 327.84 518.72 318.44 521.17 316.84C531.69 291.29 533.59 290.68 528.08 271.64C529.79 264.14 526.58 248.9 529.1 248.12L529.29 244.34C538.08 249.03 537.97 253.85 540.92 262.34C545.42 275.26 551.92 296.55 527.76 326.72Z" fill="#DDDDDD"/>
<path d="M513.44 328.51C516.07 330.19 518.69 331.89 521.46 333.36C522.34 331.72 525.38 327.69 526.17 325.51C524.84 325.34 522.64 323.14 521.52 321.05C519.54 322.02 515.92 323.08 515.39 323.97C514.33 325.74 514.03 327.73 513.44 328.51Z" fill="#EAB794"/>
<path d="M475.91 352.52C475.91 319.96 471.67 254.1 471.67 254.1C471.67 249.89 474.87 245.23 478.8 243.71L492.35 238.45C492.35 238.45 498.57 314.19 486.14 321.48C484.79 358.19 475.91 357.94 475.91 352.52Z" fill="#DDDDDD"/>
<path d="M486.26 258.92L488.49 251.99L486.74 250.87L487.91 239.9C487.91 239.9 492.17 236.99 492.35 238.17C496.16 262.56 493.54 292.46 493.54 292.46L486.26 258.92Z" fill="#F4F4F4"/>
<path d="M478.54 244.23L487.01 241.22L486.11 245.98C481.86 245.68 476.35 245.14 478.54 244.23Z" fill="#F6F7F5"/>
<path d="M478.65 272.05C476.47 290.21 479.7 294.27 487.34 319.86C487.45 319.93 487.55 320.04 487.64 320.17C487.17 320.72 486.68 321.17 486.14 321.48C485.93 327.12 485.55 331.89 485.04 335.9C481.19 331.92 477.97 328.02 475.28 324.21C474.61 305.92 473.55 285.97 472.75 272.05H478.65Z" fill="#B7BDBD"/>
<path d="M479.02 326.72C480.82 327.84 488.06 318.44 485.61 316.84C475.09 291.29 473.19 290.68 478.7 271.64C476.99 264.14 480.2 248.9 477.68 248.12L477.49 244.34C468.7 249.03 468.81 253.85 465.86 262.34C461.36 275.26 454.86 296.55 479.02 326.72Z" fill="#DDDDDD"/>
<path d="M493.35 328.51C490.72 330.19 488.1 331.89 485.33 333.36C484.45 331.72 481.41 327.69 480.62 325.51C481.95 325.34 484.15 323.14 485.27 321.05C487.25 322.02 490.87 323.08 491.4 323.97C492.45 325.74 492.76 327.73 493.35 328.51Z" fill="#EAB794"/>
<path opacity="0.3" d="M442.61 456.93C459.648 456.93 473.46 453.881 473.46 450.12C473.46 446.359 459.648 443.31 442.61 443.31C425.572 443.31 411.76 446.359 411.76 450.12C411.76 453.881 425.572 456.93 442.61 456.93Z" fill="black"/>
<path d="M458.42 217.26L428.67 218.53C428.67 225.87 428.87 233.33 427.44 238.49C432.52 244.27 451.07 244.47 459.95 238.41C457.13 229.05 458.42 217.26 458.42 217.26Z" fill="#494949"/>
<path d="M453.28 241.4C455.78 237.99 457.63 232.54 457.63 223.99C457.63 221.51 457.19 219.28 456.4 217.34L429.93 218.47C429.4 220.13 429.1 221.97 429.1 223.99C429.1 232.94 431.11 238.49 433.8 241.86C439.36 243.35 446.98 243.23 453.28 241.4Z" fill="#3A3A3A"/>
<path d="M443.91 266.45L462.26 248.1L449.73 243.27V224.93H436.39V243.27L425.08 247.62L443.91 266.45Z" fill="#E29A59"/>
<path d="M448.28 273.97L469.42 257.16C469.42 253.68 466.79 249.85 463.54 248.6L453.99 244.92C450.9 249.92 446.48 251.25 443.34 251.25C440.17 251.25 435.68 249.89 432.58 244.73L422.54 248.59C419.29 249.84 416.66 253.67 416.66 257.15L437.3 272.78L448.28 273.97Z" fill="#DDDDDD"/>
<path d="M464.4 344.13C464.4 344.13 469.54 316.84 464.75 305.22C454.84 281.17 469.85 257.15 469.85 257.15C469.85 253.52 467.09 249.5 463.7 248.19L452.91 244.04L443.3 270.26L433.2 244.04L422.41 248.19C419.02 249.5 416.26 253.51 416.26 257.15C416.26 257.15 431.39 284.09 422.14 306.35C416.95 318.85 421.44 344.78 421.44 344.78L464.4 344.13Z" fill="#017DE1"/>
<path d="M451.52 252.02L453.82 245.41L464.14 249.55C467.43 250.82 451.52 252.02 451.52 252.02Z" fill="#31ACFF"/>
<path d="M436.39 238.33C439.09 241.51 442.37 242.43 444.82 242.43C446.26 242.43 448 242.11 449.74 241.19V227.89H436.39V238.33Z" fill="#D67F43"/>
<path d="M457.63 216.59C457.63 235.48 448.66 239.26 443.36 239.26C438.07 239.26 429.09 235.48 429.09 216.59C429.09 207.08 435.48 201.27 443.36 201.27C451.24 201.27 457.63 207.09 457.63 216.59Z" fill="#EFAF6A"/>
<path d="M443.36 201.27C435.74 201.27 429.54 206.71 429.13 215.66C439.89 214.83 444.79 212.86 446.96 209.03C449.29 212.51 452.78 214.25 457.53 214.66C456.72 206.31 450.69 201.27 443.36 201.27Z" fill="#E29A59"/>
<path d="M460.85 214.74C462.63 202.42 455.04 191.62 446.09 194.05C439.6 189.37 424.14 189.75 425.27 215.9C438.77 215.25 444.55 210.41 446.96 206.15C449.81 210.4 454.38 214.94 460.85 214.74Z" fill="#494949"/>
<path d="M430.7 219.38C431.32 222.67 430.59 225.56 429.07 225.84C427.56 226.12 425.83 223.69 425.21 220.4C424.59 217.11 425.32 214.22 426.83 213.94C428.36 213.66 430.08 216.09 430.7 219.38Z" fill="#EFAF6A"/>
<path d="M455.31 219.38C454.69 222.67 455.42 225.56 456.94 225.84C458.45 226.12 460.18 223.69 460.8 220.4C461.42 217.11 460.69 214.22 459.17 213.94C457.66 213.66 455.93 216.09 455.31 219.38Z" fill="#EFAF6A"/>
<path d="M431.49 196.39C430.83 197.1 428.52 201.04 428.15 204.18C427.98 205.62 446.68 195.89 444.18 194.7C442.7 193.99 436.18 191.35 431.49 196.39Z" fill="#606060"/>
<path d="M460.15 267.8H448.87V273.45H460.15V267.8Z" fill="#003E4D"/>
<path d="M459.839 268.1H449.169V273.15H459.839V268.1Z" fill="#F4F4F4"/>
<path d="M455.25 267.2H453.77V268.44H455.25V267.2Z" fill="#B7BDBD"/>
<path d="M453.27 268.6H449.89V272.76H453.27V268.6Z" fill="#B7BDBD"/>
<path d="M466.72 323.4C459.96 326.04 452.36 327.52 443.25 327.52C434.44 327.52 426.29 326.06 419.65 323.58C419.65 334.37 421.45 344.77 421.45 344.79L434.64 447.18H442.12L441.72 344.49L444.05 344.45L443.65 447.18H451.13L465.81 336.57C466.35 332.82 466.82 328.11 466.72 323.4Z" fill="#0269AF"/>
<path d="M442.62 449.34C442.62 450.67 441.09 451.74 439.2 451.74H436.92C435.03 451.74 433.5 450.66 433.5 449.34V444.21C433.5 442.88 435.03 442.67 436.92 442.67H439.2C441.09 442.67 442.62 442.89 442.62 444.21V449.34Z" fill="#003E61"/>
<path d="M442.62 447.96C442.62 448.95 441.09 449.76 439.2 449.76H436.92C435.03 449.76 433.5 448.95 433.5 447.96V444.12C433.5 443.13 435.03 440.99 436.92 440.99H439.2C441.09 440.99 442.62 443.13 442.62 444.12V447.96Z" fill="#DDDDDD"/>
<path d="M452.31 449.34C452.31 450.67 450.78 451.74 448.89 451.74H446.61C444.72 451.74 443.19 450.66 443.19 449.34V444.21C443.19 442.88 444.72 442.67 446.61 442.67H448.89C450.78 442.67 452.31 442.89 452.31 444.21V449.34Z" fill="#003E61"/>
<path d="M452.31 447.96C452.31 448.95 450.78 449.76 448.89 449.76H446.61C444.72 449.76 443.19 448.95 443.19 447.96V444.12C443.19 443.13 444.72 440.99 446.61 440.99H448.89C450.78 440.99 452.31 443.13 452.31 444.12V447.96Z" fill="#DDDDDD"/>
<path d="M454.7 317.53L432.47 317.54L429.21 279.94L457.92 279.93L454.7 317.53Z" fill="#F4F4F4"/>
<path d="M435.51 294.53C434.09 294.59 431.39 294.59 430.73 293.57C430.07 292.55 422.79 295.35 422.79 295.35L422.69 300.53C422.69 300.53 428.48 301.92 431.27 301.88C441.43 301.74 449.25 293.93 435.51 294.53Z" fill="#EAB794"/>
<path d="M421.97 301.46C424.1 301.35 426.14 293.17 423.2 293.26C417.84 291.32 414.5 289.36 413.63 286.84C412.42 283.35 419.84 273.62 424.3 268.23C428.18 258.87 420.45 250.04 420.45 250.04C414.24 253.98 399.69 284.21 402.08 293.32C403.06 297.07 412.03 298.94 421.97 301.46Z" fill="#017DE1"/>
<path d="M451.76 294.53C453.19 294.59 455.88 294.59 456.54 293.57C457.2 292.55 464.49 295.35 464.49 295.35L464.59 300.53C464.59 300.53 458.79 301.92 456.01 301.88C445.83 301.74 438.02 293.93 451.76 294.53Z" fill="#EAB794"/>
<path d="M465.31 301.46C463.18 301.35 461.13 293.17 464.08 293.26C469.44 291.32 472.78 289.36 473.65 286.84C474.86 283.35 467.44 273.62 462.98 268.23C459.1 258.87 465.4 249.87 465.4 249.87C471.61 253.81 487.6 284.21 485.21 293.31C484.23 297.07 475.26 298.94 465.31 301.46Z" fill="#017DE1"/>
<path d="M421.51 249.5L432.04 245.41L435.49 253.27C435.49 253.27 412.49 254.25 421.51 249.5Z" fill="#31ACFF"/>
<path d="M457.79 281.56L457.92 279.93L429.21 279.94L429.35 281.56H457.79Z" fill="#B7BDBD"/>
<path opacity="0.3" d="M146.34 458.46C167.211 458.46 184.13 454.726 184.13 450.12C184.13 445.514 167.211 441.78 146.34 441.78C125.469 441.78 108.55 445.514 108.55 450.12C108.55 454.726 125.469 458.46 146.34 458.46Z" fill="black"/>
<path d="M175.04 259.33V254.21C175.04 250.37 172.14 246.14 168.55 244.76L154.58 239.38V216.76H137.3V239.38L123.33 244.76C119.75 246.14 116.84 250.37 116.84 254.21V259.33H175.04V259.33Z" fill="#E29A59"/>
<path d="M137.3 219.6V232.15C139.94 236.56 143.5 238.42 145.94 238.85C148.38 239.29 151.94 238.98 154.58 235.67V222.69L145.94 218.97L137.3 219.6Z" fill="#D67F43"/>
<path d="M160.26 212.31C160.26 231.85 151.25 235.75 145.94 235.75C140.63 235.75 131.62 231.84 131.62 212.31C131.62 202.48 138.03 196.46 145.94 196.46C153.85 196.47 160.26 202.48 160.26 212.31Z" fill="#EFAF6A"/>
<path d="M134.37 215.98C134.95 219.07 134.27 221.79 132.84 222.06C131.42 222.33 129.79 220.04 129.21 216.95C128.63 213.86 129.31 211.14 130.74 210.87C132.16 210.59 133.79 212.88 134.37 215.98Z" fill="#EFAF6A"/>
<path d="M157.52 215.98C156.94 219.07 157.62 221.79 159.05 222.06C160.47 222.33 162.1 220.04 162.68 216.95C163.26 213.86 162.58 211.14 161.15 210.87C159.73 210.59 158.1 212.88 157.52 215.98Z" fill="#EFAF6A"/>
<path d="M160.19 210.66C154.52 203.03 137.76 201.45 131.69 210.76C131.69 210.77 131.69 210.78 131.69 210.79C131.68 210.8 143.33 200.19 160.19 210.66Z" fill="#E29A59"/>
<path d="M159.3 206.22C158.65 224.17 155.07 233.08 145.94 233.08C136.77 233.08 133.23 224.17 132.58 206.22C131.97 208.04 131.62 210.07 131.62 212.32C131.62 231.86 140.63 236.67 145.94 236.67C151.25 236.67 160.26 231.86 160.26 212.32C160.26 210.07 159.91 208.04 159.3 206.22Z" fill="#474747"/>
<path d="M131.63 198.31V210.85C137.66 201.43 154.54 203.01 160.21 210.68V197.9C157.31 193.96 151.47 187.9 145.65 187.89C140.1 187.88 134.57 193.71 131.63 198.31Z" fill="#017DE1"/>
<path d="M145.69 188.69C142.03 188.65 135.37 193.89 132.62 198.82C132.62 198.82 132.62 201.51 132.62 203.48C143.15 197.38 145.69 188.69 145.69 188.69Z" fill="#31ACFF"/>
<path d="M144.29 230.79L142.1 232.98L144.19 235.07H147.89L149.98 232.98L147.79 230.79H144.29Z" fill="#474747"/>
<path d="M140.85 225.12C139.36 226.61 140.85 233.57 140.85 233.57H141.89C141.89 233.57 140.69 228 141.89 226.81C143.34 225.36 148.66 225.36 150.12 226.81C151.32 228.01 150.12 233.57 150.12 233.57H151.16C151.16 233.57 152.65 226.61 151.16 225.12C149.34 223.3 142.67 223.3 140.85 225.12Z" fill="#474747"/>
<path d="M124.73 372.04C124.03 372.03 123.33 372.01 122.63 372C124.45 391.45 125.97 407.02 127.36 421.28C127.48 422.55 127.84 428.4 127.95 429.52C128.05 430.55 126.21 436.06 126.3 436.95C126.75 441.51 128.89 442.93 128.89 442.93L140.95 443.72L142.15 438.04L141.2 431.86L142.43 372.38C136.53 372.28 130.63 372.16 124.73 372.04Z" fill="#0269AF"/>
<path d="M147.7 372.47L150.45 432.45L149.23 437.84L150.95 443.4L161.78 443.58C161.78 443.58 163.83 441.86 164.24 437.27C164.35 436.03 162.65 429.94 162.78 428.45C164.05 414.43 166.29 393.64 168.17 372.74C161.35 372.69 154.53 372.59 147.7 372.47Z" fill="#0269AF"/>
<path d="M171.47 385.17C171.47 368.82 171.35 330.73 173.57 299.78C175.37 274.67 179.6 254.2 179.6 254.2C179.6 250.04 176.21 245.44 172.04 243.94L155.91 238.11L145.6 259.14L135.8 238.11L119.67 243.94C115.5 245.44 112.11 250.04 112.11 254.2C112.11 254.2 115.86 270.43 117.8 300.29C119.58 327.65 119.57 368.01 119.57 385.09C119.58 392.61 171.47 392.41 171.47 385.17Z" fill="#017DE1"/>
<path d="M153.97 245.93L156.47 239.23L171.71 244.74C175.3 246.03 153.97 245.93 153.97 245.93Z" fill="#31ACFF"/>
<path d="M120.01 244.74L135.24 239.24L140.22 249.82C140.22 249.82 106.96 251.14 120.01 244.74Z" fill="#31ACFF"/>
<path d="M166.8 261.66H155.37V267.39H166.8V261.66Z" fill="#003E4D"/>
<path d="M166.5 261.97H155.68V267.08H166.5V261.97Z" fill="#F4F4F4"/>
<path d="M161.84 261.05H160.34V262.31H161.84V261.05Z" fill="#B7BDBD"/>
<path d="M159.829 262.47H156.399V266.68H159.829V262.47Z" fill="#B7BDBD"/>
<path d="M140.96 450.94C140.96 452.77 138.85 454.26 136.24 454.26H133.09C130.48 454.26 128.37 452.77 128.37 450.94V443.86C128.37 442.03 130.48 441.73 133.09 441.73H136.24C138.85 441.73 140.96 442.03 140.96 443.86V450.94Z" fill="#003E61"/>
<path d="M140.96 449.03C140.96 450.4 138.85 451.52 136.24 451.52H133.09C130.48 451.52 128.37 450.41 128.37 449.03V443.72C128.37 442.35 130.48 439.39 133.09 439.39H136.24C138.85 439.39 140.96 442.34 140.96 443.72V449.03Z" fill="#3F5E77"/>
<path d="M162.71 450.94C162.71 452.77 160.6 454.26 157.99 454.26H154.84C152.23 454.26 150.12 452.77 150.12 450.94V443.86C150.12 442.03 152.23 441.73 154.84 441.73H157.99C160.6 441.73 162.71 442.03 162.71 443.86V450.94Z" fill="#003E61"/>
<path d="M162.71 449.03C162.71 450.4 160.6 451.52 157.99 451.52H154.84C152.23 451.52 150.12 450.41 150.12 449.03V443.72C150.12 442.35 152.23 439.39 154.84 439.39H157.99C160.6 439.39 162.71 442.34 162.71 443.72V449.03Z" fill="#3F5E77"/>
<path d="M171.47 272.48C173.7 291.08 170.4 295.24 162.57 321.44C162.46 321.51 158.58 325.41 158.49 325.54C161.53 327.39 164.11 331.16 164.62 335.27C166.65 333.54 169.34 333.94 172.09 330.04C172.77 311.31 176.69 286.74 177.51 272.47H171.47V272.48Z" fill="#0269AF"/>
<path d="M171.09 328.46C169.25 329.61 161.83 319.98 164.35 318.34C175.12 292.17 177.07 291.54 171.43 272.05C173.18 264.37 169.89 248.76 172.48 247.96L172.67 244.09C181.67 248.89 181.56 253.83 184.59 262.53C189.18 275.77 195.84 297.57 171.09 328.46Z" fill="#017DE1"/>
<path d="M156.42 330.3C159.11 332.02 161.79 333.76 164.63 335.27C165.53 333.59 169.06 330.51 169.87 328.27C168.88 327.8 165.87 324.38 164.73 322.24C162.7 323.23 158.96 324.74 158.42 325.65C157.34 327.46 157.03 329.5 156.42 330.3Z" fill="#EAB794"/>
<path d="M120.8 272.48C117.56 292.25 122.28 300.07 134.37 326.64C134.48 326.71 128.16 331.17 127.64 335.28C125.59 335.52 121.77 333.37 119.02 329.47C118.34 310.74 115.57 286.74 114.75 272.48H120.8V272.48Z" fill="#0269AF"/>
<path d="M121.18 328.46C123.02 329.61 130.44 319.98 127.93 318.34C117.16 292.17 115.21 291.54 120.85 272.05C119.1 264.37 122.39 248.76 119.8 247.96L119.61 244.09C110.61 248.89 110.72 253.83 107.69 262.53C103.09 275.77 96.4301 297.57 121.18 328.46Z" fill="#017DE1"/>
<path d="M135.85 330.3C133.16 332.02 130.48 333.76 127.64 335.27C126.74 333.59 123.22 330.49 122.42 328.26C124.33 326.92 126.3 324.04 127.54 322.26C129.57 323.25 133.32 324.74 133.86 325.65C134.93 327.46 135.24 329.5 135.85 330.3Z" fill="#EAB794"/>
<path d="M134.83 348.27C136.06 342.27 135.83 332.36 135.83 321.59C132.59 325.28 120.94 330.88 120.94 330.88C120.94 339.4 121.53 344.83 122.61 348.28H134.83V348.27Z" fill="#31ACFF"/>
<path d="M157.05 348.27C155.82 342.27 156.05 332.36 156.05 321.59C159.29 325.28 170.94 330.88 170.94 330.88C170.94 339.4 170.35 344.83 169.27 348.28H157.05V348.27Z" fill="#31ACFF"/>
<path opacity="0.3" d="M292.19 483.98C319.881 483.98 342.33 479.024 342.33 472.91C342.33 466.796 319.881 461.84 292.19 461.84C264.498 461.84 242.05 466.796 242.05 472.91C242.05 479.024 264.498 483.98 292.19 483.98Z" fill="black"/>
<path opacity="0.3" d="M218.61 468.23C239.481 468.23 256.4 464.496 256.4 459.89C256.4 455.284 239.481 451.55 218.61 451.55C197.739 451.55 180.82 455.284 180.82 459.89C180.82 464.496 197.739 468.23 218.61 468.23Z" fill="black"/>
<path opacity="0.3" d="M365.45 468.23C386.321 468.23 403.24 464.496 403.24 459.89C403.24 455.284 386.321 451.55 365.45 451.55C344.579 451.55 327.66 455.284 327.66 459.89C327.66 464.496 344.579 468.23 365.45 468.23Z" fill="black"/>
<path d="M202.95 313.12L219.15 319.61L235 313.91C235 313.91 239.21 326.18 239.21 338.41C239.21 344.52 233.06 393.08 233.06 393.45L225.67 451.19L220.74 454.44L221.06 420.17L221.29 385.67C221.29 385.67 220.68 356.43 220.97 348.8C221.06 346.3 221.82 338.83 221.82 338.83L220.13 338.78L217.06 338.77C217.06 338.77 217.89 346.16 217.99 348.63C218.31 356.28 217.64 385.55 217.64 385.55L217.99 419.84L217.77 454.3L212.86 452.24L205.65 394.33C205.65 391.81 199.61 342.68 199.32 338.29C198.91 332.19 202.95 313.12 202.95 313.12Z" fill="#EAB794"/>
<path d="M237.17 313.41L236.9 306.39H200.9L200.73 312.81C200.52 313.49 195.52 330.19 195.7 336C195.77 338.2 197.99 351.97 200.25 366.02C201.28 372.39 203.28 381.06 203.28 385.01C203.28 393.07 235.12 393.06 235.52 385.01C236.22 371.01 243.01 340.51 242.81 336.07C242.29 324.62 237.22 313.52 237.17 313.41Z" fill="#0569B5"/>
<path d="M206.56 373.82C203.57 361.83 199.98 347.39 199.56 344.78C198.74 339.59 199.28 324.87 199.69 316.4C198.19 321.75 195.57 331.78 195.7 335.99C195.77 338.19 197.35 351.8 199.62 365.85C200.65 372.22 201.76 378.98 202.63 384.77C203.24 388.84 209.76 389.97 209.76 389.97C208.96 386.7 207.55 377.78 206.56 373.82Z" fill="#0766A0"/>
<path d="M238.4 316.42C239.11 322.95 240.02 334.6 238.95 344.87C238.36 350.57 230.97 378.5 227.94 390.18C227.94 390.18 232.93 389.29 234.83 386.82C237.47 383.39 243.03 340.51 242.82 336.06C242.46 328.19 239.95 320.47 238.4 316.42Z" fill="#0766A0"/>
<path d="M211.31 449.06C211.31 449.06 208.33 453.96 208.09 455.6C207.85 457.24 207.32 461.86 208.67 462.44C210.02 463.02 215.68 463.12 216.45 462.63C217.22 462.15 218.87 458.88 219.01 457.05C219.16 455.21 218.05 447.86 218.05 447.86L211.31 449.06Z" fill="#0468B4"/>
<path d="M211.44 448.46C211.44 448.46 208.37 454.59 210.37 457.02C211.17 458 218.35 456.14 218.05 447.92C217.74 439.7 211.44 448.46 211.44 448.46Z" fill="#EAB794"/>
<path d="M227.22 449.06C227.22 449.06 230.2 453.96 230.44 455.6C230.68 457.24 231.21 461.86 229.86 462.44C228.51 463.02 222.85 463.12 222.08 462.63C221.31 462.15 219.66 458.88 219.52 457.05C219.38 455.21 220.48 447.86 220.48 447.86L227.22 449.06Z" fill="#0468B4"/>
<path d="M227.09 448.46C227.09 448.46 230.16 454.59 228.16 457.02C227.36 458 220.18 456.14 220.48 447.92C220.79 439.7 227.09 448.46 227.09 448.46Z" fill="#EAB794"/>
<path d="M227.82 191.32C220.82 185.53 198.41 190.24 198.41 218.04C198.41 239.14 206.61 241.13 195.82 254.22C203.52 260.8 226.07 263.67 231.36 259.34C236.65 255.01 241.17 240.3 241.76 225.66C242.38 210.04 238.42 193.94 227.82 191.32Z" fill="#FFB048"/>
<path d="M237.15 223.04C237.15 212.49 229.46 206.03 219.97 206.03C210.48 206.03 202.79 212.49 202.79 223.04C202.79 244.01 213.6 248.21 219.97 248.21C226.34 248.21 237.15 244.01 237.15 223.04Z" fill="#EF9A33"/>
<path d="M235.88 295.98L247.04 256.55C247.04 252.94 244.31 248.95 240.93 247.66L226.58 242.13V223.08H212.72V242.13L198.37 247.66C195 248.96 192.26 252.94 192.26 256.55L203.42 295.98H235.88Z" fill="#EAB794"/>
<path d="M236.79 308.66L247.04 257.87C247.04 253.93 244.31 249.58 240.93 248.16L226.58 242.13C223.37 247.8 219.59 250.41 219.59 250.41C219.59 250.41 215.83 247.62 212.72 242.13L198.37 248.16C195 249.58 192.26 253.92 192.26 257.87L203.35 308.66H236.79Z" fill="#31ACFF"/>
<path d="M217.04 363.52L209.41 242.93L198.2 247.25C194.68 248.61 191.81 252.78 191.81 256.55C191.81 256.55 198.42 289.64 198.42 300.67C198.42 310.71 190.68 334.1 190.01 347.57C189.51 357.57 217.04 363.52 217.04 363.52Z" fill="#DDDDDD"/>
<path d="M249.27 350.5C247.89 337.6 240.02 311.14 239.93 301.01C239.82 289.74 248.03 257.29 248.03 257.29C248.03 253.52 244.61 248.61 241.09 247.25L229.88 242.93L223.87 363.19C223.87 363.19 250.25 359.61 249.27 350.5Z" fill="#DDDDDD"/>
<path d="M212.72 237C215.53 240.3 218.94 241.26 221.48 241.26C222.98 241.26 224.78 240.92 226.59 239.97V226.15H212.73V237H212.72Z" fill="#D19A75"/>
<path d="M234.44 249.52L233.69 244.88L241.69 248.09C245.11 249.42 234.44 249.52 234.44 249.52Z" fill="#F4F4F4"/>
<path d="M234.78 214.42C234.78 234.04 225.46 237.97 219.96 237.97C214.46 237.97 205.14 234.05 205.14 214.42C205.14 204.55 211.77 198.5 219.96 198.5C228.15 198.5 234.78 204.54 234.78 214.42Z" fill="#F4C3A2"/>
<path d="M232.38 217.31C231.74 220.72 232.49 223.73 234.07 224.03C235.64 224.33 237.44 221.8 238.08 218.38C238.72 214.97 237.97 211.96 236.39 211.66C234.82 211.37 233.02 213.9 232.38 217.31Z" fill="#F4C3A2"/>
<path d="M214.54 324.05L209.41 242.93L206.61 244.01L205.01 253.89L207.16 257.98L203.76 261.61L214.54 324.05Z" fill="#F4F4F4"/>
<path d="M235.28 262.04L232.86 258.31L234.17 254.48L232.64 243.99L229.89 242.93L225.92 322.26L235.28 262.04Z" fill="#F4F4F4"/>
<path d="M232.38 217.31C231.74 220.72 232.49 223.73 234.07 224.03C235.64 224.33 237.44 221.8 238.08 218.38C238.72 214.97 237.97 211.96 236.39 211.66C234.82 211.37 233.02 213.9 232.38 217.31Z" fill="#F4C3A2"/>
<path d="M219.66 250.41C218.27 251.85 210.49 254.66 211.13 242.26C212.45 241.6 212.66 241.35 212.66 241.35L219.66 250.41Z" fill="#6CCBFF"/>
<path d="M219.59 250.41C220.98 251.85 228.76 254.66 228.12 242.26C226.8 241.6 226.59 241.35 226.59 241.35L219.59 250.41Z" fill="#6CCBFF"/>
<path d="M219.96 195.83C211.78 195.83 203.56 207.09 203.56 213.64C210.72 215.05 227.24 218.03 230.5 204.27C230.66 203.6 233.43 206.8 234.68 212.35C241.61 209.62 226.34 195.83 219.96 195.83Z" fill="#EF9A33"/>
<path d="M206.81 217.31C207.45 220.72 206.7 223.73 205.12 224.03C203.55 224.33 201.75 221.8 201.11 218.38C200.47 214.97 201.22 211.96 202.8 211.66C204.38 211.37 206.17 213.9 206.81 217.31Z" fill="#F4C3A2"/>
<path d="M237.65 221.85H240.33C243.54 215.4 239.07 207.57 229.42 192.94C227.56 191.7 208.63 186.36 202.34 202.86C198.64 212.56 200.46 212.91 200.46 212.91C200.46 212.91 225.5 220.38 229.43 202.03C229.77 200.45 238 212.55 237.65 221.85Z" fill="#FFB048"/>
<path d="M209.81 193.73C208.92 194.47 202.52 202.7 205.75 203.36C212.93 204.82 228.17 192.48 224.82 191.24C222.83 190.5 216.09 188.49 209.81 193.73Z" fill="#FFC176"/>
<path d="M243.35 267.61H231.63V273.48H243.35V267.61Z" fill="#003E4D"/>
<path d="M243.03 267.92H231.94V273.16H243.03V267.92Z" fill="#F4F4F4"/>
<path d="M238.26 266.98H236.72V268.27H238.26V266.98Z" fill="#B7BDBD"/>
<path d="M236.2 268.43H232.69V272.75H236.2V268.43Z" fill="#B7BDBD"/>
<path d="M226.78 278.04C224.22 275.05 222.48 269.5 222.47 263.12H223C223.01 269.03 224.52 274.2 226.79 277.15V278.04H226.78Z" fill="#B7BDBD"/>
<path d="M235.57 276.99C237.77 274.02 239.22 268.92 239.23 263.12H239.75C239.74 269.39 238.06 274.86 235.56 277.89V276.99H235.57Z" fill="#B7BDBD"/>
<path d="M235 277.99C235 278.2 235.17 278.36 235.37 278.36C235.58 278.36 235.74 278.19 235.74 277.99V276.87C235.74 276.66 235.57 276.5 235.37 276.5C235.16 276.5 235 276.67 235 276.87V277.99Z" fill="#B7BDBD"/>
<path d="M226.6 277.99C226.6 278.2 226.77 278.36 226.97 278.36C227.18 278.36 227.34 278.19 227.34 277.99V276.87C227.34 276.66 227.17 276.5 226.97 276.5C226.76 276.5 226.6 276.67 226.6 276.87V277.99Z" fill="#B7BDBD"/>
<path d="M233.69 277.55C233.69 277.92 233.99 278.23 234.37 278.23H234.46C234.83 278.23 235.14 277.93 235.14 277.55C235.14 277.18 234.84 276.87 234.46 276.87H234.37C233.99 276.87 233.69 277.18 233.69 277.55Z" fill="#B7BDBD"/>
<path d="M227.16 277.55C227.16 277.92 227.46 278.23 227.84 278.23H227.93C228.3 278.23 228.61 277.93 228.61 277.55C228.61 277.18 228.31 276.87 227.93 276.87H227.84C227.46 276.87 227.16 277.18 227.16 277.55Z" fill="#B7BDBD"/>
<path d="M223.26 263.5V263.24C223.28 254.22 226.8 246.88 231.12 246.88C235.43 246.88 238.95 254.22 238.98 263.24V263.5H240.03V263.24C240.01 253.57 236.01 245.7 231.12 245.7C226.23 245.7 222.24 253.57 222.21 263.24V263.5H223.26V263.5Z" fill="#003E4D"/>
<path d="M226.57 240.38C228.91 241.97 230.68 244.11 231.59 246.59H230.72C229.9 244.57 228.45 242.8 226.57 241.42V240.38Z" fill="#003E4D"/>
<path d="M207.9 273.46H208.87C207.56 261.14 210.86 242.84 212.73 241.46V240.42C210.4 242 206.99 256.55 207.9 273.46Z" fill="#003E4D"/>
<path d="M208.41 284.35C211.52 284.35 214.05 281.82 214.05 278.71C214.05 275.6 211.52 273.07 208.41 273.07C205.3 273.07 202.77 275.6 202.77 278.71C202.77 281.82 205.3 284.35 208.41 284.35Z" fill="#003E4D"/>
<path d="M213.69 278.71C213.69 275.8 211.33 273.44 208.42 273.44C205.51 273.44 203.15 275.8 203.15 278.71C203.15 281.62 205.51 283.98 208.42 283.98C211.32 283.98 213.69 281.62 213.69 278.71Z" fill="#B7BDBD"/>
<path d="M209.69 278.71C209.69 278 209.12 277.43 208.41 277.43C207.7 277.43 207.13 278 207.13 278.71C207.13 279.42 207.7 279.99 208.41 279.99C209.12 279.99 209.69 279.41 209.69 278.71Z" fill="#6A686B"/>
<path d="M206.21 279.68C206.72 280.34 207.51 280.77 208.41 280.77C209.31 280.77 210.1 280.34 210.61 279.68H212.29C212.14 281.7 210.46 283.29 208.41 283.29C206.36 283.29 204.68 281.7 204.53 279.68H206.21Z" fill="#DDDDDD"/>
<path d="M222.59 224.11C222.14 224.76 221.22 225.21 220.15 225.21C219.08 225.21 218.16 224.76 217.71 224.11H222.59Z" fill="#D19A75"/>
<path opacity="0.2" d="M198.42 300.36C198.42 300.46 198.43 300.57 198.43 300.67C198.43 303.48 197.91 307.87 197.16 312.73L211.71 312.71L211.22 300.26L198.42 300.36Z" fill="#48545B"/>
<path d="M222.977 283.201L196.59 287.344L202.648 325.931L229.035 321.789L222.977 283.201Z" fill="#69452B"/>
<path d="M226.15 296.61C224.57 297.24 221.59 299.05 220.62 297.91C219.64 296.77 214.43 302.79 214.43 302.79L212.48 308C212.48 308 224.2 308.65 227.27 307.37C230.34 306.11 227.74 295.98 226.15 296.61Z" fill="#EAB794"/>
<path d="M215.08 309.88C217.14 309.45 216.23 299.08 213.37 299.62C181.22 303.61 189.08 289.22 195.79 268.61C196.76 265.63 200 248.31 197.46 247.58C186.16 254.57 183.57 264.94 181.06 274.47C175.5 295.61 172.27 312.57 215.08 309.88Z" fill="#DDDDDD"/>
<path d="M197.27 248.6L205.32 245.48L204.08 253.27C204.09 253.26 189.92 252.6 197.27 248.6Z" fill="#F4F4F4"/>
<path d="M210.51 331.61C210.51 331.61 212.14 356.35 209.86 356.03C207.58 355.7 198.14 353.08 196.19 349.19C194.23 345.3 198.14 336.49 198.14 336.49L210.51 331.61Z" fill="#F4F4F4"/>
<g opacity="0.2">
<path d="M243.23 320.88C241.57 324.47 239.46 328.44 236.79 332.9C234.36 334.51 239.8 341.29 241.58 340.16C243.26 338.04 244.77 335.93 246.15 333.82C245.2 329.56 244.17 325.13 243.23 320.88Z" fill="#48545B"/>
</g>
<path d="M238.68 330.06C236.7 331.02 232.66 333.13 233.27 334.09C234.08 335.35 231.49 337.68 230.43 339.02C229.37 340.35 238.32 345.76 240.42 343.19C241.5 341.87 242.74 338.26 243.69 335.03C242.33 334.79 239.95 332.34 238.68 330.06Z" fill="#EAB794"/>
<path d="M230.47 331.94C230.47 331.94 229.09 356.68 231.37 356.36C233.65 356.03 243.09 353.42 245.04 349.52C247 345.63 243.09 336.82 243.09 336.82L230.47 331.94Z" fill="#F4F4F4"/>
<path d="M244.32 334.96C242.54 336.09 235.94 328.05 238.37 326.43C255.86 297.18 250.97 294.01 244.26 273.4C245.6 265.44 240.15 253.88 242.69 253.15L242.67 248.34C251.95 253.72 252.11 259.64 255.61 268.85C260.94 282.87 264.77 309.15 244.32 334.96Z" fill="#DDDDDD"/>
<path d="M386.48 315.13L364.92 322.34L343.83 316.01C343.83 316.01 342.39 329.64 342.39 343.23C342.39 350.02 348.66 452.89 348.66 452.89L359.23 452.62L363.57 343.69L363.63 343.63L365.84 343.62L370.91 453.99L382.11 454.18C382.11 454.18 387.96 346.84 388.35 341.96C388.89 335.19 386.48 315.13 386.48 315.13Z" fill="#3F5E77"/>
<path d="M387.51 302.5L400.76 251.03C400.76 246.37 397.18 241.23 392.76 239.56L375.53 233.03V205.55H354.21V233.02L336.98 239.55C332.56 241.23 328.98 246.36 328.98 251.02L342.23 302.49H387.51V302.5Z" fill="#EAB794"/>
<path d="M385.63 330.18L400.17 250.74C400.17 246.01 396.62 240.77 392.26 239.07L375.39 232.44L364.61 256.36L354.36 232.44L337.49 239.07C333.13 240.77 329.58 246 329.58 250.74L344.12 330.18H385.63Z" fill="#31ACFF"/>
<path d="M365.05 219.17C363.4 219.17 361.85 218.92 360.42 218.54C361.06 217.64 362.41 217.38 365.15 217.38C367.84 217.38 369.19 217.63 369.84 218.49C368.36 218.9 366.75 219.17 365.05 219.17Z" fill="#FFB048"/>
<path d="M380.42 200.46C380.42 221.95 370.81 225.46 365.15 225.46C359.49 225.46 349.88 221.29 349.88 200.46C349.88 189.98 356.72 183.56 365.15 183.56C373.59 183.56 380.42 189.97 380.42 200.46Z" fill="#F2994A"/>
<path d="M351.74 204.36C352.36 207.66 351.63 210.56 350.11 210.85C348.59 211.14 346.86 208.69 346.24 205.4C345.62 202.1 346.35 199.2 347.87 198.91C349.38 198.62 351.12 201.06 351.74 204.36Z" fill="#F2994A"/>
<path d="M378.31 204.36C377.69 207.66 378.42 210.56 379.94 210.85C381.46 211.14 383.19 208.69 383.81 205.4C384.43 202.11 383.7 199.2 382.18 198.91C380.66 198.62 378.93 201.06 378.31 204.36Z" fill="#F2994A"/>
<path d="M354.32 223.24C355.22 229.84 360.05 233.08 366.46 233.08C370.53 233.08 373.41 231.94 375.53 229.86V224.34L354.32 223.24Z" fill="#D19A75"/>
<path d="M371.98 218C371.66 215.82 370.22 214.54 365.16 214.54C360.04 214.54 358.63 215.85 358.33 218.07C352.43 218.07 349.73 202 349.73 202C349.64 218.41 352.23 229.71 365.16 229.71C378.66 229.71 381.71 214.65 380.43 200.69C380.42 200.7 378.51 218 371.98 218ZM365.05 219.41C363.4 219.41 361.85 219.16 360.42 218.78C361.06 217.88 362.41 217.62 365.15 217.62C367.84 217.62 369.19 217.87 369.84 218.73C368.36 219.14 366.75 219.41 365.05 219.41Z" fill="#474747"/>
<path d="M378.97 193.96C379.08 193.84 379.17 193.7 379.28 193.58C377 187.24 371.54 183.56 365.15 183.56C359.18 183.56 354.02 186.79 351.51 192.39C351.73 192.71 351.98 193 352.3 193.21C355.59 195.46 372.48 201.07 378.97 193.96Z" fill="#EAB794"/>
<path d="M351.53 192.32C348.2 190.24 350.04 182.61 358.49 180.56C369.16 177.96 378.56 184 378.42 177.51C381.59 179.53 384.85 187.26 379.07 193.02C372.37 199.72 354.92 194.44 351.53 192.32Z" fill="#474747"/>
<path d="M396.06 361.53C396.06 324.71 400.86 250.22 400.86 250.22C400.86 245.46 397.24 240.19 392.8 238.47L377.48 232.53C377.48 232.53 370.44 318.19 384.5 326.44C386.02 367.96 396.06 367.67 396.06 361.53Z" fill="#DDDDDD"/>
<path d="M384.36 255.68L381.84 247.84L383.82 246.57L382.5 234.16C382.5 234.16 377.68 230.87 377.47 232.2C373.16 259.79 376.12 293.61 376.12 293.61L384.36 255.68Z" fill="#F4F4F4"/>
<path d="M369.2 184.9C355.87 185.48 350.96 192.4 350.96 188.65C350.96 184.9 355.75 181.36 361.66 180.74C367.57 180.12 372.95 184.73 369.2 184.9Z" fill="#606060"/>
<path d="M393.09 239.06L383.51 235.66L384.53 241.04C389.33 240.71 395.57 240.09 393.09 239.06Z" fill="#F6F7F5"/>
<path d="M393.75 259.57H381.93V265.49H393.75V259.57Z" fill="#003E4D"/>
<path d="M393.43 259.89H382.25V265.18H393.43V259.89Z" fill="#F4F4F4"/>
<path d="M388.61 258.94H387.06V260.24H388.61V258.94Z" fill="#B7BDBD"/>
<path d="M386.54 260.4H383V264.76H386.54V260.4Z" fill="#B7BDBD"/>
<path d="M360.57 462.75C360.57 464.65 358.38 466.18 355.69 466.18H352.43C349.73 466.18 347.55 464.64 347.55 462.75V455.43C347.55 453.53 349.74 453.22 352.43 453.22H355.69C358.39 453.22 360.57 453.53 360.57 455.43V462.75Z" fill="#003E61"/>
<path d="M360.57 460.77C360.57 462.19 358.38 463.34 355.69 463.34H352.43C349.73 463.34 347.55 462.19 347.55 460.77V455.28C347.55 453.86 349.74 450.81 352.43 450.81H355.69C358.39 450.81 360.57 453.86 360.57 455.28V460.77Z" fill="#DDDDDD"/>
<path d="M383.06 462.75C383.06 464.65 380.87 466.18 378.18 466.18H374.92C372.22 466.18 370.04 464.64 370.04 462.75V455.43C370.04 453.53 372.23 453.22 374.92 453.22H378.18C380.88 453.22 383.06 453.53 383.06 455.43V462.75Z" fill="#003E61"/>
<path d="M383.06 460.77C383.06 462.19 380.87 463.34 378.18 463.34H374.92C372.22 463.34 370.04 462.19 370.04 460.77V455.28C370.04 453.86 372.23 450.81 374.92 450.81H378.18C380.88 450.81 383.06 453.86 383.06 455.28V460.77Z" fill="#DDDDDD"/>
<path d="M392.96 270.53C395.43 291.07 391.78 295.66 383.14 324.6C383.02 324.68 382.91 324.81 382.81 324.95C383.34 325.58 383.9 326.08 384.5 326.44C384.73 332.82 385.17 338.21 385.74 342.75C390.1 338.25 393.74 333.83 396.78 329.53C397.53 308.84 398.74 286.28 399.64 270.53H392.96Z" fill="#B7BDBD"/>
<path d="M392.54 332.35C390.51 333.62 382.32 322.98 385.09 321.18C396.99 292.29 399.14 291.59 392.9 270.06C394.84 261.58 391.2 244.34 394.06 243.46L394.27 239.19C404.21 244.49 404.09 249.94 407.43 259.55C412.51 274.16 419.87 298.24 392.54 332.35Z" fill="#DDDDDD"/>
<path d="M376.34 334.39C379.31 336.29 382.27 338.22 385.41 339.88C386.4 338.02 389.84 333.46 390.73 331C389.23 330.81 386.73 328.32 385.47 325.96C383.23 327.06 379.14 328.26 378.54 329.26C377.36 331.25 377.01 333.5 376.34 334.39Z" fill="#EAB794"/>
<path d="M333.9 361.53C333.9 324.71 329.1 250.22 329.1 250.22C329.1 245.46 332.72 240.19 337.16 238.47L352.48 232.53C352.48 232.53 359.52 318.19 345.46 326.44C343.95 367.96 333.9 367.67 333.9 361.53Z" fill="#DDDDDD"/>
<path d="M345.61 255.68L348.13 247.84L346.15 246.57L347.47 234.16C347.47 234.16 352.29 230.87 352.5 232.2C356.81 259.79 353.85 293.61 353.85 293.61L345.61 255.68Z" fill="#F4F4F4"/>
<path d="M336.87 239.06L346.45 235.66L345.43 241.04C340.63 240.71 334.4 240.09 336.87 239.06Z" fill="#F6F7F5"/>
<path d="M337 270.53C334.53 291.07 338.18 295.66 346.82 324.6C346.95 324.68 347.05 324.81 347.15 324.95C346.62 325.58 346.06 326.08 345.46 326.44C345.23 332.82 344.79 338.21 344.22 342.75C339.86 338.25 336.22 333.83 333.18 329.53C332.43 308.84 331.22 286.28 330.32 270.53H337Z" fill="#B7BDBD"/>
<path d="M337.42 332.35C339.45 333.62 347.64 322.98 344.87 321.18C332.97 292.29 330.82 291.59 337.06 270.06C335.12 261.58 338.76 244.34 335.9 243.46L335.69 239.19C325.75 244.49 325.87 249.94 322.53 259.55C317.45 274.16 310.1 298.24 337.42 332.35Z" fill="#DDDDDD"/>
<path d="M353.62 334.39C350.65 336.29 347.69 338.22 344.55 339.88C343.56 338.02 340.12 333.46 339.23 331C340.73 330.81 343.23 328.32 344.49 325.96C346.73 327.06 350.82 328.26 351.42 329.26C352.61 331.25 352.95 333.5 353.62 334.39Z" fill="#EAB794"/>
<path d="M353.98 272.19C356.84 268.85 358.78 262.65 358.8 255.52H358.21C358.19 262.12 356.51 267.9 353.98 271.19V272.19Z" fill="#B7BDBD"/>
<path d="M344.17 271.02C341.72 267.7 340.09 262.01 340.08 255.52H339.49C339.51 262.53 341.38 268.64 344.17 272.02V271.02V271.02Z" fill="#B7BDBD"/>
<path d="M344.81 272.14C344.81 272.37 344.62 272.56 344.39 272.56C344.16 272.56 343.97 272.37 343.97 272.14V270.89C343.97 270.66 344.16 270.47 344.39 270.47C344.62 270.47 344.81 270.66 344.81 270.89V272.14Z" fill="#B7BDBD"/>
<path d="M354.19 272.14C354.19 272.37 354 272.56 353.77 272.56C353.54 272.56 353.35 272.37 353.35 272.14V270.89C353.35 270.66 353.54 270.47 353.77 270.47C354 270.47 354.19 270.66 354.19 270.89V272.14Z" fill="#B7BDBD"/>
<path d="M346.27 271.65C346.27 272.07 345.93 272.41 345.51 272.41H345.41C344.99 272.41 344.65 272.07 344.65 271.65C344.65 271.23 344.99 270.89 345.41 270.89H345.51C345.93 270.89 346.27 271.23 346.27 271.65Z" fill="#B7BDBD"/>
<path d="M353.56 271.65C353.56 272.07 353.22 272.41 352.8 272.41H352.7C352.28 272.41 351.94 272.07 351.94 271.65C351.94 271.23 352.28 270.89 352.7 270.89H352.8C353.22 270.89 353.56 271.23 353.56 271.65Z" fill="#B7BDBD"/>
<path d="M357.92 255.95V255.66C357.9 245.59 353.96 237.39 349.15 237.39C344.33 237.39 340.4 245.59 340.38 255.66V255.95H339.21V255.66C339.23 244.86 343.7 236.07 349.16 236.07C354.62 236.07 359.08 244.86 359.11 255.66V255.95H357.92Z" fill="#003E4D"/>
<path d="M354.22 231.29C352.12 232.83 350.5 234.81 349.58 237.06H348.61C349.62 234.3 351.61 231.9 354.22 230.12V231.29ZM375.54 230.14V231.3C377.63 232.84 381.31 253.28 379.85 267.04H380.93C381.95 248.16 378.14 231.91 375.54 230.14Z" fill="#003E4D"/>
<path d="M380.36 279.21C376.88 279.21 374.06 276.38 374.06 272.91C374.06 269.43 376.89 266.61 380.36 266.61C383.84 266.61 386.66 269.44 386.66 272.91C386.66 276.38 383.83 279.21 380.36 279.21Z" fill="#003E4D"/>
<path d="M374.47 272.91C374.47 269.66 377.11 267.02 380.36 267.02C383.61 267.02 386.25 269.66 386.25 272.91C386.25 276.16 383.61 278.8 380.36 278.8C377.11 278.8 374.47 276.16 374.47 272.91Z" fill="#B7BDBD"/>
<path d="M378.93 272.91C378.93 272.12 379.57 271.48 380.36 271.48C381.15 271.48 381.79 272.12 381.79 272.91C381.79 273.7 381.15 274.34 380.36 274.34C379.57 274.34 378.93 273.7 378.93 272.91Z" fill="#6A686B"/>
<path d="M382.82 273.99C382.25 274.73 381.36 275.21 380.36 275.21C379.36 275.21 378.47 274.73 377.9 273.99H376.02C376.19 276.24 378.06 278.02 380.36 278.02C382.66 278.02 384.53 276.24 384.7 273.99H382.82Z" fill="#DDDDDD"/>
<path d="M269.51 384.72C268.74 384.7 267.97 384.69 267.19 384.67C269.2 406.15 270.87 423.34 272.42 439.09C272.56 440.5 272.95 446.95 273.07 448.19C273.18 449.32 271.15 455.41 271.25 456.39C271.75 461.43 274.11 463 274.11 463L287.43 463.87L288.75 457.6L287.7 450.77L289.06 385.08C282.54 384.98 276.02 384.86 269.51 384.72Z" fill="#DDDDDD"/>
<path d="M294.87 385.2L297.91 451.44L296.57 457.4L298.47 463.54L310.43 463.74C310.43 463.74 312.69 461.85 313.15 456.77C313.27 455.4 311.39 448.68 311.54 447.03C312.94 431.54 315.41 408.59 317.5 385.51C309.96 385.44 302.41 385.33 294.87 385.2Z" fill="#DDDDDD"/>
<path d="M326.3 249.78C324.94 246.91 322.52 244.42 319.75 243.36L303.13 236.96V210.04H282.57V236.96L265.95 243.36C263.19 244.42 260.77 246.92 259.41 249.78L292.49 263.75L326.3 249.78Z" fill="#E29A59"/>
<path d="M309.88 204.74C309.88 227.98 299.16 232.63 292.84 232.63C286.52 232.63 275.8 227.98 275.8 204.74C275.8 193.04 283.43 185.89 292.84 185.89C302.26 185.88 309.88 193.04 309.88 204.74Z" fill="#EFAF6A"/>
<path d="M279.08 209.1C279.77 212.78 278.96 216.02 277.26 216.34C275.57 216.66 273.63 213.93 272.94 210.26C272.25 206.58 273.06 203.34 274.76 203.02C276.45 202.69 278.39 205.42 279.08 209.1Z" fill="#EFAF6A"/>
<path d="M306.62 209.1C305.93 212.78 306.74 216.02 308.44 216.34C310.14 216.66 312.07 213.93 312.76 210.26C313.45 206.58 312.64 203.34 310.94 203.02C309.25 202.69 307.32 205.42 306.62 209.1Z" fill="#EFAF6A"/>
<path d="M275.82 182.72V203C283 191.79 303.07 193.67 309.82 202.8V182.24C303.07 173.08 283 171.52 275.82 182.72Z" fill="#16C4B3"/>
<path d="M321.13 399.23C321.13 381.18 321 339.12 323.45 304.93C325.44 277.2 330.11 254.6 330.11 254.6C330.11 250 326.37 244.92 321.76 243.27L303.95 236.83L292.57 260.05L281.75 236.83L263.94 243.27C259.34 244.92 255.59 250 255.59 254.6C255.59 254.6 259.73 272.52 261.87 305.49C263.84 335.71 263.82 380.27 263.82 399.13C263.83 407.44 321.13 407.22 321.13 399.23Z" fill="#16C4B3"/>
<path d="M292.55 176.63C286.4 176.61 280.27 178.73 277 183.51V189.05L292.55 176.63Z" fill="#29D6C1"/>
<path d="M301.8 245.47L304.56 238.07L321.39 244.15C325.35 245.57 301.8 245.47 301.8 245.47Z" fill="#29D6C1"/>
<path d="M264.3 244.15L281.11 238.07L286.61 249.75C286.62 249.76 249.89 251.22 264.3 244.15Z" fill="#29D6C1"/>
<path d="M309.8 202.78C303.06 193.7 283.12 191.82 275.89 202.9C275.89 202.91 275.89 202.92 275.89 202.94C275.89 202.94 289.75 190.31 309.8 202.78Z" fill="#E29A59"/>
<path d="M282.57 213.41V228.34C285.71 233.59 289.95 235.8 292.85 236.32C295.75 236.84 299.99 236.47 303.13 232.54V217.09L292.85 212.67L282.57 213.41Z" fill="#D67F43"/>
<path d="M275.82 202.19L275.08 202.99L277.67 213.5L278.19 211.76L275.82 202.19Z" fill="#E7EAE1"/>
<path d="M309.82 202.19L310.56 202.99L307.96 213.5L307.45 211.76L309.82 202.19Z" fill="#E7EAE1"/>
<path d="M307.56 201.95C307.47 201.66 307.3 201.48 306.98 201.48C306.98 201.48 297.27 201.48 296.23 201.48C295.32 201.48 293.95 202.07 292.73 202.07C291.51 202.07 290.13 201.48 289.23 201.48C288.18 201.48 278.48 201.48 278.48 201.48C278.16 201.48 277.98 201.66 277.9 201.95H274.92V202.93H277.89C278.24 205.17 279.42 209.23 280.02 209.23H288.35C289.32 209.23 290.74 207.27 291.26 206.02C291.58 205.25 292.26 204.91 292.75 204.91C293.24 204.91 293.91 205.25 294.24 206.02C294.76 207.27 296.18 209.23 297.15 209.23H305.48C306.08 209.23 307.26 205.17 307.61 202.93H310.58V201.95H307.56V201.95ZM288.35 208.93C287.58 208.93 281.07 208.94 280.42 208.94C279.77 208.94 277.7 202.26 279.43 202.26C279.43 202.26 287.62 202.26 288.45 202.26C293.25 202.27 289.12 208.93 288.35 208.93ZM305.02 208.94C304.37 208.94 297.86 208.93 297.09 208.93C296.32 208.93 292.19 202.27 296.99 202.27C297.82 202.27 306.01 202.27 306.01 202.27C307.73 202.27 305.67 208.94 305.02 208.94Z" fill="#003E4D"/>
<path opacity="0.3" d="M288.35 208.93C287.58 208.93 281.07 208.94 280.42 208.94C279.77 208.94 277.7 202.26 279.43 202.26C279.43 202.26 287.62 202.26 288.45 202.26C293.25 202.27 289.12 208.93 288.35 208.93Z" fill="#E7EAE1"/>
<path opacity="0.3" d="M305.02 208.94C304.37 208.94 297.86 208.93 297.09 208.93C296.32 208.93 292.19 202.27 296.99 202.27C297.82 202.27 306.01 202.27 306.01 202.27C307.73 202.27 305.67 208.94 305.02 208.94Z" fill="#E7EAE1"/>
<path d="M308.22 211.79L292.84 208.35L277.47 211.79C277.99 216.75 279.41 223.92 279.41 223.92C283.07 230.67 288.98 232.64 292.84 232.64C296.7 232.64 302.61 231.12 306.27 224.53C306.28 224.53 307.71 216.68 308.22 211.79Z" fill="#E7EAE1"/>
<path d="M292.85 209.08V215.75C292.85 215.75 280.33 218.77 278.36 212.46L292.85 209.08Z" fill="#F6F7F5"/>
<path d="M315.98 262.84H303.35V269.17H315.98V262.84Z" fill="#003E4D"/>
<path d="M315.639 263.17H303.689V268.82H315.639V263.17Z" fill="#F4F4F4"/>
<path d="M310.49 262.16H308.83V263.55H310.49V262.16Z" fill="#B7BDBD"/>
<path d="M308.27 263.73H304.49V268.38H308.27V263.73Z" fill="#B7BDBD"/>
<path d="M287.43 471.85C287.43 473.88 285.09 475.52 282.21 475.52H278.73C275.85 475.52 273.51 473.88 273.51 471.85V464.03C273.51 462 275.85 461.67 278.73 461.67H282.21C285.09 461.67 287.43 462 287.43 464.03V471.85Z" fill="#003E61"/>
<path d="M287.43 469.74C287.43 471.26 285.09 472.49 282.21 472.49H278.73C275.85 472.49 273.51 471.26 273.51 469.74V463.88C273.51 462.36 275.85 459.1 278.73 459.1H282.21C285.09 459.1 287.43 462.36 287.43 463.88V469.74Z" fill="#3F5E77"/>
<path d="M311.45 471.85C311.45 473.88 309.11 475.52 306.23 475.52H302.75C299.87 475.52 297.53 473.88 297.53 471.85V464.03C297.53 462 299.87 461.67 302.75 461.67H306.23C309.11 461.67 311.45 462 311.45 464.03V471.85Z" fill="#003E61"/>
<path d="M311.45 469.74C311.45 471.26 309.11 472.49 306.23 472.49H302.75C299.87 472.49 297.53 471.26 297.53 469.74V463.88C297.53 462.36 299.87 459.1 302.75 459.1H306.23C309.11 459.1 311.45 462.36 311.45 463.88V469.74Z" fill="#3F5E77"/>
<path d="M255.88 255.43C255.85 255.54 255.81 255.65 255.78 255.76C256.61 261.01 260.03 283.42 262.14 308.51C278.06 306.4 313.44 296.38 318.27 294.91C317.05 288.99 305.37 283.88 305.37 283.88C305.37 283.88 266.56 287.48 266.76 284.42C266.96 281.36 268.95 264.76 268.95 264.76L255.88 255.43Z" fill="#0EAF9C"/>
<path d="M255.88 252.37C250.93 268.73 242.56 301.18 249.1 305.27C255.63 309.35 305.77 295.67 312.5 293.63C311.28 287.71 305.16 285.79 305.16 285.79C305.16 285.79 263.18 291.6 263.38 288.54C263.58 285.48 269.3 263.44 269.3 263.44L255.88 252.37Z" fill="#16C4B3"/>
<path d="M329.74 255.43C329.77 255.54 329.81 255.65 329.84 255.76C329.01 261.01 325.09 286.8 322.99 311.9C307.07 309.79 280.12 294.09 275.29 292.63C276.51 286.71 278.47 284.56 278.47 284.56C278.47 284.56 320.41 294.46 320.2 291.4C320 288.34 316.67 264.79 316.67 264.79L329.74 255.43Z" fill="#0EAF9C"/>
<path d="M329.74 252.37C334.69 268.73 343.06 301.18 336.53 305.27C330 309.35 283.72 293.37 276.98 291.33C278.2 285.41 279.46 280.25 279.46 280.25C279.46 280.25 319.91 288.77 322.22 289.24C324.89 289.79 322.12 285.81 316.32 263.44L329.74 252.37Z" fill="#16C4B3"/>
<path d="M280.26 281.99C281.1 282.56 316.76 288.85 323.46 289.54C344.15 299.28 297.85 291.51 280.26 281.99Z" fill="#29D6C1"/>
<path d="M331.94 285.05C326.43 280.36 320.61 280.17 320.61 280.17L320.23 278.61C318.24 278.48 305.15 285.79 305.15 285.79C305.15 285.79 324.45 288.85 328.62 291.2C330.51 292.25 335.04 287.68 331.94 285.05Z" fill="#F4F4F4"/>
<path d="M320.88 280.69C326.46 283.06 332.33 288.03 332.2 286.5C332.07 284.97 326.92 281.07 320.88 280.69Z" fill="white"/>
<path d="M273.45 277.26L268.97 278.33C268.97 278.33 268.08 277.85 265.49 278.45C264.6 282.23 263.9 285.43 263.83 286.47C263.82 286.59 263.89 286.7 264.01 286.8C269.36 286.43 277.57 288.51 277.57 288.51L279.46 280.25C279.47 280.24 275.41 277.67 273.45 277.26Z" fill="#F4F4F4"/>
<path d="M265.25 279.26C265.11 279.86 264.98 280.43 264.85 280.99C267.06 280.35 269.69 279.63 272.15 279.32C269.74 278.79 267.31 278.88 265.25 279.26Z" fill="white"/>
<defs>
<linearGradient id="paint0_linear_742_3003" x1="305.728" y1="1.17651e-06" x2="264.652" y2="788.695" gradientUnits="userSpaceOnUse">
<stop stop-color="#F2994A" stop-opacity="0.7"/>
<stop offset="1" stop-color="#F2994A" stop-opacity="0"/>
</linearGradient>
</defs>
</svg>
