<svg width="71" height="70" viewBox="0 0 71 70" fill="none" xmlns="http://www.w3.org/2000/svg">
<path d="M37.1667 50H33.8333C32.9493 50 32.1014 50.3512 31.4763 50.9763C30.8512 51.6014 30.5 52.4493 30.5 53.3333C30.5 54.2174 30.8512 55.0652 31.4763 55.6904C32.1014 56.3155 32.9493 56.6667 33.8333 56.6667H37.1667C38.0507 56.6667 38.8986 56.3155 39.5237 55.6904C40.1488 55.0652 40.5 54.2174 40.5 53.3333C40.5 52.4493 40.1488 51.6014 39.5237 50.9763C38.8986 50.3512 38.0507 50 37.1667 50ZM37.1667 36.6667H33.8333C32.9493 36.6667 32.1014 37.0179 31.4763 37.643C30.8512 38.2681 30.5 39.1159 30.5 40C30.5 40.8841 30.8512 41.7319 31.4763 42.357C32.1014 42.9821 32.9493 43.3333 33.8333 43.3333H37.1667C38.0507 43.3333 38.8986 42.9821 39.5237 42.357C40.1488 41.7319 40.5 40.8841 40.5 40C40.5 39.1159 40.1488 38.2681 39.5237 37.643C38.8986 37.0179 38.0507 36.6667 37.1667 36.6667ZM20.5 50H17.1667C16.2826 50 15.4348 50.3512 14.8096 50.9763C14.1845 51.6014 13.8333 52.4493 13.8333 53.3333C13.8333 54.2174 14.1845 55.0652 14.8096 55.6904C15.4348 56.3155 16.2826 56.6667 17.1667 56.6667H20.5C21.3841 56.6667 22.2319 56.3155 22.857 55.6904C23.4821 55.0652 23.8333 54.2174 23.8333 53.3333C23.8333 52.4493 23.4821 51.6014 22.857 50.9763C22.2319 50.3512 21.3841 50 20.5 50ZM20.5 36.6667H17.1667C16.2826 36.6667 15.4348 37.0179 14.8096 37.643C14.1845 38.2681 13.8333 39.1159 13.8333 40C13.8333 40.8841 14.1845 41.7319 14.8096 42.357C15.4348 42.9821 16.2826 43.3333 17.1667 43.3333H20.5C21.3841 43.3333 22.2319 42.9821 22.857 42.357C23.4821 41.7319 23.8333 40.8841 23.8333 40C23.8333 39.1159 23.4821 38.2681 22.857 37.643C22.2319 37.0179 21.3841 36.6667 20.5 36.6667ZM67.1667 16.6667H57.1667V3.33333C57.1667 2.44928 56.8155 1.60143 56.1904 0.976311C55.5652 0.351189 54.7174 0 53.8333 0H17.1667C16.2826 0 15.4348 0.351189 14.8096 0.976311C14.1845 1.60143 13.8333 2.44928 13.8333 3.33333V16.6667H3.83333C2.94928 16.6667 2.10143 17.0179 1.47631 17.643C0.851189 18.2681 0.5 19.1159 0.5 20V66.6667C0.5 67.5507 0.851189 68.3986 1.47631 69.0237C2.10143 69.6488 2.94928 70 3.83333 70H67.1667C68.0507 70 68.8986 69.6488 69.5237 69.0237C70.1488 68.3986 70.5 67.5507 70.5 66.6667V20C70.5 19.1159 70.1488 18.2681 69.5237 17.643C68.8986 17.0179 68.0507 16.6667 67.1667 16.6667ZM63.8333 63.3333H7.16667V23.3333H17.1667C18.0507 23.3333 18.8986 22.9821 19.5237 22.357C20.1488 21.7319 20.5 20.8841 20.5 20V6.66667H50.5V20C50.5 20.8841 50.8512 21.7319 51.4763 22.357C52.1014 22.9821 52.9493 23.3333 53.8333 23.3333H63.8333V63.3333ZM50.5 36.6667C49.6159 36.6667 48.7681 37.0179 48.143 37.643C47.5179 38.2681 47.1667 39.1159 47.1667 40C47.1667 40.8841 47.5179 41.7319 48.143 42.357C48.7681 42.9821 49.6159 43.3333 50.5 43.3333H53.8333C54.7174 43.3333 55.5652 42.9821 56.1904 42.357C56.8155 41.7319 57.1667 40.8841 57.1667 40C57.1667 39.1159 56.8155 38.2681 56.1904 37.643C55.5652 37.0179 54.7174 36.6667 53.8333 36.6667H50.5ZM40.5 18.3333H38.8333V16.6667C38.8333 15.7826 38.4821 14.9348 37.857 14.3096C37.2319 13.6845 36.3841 13.3333 35.5 13.3333C34.6159 13.3333 33.7681 13.6845 33.143 14.3096C32.5179 14.9348 32.1667 15.7826 32.1667 16.6667V18.3333H30.5C29.6159 18.3333 28.7681 18.6845 28.143 19.3096C27.5179 19.9348 27.1667 20.7826 27.1667 21.6667C27.1667 22.5507 27.5179 23.3986 28.143 24.0237C28.7681 24.6488 29.6159 25 30.5 25H32.1667V26.6667C32.1667 27.5507 32.5179 28.3986 33.143 29.0237C33.7681 29.6488 34.6159 30 35.5 30C36.3841 30 37.2319 29.6488 37.857 29.0237C38.4821 28.3986 38.8333 27.5507 38.8333 26.6667V25H40.5C41.3841 25 42.2319 24.6488 42.857 24.0237C43.4821 23.3986 43.8333 22.5507 43.8333 21.6667C43.8333 20.7826 43.4821 19.9348 42.857 19.3096C42.2319 18.6845 41.3841 18.3333 40.5 18.3333ZM53.8333 50H50.5C49.6159 50 48.7681 50.3512 48.143 50.9763C47.5179 51.6014 47.1667 52.4493 47.1667 53.3333C47.1667 54.2174 47.5179 55.0652 48.143 55.6904C48.7681 56.3155 49.6159 56.6667 50.5 56.6667H53.8333C54.7174 56.6667 55.5652 56.3155 56.1904 55.6904C56.8155 55.0652 57.1667 54.2174 57.1667 53.3333C57.1667 52.4493 56.8155 51.6014 56.1904 50.9763C55.5652 50.3512 54.7174 50 53.8333 50Z" fill="#F2994A"/>
</svg>
