<svg width="63" height="60" viewBox="0 0 63 60" fill="none" xmlns="http://www.w3.org/2000/svg">
<path d="M4.71083 0.00260176C4.44425 0.00464355 4.18917 0.112205 4.00066 0.302057C3.81216 0.491909 3.70536 0.748817 3.70333 1.0173V7.30583C3.70333 7.85741 4.16058 8.32053 4.71083 8.32053H58.2892C58.8394 8.32053 59.2967 7.85741 59.2967 7.30583V1.0147C59.2946 0.746215 59.1878 0.489307 58.9993 0.299455C58.8108 0.109603 58.5557 0.00204179 58.2892 0L4.71083 0.00260176ZM4.59458 10.7376C4.34481 10.7354 4.10231 10.8222 3.90992 10.9827C3.71753 11.1431 3.58763 11.3669 3.54317 11.6144L0.520667 28.0421C0.5 28.1124 0.5 28.18 0.5 28.2503V33.7583C0.5 34.3567 0.9805 34.8406 1.57467 34.8406H61.4253C62.0195 34.8406 62.5 34.3567 62.5 33.7583V28.2268C62.5 28.1566 62.5 28.0889 62.4767 28.0187L59.4568 11.6144C59.4124 11.3669 59.2825 11.1431 59.0901 10.9827C58.8977 10.8222 58.6552 10.7354 58.4054 10.7376H4.59458ZM4.89167 37.2369C4.73532 37.2358 4.58034 37.2661 4.4357 37.3258C4.29106 37.3856 4.15965 37.4737 4.04909 37.5851C3.93854 37.6964 3.85105 37.8288 3.79169 37.9744C3.73234 38.1201 3.7023 38.2762 3.70333 38.4337V58.8031C3.70333 59.4718 4.22775 59.9999 4.89167 59.9999H41.3373C42.0012 59.9999 42.5257 59.4718 42.5257 58.8031V41.6599C42.5257 40.9912 43.0527 40.4631 43.7166 40.4631H54.1016C54.7681 40.4631 55.2925 40.9912 55.2925 41.6599V58.8031C55.2925 59.4718 55.8195 59.9999 56.4808 59.9999H58.0825C58.2392 60.0017 58.3946 59.9719 58.5397 59.9124C58.6848 59.8529 58.8166 59.7649 58.9275 59.6534C59.0384 59.542 59.1261 59.4094 59.1855 59.2634C59.2449 59.1174 59.2748 58.9609 59.2734 58.8031V38.4337C59.2741 38.2763 59.2438 38.1204 59.1844 37.9749C59.1249 37.8293 59.0374 37.6971 58.9269 37.5859C58.8164 37.4746 58.6851 37.3865 58.5406 37.3265C58.3962 37.2666 58.2413 37.2362 58.0851 37.2369H4.89167ZM9.65017 41.2696H29.9216C30.4692 41.2696 30.9291 41.7301 30.9291 42.2843V54.9785C30.9291 55.53 30.4692 55.9932 29.9216 55.9932H9.65017C9.38359 55.9911 9.1285 55.8836 8.94 55.6937C8.75149 55.5039 8.64469 55.247 8.64267 54.9785V42.2817C8.64267 41.7067 9.1025 41.267 9.65017 41.267V41.2696Z" fill="url(#paint0_linear_260_188)"/>
<defs>
<linearGradient id="paint0_linear_260_188" x1="31.5" y1="0" x2="31.5" y2="60" gradientUnits="userSpaceOnUse">
<stop stop-color="#C0C0C0"/>
<stop offset="1" stop-color="#B3B3B3"/>
</linearGradient>
</defs>
</svg>
