<svg width="80" height="80" viewBox="0 0 80 80" fill="none" xmlns="http://www.w3.org/2000/svg">
<path d="M76.4707 57.0588H73.6471V17.1765C73.6471 14.2353 71.2942 11.8824 68.4707 11.8824H11.5295C8.70597 11.8824 6.35303 14.2353 6.35303 17.1765V56.9412H3.5295C2.94126 56.9412 2.35303 57.4118 2.35303 58.1177V60.9412C2.35303 64.8235 5.5295 68 9.41185 68H70.5883C74.4707 68 77.6471 64.8235 77.6471 60.9412V58.1177C77.6471 57.5294 77.1766 57.0588 76.4707 57.0588ZM71.2942 57.0588H51.6471V62.5882C51.6471 63.2941 51.1766 63.7647 50.4707 63.7647H29.5295C28.9413 63.7647 28.353 63.2941 28.353 62.5882V57.0588H8.70597V17.1765C8.70597 15.5294 10.0001 14.2353 11.5295 14.2353H68.4707C70.0001 14.2353 71.2942 15.5294 71.2942 17.1765V57.0588Z" fill="url(#paint0_linear_260_176)"/>
<path d="M49.4117 57.0588H30.7058V61.4118H49.4117V57.0588Z" fill="url(#paint1_linear_260_176)"/>
<path d="M30.7058 37.2941C29.8823 37.7647 29.0588 38.1176 28.1176 38.1176C27.1764 38.1176 26.3529 37.7647 25.5294 37.2941C22.3529 38.2353 20.1176 40.9412 19.7646 44.2353H36.4705C36.2352 42.3529 35.4117 40.5882 34.1176 39.2941C33.1764 38.3529 31.9999 37.7647 30.7058 37.2941ZM28.1176 35.7647C29.9999 35.7647 31.7646 32.8235 31.7646 30.7059C31.7646 28.7059 30.1176 27.0588 28.1176 27.0588C26.1176 27.0588 24.4705 28.7059 24.4705 30.7059C24.4705 32.8235 26.3529 35.7647 28.1176 35.7647ZM51.4117 32.7059V36.5882H53.647V32.7059C53.647 32 54.1176 31.5294 54.8235 31.5294H58.7058V29.2941H54.8235C54.1176 29.2941 53.647 28.8235 53.647 28.1176V24.2353H51.4117V28.1176C51.4117 28.8235 50.9411 29.2941 50.2352 29.2941H46.3529V31.5294H50.2352C50.8235 31.5294 51.4117 32.1176 51.4117 32.7059Z" fill="url(#paint2_linear_260_176)"/>
<path d="M67.7647 16.5882H12.2353C11.5294 16.5882 11.0588 17.1765 11.0588 17.7647V53.5294C11.0588 54.2353 11.5294 54.7059 12.2353 54.7059H67.6471C68.2353 54.7059 68.8235 54.2353 68.8235 53.5294V17.7647C68.9412 17.1765 68.3529 16.5882 67.7647 16.5882ZM44 28.1177C44 27.4118 44.4706 26.9412 45.1765 26.9412H49.0588V23.0588C49.0588 22.3529 49.5294 21.8824 50.2353 21.8824H54.8235C55.5294 21.8824 56 22.3529 56 23.0588V26.9412H59.8824C60.5882 26.9412 61.0588 27.4118 61.0588 28.1177V32.7059C61.0588 33.4118 60.5882 33.8824 59.8824 33.8824H56V37.7647C56 38.4706 55.5294 38.9412 54.8235 38.9412H50.2353C49.5294 38.9412 49.0588 38.4706 49.0588 37.7647V33.8824H45.1765C44.4706 33.8824 44 33.4118 44 32.7059V28.1177ZM38.9412 45.4118C38.9412 46.1177 38.4706 46.5882 37.7647 46.5882H18.5882C17.8824 46.5882 17.4118 46.1177 17.4118 45.4118V45.1765C17.4118 40.9412 19.8824 37.0588 23.7647 35.4118C22.7059 34 22.1177 32.2353 22.1177 30.5882C22.1177 27.2941 24.8235 24.5882 28.1177 24.5882C31.4118 24.5882 34.1177 27.2941 34.1177 30.5882C34.1177 32.2353 33.5294 34 32.4706 35.4118C33.6471 35.8824 34.7059 36.7059 35.6471 37.6471C37.6471 39.6471 38.8235 42.3529 38.8235 45.1765L38.9412 45.4118ZM61.4118 49.4118H43.6471C42.9412 49.4118 42.4706 48.9412 42.4706 48.2353C42.4706 47.5294 42.9412 47.0588 43.6471 47.0588H61.4118C62.1177 47.0588 62.5882 47.5294 62.5882 48.2353C62.5882 48.9412 62 49.4118 61.4118 49.4118ZM61.4118 44.2353H43.6471C42.9412 44.2353 42.4706 43.7647 42.4706 43.0588C42.4706 42.3529 42.9412 41.8824 43.6471 41.8824H61.4118C62.1177 41.8824 62.5882 42.3529 62.5882 43.0588C62.5882 43.7647 62 44.2353 61.4118 44.2353Z" fill="url(#paint3_linear_260_176)"/>
<defs>
<linearGradient id="paint0_linear_260_176" x1="40.0001" y1="11.8824" x2="40.0001" y2="68" gradientUnits="userSpaceOnUse">
<stop stop-color="#C0C0C0"/>
<stop offset="1" stop-color="#B3B3B3"/>
</linearGradient>
<linearGradient id="paint1_linear_260_176" x1="40.0588" y1="57.0588" x2="40.0588" y2="61.4118" gradientUnits="userSpaceOnUse">
<stop stop-color="#C0C0C0"/>
<stop offset="1" stop-color="#B3B3B3"/>
</linearGradient>
<linearGradient id="paint2_linear_260_176" x1="39.2352" y1="24.2353" x2="39.2352" y2="44.2353" gradientUnits="userSpaceOnUse">
<stop stop-color="#C0C0C0"/>
<stop offset="1" stop-color="#B3B3B3"/>
</linearGradient>
<linearGradient id="paint3_linear_260_176" x1="39.9488" y1="16.5882" x2="39.9488" y2="54.7059" gradientUnits="userSpaceOnUse">
<stop stop-color="#C0C0C0"/>
<stop offset="1" stop-color="#B3B3B3"/>
</linearGradient>
</defs>
</svg>
