<svg width="808" height="464" viewBox="0 0 808 464" fill="none" xmlns="http://www.w3.org/2000/svg">
<g clip-path="url(#clip0)">
<path d="M29.4333 342.329C29.4333 342.329 25.8973 350.635 45.2841 356.437C64.6708 362.239 75.4859 363.766 75.4859 363.766C75.4859 363.766 79.6315 365.476 77.6684 368.469C75.7054 371.461 69.4626 376.225 71.4988 380.341C73.535 384.458 78.8877 385.227 86.1303 382.968C93.3729 380.708 109.297 376.506 110.76 376.127C112.223 375.749 114.418 376.188 113.442 378.448C112.467 380.708 101.713 394.584 108.565 399.286C115.418 403.989 134.536 394.535 136.609 393.533C138.682 392.532 139.743 392.8 140.486 393.765C141.23 394.73 137.182 399.042 134.292 403.11C131.403 407.177 128.769 412.405 132.963 414.787C137.158 417.169 152.472 415.373 174.358 396.465L183.942 387.047L180.796 373.904C172.334 346.214 160.361 336.515 155.545 336.283C150.728 336.051 150.18 341.89 150.448 346.873C150.716 351.857 151.826 357.683 150.692 358.086C149.558 358.489 148.558 358.172 147.302 356.205C146.046 354.239 134.963 336.039 126.635 336.332C118.307 336.625 119.978 354.092 119.636 356.535C119.295 358.978 117.125 358.147 116.125 357.072C115.125 355.998 103.859 343.832 98.9451 338.103C94.0313 332.374 89.2517 330.029 85.1915 332.521C81.1312 335.013 84.0331 342.293 84.0941 345.847C84.1551 349.402 79.729 348.656 79.729 348.656C79.729 348.656 69.743 344.186 50.2832 338.726C30.8233 333.266 29.3967 342.39 29.3967 342.39" fill="#F2F2F2"/>
<path d="M186.698 388.782C172.42 384.726 147.168 377.08 125.453 370.643C103.737 364.206 84.0944 358.428 69.8409 354.239L52.9537 349.353L48.357 348.034L47.1377 347.679L46.7354 347.533L47.1377 347.63L48.357 347.948L52.9659 349.169C56.9774 350.257 62.7203 351.881 69.8897 353.909C84.1676 357.976 103.847 363.742 125.55 370.191C147.254 376.64 172.542 384.397 186.783 388.501" fill="#F2F2F2"/>
<path d="M80.4609 374.075C80.7221 373.878 81.0042 373.71 81.3022 373.575C81.8509 373.281 82.6557 372.866 83.6555 372.353C85.6551 371.364 88.4595 370.081 91.5687 368.689L99.555 365.207L101.994 364.145C102.28 363.993 102.583 363.874 102.896 363.791C102.637 363.985 102.359 364.152 102.067 364.291C101.518 364.584 100.713 365 99.7013 365.513C97.6895 366.478 94.8242 367.736 91.7638 369.104L83.8018 372.634L81.3632 373.709C81.0785 373.867 80.7755 373.99 80.4609 374.075Z" fill="#F2F2F2"/>
<path d="M102.883 362.581C102.786 362.581 99.8717 356.962 96.3846 349.927C92.8974 342.891 90.1662 337.138 90.2881 337.077C90.41 337.016 93.2998 342.696 96.7869 349.731C100.274 356.767 103.042 362.52 102.883 362.581Z" fill="#F2F2F2"/>
<path d="M135.78 373.978C135.678 373.663 135.604 373.34 135.56 373.013C135.438 372.304 135.268 371.413 135.085 370.362C134.682 368.115 134.109 365.024 133.353 361.629C132.597 358.233 131.829 355.191 131.244 352.993C130.964 351.954 130.732 351.075 130.549 350.379C130.447 350.061 130.377 349.734 130.342 349.402C130.493 349.699 130.615 350.01 130.708 350.33C130.915 350.941 131.195 351.808 131.525 352.907C132.183 355.094 133.012 358.135 133.768 361.543C134.524 364.951 135.048 368.053 135.377 370.313C135.536 371.437 135.658 372.353 135.719 372.988C135.785 373.314 135.806 373.647 135.78 373.978Z" fill="#F2F2F2"/>
<path d="M117.783 388.855C117.971 388.613 118.188 388.396 118.429 388.208C118.929 387.744 119.551 387.194 120.283 386.534C121.868 385.154 124.063 383.249 126.513 381.172C128.964 379.096 131.195 377.239 132.829 375.908L134.768 374.344C134.999 374.137 135.253 373.957 135.524 373.807C135.331 374.048 135.115 374.269 134.878 374.466L133.024 376.127C131.439 377.52 129.232 379.413 126.782 381.49C124.331 383.566 122.112 385.435 120.478 386.766L118.527 388.33C118.301 388.534 118.051 388.71 117.783 388.855Z" fill="#F2F2F2"/>
<path d="M145.546 402.621C145.794 402.317 146.072 402.039 146.375 401.79L148.814 399.653C150.825 397.857 153.63 395.402 156.739 392.715C159.848 390.028 162.689 387.597 164.762 385.863L167.2 383.823C167.492 383.563 167.806 383.33 168.139 383.126C167.889 383.424 167.611 383.698 167.31 383.945L164.933 386.095C162.921 387.878 160.116 390.333 157.007 393.033C153.898 395.732 151.057 398.138 148.996 399.873L146.558 401.913C146.247 402.184 145.908 402.422 145.546 402.621Z" fill="#F2F2F2"/>
<path d="M167.42 383.432C167.285 383.034 167.183 382.625 167.115 382.21C166.92 381.343 166.689 380.219 166.384 378.864C165.774 376.03 164.908 372.133 163.836 367.87C162.763 363.607 161.702 359.748 160.909 356.963C160.531 355.631 160.214 354.52 159.983 353.665C159.848 353.266 159.746 352.858 159.678 352.443C159.857 352.839 160.008 353.247 160.129 353.665C160.397 354.422 160.763 355.533 161.202 356.914C162.055 359.674 163.177 363.522 164.25 367.809C165.323 372.097 166.14 376.005 166.689 378.802C166.957 380.219 167.164 381.38 167.286 382.174C167.373 382.587 167.418 383.009 167.42 383.432Z" fill="#F2F2F2"/>
<path d="M579.785 128.035C562.715 116.565 558.569 94.7983 558.886 75.1449C558.886 71.8713 558.52 68.4146 560.02 65.5197C561.52 62.6248 565.129 60.6338 568.079 61.9163C570.518 63.0157 571.64 65.825 573.042 68.1458C574.909 71.2403 577.615 73.7395 580.845 75.3525C582.943 76.403 585.528 77.0137 587.564 75.8411C590.368 74.2287 590.624 70.32 590.551 67.0587L590.112 48.8344C589.862 45.5786 590.138 42.3037 590.929 39.1359C591.88 36.0211 594.063 33.114 597.147 32.1857C600.232 31.2574 604.085 32.9797 604.792 36.1677C604.935 37.5145 604.992 38.869 604.963 40.223C604.952 40.8993 605.142 41.5635 605.509 42.1313C605.876 42.699 606.403 43.1445 607.024 43.411C608.328 43.7775 609.609 42.8247 610.572 41.8598C613.864 38.5007 616.071 34.2256 618.131 29.9749C620.192 25.7241 622.167 21.4246 625.154 17.7602C628.142 14.0957 632.3 11.1887 636.957 10.8466C641.615 10.5046 646.626 13.2896 647.931 17.8579C649.235 22.4262 646.59 27.1411 643.749 30.9032C639.53 36.5025 634.523 41.4601 628.886 45.6219C627.805 46.2647 626.952 47.23 626.447 48.3824C625.776 50.5689 627.874 52.6942 630.032 53.366C632.47 54.1356 635.092 53.8424 637.64 54.0867C640.188 54.331 642.944 55.4181 643.956 57.7511C645.346 61.0613 642.627 64.6036 639.92 66.9366C634.525 71.6248 628.363 75.344 621.704 77.9298C619.248 78.6558 616.946 79.8274 614.912 81.3866C613.01 83.0966 611.901 86.0526 613.108 88.3245C614.315 90.5965 617.327 91.2805 619.826 90.7675C622.326 90.2544 624.545 88.8498 626.91 87.9092C631.361 86.1381 637.14 86.3457 640.066 90.1567C640.958 91.4783 641.532 92.9886 641.743 94.5695C641.955 96.1504 641.798 97.7588 641.286 99.2689C640.251 102.276 638.622 105.043 636.494 107.404C629.539 116.06 620.412 122.708 610.047 126.666C599.732 130.453 590.136 131.552 579.76 127.998" fill="#F2F2F2"/>
<path d="M584.662 115.673C587.715 104.923 591.379 94.3562 595.636 84.0248C596.757 81.2765 597.855 78.5526 598.952 75.8776C600.05 73.2026 601.123 70.552 602.342 68.0358C604.698 63.1878 607.319 58.4739 610.194 53.9156C612.901 49.5549 615.632 45.4996 618.217 41.7009C620.802 37.9021 623.289 34.482 625.691 31.4283C629.445 26.5823 633.58 22.0444 638.055 17.8578C639.628 16.3798 640.896 15.2682 641.713 14.5354L642.7 13.6926C642.81 13.5928 642.928 13.5028 643.054 13.4238C642.96 13.5412 642.854 13.6477 642.737 13.7414L641.786 14.6209C640.945 15.3904 639.713 16.5264 638.128 18.0288C633.725 22.2702 629.649 26.8393 625.935 31.697C623.57 34.7629 621.058 38.2197 618.534 41.994C616.01 45.7684 613.267 49.8114 610.572 54.2087C607.724 58.7532 605.127 63.4507 602.793 68.2801C601.574 70.7963 600.513 73.4225 599.415 76.0975L596.099 84.2447C591.835 94.5551 588.152 105.097 585.064 115.82" fill="#F2F2F2"/>
<path d="M602.5 67.9627C602.337 67.5162 602.223 67.0534 602.159 66.5824C601.976 65.6785 601.744 64.3715 601.488 62.7592C600.976 59.5223 600.415 55.0273 599.805 50.0681C599.196 45.1089 598.586 40.6262 598.025 37.4137C597.745 35.8013 597.501 34.4944 597.33 33.6027C597.213 33.1388 597.143 32.664 597.123 32.1858C597.316 32.6242 597.46 33.0831 597.55 33.5538C597.806 34.4333 598.098 35.7281 598.44 37.3282C599.11 40.5406 599.805 45.0234 600.403 49.9948C601 54.9662 601.513 59.3147 601.915 62.6981C602.098 64.225 602.268 65.5075 602.39 66.5457C602.484 67.0119 602.521 67.4876 602.5 67.9627Z" fill="#F2F2F2"/>
<path d="M644.2 59.3879C643.656 59.5218 643.101 59.5996 642.541 59.62C641.468 59.7422 639.908 59.9009 638.006 60.1575C634.177 60.6338 628.922 61.4889 623.155 62.6737C617.388 63.8585 612.181 65.1899 608.523 66.2526C606.658 66.7656 605.17 67.2298 604.134 67.5351C603.607 67.7386 603.059 67.882 602.5 67.9627C603 67.7015 603.523 67.4849 604.061 67.3153C605.073 66.9366 606.499 66.4114 608.401 65.8373C612.059 64.6769 617.253 63.2966 623.033 62.0874C627.963 61.0427 632.945 60.2558 637.957 59.7299C639.883 59.5223 641.444 59.4246 642.517 59.3879C643.077 59.3401 643.64 59.3401 644.2 59.3879Z" fill="#F2F2F2"/>
<path d="M585.101 114.867C584.992 114.703 584.894 114.532 584.808 114.354C584.613 113.951 584.369 113.45 584.065 112.852C583.431 111.545 582.553 109.627 581.504 107.245C579.407 102.481 576.7 95.8 573.822 88.3979C570.945 80.9958 568.311 74.3021 566.312 69.5017C565.336 67.1687 564.519 65.2388 563.873 63.8219L563.239 62.2706C563.151 62.092 563.086 61.9033 563.044 61.7087C563.044 61.7087 563.166 61.8797 563.349 62.2218L564.093 63.7242C564.727 65.0311 565.604 66.9488 566.653 69.3307C568.75 74.0944 571.457 80.7637 574.335 88.178C577.212 95.5923 579.895 102.237 581.894 107.123C582.87 109.456 583.674 111.374 584.333 112.803L584.967 114.354C585.04 114.516 585.085 114.69 585.101 114.867Z" fill="#F2F2F2"/>
<path d="M640.384 95.9221C640.215 96.0314 640.03 96.1138 639.835 96.1664L638.226 96.7405L632.312 98.7681C627.313 100.49 620.436 102.958 612.803 105.682C605.171 108.406 598.306 110.8 593.295 112.424C590.783 113.23 588.735 113.866 587.32 114.281L585.674 114.745C585.484 114.806 585.288 114.847 585.089 114.867C585.258 114.758 585.443 114.675 585.638 114.623L587.247 114.049C588.735 113.548 590.734 112.827 593.161 112.009C598.16 110.299 605.036 107.831 612.669 105.108C620.302 102.384 627.167 99.9896 632.178 98.3651C634.69 97.5589 636.738 96.9237 638.153 96.5084L639.799 96.0443C639.989 95.9829 640.185 95.9419 640.384 95.9221Z" fill="#F2F2F2"/>
<path d="M766.227 210.007C766.08 211.665 765.601 213.277 764.82 214.746C764.039 216.214 762.971 217.511 761.679 218.558C759.07 220.636 756.021 222.09 752.766 222.808C746.535 224.372 739.219 223.236 733.074 221.355C735.586 214.673 742.829 210.63 746.608 208.823C752.607 205.952 765.203 204.413 766.227 210.044" fill="#F2F2F2"/>
<path d="M725.404 230.931C726.984 229.95 728.795 229.403 730.653 229.348C732.512 229.292 734.352 229.729 735.988 230.614C737.608 231.526 739.03 232.752 740.173 234.219C741.316 235.687 742.156 237.368 742.645 239.164C742.957 239.966 743.09 240.826 743.035 241.685C742.98 242.543 742.739 243.38 742.328 244.135C741.829 244.769 741.171 245.258 740.421 245.552C739.671 245.846 738.856 245.935 738.061 245.809C736.476 245.53 734.991 244.839 733.757 243.806C729.379 240.459 725.77 236.416 725.404 230.919" fill="#F2F2F2"/>
<path d="M709.347 230.149C710.706 229.745 712.103 229.483 713.517 229.368C715.06 229.183 716.619 229.183 718.162 229.368C720.045 229.532 721.914 229.822 723.759 230.235C727.147 230.997 730.296 232.583 732.928 234.852C733.7 235.562 734.398 236.347 735.013 237.197C735.262 237.495 735.456 237.834 735.586 238.199C735.476 238.272 734.586 236.892 732.599 235.243C729.95 233.157 726.872 231.685 723.588 230.931C721.772 230.534 719.937 230.232 718.089 230.027C716.59 229.826 715.074 229.777 713.565 229.881C712.168 230.078 710.758 230.167 709.347 230.149Z" fill="#F2F2F2"/>
<path d="M756.752 212.023C756.134 212.394 755.485 212.713 754.814 212.976C753.594 213.538 751.729 214.344 749.449 215.309C744.913 217.239 738.597 219.84 731.562 222.552C724.527 225.264 718.076 227.511 713.382 229.05C711.029 229.82 709.127 230.418 707.798 230.809C707.12 231.051 706.423 231.231 705.713 231.347C706.355 231.021 707.024 230.751 707.712 230.54L713.211 228.574C717.857 226.913 724.271 224.567 731.306 221.868L749.266 214.832L754.716 212.719C755.373 212.427 756.055 212.194 756.752 212.023Z" fill="#F2F2F2"/>
<path d="M720.259 224.189C723.354 221.774 725.83 218.655 727.482 215.091C729.133 211.526 729.914 207.619 729.758 203.692C729.66 201.689 729.038 199.356 727.161 198.697C725.283 198.037 723.32 199.466 722.04 200.993C719.398 204.219 717.771 208.157 717.363 212.31C716.955 216.462 717.785 220.643 719.747 224.323" fill="#F2F2F2"/>
<path d="M725.344 207.516C725.408 207.892 725.408 208.276 725.344 208.652C725.344 209.384 725.222 210.423 725.064 211.717C724.658 215.111 723.637 218.402 722.052 221.428C721.121 223.081 719.932 224.574 718.528 225.85C716.589 227.563 714.288 228.816 711.798 229.514C711.442 229.646 711.068 229.72 710.688 229.734C710.688 229.588 712.2 229.16 714.456 227.975C715.777 227.267 717.006 226.397 718.114 225.386C719.441 224.141 720.567 222.699 721.455 221.111C722.997 218.152 724.055 214.964 724.588 211.669C724.765 210.272 725.018 208.885 725.344 207.516Z" fill="#F2F2F2"/>
<path d="M74.1084 0.0487804C76.0755 -0.0649826 78.0452 0.220427 79.8994 0.887889C81.7537 1.55535 83.4543 2.59111 84.8992 3.93306C87.779 6.6504 89.9981 9.99341 91.3858 13.7048C94.2755 20.7405 94.1902 29.5107 93.044 37.0349C84.8016 35.2394 78.8515 27.4464 76.0837 23.2934C71.7064 16.7463 67.7681 2.24744 74.1084 0.0854324" fill="#F2F2F2"/>
<path d="M105.48 44.3759C104.063 42.6878 103.114 40.655 102.731 38.4826C102.348 36.3102 102.543 34.075 103.298 32.0024C104.09 29.9464 105.283 28.0689 106.807 26.4794C108.331 24.8898 110.156 23.6199 112.174 22.7437C114.027 21.9008 116.222 21.3634 118.039 22.2673C118.867 22.7401 119.553 23.4273 120.025 24.2568C120.497 25.0862 120.737 26.0275 120.721 26.9822C120.67 28.8926 120.115 30.7553 119.112 32.3811C115.954 38.0731 111.796 43.0079 105.48 44.3759Z" fill="#F2F2F2"/>
<path d="M107.358 63.3454C106.656 61.816 106.109 60.2201 105.724 58.5817C105.242 56.8039 104.972 54.9753 104.919 53.1339C104.795 50.8997 104.815 48.6596 104.98 46.428C105.293 42.3225 106.612 38.3577 108.821 34.8851C109.514 33.8573 110.307 32.9 111.186 32.0269C111.845 31.4406 112.223 31.1596 112.272 31.1963C112.32 31.2329 110.918 32.5888 109.333 35.2027C107.339 38.6607 106.139 42.5205 105.822 46.5013C105.665 48.7004 105.629 50.9064 105.712 53.1095C105.723 54.9008 105.923 56.6859 106.309 58.4351C106.777 60.0443 107.127 61.6854 107.358 63.3454Z" fill="#F2F2F2"/>
<path d="M78.083 10.8345C78.6265 11.4843 79.1082 12.1836 79.5218 12.9232C80.4119 14.3034 81.6555 16.3189 83.1796 18.8229C86.2157 23.8309 90.3369 30.7811 94.6898 38.5863C99.0426 46.3915 102.798 53.5493 105.395 58.8016C106.7 61.4156 107.724 63.5531 108.407 65.0433C108.806 65.7922 109.132 66.5775 109.382 67.3886C108.897 66.6915 108.469 65.9562 108.102 65.1899L104.859 59.0826C102.127 53.9157 98.2989 46.7946 93.946 39.0138L82.6554 19.1771C81.2654 16.7342 80.1192 14.7065 79.2413 13.1431C78.791 12.4076 78.4035 11.6353 78.083 10.8345Z" fill="#F2F2F2"/>
<path d="M98.518 51.5581C95.1658 48.3342 91.0931 45.9593 86.6393 44.6314C82.1854 43.3035 77.4793 43.0609 72.9129 43.9239C70.5962 44.3759 68.0357 45.4996 67.5236 47.8204C67.0115 50.1412 69.0721 52.1811 71.0717 53.4392C75.2983 55.9937 80.1861 57.2352 85.1171 57.007C90.048 56.7787 94.8007 55.0908 98.774 52.1567" fill="#F2F2F2"/>
<path d="M78.1807 48.4924C78.6037 48.3437 79.0492 48.2693 79.4975 48.2726C80.351 48.1749 81.5947 48.1138 83.1554 48.0893C87.1909 47.9783 91.2123 48.6118 95.0191 49.9582C97.111 50.7595 99.0557 51.9028 100.774 53.3417C102.173 54.5235 103.404 55.8921 104.432 57.4092C105.116 58.4183 105.704 59.4898 106.188 60.6094C106.4 60.9911 106.552 61.403 106.639 61.8309C106.48 61.9042 105.724 60.1452 103.944 57.7023C102.884 56.2883 101.655 55.0086 100.286 53.8913C98.6044 52.5535 96.7298 51.4786 94.7264 50.7033C91.0038 49.4023 87.0975 48.7054 83.1554 48.639C81.4957 48.6831 79.8349 48.6342 78.1807 48.4924Z" fill="#F2F2F2"/>
<path d="M363.373 449.843C362.695 448.221 362.351 446.478 362.362 444.719C362.372 442.96 362.737 441.221 363.434 439.607C364.846 436.375 366.982 433.512 369.677 431.24C374.725 426.721 382.101 424.192 388.771 422.91C389.697 430.397 384.93 437.726 382.272 441.232C378.078 446.875 367.08 454.497 363.373 449.782" fill="#F2F2F2"/>
<path d="M391.246 410.206C390.254 411.909 388.828 413.316 387.114 414.284C385.399 415.252 383.459 415.746 381.492 415.715C379.53 415.66 377.598 415.214 375.81 414.402C374.022 413.59 372.414 412.43 371.079 410.988C370.395 410.392 369.85 409.654 369.481 408.825C369.112 407.995 368.93 407.095 368.945 406.188C369.097 405.35 369.47 404.568 370.025 403.924C370.58 403.279 371.298 402.796 372.103 402.523C373.719 402.003 375.444 401.918 377.102 402.279C382.833 403.244 388.186 405.235 391.222 410.194" fill="#F2F2F2"/>
<path d="M406.645 403.036C405.577 404.087 404.4 405.021 403.133 405.821C401.787 406.756 400.334 407.527 398.805 408.118C396.967 408.886 395.081 409.535 393.16 410.06C389.618 411.018 385.894 411.085 382.32 410.255C381.253 409.975 380.215 409.591 379.223 409.107C378.54 408.728 378.187 408.496 378.211 408.448C378.236 408.399 379.772 409.168 382.442 409.73C385.94 410.384 389.539 410.247 392.977 409.327C394.864 408.802 396.724 408.182 398.549 407.47C400.05 406.926 401.489 406.221 402.841 405.369C404.057 404.509 405.328 403.73 406.645 403.036Z" fill="#F2F2F2"/>
<path d="M371.286 443.296C371.681 442.645 372.129 442.028 372.627 441.452C373.517 440.303 374.846 438.655 376.492 436.639C379.785 432.596 384.406 427.063 389.661 421.065C394.916 415.068 399.818 409.803 403.451 406.054C405.256 404.172 406.743 402.67 407.792 401.656C408.309 401.101 408.872 400.59 409.474 400.129C409.039 400.75 408.549 401.33 408.011 401.864C406.926 403.085 405.573 404.576 403.841 406.42C400.305 410.255 395.477 415.593 390.222 421.578L376.907 436.981L372.847 441.647C372.374 442.24 371.852 442.792 371.286 443.296Z" fill="#F2F2F2"/>
<path d="M399.33 413.981C397.632 417.761 396.856 421.892 397.068 426.032C397.28 430.171 398.474 434.201 400.549 437.787C401.61 439.607 403.341 441.452 405.426 441.171C407.511 440.89 408.633 438.569 409.084 436.505C409.964 432.192 409.55 427.714 407.894 423.637C406.239 419.559 403.416 416.063 399.781 413.59" fill="#F2F2F2"/>
<path d="M402.781 432.034C402.781 432.034 402.525 431.68 402.196 430.984C401.866 430.287 401.452 429.274 400.976 427.991C399.691 424.621 399.03 421.045 399.025 417.437C399.083 415.435 399.462 413.456 400.147 411.574C400.729 410.053 401.516 408.618 402.488 407.311C403.13 406.428 403.857 405.61 404.659 404.869C405.219 404.343 405.549 404.075 405.585 404.111C405.622 404.148 404.451 405.333 402.927 407.605C402.055 408.916 401.343 410.326 400.806 411.806C400.186 413.622 399.84 415.52 399.781 417.437C399.798 420.963 400.374 424.464 401.488 427.808C402 429.19 402.432 430.601 402.781 432.034Z" fill="#F2F2F2"/>
<path d="M1.28031 176.942C-3.85291 147.26 6.4501 114.476 30.0922 95.8854C53.7342 77.2946 90.4837 75.9144 113.394 95.409C129.501 109.126 137.036 130.062 146.632 148.934C156.228 167.806 170.762 186.909 191.648 190.171C209.669 192.98 227.788 183.111 245.87 185.48C263.526 187.789 278.303 202.251 283.388 219.339C288.472 236.428 284.607 255.422 275.56 270.739C266.513 286.056 252.393 297.99 237.091 307.029C187.722 336.112 122.21 335.123 73.7062 304.671C25.2028 274.22 -4.13335 215.504 0.548728 158.303" fill="#2D9CDB"/>
<path opacity="0.7" d="M1.28031 176.942C-3.85291 147.26 6.4501 114.476 30.0922 95.8854C53.7342 77.2946 90.4837 75.9144 113.394 95.409C129.501 109.126 137.036 130.062 146.632 148.934C156.228 167.806 170.762 186.909 191.648 190.171C209.669 192.98 227.788 183.111 245.87 185.48C263.526 187.789 278.303 202.251 283.388 219.339C288.472 236.428 284.607 255.422 275.56 270.739C266.513 286.056 252.393 297.99 237.091 307.029C187.722 336.112 122.21 335.123 73.7062 304.671C25.2028 274.22 -4.13335 215.504 0.548728 158.303" fill="#F0FAFF"/>
<path d="M287.29 442.612C303.324 431.619 310.859 407.482 300.836 390.834C290.692 375.688 274.938 363.607 256.942 361.054C238.945 358.502 218.961 367.04 210.938 383.42C205.878 393.729 205.866 406.188 210.06 416.876C214.478 427.583 222.266 436.551 232.239 442.417C248.809 452.457 271.305 453.581 287.29 442.612Z" fill="#2D9CDB"/>
<path opacity="0.7" d="M287.29 442.612C303.324 431.619 310.859 407.482 300.836 390.834C290.692 375.688 274.938 363.607 256.942 361.054C238.945 358.502 218.961 367.04 210.938 383.42C205.878 393.729 205.866 406.188 210.06 416.876C214.478 427.583 222.266 436.551 232.239 442.417C248.809 452.457 271.305 453.581 287.29 442.612Z" fill="#F0FAFF"/>
<path d="M807.927 341.438C806.94 315.726 794.222 290.234 772.934 275.845C751.645 261.456 722.004 259.489 700.069 272.864C686.401 281.195 676.488 294.46 668.233 308.189C663.709 315.713 658.991 324.007 650.858 327.293C640.287 331.58 628.667 325.742 617.486 323.506C604.435 320.892 590.88 323.34 579.562 330.356C568.245 337.372 560.009 348.432 556.522 361.299C546.767 401.839 575.14 430.776 605.476 448.341C639.385 467.982 682.292 467.958 719.163 454.863C743.366 446.313 765.923 432.144 782.408 412.417C798.892 392.691 808.927 367.15 807.927 341.438Z" fill="#2D9CDB"/>
<path opacity="0.7" d="M807.927 341.438C806.94 315.726 794.222 290.234 772.934 275.845C751.645 261.456 722.004 259.489 700.069 272.864C686.401 281.195 676.488 294.46 668.233 308.189C663.709 315.713 658.991 324.007 650.858 327.293C640.287 331.58 628.667 325.742 617.486 323.506C604.435 320.892 590.88 323.34 579.562 330.356C568.245 337.372 560.009 348.432 556.522 361.299C546.767 401.839 575.14 430.776 605.476 448.341C639.385 467.982 682.292 467.958 719.163 454.863C743.366 446.313 765.923 432.144 782.408 412.417C798.892 392.691 808.927 367.15 807.927 341.438Z" fill="#F0FAFF"/>
<path d="M749.645 121.781C746.511 101.26 726.759 82.8156 706.14 84.7944C686.888 87.5916 668.001 97.2045 657.222 113.426C646.444 129.647 645.432 152.818 657.466 168.123C665.038 177.761 676.975 183.538 689.168 184.43C701.498 185.112 713.713 181.74 723.954 174.829C741.329 163.469 752.778 142.326 749.645 121.781Z" fill="#2D9CDB"/>
<path opacity="0.7" d="M749.645 121.781C746.511 101.26 726.759 82.8156 706.14 84.7944C686.888 87.5916 668.001 97.2045 657.222 113.426C646.444 129.647 645.432 152.818 657.466 168.123C665.038 177.761 676.975 183.538 689.168 184.43C701.498 185.112 713.713 181.74 723.954 174.829C741.329 163.469 752.778 142.326 749.645 121.781Z" fill="#F0FAFF"/>
<path d="M692.729 339.654C690.293 339.661 687.87 339.312 685.535 338.616C662.368 331.666 663.588 314.92 664.527 301.459C665.429 288.915 665.465 281.024 655.138 277.14C641.47 272.009 635.849 276.993 627.326 284.542C617.181 293.532 604.574 304.72 573.97 300.176C558.119 297.819 532.514 289.428 501.166 262.824C489.987 253.405 479.653 243.023 470.281 231.799L475.012 227.988C475.488 228.574 522.296 286.362 574.86 294.155C602.66 298.283 613.621 288.56 623.302 279.986C631.984 272.29 640.177 265.023 657.272 271.435C672.367 277.115 671.428 290.27 670.586 301.887C669.611 315.481 668.77 327.22 687.278 332.777C708.128 339.031 735.55 305.905 751.901 286.166C757.754 279.118 761.814 274.013 765.057 271.362L769.642 275.026C767.618 277.469 761.984 283.577 756.571 290.063C739.915 310.205 715.505 339.654 692.729 339.654Z" fill="#2D9CDB"/>
<path d="M606.78 291.565C606.78 291.565 606.536 291.797 606.049 292.103C605.365 292.556 604.652 292.964 603.915 293.324C601.478 294.519 598.901 295.405 596.246 295.962C593.592 296.509 590.88 296.719 588.174 296.585C587.357 296.542 586.543 296.457 585.735 296.329C585.434 296.303 585.138 296.233 584.857 296.121C584.857 296.024 586.15 296.121 588.198 296.121C593.549 296.148 598.845 295.049 603.744 292.897C605.61 292.042 606.732 291.419 606.78 291.565Z" fill="white"/>
<path d="M642.433 273.133C641.769 273.158 641.105 273.133 640.445 273.06C637.26 273.014 634.158 274.086 631.678 276.089C631.203 276.554 630.693 276.982 630.154 277.372C630.434 276.753 630.851 276.205 631.374 275.772C632.577 274.635 634.009 273.768 635.573 273.229C637.137 272.69 638.798 272.49 640.445 272.645C641.137 272.65 641.817 272.817 642.433 273.133Z" fill="white"/>
<path d="M681.267 330.823C680.309 330.71 679.38 330.424 678.523 329.98C676.406 329.005 674.502 327.62 672.92 325.905C671.338 324.191 670.11 322.18 669.305 319.989C668.935 319.101 668.724 318.154 668.684 317.192C668.781 317.192 669.025 318.23 669.708 319.83C670.6 321.912 671.837 323.828 673.366 325.498C674.903 327.158 676.714 328.543 678.718 329.59C680.255 330.396 681.303 330.726 681.267 330.823Z" fill="white"/>
<path d="M766.167 273.573C763.263 277.06 760.047 280.273 756.559 283.174C759.479 279.702 762.694 276.49 766.167 273.573Z" fill="white"/>
<path d="M475.658 233.142C474.408 234.52 472.662 235.344 470.806 235.434C468.949 235.523 467.133 234.87 465.757 233.619L455.052 223.847L464.489 213.452L475.182 223.224C476.558 224.476 477.381 226.225 477.47 228.084C477.559 229.944 476.907 231.764 475.658 233.142Z" fill="#2D9CDB"/>
<path d="M475.658 233.142C476.017 232.615 476.347 232.069 476.645 231.505C477.398 229.912 477.516 228.09 476.975 226.412C476.608 225.251 475.939 224.21 475.036 223.395L471.805 220.5C469.525 218.424 466.989 216.139 464.294 213.709H464.709L459.99 218.912L455.271 224.103V223.688L462.733 230.492L465.928 233.435C466.821 234.256 467.915 234.825 469.098 235.084C470.819 235.462 472.62 235.17 474.134 234.266C474.668 233.914 475.181 233.53 475.67 233.118C475.28 233.642 474.796 234.089 474.243 234.437C472.706 235.452 470.83 235.816 469.025 235.451C467.761 235.204 466.586 234.621 465.623 233.765C464.611 232.861 463.538 231.884 462.392 230.87L454.869 224.067L454.649 223.871L454.857 223.651L459.563 218.448L464.282 213.269L464.477 213.049L464.696 213.245L472.158 220.097L475.353 223.041C476.3 223.918 476.991 225.037 477.353 226.278C477.883 228.039 477.699 229.94 476.841 231.567C476.552 232.164 476.15 232.699 475.658 233.142Z" fill="#828282"/>
<path d="M421.571 174.463L403.111 159.17C402.766 158.885 402.481 158.534 402.272 158.138C402.063 157.742 401.934 157.309 401.892 156.863C401.85 156.418 401.896 155.968 402.028 155.54C402.16 155.112 402.374 154.714 402.659 154.37C402.944 154.025 403.294 153.739 403.689 153.53C404.084 153.32 404.517 153.191 404.962 153.149C405.407 153.107 405.856 153.153 406.283 153.285C406.71 153.417 407.107 153.632 407.451 153.918L425.899 169.21L421.571 174.463Z" fill="#2D9CDB"/>
<path d="M404.208 196.803L385.772 181.511C385.427 181.226 385.141 180.876 384.931 180.481C384.72 180.086 384.59 179.653 384.547 179.207C384.504 178.761 384.549 178.311 384.68 177.883C384.811 177.454 385.024 177.056 385.309 176.71C385.593 176.364 385.942 176.077 386.337 175.867C386.732 175.656 387.165 175.526 387.611 175.484C388.056 175.442 388.506 175.489 388.933 175.622C389.36 175.755 389.757 175.971 390.101 176.258L408.561 191.539L404.208 196.803Z" fill="#2D9CDB"/>
<g opacity="0.6">
<path opacity="0.6" d="M421.571 174.463L403.111 159.17C402.766 158.885 402.481 158.534 402.272 158.138C402.063 157.742 401.934 157.309 401.892 156.863C401.85 156.418 401.896 155.968 402.028 155.54C402.16 155.112 402.374 154.714 402.659 154.37C402.944 154.025 403.294 153.739 403.689 153.53C404.084 153.32 404.517 153.191 404.962 153.149C405.407 153.107 405.856 153.153 406.283 153.285C406.71 153.417 407.107 153.632 407.451 153.918L425.899 169.21L421.571 174.463Z" fill="white"/>
</g>
<g opacity="0.6">
<path opacity="0.6" d="M404.208 196.803L385.772 181.511C385.427 181.226 385.141 180.876 384.931 180.481C384.72 180.086 384.59 179.653 384.547 179.207C384.504 178.761 384.549 178.311 384.68 177.883C384.811 177.454 385.024 177.056 385.309 176.71C385.593 176.364 385.942 176.077 386.337 175.867C386.732 175.656 387.165 175.526 387.611 175.484C388.056 175.442 388.506 175.489 388.933 175.622C389.36 175.755 389.757 175.971 390.101 176.258L408.561 191.539L404.208 196.803Z" fill="white"/>
</g>
<path d="M421.57 174.463C421.655 174.322 421.749 174.188 421.851 174.06L422.68 172.985L425.765 169.088V169.345L417.096 162.285L411.67 157.814L408.756 155.371L407.256 154.15C406.799 153.756 406.234 153.509 405.634 153.441C405.128 153.376 404.613 153.438 404.137 153.621C403.66 153.805 403.236 154.104 402.903 154.492C402.581 154.87 402.353 155.32 402.239 155.805C402.124 156.289 402.126 156.793 402.245 157.277C402.362 157.731 402.588 158.151 402.903 158.498C403.247 158.86 403.618 159.194 404.013 159.5L406.305 161.405L414.206 168.062L419.559 172.631L421.022 173.852C421.208 174.002 421.383 174.165 421.546 174.341C421.364 174.235 421.192 174.113 421.034 173.974L419.571 172.753C418.217 171.666 416.364 170.188 414.121 168.368L406 161.759L403.659 159.842C403.232 159.512 402.825 159.157 402.44 158.779C401.924 158.22 401.595 157.514 401.498 156.759C401.401 156.004 401.541 155.237 401.899 154.565C402.257 153.894 402.815 153.35 403.495 153.011C404.176 152.672 404.945 152.553 405.695 152.672C406.408 152.764 407.08 153.056 407.634 153.514L409.122 154.736L412.023 157.179L417.425 161.686L425.96 168.881L426.106 169.003L425.984 169.137L422.68 172.997L421.802 173.974C421.746 174.146 421.668 174.31 421.57 174.463Z" fill="#828282"/>
<path d="M404.207 196.803C404.29 196.659 404.388 196.524 404.5 196.4C404.719 196.107 404.988 195.753 405.329 195.325L408.414 191.429V191.685L399.745 184.613L394.319 180.155L391.405 177.712L389.905 176.49C389.438 176.104 388.872 175.858 388.271 175.782C387.764 175.722 387.25 175.787 386.773 175.972C386.297 176.158 385.874 176.457 385.54 176.845C385.216 177.222 384.989 177.673 384.876 178.158C384.764 178.643 384.77 179.147 384.894 179.63C385.009 180.082 385.231 180.501 385.54 180.851C385.889 181.208 386.264 181.539 386.662 181.84L388.942 183.758L396.855 190.415L402.208 194.983L403.671 196.205C403.859 196.348 404.031 196.512 404.183 196.693C404.183 196.693 404.012 196.584 403.683 196.327L402.208 195.167L396.758 190.782L388.649 184.173L386.308 182.243C385.875 181.921 385.467 181.566 385.089 181.181C384.709 180.747 384.441 180.227 384.309 179.666C384.16 179.093 384.153 178.493 384.286 177.916C384.42 177.34 384.691 176.805 385.077 176.356C385.48 175.903 385.987 175.555 386.554 175.342C387.121 175.129 387.731 175.058 388.332 175.134C389.045 175.227 389.717 175.519 390.271 175.977C390.771 176.405 391.271 176.808 391.771 177.199L394.673 179.642L400.074 184.137L408.609 191.343L408.743 191.466L408.633 191.6C407.243 193.2 406.134 194.495 405.317 195.448L404.451 196.437C404.329 196.706 404.207 196.816 404.207 196.803Z" fill="#828282"/>
<path d="M463.513 193.848L464.001 193.261C465.032 192.018 465.566 190.436 465.501 188.821C465.435 187.206 464.775 185.673 463.647 184.518C462.519 183.362 461.004 182.666 459.394 182.564C457.784 182.462 456.193 182.962 454.929 183.966L427.91 161.417L397.001 198.465L424.654 220.451C423.797 221.794 423.459 223.404 423.704 224.978C423.949 226.553 424.759 227.984 425.984 229.001C427.295 230.087 428.978 230.616 430.673 230.475C432.369 230.333 433.941 229.533 435.055 228.244C438.958 231.194 443.856 232.504 448.707 231.895C453.559 231.286 457.982 228.806 461.038 224.983L465.476 219.437C468.439 215.713 469.883 211.003 469.519 206.256C469.155 201.508 467.009 197.074 463.513 193.848Z" fill="#2D9CDB"/>
<path d="M463.513 193.848L463.745 194.055L464.391 194.678C464.749 195.009 465.079 195.368 465.379 195.753L465.976 196.486L466.586 197.378C467.663 198.935 468.487 200.654 469.025 202.471C469.836 205.214 470.013 208.105 469.542 210.927C469.071 213.748 467.964 216.425 466.305 218.753C465.318 220.158 464.172 221.489 463.05 222.943C461.919 224.478 460.667 225.92 459.307 227.255C456.215 230.152 452.236 231.917 448.016 232.263C443.345 232.669 438.688 231.339 434.933 228.525H435.311C434.17 229.828 432.581 230.652 430.861 230.834C429.967 230.928 429.063 230.842 428.203 230.582C427.342 230.322 426.542 229.893 425.849 229.319C424.57 228.254 423.724 226.758 423.468 225.112C423.212 223.465 423.564 221.782 424.459 220.378L424.52 220.757L403.073 203.619L396.818 198.636L396.574 198.452L396.769 198.208C408.036 184.772 418.558 172.142 427.715 161.198L427.886 160.99L428.081 161.161L455.039 183.77H454.832C455.818 182.993 457.002 182.512 458.25 182.381C459.497 182.25 460.756 182.476 461.881 183.031C463.006 183.587 463.95 184.45 464.606 185.521C465.262 186.592 465.602 187.828 465.586 189.084C465.563 190.401 465.137 191.68 464.367 192.748C464.171 193.017 463.96 193.274 463.733 193.518L463.501 193.774C463.501 193.774 463.794 193.408 464.294 192.699C465.012 191.613 465.394 190.338 465.391 189.035C465.387 188.008 465.138 186.996 464.665 186.085C464.192 185.173 463.509 184.388 462.672 183.795C461.612 183.012 460.331 182.585 459.014 182.573C457.551 182.556 456.126 183.043 454.978 183.954L454.869 184.039L454.759 183.954L427.691 161.479H428.056L397.233 198.611V198.184L403.475 203.167L424.874 220.268L425.081 220.427L424.935 220.647C424.107 221.927 423.775 223.466 423.999 224.975C424.224 226.484 424.99 227.859 426.154 228.843C427.41 229.883 429.023 230.391 430.648 230.256C432.272 230.121 433.779 229.355 434.848 228.122L435.018 227.939L435.214 228.085C438.694 230.688 442.974 231.987 447.31 231.757C451.647 231.527 455.767 229.783 458.953 226.827C460.28 225.507 461.503 224.086 462.611 222.577C463.745 221.135 464.915 219.792 465.891 218.424C468.071 215.37 469.285 211.732 469.376 207.979C469.468 204.227 468.432 200.533 466.403 197.378C466.196 197.06 466.001 196.755 465.806 196.474L465.22 195.741C464.928 195.346 464.61 194.97 464.269 194.617L463.647 193.97C463.55 193.888 463.505 193.848 463.513 193.848Z" fill="#828282"/>
<path d="M432.593 194.558L413.528 178.764L410.443 182.501L429.508 198.295L432.593 194.558Z" fill="#F2F2F2"/>
<path d="M463.513 193.847C463.213 194.356 462.871 194.838 462.489 195.289C461.806 196.205 460.794 197.5 459.526 199.088C457.002 202.276 453.43 206.612 449.443 211.363C445.456 216.115 441.907 220.329 439.213 223.517L436.116 227.181C435.75 227.649 435.341 228.083 434.896 228.476C435.197 227.967 435.539 227.485 435.921 227.035C436.603 226.119 437.615 224.824 438.884 223.236C441.407 220.048 444.98 215.712 448.967 211.021L459.197 198.807L462.306 195.142C462.667 194.673 463.071 194.24 463.513 193.847Z" fill="#828282"/>
<path d="M454.93 183.917C454.611 184.454 454.244 184.961 453.833 185.432C453.089 186.384 451.992 187.752 450.638 189.426C447.907 192.773 444.079 197.341 439.811 202.349C435.544 207.357 431.715 211.803 428.837 215.162C427.472 216.726 426.399 218.033 425.497 219.022C425.104 219.513 424.671 219.97 424.204 220.39C424.536 219.859 424.907 219.352 425.314 218.876C426.057 217.923 427.143 216.555 428.508 214.881C431.239 211.534 435.068 206.966 439.336 201.958L450.309 189.157L453.65 185.285C454.041 184.797 454.469 184.339 454.93 183.917Z" fill="#828282"/>
<path d="M164.958 278.043C159.657 278.042 154.371 277.469 149.193 276.333C138.439 273.964 130.013 270.482 123.588 265.719C115.563 268.524 107.15 270.053 98.6532 270.25C70.9996 270.995 45.9676 262.335 15.278 237.454C13.7336 234.148 12.2461 230.65 10.8154 226.961C40.3589 250.915 72.3409 264.827 98.4947 264.167C105.176 263.991 111.804 262.936 118.211 261.028C111.078 253.577 107.481 243.842 107.53 232.018C107.53 219.059 113.09 213.183 117.699 210.545C124.222 206.795 133.147 207.308 140.975 211.876C149.607 216.921 154.741 225.447 154.704 234.693C154.645 238.485 153.727 242.215 152.021 245.6C150.314 248.985 147.863 251.938 144.852 254.237C140.364 257.687 135.501 260.617 130.355 262.97C145.074 271.061 162.149 273.756 178.639 270.592C204.622 265.426 226.325 256.191 243.139 243.146C256.3 233.014 266.869 219.893 273.975 204.866C281.081 189.839 284.52 173.335 284.01 156.715V156.605C282.51 126.496 264.965 97.0826 239.286 81.6676C217.022 68.2925 188.491 64.6281 158.959 71.3462C140.609 75.5236 115.638 85.4297 100.921 108.919C85.0703 134.227 89.3622 165.631 102.445 180.228C111.773 190.647 129.648 186.885 144.023 183.892L148.754 182.915C164.202 179.837 226.886 150.388 227.13 150.302L228.459 155.31C227.447 155.664 165.812 185.725 149.937 188.888C148.425 189.181 146.864 189.511 145.267 189.853C129.416 193.188 109.59 197.341 97.9216 184.32C89.4841 174.89 84.7898 161.283 84.7045 146.002C84.6111 131.8 88.4429 117.849 95.7757 105.694C111.626 80.4461 138.146 69.856 157.618 65.3854C188.673 58.3253 218.79 62.234 242.408 76.3786C269.72 92.8685 288.375 124.224 290.033 156.251C290.167 157.887 291.801 181.242 279.328 207.674C271.842 223.507 260.699 237.324 246.821 247.983C229.251 261.615 206.707 271.191 179.76 276.59C174.886 277.56 169.928 278.047 164.958 278.043ZM127.514 214.148C125.137 214.111 122.792 214.696 120.71 215.846C116.089 218.497 113.638 224.103 113.602 232.067C113.602 243.464 117.125 252.27 124.575 258.817C130.492 256.459 136.056 253.294 141.109 249.412C143.385 247.684 145.242 245.462 146.541 242.913C147.84 240.364 148.546 237.554 148.608 234.693C148.608 227.646 144.633 221.098 137.89 217.165C134.755 215.265 131.177 214.225 127.514 214.148Z" fill="#2D9CDB"/>
<path d="M128.441 268.87C127.62 268.64 126.848 268.264 126.161 267.759C124.427 266.661 122.776 265.437 121.223 264.094C119.644 262.789 118.172 261.36 116.821 259.819C116.213 259.214 115.729 258.497 115.395 257.706C115.468 257.706 116.041 258.439 117.138 259.538C118.235 260.638 119.796 262.103 121.601 263.63C123.405 265.157 125.124 266.476 126.393 267.368C127.11 267.819 127.795 268.321 128.441 268.87Z" fill="#828282"/>
<path d="M134.83 265.303C133.879 265.251 132.947 265.014 132.086 264.607C129.973 263.736 128 262.554 126.233 261.102C124.459 259.665 122.859 258.026 121.466 256.216C120.843 255.486 120.341 254.662 119.979 253.773C120.052 253.773 120.661 254.603 121.795 255.91C123.277 257.61 124.909 259.172 126.672 260.576C128.404 261.996 130.299 263.202 132.318 264.167C133.805 264.949 134.854 265.206 134.83 265.303Z" fill="#828282"/>
<path d="M110.493 244.257C110.307 243.953 110.175 243.618 110.103 243.268C109.818 242.345 109.582 241.407 109.396 240.459C108.165 234.165 108.623 227.657 110.725 221.599C111.033 220.687 111.396 219.794 111.81 218.924C111.937 218.592 112.109 218.28 112.322 217.996C112.42 217.996 111.822 219.425 111.103 221.734C110.193 224.747 109.617 227.852 109.383 230.992C109.173 234.129 109.312 237.28 109.798 240.385C110.188 242.78 110.591 244.233 110.493 244.257Z" fill="white"/>
<path d="M95.3121 266.122C94.3618 266.431 93.3724 266.604 92.3736 266.635C87.5636 267.039 82.7247 266.35 78.2176 264.619C77.2682 264.308 76.3658 263.868 75.5352 263.312C76.4964 263.553 77.4413 263.855 78.3639 264.216C80.6131 264.954 82.9223 265.493 85.2651 265.829C87.6114 266.157 89.9814 266.284 92.3492 266.207C93.3342 266.119 94.3236 266.091 95.3121 266.122Z" fill="white"/>
<path d="M263.416 225.606C262.922 226.556 262.325 227.449 261.636 228.269C258.504 232.37 254.894 236.081 250.882 239.323C250.085 240.035 249.21 240.654 248.272 241.167C248.988 240.404 249.758 239.693 250.577 239.042C252.04 237.735 254.028 235.891 256.125 233.753C258.222 231.615 260.002 229.551 261.27 228.049C261.925 227.183 262.642 226.366 263.416 225.606Z" fill="white"/>
<path d="M89.5084 163.421C89.2444 162.903 89.0359 162.358 88.8866 161.796C88.397 160.301 87.9899 158.78 87.6673 157.24C87.1257 154.962 86.7186 152.653 86.448 150.327C85.8091 144.612 85.9609 138.837 86.8992 133.165C87.285 130.852 87.8061 128.564 88.4599 126.312C88.8922 124.793 89.4009 123.297 89.984 121.83C90.1639 121.277 90.4009 120.745 90.6912 120.242C90.5737 120.812 90.4106 121.371 90.2034 121.915C89.8376 122.966 89.3743 124.505 88.8744 126.422C88.2789 128.672 87.8027 130.951 87.4478 133.25C87.0306 136.084 86.7742 138.938 86.6797 141.801C86.6157 144.655 86.7257 147.51 87.0089 150.351C87.2406 152.664 87.5947 154.964 88.0697 157.24C88.472 159.182 88.85 160.746 89.1548 161.808C89.3151 162.336 89.4333 162.875 89.5084 163.421Z" fill="white"/>
<path d="M96.8729 108.589C96.5681 109.752 96.0693 110.854 95.3976 111.85C94.8955 112.944 94.2156 113.947 93.3857 114.818C93.6982 113.656 94.2009 112.554 94.8733 111.557C95.3788 110.468 96.0538 109.466 96.8729 108.589Z" fill="white"/>
<path d="M223.594 60.8293C223.911 60.695 224.631 61.8187 225.74 62.9425C226.85 64.0662 227.947 64.8113 227.813 65.1289C227.679 65.4465 226.179 65.1289 224.887 63.7853C223.594 62.4417 223.29 60.927 223.594 60.8293Z" fill="#828282"/>
<path d="M313.59 158.767L302.751 102.946C302.508 101.886 301.864 100.962 300.954 100.369C300.045 99.7757 298.94 99.5604 297.875 99.7681C296.809 99.9759 295.866 100.59 295.245 101.482C294.623 102.374 294.372 103.472 294.545 104.546L295.045 107.086L272.622 112.607C270.244 113.191 268.046 114.351 266.22 115.984C264.394 117.618 262.995 119.675 262.148 121.976L248.626 125.311C246.376 125.866 244.438 127.293 243.237 129.279C242.037 131.264 241.673 133.646 242.225 135.901L243.444 140.787L230.215 144.06C229.338 144.277 228.513 144.664 227.786 145.2C227.058 145.737 226.444 146.411 225.977 147.185C225.51 147.959 225.199 148.818 225.064 149.712C224.928 150.606 224.969 151.519 225.185 152.397C225.401 153.275 225.788 154.102 226.323 154.831C226.859 155.559 227.532 156.175 228.304 156.643C229.077 157.111 229.934 157.421 230.827 157.557C231.72 157.693 232.63 157.652 233.507 157.435L246.748 154.174L247.687 157.997C248.241 160.252 249.666 162.193 251.648 163.396C253.63 164.598 256.008 164.963 258.259 164.41L272.024 161.014V160.904C273.828 162.45 275.973 163.543 278.282 164.093C280.591 164.643 282.997 164.635 285.302 164.068L305.201 159.182L305.433 160.404C305.675 161.464 306.319 162.388 307.229 162.981C308.139 163.574 309.243 163.789 310.309 163.581C311.374 163.373 312.317 162.759 312.939 161.867C313.56 160.976 313.811 159.877 313.639 158.803L313.59 158.767Z" fill="#2D9CDB"/>
<path d="M313.589 158.767C313.674 159.073 313.711 159.39 313.699 159.707C313.683 160.653 313.348 161.566 312.748 162.297C312.255 162.888 311.612 163.335 310.887 163.593C310.162 163.851 309.382 163.909 308.627 163.763C307.888 163.605 307.204 163.254 306.645 162.746C306.086 162.237 305.672 161.589 305.445 160.868C305.286 160.33 305.213 159.781 305.091 159.219L305.25 159.316L290.618 162.981L286.241 164.08C284.691 164.526 283.086 164.748 281.473 164.74C277.943 164.672 274.547 163.376 271.865 161.075L272.231 160.843V160.941L272.292 161.173H272.06C267.415 162.309 262.55 163.616 257.319 164.776C255.924 164.956 254.506 164.806 253.179 164.339C251.852 163.873 250.652 163.102 249.674 162.089C248.66 161.044 247.919 159.764 247.516 158.364C247.138 156.971 246.821 155.579 246.468 154.174L246.797 154.382L235.628 157.203C234.665 157.411 233.75 157.704 232.714 157.863C231.393 158.024 230.054 157.813 228.847 157.252C227.639 156.692 226.612 155.805 225.881 154.692C225.15 153.578 224.743 152.282 224.708 150.95C224.672 149.618 225.008 148.302 225.679 147.151C226.244 146.218 227.004 145.419 227.907 144.81C228.81 144.2 229.834 143.795 230.909 143.621L243.371 140.555L243.151 140.909C242.907 139.895 242.651 138.845 242.383 137.782C242.067 136.691 241.843 135.576 241.712 134.447C241.545 132.119 242.284 129.817 243.773 128.022C244.501 127.14 245.391 126.407 246.394 125.86C247.394 125.346 248.461 124.976 249.565 124.761L262.074 121.683L261.879 121.866C263.073 118.67 265.289 115.959 268.183 114.159C269.595 113.297 271.134 112.667 272.743 112.29L277.377 111.142L294.983 106.83L294.788 107.135C294.654 106.476 294.532 105.804 294.398 105.144C294.224 104.471 294.178 103.77 294.264 103.08C294.373 102.397 294.641 101.749 295.045 101.188C295.449 100.627 295.978 100.169 296.591 99.8492C297.204 99.5299 297.882 99.3586 298.573 99.3491C299.263 99.3395 299.946 99.4919 300.567 99.7942C301.176 100.073 301.712 100.487 302.135 101.006C302.557 101.525 302.855 102.134 303.006 102.787L305.676 116.602C307.335 125.274 308.785 132.847 309.98 139.113C311.175 145.379 312.09 150.265 312.736 153.649C313.041 155.31 313.272 156.593 313.431 157.484C313.504 157.912 313.565 158.229 313.602 158.474C313.613 158.587 313.613 158.702 313.602 158.816C313.561 158.709 313.532 158.599 313.516 158.486C313.516 158.242 313.394 157.924 313.309 157.509L312.517 153.673C311.846 150.302 310.87 145.392 309.627 139.174C308.383 132.957 306.908 125.347 305.201 116.687C304.347 112.355 303.441 107.758 302.482 102.897C302.347 102.321 302.084 101.783 301.713 101.324C301.341 100.865 300.87 100.497 300.336 100.246C299.785 99.9836 299.18 99.8541 298.571 99.8681C297.961 99.8821 297.363 100.039 296.824 100.326C296.286 100.614 295.823 101.024 295.471 101.523C295.119 102.023 294.89 102.598 294.8 103.202C294.714 103.835 294.756 104.479 294.922 105.095C295.056 105.755 295.19 106.415 295.312 107.086V107.331L295.068 107.392L277.474 111.752C274.438 112.595 271.17 112.974 268.451 114.696C265.655 116.428 263.511 119.04 262.355 122.123L262.294 122.269H262.148L249.638 125.36C248.585 125.559 247.567 125.909 246.614 126.398C245.683 126.912 244.856 127.595 244.175 128.413C242.781 130.086 242.09 132.237 242.249 134.411C242.374 135.507 242.594 136.59 242.907 137.648C243.163 138.722 243.431 139.773 243.675 140.787L243.748 141.068L243.456 141.141L231.068 144.207C230.065 144.353 229.108 144.72 228.265 145.282C227.421 145.844 226.713 146.586 226.191 147.456C225.589 148.51 225.29 149.711 225.33 150.925C225.369 152.139 225.743 153.318 226.412 154.331C227.081 155.345 228.017 156.152 229.117 156.663C230.217 157.175 231.437 157.37 232.641 157.228C233.567 157.106 234.543 156.8 235.494 156.58L246.65 153.844L246.919 153.783L246.98 154.04C247.333 155.444 247.65 156.861 248.016 158.217C248.393 159.534 249.089 160.738 250.04 161.723C250.959 162.678 252.088 163.406 253.336 163.85C254.585 164.293 255.919 164.438 257.234 164.276C262.367 163.127 267.317 161.833 271.938 160.721L271.78 161.002V160.904L271.609 160.208L272.146 160.672C274.748 162.907 278.046 164.163 281.473 164.227C283.048 164.24 284.617 164.026 286.131 163.592L290.508 162.529L305.14 158.974H305.274V159.109C305.396 159.671 305.469 160.245 305.615 160.746C305.762 161.239 306.002 161.699 306.323 162.101C306.918 162.827 307.737 163.334 308.651 163.543C309.236 163.663 309.84 163.656 310.422 163.52C311.003 163.385 311.548 163.125 312.02 162.758C312.492 162.391 312.878 161.926 313.153 161.395C313.429 160.865 313.586 160.28 313.614 159.683C313.621 159.377 313.613 159.072 313.589 158.767Z" fill="#828282"/>
<path d="M305.64 159.06C305.481 159.06 302.872 147.505 299.812 133.189C296.751 118.874 294.386 107.221 294.557 107.184C294.727 107.148 297.324 118.727 300.397 133.055C303.47 147.383 305.811 159.023 305.64 159.06Z" fill="#828282"/>
<path d="M271.975 160.868C271.816 160.868 269.536 152.208 266.781 141.446C264.025 130.685 262.013 121.903 262.172 121.903C262.33 121.903 264.61 130.563 267.366 141.349C270.122 152.134 272.133 160.868 271.975 160.868Z" fill="#828282"/>
<path d="M246.724 154.174C245.83 152.056 245.179 149.844 244.786 147.578C244.202 145.36 243.754 143.108 243.444 140.836C244.332 142.959 244.979 145.176 245.371 147.444C245.955 149.658 246.407 151.906 246.724 154.174Z" fill="#828282"/>
<path d="M258.746 125.188C258.746 125.274 257.442 125.469 255.344 125.909C254.296 126.129 253.052 126.41 251.686 126.789C250.217 127.167 248.8 127.724 247.468 128.45C246.114 129.065 245.046 130.175 244.48 131.552C244.207 132.756 244.182 134.003 244.407 135.217C244.676 137.33 245.029 138.625 244.944 138.649C244.448 137.583 244.123 136.445 243.981 135.278C243.703 134.006 243.703 132.69 243.981 131.418C244.198 130.648 244.619 129.952 245.2 129.403C245.796 128.83 246.464 128.337 247.187 127.937C248.559 127.179 250.028 126.612 251.552 126.251C252.942 125.897 254.21 125.665 255.21 125.494C256.37 125.236 257.559 125.133 258.746 125.188Z" fill="white"/>
<path d="M290.813 110.372C290.447 110.549 290.057 110.669 289.655 110.726C288.911 110.91 287.814 111.166 286.46 111.459L275.901 113.682C273.988 114.081 272.135 114.73 270.39 115.612C268.976 116.349 267.73 117.372 266.732 118.617C265.84 119.793 265.219 121.153 264.915 122.599C264.852 122.191 264.881 121.773 265.001 121.378C265.269 120.286 265.754 119.26 266.427 118.361C267.419 117.028 268.688 115.928 270.146 115.136C271.921 114.189 273.822 113.502 275.791 113.096C279.937 112.204 283.68 111.545 286.411 111.044C287.765 110.8 288.85 110.616 289.643 110.494C290.027 110.411 290.42 110.37 290.813 110.372Z" fill="white"/>
<path d="M241.127 143.877C240.42 144.358 239.617 144.679 238.774 144.818C237.25 145.233 235.116 145.404 232.811 145.893C231.747 146.109 230.717 146.471 229.751 146.967C228.971 147.374 228.266 147.911 227.666 148.555C227.148 149.197 226.703 149.893 226.337 150.632C226.39 149.758 226.744 148.93 227.337 148.287C227.929 147.551 228.658 146.937 229.483 146.479C230.478 145.908 231.556 145.496 232.677 145.257C235.03 144.757 237.176 144.659 238.676 144.353C240.176 144.048 241.09 143.767 241.127 143.877Z" fill="white"/>
<path d="M299.946 100.869C299.946 100.967 299.495 100.955 298.848 101.126C298.025 101.35 297.284 101.808 296.715 102.445C296.167 103.108 295.831 103.921 295.751 104.778C295.678 105.437 295.752 105.877 295.666 105.889C295.581 105.902 295.361 105.511 295.325 104.766C295.283 103.777 295.614 102.81 296.251 102.054C296.899 101.311 297.798 100.833 298.775 100.71C299.519 100.625 299.958 100.796 299.946 100.869Z" fill="white"/>
<path d="M477.583 92.6365C477.518 92.6958 477.444 92.7452 477.364 92.783L476.669 93.1617L473.974 94.5664L463.976 99.6844L430.421 116.614L430.202 116.736L430.043 116.528C429.117 115.197 428.129 113.792 427.117 112.375L422.959 106.464L423.349 106.549L392.075 124.639L382.759 129.965L380.223 131.369C379.955 131.516 379.748 131.638 379.565 131.724C379.382 131.809 379.333 131.846 379.333 131.833C379.333 131.821 379.333 131.833 379.54 131.675L380.174 131.272L382.613 129.769L391.843 124.297L423.008 106.036L423.24 105.889L423.398 106.122C424.739 108.003 426.142 110.006 427.58 112.021C428.58 113.45 429.568 114.855 430.507 116.174L430.129 116.076L463.757 99.3179L473.84 94.371L476.584 93.0518L477.291 92.7342L477.583 92.6365Z" fill="#828282"/>
<path d="M468.695 136.756C468.482 136.839 468.262 136.901 468.037 136.939L466.11 137.367L458.965 138.881L435.055 143.523L434.762 143.584V143.291L434.226 140.323C434.116 139.651 433.994 138.979 433.884 138.368L434.226 138.613C424.532 140.274 415.936 142.277 409.84 143.938C406.755 144.744 404.292 145.441 402.524 145.917L400.561 146.467C400.335 146.54 400.102 146.589 399.866 146.613C400.076 146.502 400.297 146.412 400.525 146.344L402.451 145.697C404.146 145.147 406.597 144.39 409.669 143.535C417.72 141.282 425.879 139.439 434.116 138.014H434.409V138.307C434.518 138.93 434.64 139.602 434.762 140.262C434.945 141.288 435.116 142.289 435.287 143.23L434.933 142.985L458.88 138.527L466.049 137.306L468 136.988C468.219 136.876 468.453 136.798 468.695 136.756Z" fill="#828282"/>
<path d="M386.954 94.3588C387.1 94.432 384.003 101.15 380.016 109.358C376.029 117.567 372.7 124.163 372.542 124.089C372.383 124.016 375.505 117.31 379.48 109.09C383.455 100.869 386.808 94.2855 386.954 94.3588Z" fill="#828282"/>
<path d="M423.361 127.29C423.361 127.448 415.692 129.842 406.133 132.64C396.574 135.437 388.77 137.525 388.734 137.416C388.697 137.306 396.391 134.863 405.962 132.066C415.534 129.268 423.313 127.131 423.361 127.29Z" fill="#828282"/>
<path d="M363.689 73.3372C363.897 73.7261 364.065 74.1354 364.189 74.5586C364.506 75.4625 364.921 76.6596 365.409 78.1253C366.469 81.2767 367.908 85.6252 369.615 90.7431L369.737 91.1096H369.347L359.824 90.9141L360.129 90.5599C360.349 91.7814 360.592 93.0028 360.836 94.3587C362.397 102.909 363.799 110.751 364.848 116.492C365.323 119.264 365.713 121.536 365.994 123.21C366.104 123.943 366.201 124.553 366.274 125.042C366.325 125.254 366.345 125.472 366.335 125.689C366.248 125.49 366.186 125.281 366.152 125.066C366.055 124.578 365.921 123.979 365.762 123.246L364.433 116.565C363.348 110.836 361.873 103.056 360.239 94.4564C360.007 93.1616 359.763 91.8913 359.544 90.6698L359.471 90.3156H359.836L369.359 90.5599L369.103 90.9263L365.104 78.2353C364.653 76.7451 364.287 75.5358 364.019 74.5709C363.883 74.1671 363.773 73.755 363.689 73.3372Z" fill="#828282"/>
<path d="M321.588 165.375C321.514 165.228 327.684 162.175 335.402 158.559C343.12 154.944 349.4 152.134 349.473 152.281C349.546 152.427 343.376 155.493 335.658 159.109C327.94 162.724 321.661 165.522 321.588 165.375Z" fill="#828282"/>
<path d="M350.339 174.231C351.933 171.838 353.693 169.56 355.606 167.415C357.376 165.148 359.295 163.002 361.349 160.99C359.757 163.387 357.992 165.665 356.07 167.806C354.31 170.077 352.395 172.224 350.339 174.231Z" fill="#828282"/>
<path d="M365.836 216.176C365.678 216.176 366.726 204.267 368.202 189.609C369.677 174.951 370.994 163.079 371.164 163.103C371.335 163.127 370.262 175.012 368.799 189.67C367.336 204.328 366.007 216.188 365.836 216.176Z" fill="#828282"/>
<path d="M344.681 110.934C345.792 112.496 346.736 114.17 347.497 115.93C348.44 117.598 349.2 119.363 349.765 121.194C348.661 119.631 347.721 117.956 346.961 116.199C346.022 114.527 345.258 112.763 344.681 110.934Z" fill="#828282"/>
</g>
<defs>
<clipPath id="clip0">
<rect width="808" height="464" fill="white"/>
</clipPath>
</defs>
</svg>
