<svg width="18" height="15" viewBox="0 0 18 15" fill="none" xmlns="http://www.w3.org/2000/svg">
<path d="M18 7.50011C18 7.92047 17.6922 8.26787 17.2928 8.32285L17.1818 8.33043L2.799 8.33L7.99526 13.5813C8.31547 13.9049 8.31658 14.4306 7.99775 14.7555C7.7079 15.051 7.25342 15.0787 6.9326 14.8383L6.84067 14.7581L0.240669 8.08894L0.224493 8.07145C0.207733 8.05352 0.191755 8.03484 0.176611 8.01544L0.240669 8.08894C0.20887 8.05681 0.180219 8.02269 0.154718 7.98697C0.139301 7.96453 0.12434 7.94123 0.110538 7.91716C0.0793587 7.8636 0.0551964 7.80755 0.0373742 7.74992C0.0313698 7.72961 0.025787 7.70887 0.0209939 7.68781C0.0170952 7.67174 0.013889 7.65541 0.011171 7.63901C0.00845304 7.62124 0.0060822 7.60345 0.00427404 7.5855C0.00222555 7.56749 0.000968603 7.54907 0.000314383 7.53064C0.000178962 7.52042 -3.28285e-07 7.51029 -3.2784e-07 7.50011L0.000243814 7.47254C0.000919016 7.45209 0.00233618 7.43166 0.00449339 7.4113L-3.2784e-07 7.50011C-3.25768e-07 7.4527 0.00391546 7.40621 0.011438 7.36097C0.0147988 7.34036 0.019056 7.31965 0.0240971 7.29911C0.0281388 7.28278 0.0325829 7.26675 0.0374829 7.25093C0.043266 7.23213 0.0498749 7.21318 0.0571801 7.19446C0.0647675 7.17512 0.072971 7.15623 0.0818345 7.13771C0.0885503 7.12355 0.0960671 7.10894 0.10404 7.09451C0.119079 7.06746 0.135 7.04208 0.152191 7.01768C0.154895 7.01386 0.157926 7.00965 0.161001 7.00546C0.188289 6.96839 0.216572 6.9357 0.247184 6.90543L6.84062 0.24198C7.1608 -0.0816077 7.67884 -0.0805192 7.9977 0.244411C8.28757 0.539803 8.31304 1.00114 8.07472 1.3257L7.99531 1.41866L2.8 6.669L17.1818 6.66979C17.6337 6.66979 18 7.04154 18 7.50011Z" fill="black"/>
</svg>
