<svg width="64" height="64" viewBox="0 0 64 64" fill="none" xmlns="http://www.w3.org/2000/svg">
<path d="M54.027 30.488L46.838 29.139L46.541 27.757C48.931 26.352 50.621 23.883 50.942 20.999H51C53.206 20.999 55 19.205 55 16.999C55 15.782 54.442 14.703 53.582 13.969C53.856 13.218 54 12.418 54 11.618C54 9.006 52.548 6.656 50.211 5.487L49.989 5.376C49.928 2.954 47.949 1 45.513 1H39C35.283 1 32.234 3.911 32.013 7.573L31.818 7.768C30.646 8.94 30 10.498 30 12.155C30 12.805 30.106 13.447 30.305 14.063C29.508 14.795 29 15.835 29 17C29 19.206 30.794 21 33 21H33.059C33.379 23.883 35.069 26.353 37.46 27.758L37.163 29.14L29.974 30.489C25.873 31.257 22.67 34.192 21.493 38.055L15.709 31.294L12.561 28.145C11.824 27.408 10.842 27.001 9.798 27.001C8.37 27.001 7.08 27.763 6.388 29.001H4C2.346 29.001 1 30.347 1 32.001C1 34.758 3.243 37.001 6 37.001H10.5L17.906 46.874C18.904 48.205 20.493 49 22.157 49C23.598 49 24.998 48.402 25.997 47.359L27 46.311V63H63V41.299C63 36.01 59.227 31.463 54.027 30.488ZM48.397 31.467L49.708 39.331L43.417 36.535L46.515 31.114L48.397 31.467ZM49 18H45V16H49V18ZM49 14H45C44.263 14 43.625 14.405 43.278 15H40.721C40.374 14.405 39.736 14 38.999 14H35.16C35.529 12.642 36.542 11.529 37.908 11.068C40.572 12.333 43.523 13 46.472 13H49V14ZM39.002 18H35V16H39L39.002 18ZM53 17C53 18.103 52.103 19 51 19V18V16V15C52.103 15 53 15.897 53 17ZM33 15.123V16V18V19C31.897 19 31 18.103 31 17C31 15.897 31.897 15 33 15H33.01C33.01 15.042 33 15.081 33 15.123ZM33 13C32.697 13 32.405 13.04 32.122 13.104C32.049 12.793 32 12.477 32 12.155C32 11.032 32.438 9.976 33.231 9.182L34 8.414V8C34 5.243 36.243 3 39 3H45.513C46.884 3 48 4.116 48 5.487C48 6.559 47.316 7.507 46.301 7.845L45.685 8.05L46.316 9.948L46.933 9.742C48.117 9.347 49.044 8.492 49.557 7.417C51.066 8.283 52 9.862 52 11.618C52 12.112 51.916 12.605 51.767 13.077C51.518 13.029 51.263 13 51 13V11H46.472C43.701 11 40.926 10.345 38.448 9.105L38.116 8.94L37.758 9.03C35.676 9.55 34.065 11.07 33.373 13H33ZM35 20H39C40.103 20 41 19.103 41 18V17H43V18C43 19.103 43.897 20 45 20H49C49 23.859 45.859 27 42 27C38.141 27 35 23.859 35 20ZM36.454 31.307L37.485 31.114L40.583 36.535L34.468 39.254L36.454 31.307ZM35 49C36.103 49 37 49.897 37 51C37 52.103 36.103 53 35 53C33.897 53 33 52.103 33 51C33 49.897 33.897 49 35 49ZM6 35.001C4.346 35.001 3 33.655 3 32.001C3 31.449 3.448 31.001 4 31.001H7.619L8.091 30.055C8.416 29.406 9.07 29.001 9.796 29.001C10.306 29.001 10.785 29.199 11.145 29.559L13.588 31.999L10.585 35.002H6V35.001ZM41 61H29V42C29 40.665 28.479 39.409 27.536 38.465L26.708 37.636L25.292 39.05L26.121 39.879C26.68 40.438 27 41.211 27 42V43.417L24.552 45.977C23.93 46.627 23.057 47 22.157 47C21.12 47 20.129 46.505 19.506 45.675L12.32 36.094L14.942 33.472L20.916 40.458L21.007 40.552C21.638 41.119 22 41.932 22 42.781V43H24V42.781C24 41.759 23.68 40.773 23.11 39.945C23.68 36.209 26.601 33.154 30.342 32.453L34.292 31.713L31.533 42.746L34 41.649V47.141C32.279 47.588 31 49.14 31 50.999C31 53.205 32.794 54.999 35 54.999C37.206 54.999 39 53.205 39 50.999C39 49.14 37.721 47.588 36 47.141V40.76L41 38.538V61ZM39.058 29.836L39.325 28.594C40.171 28.858 41.069 29 42 29C42.931 29 43.829 28.858 44.675 28.594L44.942 29.836L42 34.985L39.058 29.836ZM61 61H57V57H61V61ZM61 55H57V42C57 41.211 57.32 40.437 57.88 39.879L58.708 39.05L57.292 37.636L56.465 38.465C55.521 39.409 55 40.665 55 42V61H43V38.539L48 40.761V47.142C46.279 47.589 45 49.141 45 51V55H47V51C47 49.897 47.897 49 49 49C50.103 49 51 49.897 51 51V55H53V51C53 49.141 51.721 47.589 50 47.142V41.65L52.292 42.669L50.49 31.859L53.658 32.453C57.912 33.251 61 36.971 61 41.299V55Z" fill="#F2994A"/>
<path d="M45 22H43C43 22.552 42.552 23 42 23C41.448 23 41 22.552 41 22H39C39 23.654 40.346 25 42 25C43.654 25 45 23.654 45 22Z" fill="#F2994A"/>
<path d="M3 17H9V23C9 24.103 9.897 25 11 25H15C16.103 25 17 24.103 17 23V17H23C24.103 17 25 16.103 25 15V11C25 9.897 24.103 9 23 9H17V3C17 1.897 16.103 1 15 1H11C9.897 1 9 1.897 9 3V9H3C1.897 9 1 9.897 1 11V15C1 16.103 1.897 17 3 17ZM3 11H11V3H15V11H23V15H15V23H11V15H3V11Z" fill="#F2994A"/>
</svg>
