<svg width="64" height="64" viewBox="0 0 64 64" fill="none" xmlns="http://www.w3.org/2000/svg">
<g clip-path="url(#clip0_407_2691)">
<path d="M32 0C14.3422 0 0 14.3422 0 32C0 49.6578 14.3422 64 32 64C49.6578 64 64 49.6578 64 32C64 14.3422 49.6578 0 32 0ZM32 61.2241C15.8843 61.2241 2.7759 48.1157 2.7759 32C2.7759 15.8843 15.8843 2.7759 32 2.7759C48.1157 2.7759 61.2241 15.8843 61.2241 32C61.2241 48.1157 48.1157 61.2241 32 61.2241Z" fill="#F2994A"/>
<path d="M48.6556 25.0604H38.9399V15.3447C38.9399 14.5737 38.3231 13.9568 37.552 13.9568H26.4484C25.6773 13.9568 25.0604 14.5737 25.0604 15.3447V25.0604H15.3447C14.5737 25.0604 13.9568 25.6773 13.9568 26.4484V37.552C13.9568 38.3231 14.5737 38.9399 15.3447 38.9399H25.0604V48.6556C25.0604 49.4267 25.6773 50.0435 26.4484 50.0435H37.552C38.3231 50.0435 38.9399 49.4267 38.9399 48.6556V38.9399H48.6556C49.4267 38.9399 50.0435 38.3231 50.0435 37.552V26.4484C49.9664 25.6773 49.3496 25.0604 48.6556 25.0604ZM47.3447 36.164H47.2676H37.552C36.7809 36.164 36.164 36.7809 36.164 37.552V47.2676H27.8363V37.552C27.8363 36.7809 27.2194 36.164 26.4484 36.164H16.7327V27.8363H26.4484C27.2194 27.8363 27.8363 27.2194 27.8363 26.4484V16.7327H36.2411V26.4484C36.2411 27.2194 36.858 27.8363 37.6291 27.8363H47.3447V36.164Z" fill="#F2994A"/>
</g>
<defs>
<clipPath id="clip0_407_2691">
<rect width="64" height="64" fill="white"/>
</clipPath>
</defs>
</svg>
