<svg width="48" height="35" viewBox="0 0 48 35" fill="none" xmlns="http://www.w3.org/2000/svg">
<path d="M43.5312 28.0438H43.2992C43.8867 28.0438 44.3625 27.5578 44.3625 26.9586V1.14766C44.3625 0.547656 43.8867 0.0625 43.2992 0.0625H4.72266C4.13516 0.0625 3.65859 0.547656 3.65859 1.14766V26.9594C3.65859 27.5586 4.13516 28.0445 4.72266 28.0445H4.46875L0.5625 31.8352C0.5625 33.1359 1.61563 34.4375 2.90391 34.4375H45.0969C46.3117 34.4375 47.4375 33.1391 47.4375 31.8344L43.5312 28.0438ZM24.0109 0.667968C24.0924 0.664991 24.1737 0.678466 24.2499 0.707586C24.326 0.736707 24.3956 0.780876 24.4543 0.837459C24.513 0.894041 24.5597 0.961877 24.5917 1.03692C24.6236 1.11195 24.6401 1.19266 24.6401 1.2742C24.6402 1.35575 24.6238 1.43648 24.592 1.51156C24.5601 1.58664 24.5135 1.65453 24.4548 1.71119C24.3962 1.76785 24.3267 1.81211 24.2506 1.84132C24.1745 1.87054 24.0932 1.88412 24.0117 1.88125C23.8546 1.87571 23.7057 1.80943 23.5965 1.69635C23.4873 1.58326 23.4262 1.43221 23.4261 1.27499C23.426 1.11776 23.4869 0.966629 23.596 0.853407C23.7051 0.740186 23.8538 0.673708 24.0109 0.667968ZM4.78516 28.825H43.2141L45.5094 31.0531H28.3297L28.0188 30.6406H20.0031L19.6914 31.0531H2.48906L4.78516 28.825ZM27.3719 33.5297H20.6266C20.3953 33.5297 19.7797 33.5297 19.7797 32.7422H28.2195C28.2195 33.5297 27.5914 33.5297 27.3719 33.5297Z" fill="black"/>
</svg>
