<svg width="525" height="350" viewBox="0 0 525 350" fill="none" xmlns="http://www.w3.org/2000/svg">
<path opacity="0.3" d="M46.62 305.46C60.88 305.46 72.4401 302.908 72.4401 299.76C72.4401 296.612 60.88 294.06 46.62 294.06C32.3601 294.06 20.8 296.612 20.8 299.76C20.8 302.908 32.3601 305.46 46.62 305.46Z" fill="black"/>
<path d="M51.06 106.29C53.24 106.29 55.01 104.52 55.01 102.34C55.01 102.22 55 102.1 54.99 101.98C55.51 102.56 56.26 102.93 57.1 102.93C58.66 102.93 59.92 101.67 59.92 100.11C59.92 100.1 59.92 100.09 59.92 100.09C60.52 100.45 61.22 100.66 61.97 100.66C64.15 100.66 65.92 98.8899 65.92 96.7099C65.92 95.7199 65.55 94.8099 64.95 94.1099C66.45 94.0499 67.65 92.8099 67.65 91.2999C67.65 91.1399 67.63 90.9799 67.61 90.8299C69 90.2199 69.97 88.8299 69.97 87.2099C69.97 86.1699 69.57 85.2199 68.91 84.5199C69.95 83.9499 70.65 82.8399 70.65 81.5799C70.65 80.3399 69.97 79.2499 68.97 78.6699C69.67 77.9599 70.11 76.9799 70.11 75.8999C70.11 74.1899 69.03 72.7399 67.52 72.1899C67.61 71.9099 67.66 71.6199 67.66 71.3099C67.66 69.7899 66.46 68.5599 64.96 68.4999C65.57 67.8099 65.93 66.8999 65.93 65.8999C65.93 63.7199 64.16 61.9499 61.98 61.9499C61.23 61.9499 60.53 62.1599 59.93 62.5199C59.93 62.5099 59.93 62.4999 59.93 62.4999C59.93 60.9399 58.67 59.6799 57.11 59.6799C56.27 59.6799 55.52 60.0499 55 60.6299C55.01 60.5099 55.02 60.3899 55.02 60.2699C55.02 58.0899 53.25 56.3199 51.07 56.3199C49.38 56.3199 47.95 57.3799 47.38 58.8599C46.88 58.0999 46.01 57.5899 45.03 57.5899C43.89 57.5899 42.91 58.2699 42.47 59.2399C41.75 58.2399 40.58 57.5899 39.26 57.5899C37.08 57.5899 35.31 59.3599 35.31 61.5399C35.31 61.5599 35.31 61.5699 35.31 61.5899C35 61.4699 34.66 61.3999 34.31 61.3999C32.75 61.3999 31.49 62.6599 31.49 64.2199C31.49 64.3399 31.5 64.4599 31.51 64.5699C31.25 64.5199 30.99 64.4899 30.71 64.4899C28.53 64.4899 26.76 66.2599 26.76 68.4399C26.76 69.0799 26.91 69.6899 27.19 70.2299C26 70.5599 25.13 71.6499 25.13 72.9399C25.13 73.8699 25.59 74.6999 26.29 75.2099C25 75.4199 23.5 77.2 24.22 79.16C23.87 79.6299 23.66 80.2099 23.66 80.8399C23.66 81.7499 24.09 82.5499 24.76 83.0699C23.36 83.0699 22.69 87.4799 26.17 87.4799C25.54 88 25.13 88.7799 25.13 89.66C25.13 90.95 26 92.0399 27.19 92.3699C26.92 92.91 26.76 93.5099 26.76 94.16C26.76 96.34 28.53 98.1099 30.71 98.1099C30.98 98.1099 31.25 98.0799 31.51 98.0299C31.5 98.1499 31.49 98.2599 31.49 98.3799C31.49 99.9399 32.75 101.2 34.31 101.2C34.66 101.2 35 101.13 35.31 101.01C35.31 101.03 35.31 101.04 35.31 101.06C35.31 103.24 37.08 105.01 39.26 105.01C40.58 105.01 41.75 104.36 42.47 103.36C42.91 104.33 43.89 105.01 45.03 105.01C46.01 105.01 46.88 104.51 47.38 103.74C47.93 105.24 49.37 106.29 51.06 106.29Z" fill="#4D0100"/>
<path d="M47.2199 66.3799C38.4999 66.3799 31.4299 72.6499 31.4299 82.8899C31.4299 95.6699 35.3399 102.03 39.6999 104.99C40.8299 104.86 41.8099 104.25 42.4499 103.37C42.8899 104.34 43.8699 105.02 45.0099 105.02C45.9899 105.02 46.8599 104.52 47.3599 103.75C47.9299 105.24 49.3699 106.29 51.0499 106.29C53.2299 106.29 54.9999 104.52 54.9999 102.34C54.9999 102.22 54.9899 102.1 54.9799 101.98C55.4999 102.56 56.2499 102.93 57.0899 102.93C57.0999 102.93 57.1099 102.93 57.1199 102.93C60.4199 99.3999 62.9999 93.2599 62.9999 82.8899C63.0099 72.6399 55.9399 66.3799 47.2199 66.3799Z" fill="#3D0000"/>
<path d="M68.6 112.53C67.81 111.66 66.91 110.97 65.93 110.55L53.16 105.16V84.3799H41.18V105.15L28.41 110.54C27.44 110.95 26.53 111.65 25.74 112.52H68.6V112.53Z" fill="#A25742"/>
<path d="M41.1799 101.22C43.4099 103.89 46.0999 104.66 48.1099 104.66C49.5799 104.66 51.4199 104.24 53.1699 102.97V84.3799H41.1799V101.22Z" fill="#893D30"/>
<path d="M59.59 83.0199C59.59 99.3299 51.84 102.6 47.27 102.6C42.7 102.6 34.95 99.3399 34.95 83.0199C34.95 74.8099 40.47 69.7899 47.27 69.7899C54.07 69.7899 59.59 74.8099 59.59 83.0199Z" fill="#AD5D4B"/>
<path d="M57.9799 82.87C57.92 82.65 57.79 82.5 57.56 82.5C57.56 82.5 50.57 82.5 49.81 82.5C49.16 82.5 48.17 82.96 47.29 82.96C46.41 82.96 45.42 82.5 44.77 82.5C44.02 82.5 37.02 82.5 37.02 82.5C36.79 82.5 36.6599 82.64 36.5999 82.87H34.45V83.63H36.59C36.84 85.36 37.6899 88.5 38.1199 88.5H44.1199C44.8199 88.5 45.84 86.99 46.22 86.02C46.45 85.42 46.94 85.16 47.29 85.16C47.64 85.16 48.13 85.42 48.36 86.02C48.74 86.98 49.7599 88.5 50.4599 88.5H56.4599C56.8899 88.5 57.74 85.37 57.99 83.63H60.13V82.87H57.9799ZM44.1399 88.26C43.5799 88.26 38.9 88.27 38.43 88.27C37.96 88.27 36.4699 83.12 37.7099 83.12C37.7099 83.12 43.6099 83.12 44.2099 83.12C47.6699 83.12 44.6899 88.26 44.1399 88.26ZM56.15 88.27C55.68 88.27 50.9899 88.26 50.4399 88.26C49.8799 88.26 46.9099 83.12 50.3699 83.12C50.9699 83.12 56.8699 83.12 56.8699 83.12C58.0999 83.12 56.62 88.27 56.15 88.27Z" fill="#003E4D"/>
<path opacity="0.3" d="M44.1399 88.26C43.5799 88.26 38.8999 88.27 38.4299 88.27C37.9599 88.27 36.4699 83.12 37.7099 83.12C37.7099 83.12 43.6099 83.12 44.2099 83.12C47.6699 83.12 44.6899 88.26 44.1399 88.26Z" fill="#E7EAE1"/>
<path opacity="0.3" d="M56.1501 88.27C55.6801 88.27 50.9901 88.26 50.4401 88.26C49.8801 88.26 46.9101 83.12 50.3701 83.12C50.9701 83.12 56.8701 83.12 56.8701 83.12C58.1001 83.12 56.6201 88.27 56.1501 88.27Z" fill="#E7EAE1"/>
<path d="M47.27 69.7899C40.46 69.7899 34.95 74.8099 34.95 83.0199C34.95 83.5299 34.96 84.0199 34.97 84.4999C35.11 84.2199 35.23 83.9299 35.29 83.5999C35.35 83.2699 35.3499 82.9299 35.2999 82.6199C36.4399 82.3999 37.3899 81.5599 37.7099 80.3999C37.7699 80.4099 37.82 80.4299 37.88 80.4399C39.29 80.6799 40.66 80.2299 41.65 79.3299C42.1 79.8099 42.7 80.1599 43.4 80.2799C44.25 80.4299 45.08 80.2099 45.7299 79.7399C46.3499 80.7599 47.3799 81.5099 48.6399 81.7299C49.9399 81.9499 51.2099 81.5599 52.1399 80.7499C52.59 81.4599 53.33 81.9799 54.22 82.1299C54.95 82.2499 55.67 82.1099 56.27 81.7699C56.81 83.0899 57.99 84.0999 59.49 84.3599C59.51 84.3599 59.52 84.3599 59.54 84.3699C59.54 84.5199 59.56 84.6699 59.58 84.8199C59.6 84.2399 59.6199 83.6399 59.6199 83.0199C59.5899 74.8099 54.07 69.7899 47.27 69.7899Z" fill="#3D0000"/>
<path d="M66.9199 84.44C66.2199 76.44 59.8999 64.8 52.7699 63.59C47.8399 62.75 42.0799 62.41 37.7999 65.47C33.3999 68.62 32.9199 71.78 31.5099 76.62C31.1699 77.79 31.3299 78.19 30.8199 79.18C30.3899 80.02 29.3999 80.18 29.1899 81.37C28.8999 83.05 30.0299 84.65 31.7199 84.94C33.3999 85.23 34.9999 84.1 35.2899 82.41C35.3499 82.08 35.3499 81.74 35.2999 81.43C36.4399 81.21 37.3899 80.37 37.7099 79.21C37.7699 79.22 37.8199 79.24 37.8799 79.25C39.2899 79.49 40.6599 79.04 41.6499 78.14C42.0999 78.62 42.6999 78.97 43.3999 79.09C44.2499 79.24 45.0799 79.02 45.7299 78.55C46.3499 79.57 47.3799 80.32 48.6399 80.54C49.9399 80.76 51.2099 80.37 52.1399 79.56C52.5899 80.27 53.3299 80.79 54.2199 80.94C54.9499 81.06 55.6699 80.92 56.2699 80.58C56.8099 81.9 57.9899 82.91 59.4899 83.17C59.5099 83.17 59.5199 83.17 59.5399 83.18C59.5499 84.29 60.1399 85.29 61.0799 85.83C60.9299 86.11 60.8199 86.43 60.7599 86.76C60.4699 88.44 61.5999 90.04 63.2899 90.33C64.9699 90.62 66.5699 89.49 66.8599 87.8C66.9999 86.78 67.0199 85.65 66.9199 84.44Z" fill="#4D0100"/>
<path d="M47.72 53.4399C41.61 53.4399 36.07 55.8699 32.01 59.8199L35.86 73.3999C37.56 70.2599 42.22 67.9999 47.72 67.9999C52.97 67.9999 57.46 70.0599 59.34 72.9699L63.15 59.5399C59.11 55.7699 53.68 53.4399 47.72 53.4399Z" fill="#DDDDDD"/>
<path d="M51.42 60.1199H48.58V57.2799H46.86V60.1199H44.01V61.8499H46.86V64.6899H48.58V61.8499H51.42V60.1199Z" fill="#16C4B3"/>
<path d="M46.7099 55.0299C44.1399 54.7299 35.8399 56.8099 33.4299 60.3299C33.4299 60.3299 33.7699 62.7299 34.8799 65.2899C39.6499 61.2699 46.7099 55.0299 46.7099 55.0299Z" fill="#F4F4F4"/>
<path d="M41.9001 72.0599C40.3401 73.8899 48.5401 75.5199 53.4201 75.9599C57.3301 76.3199 60.6801 76.5499 57.9001 73.1899C52.9001 67.1699 43.3601 70.3399 41.9001 72.0599Z" fill="#5B0909"/>
<path d="M32.2699 167.82L46.7799 173.63L60.9799 168.53C60.9799 168.53 64.7499 179.51 64.7499 190.47C64.7499 195.94 59.2499 239.43 59.2499 239.76L52.6299 291.47L48.2099 294.38L48.4999 263.69L48.7099 232.8C48.7099 232.8 48.1699 206.62 48.4199 199.78C48.4999 197.54 49.1799 190.85 49.1799 190.85L47.6599 190.8L44.9099 190.79C44.9099 190.79 45.6499 197.41 45.7499 199.62C46.0299 206.47 45.4299 232.68 45.4299 232.68L45.7499 263.38L45.5599 294.24L41.1599 292.39L34.7099 240.53C34.7099 238.27 29.2999 194.28 29.0399 190.35C28.6499 184.89 32.2699 167.82 32.2699 167.82Z" fill="#A25742"/>
<path d="M62.9101 168.07L62.6701 161.78H30.4401L30.2901 167.53C30.1101 168.14 25.6201 183.1 25.7901 188.3C25.8501 190.27 27.8401 202.6 29.8701 215.18C30.7901 220.89 32.5801 228.65 32.5801 232.19C32.5801 239.41 61.0901 239.4 61.4501 232.19C62.0801 219.65 68.1601 192.34 67.9701 188.37C67.4901 178.11 62.9501 168.17 62.9101 168.07Z" fill="#16C4B3"/>
<path d="M35.5001 222.17C32.8301 211.43 29.6101 198.5 29.2401 196.16C28.5001 191.51 28.9901 178.33 29.3601 170.75C28.0201 175.55 25.6701 184.52 25.7901 188.29C25.8501 190.26 27.2701 202.45 29.3001 215.03C30.2201 220.74 31.2101 226.79 31.9901 231.98C32.5401 235.62 38.3701 236.63 38.3701 236.63C37.6401 233.7 36.3801 225.71 35.5001 222.17Z" fill="#0EAF9C"/>
<path d="M64.0099 170.77C64.6499 176.62 65.4599 187.05 64.5099 196.25C63.9799 201.35 57.3599 226.37 54.6499 236.83C54.6499 236.83 59.1199 236.03 60.8199 233.82C63.1799 230.75 68.1599 192.35 67.9699 188.37C67.6399 181.31 65.3899 174.4 64.0099 170.77Z" fill="#0EAF9C"/>
<path d="M39.7499 289.55C39.7499 289.55 37.0799 293.94 36.8599 295.41C36.6399 296.88 36.1699 301.01 37.3799 301.53C38.5899 302.05 43.6599 302.14 44.3499 301.7C45.0399 301.27 46.5099 298.35 46.6399 296.7C46.7699 295.05 45.7799 288.47 45.7799 288.47L39.7499 289.55Z" fill="#0EAF9C"/>
<path d="M39.87 289.01C39.87 289.01 37.12 294.5 38.91 296.67C39.63 297.54 46.06 295.88 45.78 288.52C45.51 281.17 39.87 289.01 39.87 289.01Z" fill="#A25742"/>
<path d="M53.9899 289.55C53.9899 289.55 56.6599 293.94 56.8799 295.41C57.0999 296.88 57.5699 301.01 56.3599 301.53C55.1499 302.05 50.0799 302.14 49.3899 301.7C48.6999 301.27 47.2299 298.35 47.0999 296.7C46.9699 295.05 47.9599 288.47 47.9599 288.47L53.9899 289.55Z" fill="#0EAF9C"/>
<path d="M53.8701 289.01C53.8701 289.01 56.6201 294.5 54.8301 296.67C54.1101 297.54 47.6801 295.88 47.9601 288.52C48.2401 281.17 53.8701 289.01 53.8701 289.01Z" fill="#A25742"/>
<path d="M62.5699 163.82L71.7499 118.34C71.7499 114.81 69.2999 110.92 66.2799 109.65L53.4299 104.25C50.5599 109.33 47.1699 111.67 47.1699 111.67C47.1699 111.67 43.7999 109.18 41.0099 104.25L28.1599 109.65C25.1399 110.92 22.6899 114.81 22.6899 118.34L32.6199 163.82H62.5699Z" fill="#16C4B3"/>
<path d="M73.7398 201.29C72.4998 189.74 65.4598 166.04 65.3698 156.97C65.2698 146.88 72.6298 117.82 72.6298 117.82C72.6298 114.44 69.5698 110.05 66.4198 108.83L56.3898 104.97L48.0798 146.97L48.3798 212.56C48.3798 212.56 74.6098 209.45 73.7398 201.29Z" fill="#DDDDDD"/>
<path d="M60.46 110.87L59.79 106.72L66.95 109.59C70.02 110.77 60.46 110.87 60.46 110.87Z" fill="#F4F4F4"/>
<path d="M61.2099 122.08L59.0499 118.74L60.22 115.31L58.8499 105.92L56.38 104.96L48.45 145.09L61.2099 122.08Z" fill="#F4F4F4"/>
<path d="M68.4299 127.06H57.9399V132.32H68.4299V127.06Z" fill="#003E4D"/>
<path d="M68.16 127.34H58.23V132.03H68.16V127.34Z" fill="#F4F4F4"/>
<path d="M63.88 126.5H62.5V127.66H63.88V126.5Z" fill="#B7BDBD"/>
<path d="M62.0299 127.8H58.8899V131.67H62.0299V127.8Z" fill="#B7BDBD"/>
<g opacity="0.2">
<path d="M68.33 174.76C66.85 177.98 64.95 181.53 62.56 185.52C60.39 186.96 65.26 193.04 66.85 192.02C68.35 190.12 69.71 188.23 70.94 186.34C70.1 182.54 69.18 178.57 68.33 174.76Z" fill="#48545B"/>
</g>
<path d="M64.26 182.99C62.49 183.85 58.87 185.74 59.42 186.6C60.15 187.73 57.83 189.82 56.88 191.01C55.93 192.2 63.94 197.05 65.83 194.74C66.79 193.56 67.9 190.32 68.76 187.43C67.53 187.22 65.39 185.03 64.26 182.99Z" fill="#A25742"/>
<path d="M56.8999 184.67C56.8999 184.67 55.6599 206.83 57.6999 206.54C59.7399 206.25 68.1899 203.9 69.9399 200.42C71.6899 196.93 68.1899 189.05 68.1899 189.05L56.8999 184.67Z" fill="#F4F4F4"/>
<path d="M69.3101 187.37C67.7201 188.38 61.8101 181.18 63.9801 179.74C79.6401 153.55 75.2701 150.71 69.2601 132.26C70.4601 125.13 65.5801 114.78 67.8601 114.13L67.8401 109.83C76.1501 114.64 76.2901 119.95 79.4301 128.2C84.1901 140.73 87.6201 164.26 69.3101 187.37Z" fill="#DDDDDD"/>
<path d="M20.92 201.29C22.16 189.74 29.2 166.04 29.29 156.97C29.39 146.88 22.03 117.82 22.03 117.82C22.03 114.44 25.09 110.05 28.24 108.83L38.28 104.97L49.51 149.31L48.37 212.57C48.38 212.56 20.05 209.45 20.92 201.29Z" fill="#DDDDDD"/>
<path d="M34.2 110.87L34.87 106.72L27.71 109.59C24.64 110.77 34.2 110.87 34.2 110.87Z" fill="#F4F4F4"/>
<path d="M33.45 122.08L35.61 118.74L34.4399 115.31L35.81 105.92L38.2799 104.96L49.5099 149.3L33.45 122.08Z" fill="#F4F4F4"/>
<g opacity="0.2">
<path d="M26.33 174.76C27.81 177.98 29.71 181.53 32.1 185.52C34.27 186.96 29.4 193.04 27.81 192.02C26.31 190.12 24.95 188.23 23.72 186.34C24.57 182.54 25.49 178.57 26.33 174.76Z" fill="#48545B"/>
</g>
<path d="M30.3999 182.99C32.1699 183.85 35.7899 185.74 35.2399 186.6C34.5099 187.73 36.8299 189.82 37.7799 191.01C38.7299 192.2 30.7199 197.05 28.8299 194.74C27.8699 193.56 26.7599 190.32 25.8999 187.43C27.1299 187.22 29.2699 185.03 30.3999 182.99Z" fill="#A25742"/>
<path d="M37.76 184.67C37.76 184.67 39 206.83 36.96 206.54C34.92 206.25 26.47 203.9 24.72 200.42C22.97 196.93 26.47 189.05 26.47 189.05L37.76 184.67Z" fill="#F4F4F4"/>
<path d="M25.35 187.37C26.94 188.38 32.85 181.18 30.68 179.74C15.02 153.55 19.39 150.71 25.4 132.26C24.2 125.13 29.08 114.78 26.8 114.13L26.82 109.83C18.51 114.64 18.37 119.95 15.23 128.2C10.47 140.73 7.04001 164.26 25.35 187.37Z" fill="#DDDDDD"/>
<path opacity="0.3" d="M504.34 299.76C504.34 296 490.53 292.95 473.49 292.95C456.45 292.95 442.64 296 442.64 299.76C442.64 303.52 456.45 306.57 473.49 306.57C490.52 306.58 504.34 303.53 504.34 299.76Z" fill="black"/>
<path d="M505.54 142.83V110.7C505.54 106.92 502.36 102.75 498.45 101.39L482.24 96.0901V73.8101H465.22V96.1001L449.01 101.4C445.09 102.76 441.92 106.93 441.92 110.71V142.84H505.54V142.83Z" fill="#994D3C"/>
<path d="M487.9 69.28C487.9 88.52 479.05 92.37 473.83 92.37C468.61 92.37 459.76 88.52 459.76 69.28C459.76 59.6 466.06 53.67 473.83 53.67C481.6 53.67 487.9 59.59 487.9 69.28Z" fill="#AD5D4B"/>
<path d="M462.32 73.03C462.89 76.07 462.22 78.76 460.81 79.02C459.41 79.28 457.81 77.03 457.23 73.98C456.66 70.94 457.33 68.25 458.74 67.99C460.15 67.74 461.75 69.99 462.32 73.03Z" fill="#AD5D4B"/>
<path d="M485.13 73.03C484.56 76.07 485.23 78.76 486.64 79.02C488.04 79.28 489.64 77.03 490.22 73.98C490.79 70.94 490.12 68.25 488.71 67.99C487.3 67.74 485.7 69.99 485.13 73.03Z" fill="#AD5D4B"/>
<path d="M490.5 177.77L505.63 110.7C505.63 106.9 502.42 102.69 498.48 101.32L482.29 95.9901L473.93 101.22L465.17 95.9801L448.98 101.31C445.04 102.68 441.83 106.88 441.83 110.69L453.85 180.14L490.5 177.77Z" fill="#E7EAE1"/>
<path d="M465.21 76.61V88.97C467.81 93.32 471.32 95.14 473.72 95.57C476.12 96 479.63 95.7 482.23 92.44V79.65L473.72 75.99L465.21 76.61Z" fill="#893D30"/>
<path d="M486.45 75.26L473.72 72.41L460.99 75.26C461.42 79.37 462.6 85.3 462.6 85.3C465.63 90.89 470.52 92.52 473.72 92.52C476.92 92.52 481.81 91.26 484.84 85.81C484.84 85.81 486.03 79.31 486.45 75.26Z" fill="#E7EAE1"/>
<path d="M473.72 73.02V78.54C473.72 78.54 463.35 81.04 461.73 75.82L473.72 73.02Z" fill="#F6F7F5"/>
<path d="M476.97 101.27H470.95V105.02L472.44 106.41L471.34 138.44L473.95 140.44L476.57 138.44L475.46 106.4L476.97 105.02V101.27Z" fill="#003E4D"/>
<path d="M473.92 101.23L469.15 107.45L462.05 97.2L465.21 94.14L473.92 101.23Z" fill="#F6F7F5"/>
<path d="M473.92 101.23L478.88 107.45L485.4 97.2L482.22 94.14L473.92 101.23Z" fill="#F6F7F5"/>
<path d="M486.18 64.03C486.47 63.92 486.77 63.85 487.09 63.82C485.14 57.55 479.94 53.87 473.82 53.87C466.73 53.87 460.89 58.78 459.89 66.96C459.94 67.43 459.97 67.92 459.97 68.42C459.97 68.42 461.62 65.07 461.55 61.95C461.51 60.33 466 56.92 473.68 60.98C481.8 59.11 485.52 62.47 486.18 64.03Z" fill="#994D3C"/>
<path d="M462.11 53.19C456.9 60.05 459.96 63.13 459.96 68.33C459.96 68.33 461.61 64.82 461.54 61.7C461.5 60.08 465.99 56.23 473.67 59.53C482.72 56.55 486.31 60.59 486.31 61.78C486.31 64.16 485.57 63.48 487.53 68.76C489.21 62.1 489.88 58.05 485.13 52.31C480.43 46.63 468.45 44.83 462.11 53.19Z" fill="#3A3A3A"/>
<path d="M459.89 66.9301L459.25 68.0801L461.16 76.6801L461.58 75.2401L459.89 66.9301Z" fill="#E7EAE1"/>
<path d="M487.5 66.9301L488.14 68.0801L486.23 76.6801L485.81 75.2401L487.5 66.9301Z" fill="#E7EAE1"/>
<path d="M479.05 52C467.27 52.52 462.92 58.63 462.92 55.31C462.92 51.99 467.15 48.86 472.38 48.32C477.61 47.78 482.37 51.86 479.05 52Z" fill="#494949"/>
<path d="M493 170.3L473.93 170.87L455.28 171.07C455.28 171.07 454.01 183.12 454.01 195.14C454.01 201.14 459.55 292.1 459.55 292.1L468.9 291.86L472.73 195.54L472.78 195.49L474.73 195.48L479.21 293.07L489.11 293.24C489.11 293.24 494.28 198.33 494.63 194.02C495.13 188.04 493 170.3 493 170.3Z" fill="#0269AF"/>
<path d="M500.88 209.52C500.88 176.96 505.12 111.1 505.12 111.1C505.12 106.89 501.92 102.23 497.99 100.71L484.44 95.4501C484.44 95.4501 478.22 171.19 490.65 178.48C491.99 215.19 500.88 214.94 500.88 209.52Z" fill="#DDDDDD"/>
<path d="M490.53 115.92L488.3 108.99L490.05 107.87L488.88 96.9C488.88 96.9 484.62 93.99 484.44 95.17C480.63 119.56 483.25 149.46 483.25 149.46L490.53 115.92Z" fill="#F4F4F4"/>
<path d="M498.25 101.23L489.78 98.2201L490.68 102.98C494.92 102.68 500.44 102.14 498.25 101.23Z" fill="#F6F7F5"/>
<path d="M498.83 119.36H488.38V124.6H498.83V119.36Z" fill="#003E4D"/>
<path d="M498.55 119.64H488.66V124.32H498.55V119.64Z" fill="#F4F4F4"/>
<path d="M494.29 118.8H492.92V119.95H494.29V118.8Z" fill="#B7BDBD"/>
<path d="M492.45 120.1H489.32V123.95H492.45V120.1Z" fill="#B7BDBD"/>
<path d="M469.49 299.01C469.49 300.69 467.56 302.05 465.17 302.05H462.29C459.91 302.05 457.97 300.69 457.97 299.01V292.53C457.97 290.85 459.9 290.58 462.29 290.58H465.17C467.55 290.58 469.49 290.85 469.49 292.53V299.01Z" fill="#003E61"/>
<path d="M469.49 297.26C469.49 298.52 467.56 299.53 465.17 299.53H462.29C459.91 299.53 457.97 298.51 457.97 297.26V292.41C457.97 291.15 459.9 288.45 462.29 288.45H465.17C467.55 288.45 469.49 291.15 469.49 292.41V297.26Z" fill="#3F5E77"/>
<path d="M489.93 299.01C489.93 300.69 488 302.05 485.61 302.05H482.73C480.35 302.05 478.41 300.69 478.41 299.01V292.53C478.41 290.85 480.34 290.58 482.73 290.58H485.61C487.99 290.58 489.93 290.85 489.93 292.53V299.01Z" fill="#003E61"/>
<path d="M489.93 297.26C489.93 298.52 488 299.53 485.61 299.53H482.73C480.35 299.53 478.41 298.51 478.41 297.26V292.41C478.41 291.15 480.34 288.45 482.73 288.45H485.61C487.99 288.45 489.93 291.15 489.93 292.41V297.26Z" fill="#3F5E77"/>
<path d="M498.13 129.05C500.31 147.21 497.08 151.27 489.44 176.86C489.33 176.93 489.23 177.04 489.14 177.17C489.61 177.72 490.1 178.17 490.64 178.48C490.85 184.12 491.23 188.89 491.74 192.9C495.59 188.92 498.81 185.02 501.5 181.21C502.17 162.92 503.23 142.97 504.03 129.05H498.13Z" fill="#B7BDBD"/>
<path d="M497.76 183.72C495.96 184.84 488.72 175.44 491.17 173.84C501.69 148.29 503.59 147.68 498.08 128.64C499.79 121.14 496.58 105.9 499.1 105.12L499.29 101.34C508.08 106.03 507.97 110.85 510.92 119.34C515.42 132.26 521.92 153.55 497.76 183.72Z" fill="#DDDDDD"/>
<path d="M483.44 185.51C486.07 187.19 488.69 188.89 491.46 190.36C492.34 188.72 495.38 184.69 496.17 182.51C494.84 182.34 492.64 180.14 491.52 178.05C489.54 179.02 485.92 180.08 485.39 180.97C484.33 182.74 484.03 184.73 483.44 185.51Z" fill="#EAB794"/>
<path d="M445.91 209.52C445.91 176.96 441.67 111.1 441.67 111.1C441.67 106.89 444.87 102.23 448.8 100.71L462.35 95.4501C462.35 95.4501 468.57 171.19 456.14 178.48C454.79 215.19 445.91 214.94 445.91 209.52Z" fill="#DDDDDD"/>
<path d="M456.26 115.92L458.49 108.99L456.74 107.87L457.91 96.9C457.91 96.9 462.17 93.99 462.35 95.17C466.16 119.56 463.54 149.46 463.54 149.46L456.26 115.92Z" fill="#F4F4F4"/>
<path d="M448.54 101.23L457.01 98.2201L456.11 102.98C451.86 102.68 446.35 102.14 448.54 101.23Z" fill="#F6F7F5"/>
<path d="M448.65 129.05C446.47 147.21 449.7 151.27 457.34 176.86C457.45 176.93 457.55 177.04 457.64 177.17C457.17 177.72 456.68 178.17 456.14 178.48C455.93 184.12 455.55 188.89 455.04 192.9C451.19 188.92 447.97 185.02 445.28 181.21C444.61 162.92 443.55 142.97 442.75 129.05H448.65Z" fill="#B7BDBD"/>
<path d="M449.02 183.72C450.82 184.84 458.06 175.44 455.61 173.84C445.09 148.29 443.19 147.68 448.7 128.64C446.99 121.14 450.2 105.9 447.68 105.12L447.49 101.34C438.7 106.03 438.81 110.85 435.86 119.34C431.36 132.26 424.86 153.55 449.02 183.72Z" fill="#DDDDDD"/>
<path d="M463.35 185.51C460.72 187.19 458.1 188.89 455.33 190.36C454.45 188.72 451.41 184.69 450.62 182.51C451.95 182.34 454.15 180.14 455.27 178.05C457.25 179.02 460.87 180.08 461.4 180.97C462.45 182.74 462.76 184.73 463.35 185.51Z" fill="#EAB794"/>
<path opacity="0.3" d="M412.61 313.93C429.648 313.93 443.46 310.881 443.46 307.12C443.46 303.359 429.648 300.31 412.61 300.31C395.572 300.31 381.76 303.359 381.76 307.12C381.76 310.881 395.572 313.93 412.61 313.93Z" fill="black"/>
<path d="M428.42 74.26L398.67 75.53C398.67 82.87 398.87 90.33 397.44 95.49C402.52 101.27 421.07 101.47 429.95 95.41C427.13 86.05 428.42 74.26 428.42 74.26Z" fill="#494949"/>
<path d="M423.28 98.4C425.78 94.99 427.63 89.54 427.63 80.99C427.63 78.51 427.19 76.28 426.4 74.34L399.93 75.47C399.4 77.13 399.1 78.97 399.1 80.99C399.1 89.94 401.11 95.49 403.8 98.86C409.36 100.35 416.98 100.23 423.28 98.4Z" fill="#3A3A3A"/>
<path d="M413.91 123.45L432.26 105.1L419.73 100.27V81.9299H406.39V100.27L395.08 104.62L413.91 123.45Z" fill="#E29A59"/>
<path d="M418.28 130.97L439.42 114.16C439.42 110.68 436.79 106.85 433.54 105.6L423.99 101.92C420.9 106.92 416.48 108.25 413.34 108.25C410.17 108.25 405.68 106.89 402.58 101.73L392.54 105.59C389.29 106.84 386.66 110.67 386.66 114.15L407.3 129.78L418.28 130.97Z" fill="#DDDDDD"/>
<path d="M434.4 201.13C434.4 201.13 439.54 173.84 434.75 162.22C424.84 138.17 439.85 114.15 439.85 114.15C439.85 110.52 437.09 106.5 433.7 105.19L422.91 101.04L413.3 127.26L403.2 101.04L392.41 105.19C389.02 106.5 386.26 110.51 386.26 114.15C386.26 114.15 401.39 141.09 392.14 163.35C386.95 175.85 391.44 201.78 391.44 201.78L434.4 201.13Z" fill="#017DE1"/>
<path d="M421.52 109.02L423.82 102.41L434.14 106.55C437.43 107.82 421.52 109.02 421.52 109.02Z" fill="#31ACFF"/>
<path d="M406.39 95.33C409.09 98.51 412.37 99.43 414.82 99.43C416.26 99.43 418 99.11 419.74 98.19V84.89H406.39V95.33Z" fill="#D67F43"/>
<path d="M427.63 73.59C427.63 92.48 418.66 96.26 413.36 96.26C408.07 96.26 399.09 92.48 399.09 73.59C399.09 64.08 405.48 58.27 413.36 58.27C421.24 58.27 427.63 64.09 427.63 73.59Z" fill="#EFAF6A"/>
<path d="M413.36 58.27C405.74 58.27 399.54 63.71 399.13 72.66C409.89 71.83 414.79 69.86 416.96 66.03C419.29 69.51 422.78 71.25 427.53 71.66C426.72 63.31 420.69 58.27 413.36 58.27Z" fill="#E29A59"/>
<path d="M430.85 71.74C432.63 59.42 425.04 48.62 416.09 51.05C409.6 46.37 394.14 46.75 395.27 72.9C408.77 72.25 414.55 67.41 416.96 63.15C419.81 67.4 424.38 71.94 430.85 71.74Z" fill="#494949"/>
<path d="M400.7 76.38C401.32 79.67 400.59 82.56 399.07 82.84C397.56 83.12 395.83 80.69 395.21 77.4C394.59 74.11 395.32 71.2201 396.83 70.9401C398.36 70.6601 400.08 73.09 400.7 76.38Z" fill="#EFAF6A"/>
<path d="M425.31 76.38C424.69 79.67 425.42 82.56 426.94 82.84C428.45 83.12 430.18 80.69 430.8 77.4C431.42 74.11 430.69 71.2201 429.17 70.9401C427.66 70.6601 425.93 73.09 425.31 76.38Z" fill="#EFAF6A"/>
<path d="M401.49 53.39C400.83 54.1 398.52 58.04 398.15 61.18C397.98 62.62 416.68 52.89 414.18 51.7C412.7 50.99 406.18 48.35 401.49 53.39Z" fill="#606060"/>
<path d="M430.15 124.8H418.87V130.45H430.15V124.8Z" fill="#003E4D"/>
<path d="M429.84 125.1H419.17V130.15H429.84V125.1Z" fill="#F4F4F4"/>
<path d="M425.25 124.2H423.77V125.44H425.25V124.2Z" fill="#B7BDBD"/>
<path d="M423.27 125.6H419.89V129.76H423.27V125.6Z" fill="#B7BDBD"/>
<path d="M436.72 180.4C429.96 183.04 422.36 184.52 413.25 184.52C404.44 184.52 396.29 183.06 389.65 180.58C389.65 191.37 391.45 201.77 391.45 201.79L404.64 304.18H412.12L411.72 201.49L414.05 201.45L413.65 304.18H421.13L435.81 193.57C436.35 189.82 436.82 185.11 436.72 180.4Z" fill="#0269AF"/>
<path d="M412.62 306.34C412.62 307.67 411.09 308.74 409.2 308.74H406.92C405.03 308.74 403.5 307.66 403.5 306.34V301.21C403.5 299.88 405.03 299.67 406.92 299.67H409.2C411.09 299.67 412.62 299.89 412.62 301.21V306.34Z" fill="#003E61"/>
<path d="M412.62 304.96C412.62 305.95 411.09 306.76 409.2 306.76H406.92C405.03 306.76 403.5 305.95 403.5 304.96V301.12C403.5 300.13 405.03 297.99 406.92 297.99H409.2C411.09 297.99 412.62 300.13 412.62 301.12V304.96Z" fill="#DDDDDD"/>
<path d="M422.31 306.34C422.31 307.67 420.78 308.74 418.89 308.74H416.61C414.72 308.74 413.19 307.66 413.19 306.34V301.21C413.19 299.88 414.72 299.67 416.61 299.67H418.89C420.78 299.67 422.31 299.89 422.31 301.21V306.34Z" fill="#003E61"/>
<path d="M422.31 304.96C422.31 305.95 420.78 306.76 418.89 306.76H416.61C414.72 306.76 413.19 305.95 413.19 304.96V301.12C413.19 300.13 414.72 297.99 416.61 297.99H418.89C420.78 297.99 422.31 300.13 422.31 301.12V304.96Z" fill="#DDDDDD"/>
<path d="M424.7 174.53L402.47 174.54L399.21 136.94L427.92 136.93L424.7 174.53Z" fill="#F4F4F4"/>
<path d="M405.51 151.53C404.09 151.59 401.39 151.59 400.73 150.57C400.07 149.55 392.79 152.35 392.79 152.35L392.69 157.53C392.69 157.53 398.48 158.92 401.27 158.88C411.43 158.74 419.25 150.93 405.51 151.53Z" fill="#EAB794"/>
<path d="M391.97 158.46C394.1 158.35 396.14 150.17 393.2 150.26C387.84 148.32 384.5 146.36 383.63 143.84C382.42 140.35 389.84 130.62 394.3 125.23C398.18 115.87 390.45 107.04 390.45 107.04C384.24 110.98 369.69 141.21 372.08 150.32C373.06 154.07 382.03 155.94 391.97 158.46Z" fill="#017DE1"/>
<path d="M421.76 151.53C423.19 151.59 425.88 151.59 426.54 150.57C427.2 149.55 434.49 152.35 434.49 152.35L434.59 157.53C434.59 157.53 428.79 158.92 426.01 158.88C415.83 158.74 408.02 150.93 421.76 151.53Z" fill="#EAB794"/>
<path d="M435.31 158.46C433.18 158.35 431.13 150.17 434.08 150.26C439.44 148.32 442.78 146.36 443.65 143.84C444.86 140.35 437.44 130.62 432.98 125.23C429.1 115.87 435.4 106.87 435.4 106.87C441.61 110.81 457.6 141.21 455.21 150.31C454.23 154.07 445.26 155.94 435.31 158.46Z" fill="#017DE1"/>
<path d="M391.51 106.5L402.04 102.41L405.49 110.27C405.49 110.27 382.49 111.25 391.51 106.5Z" fill="#31ACFF"/>
<path d="M427.79 138.56L427.92 136.93L399.21 136.94L399.35 138.56H427.79Z" fill="#B7BDBD"/>
<path opacity="0.3" d="M116.34 315.46C137.211 315.46 154.13 311.726 154.13 307.12C154.13 302.514 137.211 298.78 116.34 298.78C95.4692 298.78 78.55 302.514 78.55 307.12C78.55 311.726 95.4692 315.46 116.34 315.46Z" fill="black"/>
<path d="M145.04 116.33V111.21C145.04 107.37 142.14 103.14 138.55 101.76L124.58 96.38V73.76H107.3V96.38L93.3301 101.76C89.7501 103.14 86.8401 107.37 86.8401 111.21V116.33H145.04Z" fill="#E29A59"/>
<path d="M107.3 76.6V89.15C109.94 93.56 113.5 95.42 115.94 95.85C118.38 96.29 121.94 95.98 124.58 92.67V79.69L115.94 75.97L107.3 76.6Z" fill="#D67F43"/>
<path d="M130.26 69.3101C130.26 88.8501 121.25 92.7501 115.94 92.7501C110.63 92.7501 101.62 88.8401 101.62 69.3101C101.62 59.4801 108.03 53.4601 115.94 53.4601C123.85 53.4701 130.26 59.4801 130.26 69.3101Z" fill="#EFAF6A"/>
<path d="M104.37 72.98C104.95 76.07 104.27 78.79 102.84 79.06C101.42 79.33 99.7901 77.04 99.2101 73.95C98.6301 70.86 99.3101 68.14 100.74 67.87C102.16 67.59 103.79 69.88 104.37 72.98Z" fill="#EFAF6A"/>
<path d="M127.52 72.98C126.94 76.07 127.62 78.79 129.05 79.06C130.47 79.33 132.1 77.04 132.68 73.95C133.26 70.86 132.58 68.14 131.15 67.87C129.73 67.59 128.1 69.88 127.52 72.98Z" fill="#EFAF6A"/>
<path d="M130.19 67.66C124.52 60.03 107.76 58.45 101.69 67.76C101.69 67.77 101.69 67.78 101.69 67.79C101.68 67.8 113.33 57.19 130.19 67.66Z" fill="#E29A59"/>
<path d="M129.3 63.22C128.65 81.17 125.07 90.08 115.94 90.08C106.77 90.08 103.23 81.17 102.58 63.22C101.97 65.04 101.62 67.07 101.62 69.32C101.62 88.86 110.63 93.67 115.94 93.67C121.25 93.67 130.26 88.86 130.26 69.32C130.26 67.07 129.91 65.04 129.3 63.22Z" fill="#474747"/>
<path d="M101.63 55.31V67.85C107.66 58.43 124.54 60.01 130.21 67.68V54.9C127.31 50.96 121.47 44.9 115.65 44.89C110.1 44.88 104.57 50.71 101.63 55.31Z" fill="#017DE1"/>
<path d="M115.69 45.69C112.03 45.65 105.37 50.89 102.62 55.82C102.62 55.82 102.62 58.51 102.62 60.48C113.15 54.38 115.69 45.69 115.69 45.69Z" fill="#31ACFF"/>
<path d="M114.29 87.79L112.1 89.98L114.19 92.07H117.89L119.98 89.98L117.79 87.79H114.29Z" fill="#474747"/>
<path d="M110.85 82.12C109.36 83.61 110.85 90.57 110.85 90.57H111.89C111.89 90.57 110.69 85 111.89 83.81C113.34 82.36 118.66 82.36 120.12 83.81C121.32 85.01 120.12 90.57 120.12 90.57H121.16C121.16 90.57 122.65 83.61 121.16 82.12C119.34 80.3 112.67 80.3 110.85 82.12Z" fill="#474747"/>
<path d="M94.7301 229.04C94.0301 229.03 93.3301 229.01 92.6301 229C94.4501 248.45 95.9701 264.02 97.3601 278.28C97.4801 279.55 97.8401 285.4 97.9501 286.52C98.0501 287.55 96.2101 293.06 96.3001 293.95C96.7501 298.51 98.8901 299.93 98.8901 299.93L110.95 300.72L112.15 295.04L111.2 288.86L112.43 229.38C106.53 229.28 100.63 229.16 94.7301 229.04Z" fill="#0269AF"/>
<path d="M117.7 229.47L120.45 289.45L119.23 294.84L120.95 300.4L131.78 300.58C131.78 300.58 133.83 298.86 134.24 294.27C134.35 293.03 132.65 286.94 132.78 285.45C134.05 271.43 136.29 250.64 138.17 229.74C131.35 229.69 124.53 229.59 117.7 229.47Z" fill="#0269AF"/>
<path d="M141.47 242.17C141.47 225.82 141.35 187.73 143.57 156.78C145.37 131.67 149.6 111.2 149.6 111.2C149.6 107.04 146.21 102.44 142.04 100.94L125.91 95.11L115.6 116.14L105.8 95.11L89.6701 100.94C85.5001 102.44 82.1101 107.04 82.1101 111.2C82.1101 111.2 85.8601 127.43 87.8001 157.29C89.5801 184.65 89.5701 225.01 89.5701 242.09C89.5801 249.61 141.47 249.41 141.47 242.17Z" fill="#017DE1"/>
<path d="M123.97 102.93L126.47 96.23L141.71 101.74C145.3 103.03 123.97 102.93 123.97 102.93Z" fill="#31ACFF"/>
<path d="M90.01 101.74L105.24 96.24L110.22 106.82C110.22 106.82 76.96 108.14 90.01 101.74Z" fill="#31ACFF"/>
<path d="M136.8 118.66H125.37V124.39H136.8V118.66Z" fill="#003E4D"/>
<path d="M136.5 118.97H125.68V124.08H136.5V118.97Z" fill="#F4F4F4"/>
<path d="M131.84 118.05H130.34V119.31H131.84V118.05Z" fill="#B7BDBD"/>
<path d="M129.83 119.47H126.4V123.68H129.83V119.47Z" fill="#B7BDBD"/>
<path d="M110.96 307.94C110.96 309.77 108.85 311.26 106.24 311.26H103.09C100.48 311.26 98.3701 309.77 98.3701 307.94V300.86C98.3701 299.03 100.48 298.73 103.09 298.73H106.24C108.85 298.73 110.96 299.03 110.96 300.86V307.94Z" fill="#003E61"/>
<path d="M110.96 306.03C110.96 307.4 108.85 308.52 106.24 308.52H103.09C100.48 308.52 98.3701 307.41 98.3701 306.03V300.72C98.3701 299.35 100.48 296.39 103.09 296.39H106.24C108.85 296.39 110.96 299.34 110.96 300.72V306.03Z" fill="#3F5E77"/>
<path d="M132.71 307.94C132.71 309.77 130.6 311.26 127.99 311.26H124.84C122.23 311.26 120.12 309.77 120.12 307.94V300.86C120.12 299.03 122.23 298.73 124.84 298.73H127.99C130.6 298.73 132.71 299.03 132.71 300.86V307.94Z" fill="#003E61"/>
<path d="M132.71 306.03C132.71 307.4 130.6 308.52 127.99 308.52H124.84C122.23 308.52 120.12 307.41 120.12 306.03V300.72C120.12 299.35 122.23 296.39 124.84 296.39H127.99C130.6 296.39 132.71 299.34 132.71 300.72V306.03Z" fill="#3F5E77"/>
<path d="M141.47 129.48C143.7 148.08 140.4 152.24 132.57 178.44C132.46 178.51 128.58 182.41 128.49 182.54C131.53 184.39 134.11 188.16 134.62 192.27C136.65 190.54 139.34 190.94 142.09 187.04C142.77 168.31 146.69 143.74 147.51 129.47H141.47V129.48Z" fill="#0269AF"/>
<path d="M141.09 185.46C139.25 186.61 131.83 176.98 134.35 175.34C145.12 149.17 147.07 148.54 141.43 129.05C143.18 121.37 139.89 105.76 142.48 104.96L142.67 101.09C151.67 105.89 151.56 110.83 154.59 119.53C159.18 132.77 165.84 154.57 141.09 185.46Z" fill="#017DE1"/>
<path d="M126.42 187.3C129.11 189.02 131.79 190.76 134.63 192.27C135.53 190.59 139.06 187.51 139.87 185.27C138.88 184.8 135.87 181.38 134.73 179.24C132.7 180.23 128.96 181.74 128.42 182.65C127.34 184.46 127.03 186.5 126.42 187.3Z" fill="#EAB794"/>
<path d="M90.8 129.48C87.56 149.25 92.28 157.07 104.37 183.64C104.48 183.71 98.16 188.17 97.64 192.28C95.59 192.52 91.77 190.37 89.02 186.47C88.34 167.74 85.57 143.74 84.75 129.48H90.8Z" fill="#0269AF"/>
<path d="M91.1801 185.46C93.0201 186.61 100.44 176.98 97.9301 175.34C87.1601 149.17 85.2101 148.54 90.8501 129.05C89.1001 121.37 92.3901 105.76 89.8001 104.96L89.6101 101.09C80.6101 105.89 80.7201 110.83 77.6901 119.53C73.0901 132.77 66.4301 154.57 91.1801 185.46Z" fill="#017DE1"/>
<path d="M105.85 187.3C103.16 189.02 100.48 190.76 97.6402 192.27C96.7402 190.59 93.2202 187.49 92.4202 185.26C94.3302 183.92 96.3002 181.04 97.5402 179.26C99.5702 180.25 103.32 181.74 103.86 182.65C104.93 184.46 105.24 186.5 105.85 187.3Z" fill="#EAB794"/>
<path d="M104.83 205.27C106.06 199.27 105.83 189.36 105.83 178.59C102.59 182.28 90.9402 187.88 90.9402 187.88C90.9402 196.4 91.5302 201.83 92.6102 205.28H104.83V205.27Z" fill="#31ACFF"/>
<path d="M127.05 205.27C125.82 199.27 126.05 189.36 126.05 178.59C129.29 182.28 140.94 187.88 140.94 187.88C140.94 196.4 140.35 201.83 139.27 205.28H127.05V205.27Z" fill="#31ACFF"/>
<path opacity="0.3" d="M262.19 340.98C289.882 340.98 312.33 336.024 312.33 329.91C312.33 323.796 289.882 318.84 262.19 318.84C234.498 318.84 212.05 323.796 212.05 329.91C212.05 336.024 234.498 340.98 262.19 340.98Z" fill="black"/>
<path opacity="0.3" d="M188.61 325.23C209.481 325.23 226.4 321.496 226.4 316.89C226.4 312.284 209.481 308.55 188.61 308.55C167.739 308.55 150.82 312.284 150.82 316.89C150.82 321.496 167.739 325.23 188.61 325.23Z" fill="black"/>
<path opacity="0.3" d="M335.45 325.23C356.321 325.23 373.24 321.496 373.24 316.89C373.24 312.284 356.321 308.55 335.45 308.55C314.579 308.55 297.66 312.284 297.66 316.89C297.66 321.496 314.579 325.23 335.45 325.23Z" fill="black"/>
<path d="M172.95 170.12L189.15 176.61L205 170.91C205 170.91 209.21 183.18 209.21 195.41C209.21 201.52 203.06 250.08 203.06 250.45L195.67 308.19L190.74 311.44L191.06 277.17L191.29 242.67C191.29 242.67 190.68 213.43 190.97 205.8C191.06 203.3 191.82 195.83 191.82 195.83L190.13 195.78L187.06 195.77C187.06 195.77 187.89 203.16 187.99 205.63C188.31 213.28 187.64 242.55 187.64 242.55L187.99 276.84L187.77 311.3L182.86 309.24L175.65 251.33C175.65 248.81 169.61 199.68 169.32 195.29C168.91 189.19 172.95 170.12 172.95 170.12Z" fill="#EAB794"/>
<path d="M207.17 170.41L206.9 163.39H170.9L170.73 169.81C170.52 170.49 165.52 187.19 165.7 193C165.77 195.2 167.99 208.97 170.25 223.02C171.28 229.39 173.28 238.06 173.28 242.01C173.28 250.07 205.12 250.06 205.52 242.01C206.22 228.01 213.01 197.51 212.81 193.07C212.29 181.62 207.22 170.52 207.17 170.41Z" fill="#0569B5"/>
<path d="M176.56 230.82C173.57 218.83 169.98 204.39 169.56 201.78C168.74 196.59 169.28 181.87 169.69 173.4C168.19 178.75 165.57 188.78 165.7 192.99C165.77 195.19 167.35 208.8 169.62 222.85C170.65 229.22 171.76 235.98 172.63 241.77C173.24 245.84 179.76 246.97 179.76 246.97C178.96 243.7 177.55 234.78 176.56 230.82Z" fill="#0766A0"/>
<path d="M208.4 173.42C209.11 179.95 210.02 191.6 208.95 201.87C208.36 207.57 200.97 235.5 197.94 247.18C197.94 247.18 202.93 246.29 204.83 243.82C207.47 240.39 213.03 197.51 212.82 193.06C212.46 185.19 209.95 177.47 208.4 173.42Z" fill="#0766A0"/>
<path d="M181.31 306.06C181.31 306.06 178.33 310.96 178.09 312.6C177.85 314.24 177.32 318.86 178.67 319.44C180.02 320.02 185.68 320.12 186.45 319.63C187.22 319.15 188.87 315.88 189.01 314.05C189.16 312.21 188.05 304.86 188.05 304.86L181.31 306.06Z" fill="#0468B4"/>
<path d="M181.44 305.46C181.44 305.46 178.37 311.59 180.37 314.02C181.17 315 188.35 313.14 188.05 304.92C187.74 296.7 181.44 305.46 181.44 305.46Z" fill="#EAB794"/>
<path d="M197.22 306.06C197.22 306.06 200.2 310.96 200.44 312.6C200.68 314.24 201.21 318.86 199.86 319.44C198.51 320.02 192.85 320.12 192.08 319.63C191.31 319.15 189.66 315.88 189.52 314.05C189.38 312.21 190.48 304.86 190.48 304.86L197.22 306.06Z" fill="#0468B4"/>
<path d="M197.09 305.46C197.09 305.46 200.16 311.59 198.16 314.02C197.36 315 190.18 313.14 190.48 304.92C190.79 296.7 197.09 305.46 197.09 305.46Z" fill="#EAB794"/>
<path d="M197.82 48.32C190.82 42.53 168.41 47.24 168.41 75.04C168.41 96.14 176.61 98.13 165.82 111.22C173.52 117.8 196.07 120.67 201.36 116.34C206.65 112.01 211.17 97.3 211.76 82.66C212.38 67.04 208.42 50.94 197.82 48.32Z" fill="#FFB048"/>
<path d="M207.15 80.04C207.15 69.49 199.46 63.03 189.97 63.03C180.48 63.03 172.79 69.49 172.79 80.04C172.79 101.01 183.6 105.21 189.97 105.21C196.34 105.21 207.15 101.01 207.15 80.04Z" fill="#EF9A33"/>
<path d="M205.88 152.98L217.04 113.55C217.04 109.94 214.31 105.95 210.93 104.66L196.58 99.13V80.08H182.72V99.13L168.37 104.66C165 105.96 162.26 109.94 162.26 113.55L173.42 152.98H205.88Z" fill="#EAB794"/>
<path d="M206.79 165.66L217.04 114.87C217.04 110.93 214.31 106.58 210.93 105.16L196.58 99.13C193.37 104.8 189.59 107.41 189.59 107.41C189.59 107.41 185.83 104.62 182.72 99.13L168.37 105.16C165 106.58 162.26 110.92 162.26 114.87L173.35 165.66H206.79Z" fill="#31ACFF"/>
<path d="M187.04 220.52L179.41 99.9299L168.2 104.25C164.68 105.61 161.81 109.78 161.81 113.55C161.81 113.55 168.42 146.64 168.42 157.67C168.42 167.71 160.68 191.1 160.01 204.57C159.51 214.57 187.04 220.52 187.04 220.52Z" fill="#DDDDDD"/>
<path d="M219.27 207.5C217.89 194.6 210.02 168.14 209.93 158.01C209.82 146.74 218.03 114.29 218.03 114.29C218.03 110.52 214.61 105.61 211.09 104.25L199.88 99.9299L193.87 220.19C193.87 220.19 220.25 216.61 219.27 207.5Z" fill="#DDDDDD"/>
<path d="M182.72 94C185.53 97.3 188.94 98.26 191.48 98.26C192.98 98.26 194.78 97.92 196.59 96.97V83.15H182.73V94H182.72Z" fill="#D19A75"/>
<path d="M204.44 106.52L203.69 101.88L211.69 105.09C215.11 106.42 204.44 106.52 204.44 106.52Z" fill="#F4F4F4"/>
<path d="M204.78 71.42C204.78 91.04 195.46 94.97 189.96 94.97C184.46 94.97 175.14 91.05 175.14 71.42C175.14 61.55 181.77 55.5 189.96 55.5C198.15 55.5 204.78 61.54 204.78 71.42Z" fill="#F4C3A2"/>
<path d="M202.38 74.31C201.74 77.72 202.49 80.73 204.07 81.03C205.64 81.33 207.44 78.8 208.08 75.38C208.72 71.97 207.97 68.96 206.39 68.66C204.82 68.37 203.02 70.9 202.38 74.31Z" fill="#F4C3A2"/>
<path d="M184.54 181.05L179.41 99.9301L176.61 101.01L175.01 110.89L177.16 114.98L173.76 118.61L184.54 181.05Z" fill="#F4F4F4"/>
<path d="M205.28 119.04L202.86 115.31L204.17 111.48L202.64 100.99L199.89 99.9301L195.92 179.26L205.28 119.04Z" fill="#F4F4F4"/>
<path d="M202.38 74.3101C201.74 77.7201 202.49 80.7301 204.07 81.0301C205.64 81.3301 207.44 78.8001 208.08 75.3801C208.72 71.9701 207.97 68.9601 206.39 68.6601C204.82 68.3701 203.02 70.9001 202.38 74.3101Z" fill="#F4C3A2"/>
<path d="M189.66 107.41C188.27 108.85 180.49 111.66 181.13 99.2601C182.45 98.6001 182.66 98.3501 182.66 98.3501L189.66 107.41Z" fill="#6CCBFF"/>
<path d="M189.59 107.41C190.98 108.85 198.76 111.66 198.12 99.2601C196.8 98.6001 196.59 98.3501 196.59 98.3501L189.59 107.41Z" fill="#6CCBFF"/>
<path d="M189.96 52.8301C181.78 52.8301 173.56 64.0901 173.56 70.6401C180.72 72.0501 197.24 75.0301 200.5 61.2701C200.66 60.6001 203.43 63.8001 204.68 69.3501C211.61 66.6201 196.34 52.8301 189.96 52.8301Z" fill="#EF9A33"/>
<path d="M176.81 74.3101C177.45 77.7201 176.7 80.7301 175.12 81.0301C173.55 81.3301 171.75 78.8001 171.11 75.3801C170.47 71.9701 171.22 68.9601 172.8 68.6601C174.38 68.3701 176.17 70.9001 176.81 74.3101Z" fill="#F4C3A2"/>
<path d="M207.65 78.8501H210.33C213.54 72.4001 209.07 64.5701 199.42 49.9401C197.56 48.7001 178.63 43.3601 172.34 59.8601C168.64 69.5601 170.46 69.9101 170.46 69.9101C170.46 69.9101 195.5 77.3801 199.43 59.0301C199.77 57.4501 208 69.5501 207.65 78.8501Z" fill="#FFB048"/>
<path d="M179.81 50.7301C178.92 51.4701 172.52 59.7001 175.75 60.3601C182.93 61.8201 198.17 49.4801 194.82 48.2401C192.83 47.5001 186.09 45.4901 179.81 50.7301Z" fill="#FFC176"/>
<path d="M213.35 124.61H201.63V130.48H213.35V124.61Z" fill="#003E4D"/>
<path d="M213.03 124.92H201.94V130.16H213.03V124.92Z" fill="#F4F4F4"/>
<path d="M208.26 123.98H206.72V125.27H208.26V123.98Z" fill="#B7BDBD"/>
<path d="M206.2 125.43H202.69V129.75H206.2V125.43Z" fill="#B7BDBD"/>
<path d="M196.78 135.04C194.22 132.05 192.48 126.5 192.47 120.12H193C193.01 126.03 194.52 131.2 196.79 134.15V135.04H196.78Z" fill="#B7BDBD"/>
<path d="M205.57 133.99C207.77 131.02 209.22 125.92 209.23 120.12H209.75C209.74 126.39 208.06 131.86 205.56 134.89V133.99H205.57Z" fill="#B7BDBD"/>
<path d="M205 134.99C205 135.2 205.17 135.36 205.37 135.36C205.58 135.36 205.74 135.19 205.74 134.99V133.87C205.74 133.66 205.57 133.5 205.37 133.5C205.16 133.5 205 133.67 205 133.87V134.99Z" fill="#B7BDBD"/>
<path d="M196.6 134.99C196.6 135.2 196.77 135.36 196.97 135.36C197.18 135.36 197.34 135.19 197.34 134.99V133.87C197.34 133.66 197.17 133.5 196.97 133.5C196.76 133.5 196.6 133.67 196.6 133.87V134.99Z" fill="#B7BDBD"/>
<path d="M203.69 134.55C203.69 134.92 203.99 135.23 204.37 135.23H204.46C204.83 135.23 205.14 134.93 205.14 134.55C205.14 134.18 204.84 133.87 204.46 133.87H204.37C203.99 133.87 203.69 134.18 203.69 134.55Z" fill="#B7BDBD"/>
<path d="M197.16 134.55C197.16 134.92 197.46 135.23 197.84 135.23H197.93C198.3 135.23 198.61 134.93 198.61 134.55C198.61 134.18 198.31 133.87 197.93 133.87H197.84C197.46 133.87 197.16 134.18 197.16 134.55Z" fill="#B7BDBD"/>
<path d="M193.26 120.5V120.24C193.28 111.22 196.8 103.88 201.12 103.88C205.43 103.88 208.95 111.22 208.98 120.24V120.5H210.03V120.24C210.01 110.57 206.01 102.7 201.12 102.7C196.23 102.7 192.24 110.57 192.21 120.24V120.5H193.26Z" fill="#003E4D"/>
<path d="M196.57 97.38C198.91 98.97 200.68 101.11 201.59 103.59H200.72C199.9 101.57 198.45 99.8 196.57 98.42V97.38Z" fill="#003E4D"/>
<path d="M177.9 130.46H178.87C177.56 118.14 180.86 99.84 182.73 98.46V97.42C180.4 99 176.99 113.55 177.9 130.46Z" fill="#003E4D"/>
<path d="M178.41 141.35C181.52 141.35 184.05 138.82 184.05 135.71C184.05 132.6 181.52 130.07 178.41 130.07C175.3 130.07 172.77 132.6 172.77 135.71C172.77 138.82 175.3 141.35 178.41 141.35Z" fill="#003E4D"/>
<path d="M183.69 135.71C183.69 132.8 181.33 130.44 178.42 130.44C175.51 130.44 173.15 132.8 173.15 135.71C173.15 138.62 175.51 140.98 178.42 140.98C181.32 140.98 183.69 138.62 183.69 135.71Z" fill="#B7BDBD"/>
<path d="M179.69 135.71C179.69 135 179.12 134.43 178.41 134.43C177.7 134.43 177.13 135 177.13 135.71C177.13 136.42 177.7 136.99 178.41 136.99C179.12 136.99 179.69 136.41 179.69 135.71Z" fill="#6A686B"/>
<path d="M176.21 136.68C176.72 137.34 177.51 137.77 178.41 137.77C179.31 137.77 180.1 137.34 180.61 136.68H182.29C182.14 138.7 180.46 140.29 178.41 140.29C176.36 140.29 174.68 138.7 174.53 136.68H176.21Z" fill="#DDDDDD"/>
<path d="M192.59 81.11C192.14 81.76 191.22 82.21 190.15 82.21C189.08 82.21 188.16 81.76 187.71 81.11H192.59Z" fill="#D19A75"/>
<path opacity="0.2" d="M168.42 157.36C168.42 157.46 168.43 157.57 168.43 157.67C168.43 160.48 167.91 164.87 167.16 169.73L181.71 169.71L181.22 157.26L168.42 157.36Z" fill="#48545B"/>
<path d="M192.976 140.201L166.59 144.344L172.648 182.931L199.035 178.789L192.976 140.201Z" fill="#69452B"/>
<path d="M196.15 153.61C194.57 154.24 191.59 156.05 190.62 154.91C189.64 153.77 184.43 159.79 184.43 159.79L182.48 165C182.48 165 194.2 165.65 197.27 164.37C200.34 163.11 197.74 152.98 196.15 153.61Z" fill="#EAB794"/>
<path d="M185.08 166.88C187.14 166.45 186.23 156.08 183.37 156.62C151.22 160.61 159.08 146.22 165.79 125.61C166.76 122.63 170 105.31 167.46 104.58C156.16 111.57 153.57 121.94 151.06 131.47C145.5 152.61 142.27 169.57 185.08 166.88Z" fill="#DDDDDD"/>
<path d="M167.27 105.6L175.32 102.48L174.08 110.27C174.09 110.26 159.92 109.6 167.27 105.6Z" fill="#F4F4F4"/>
<path d="M180.51 188.61C180.51 188.61 182.14 213.35 179.86 213.03C177.58 212.7 168.14 210.08 166.19 206.19C164.23 202.3 168.14 193.49 168.14 193.49L180.51 188.61Z" fill="#F4F4F4"/>
<g opacity="0.2">
<path d="M213.23 177.88C211.57 181.47 209.46 185.44 206.79 189.9C204.36 191.51 209.8 198.29 211.58 197.16C213.26 195.04 214.77 192.93 216.15 190.82C215.2 186.56 214.17 182.13 213.23 177.88Z" fill="#48545B"/>
</g>
<path d="M208.68 187.06C206.7 188.02 202.66 190.13 203.27 191.09C204.08 192.35 201.49 194.68 200.43 196.02C199.37 197.35 208.32 202.76 210.42 200.19C211.5 198.87 212.74 195.26 213.69 192.03C212.33 191.79 209.95 189.34 208.68 187.06Z" fill="#EAB794"/>
<path d="M200.47 188.94C200.47 188.94 199.09 213.68 201.37 213.36C203.65 213.03 213.09 210.42 215.04 206.52C217 202.63 213.09 193.82 213.09 193.82L200.47 188.94Z" fill="#F4F4F4"/>
<path d="M214.32 191.96C212.54 193.09 205.94 185.05 208.37 183.43C225.86 154.18 220.97 151.01 214.26 130.4C215.6 122.44 210.15 110.88 212.69 110.15L212.67 105.34C221.95 110.72 222.11 116.64 225.61 125.85C230.94 139.87 234.77 166.15 214.32 191.96Z" fill="#DDDDDD"/>
<path d="M356.48 172.13L334.92 179.34L313.83 173.01C313.83 173.01 312.39 186.64 312.39 200.23C312.39 207.02 318.66 309.89 318.66 309.89L329.23 309.62L333.57 200.69L333.63 200.63L335.84 200.62L340.91 310.99L352.11 311.18C352.11 311.18 357.96 203.84 358.35 198.96C358.89 192.19 356.48 172.13 356.48 172.13Z" fill="#3F5E77"/>
<path d="M357.51 159.5L370.76 108.03C370.76 103.37 367.18 98.23 362.76 96.56L345.53 90.03V62.55H324.21V90.02L306.98 96.5501C302.56 98.2301 298.98 103.36 298.98 108.02L312.23 159.49H357.51V159.5Z" fill="#EAB794"/>
<path d="M355.63 187.18L370.17 107.74C370.17 103.01 366.62 97.7701 362.26 96.0701L345.39 89.4401L334.61 113.36L324.36 89.4401L307.49 96.0701C303.13 97.7701 299.58 103 299.58 107.74L314.12 187.18H355.63Z" fill="#31ACFF"/>
<path d="M335.05 76.17C333.4 76.17 331.85 75.92 330.42 75.54C331.06 74.64 332.41 74.38 335.15 74.38C337.84 74.38 339.19 74.63 339.84 75.49C338.36 75.9 336.75 76.17 335.05 76.17Z" fill="#FFB048"/>
<path d="M350.42 57.4601C350.42 78.9501 340.81 82.4601 335.15 82.4601C329.49 82.4601 319.88 78.2901 319.88 57.4601C319.88 46.9801 326.72 40.5601 335.15 40.5601C343.59 40.5601 350.42 46.9701 350.42 57.4601Z" fill="#F2994A"/>
<path d="M321.74 61.36C322.36 64.66 321.63 67.56 320.11 67.85C318.59 68.14 316.86 65.69 316.24 62.4C315.62 59.1 316.35 56.2 317.87 55.91C319.38 55.62 321.12 58.06 321.74 61.36Z" fill="#F2994A"/>
<path d="M348.31 61.36C347.69 64.66 348.42 67.56 349.94 67.85C351.46 68.14 353.19 65.69 353.81 62.4C354.43 59.11 353.7 56.2 352.18 55.91C350.66 55.62 348.93 58.06 348.31 61.36Z" fill="#F2994A"/>
<path d="M324.32 80.24C325.22 86.84 330.05 90.08 336.46 90.08C340.53 90.08 343.41 88.94 345.53 86.86V81.34L324.32 80.24Z" fill="#D19A75"/>
<path d="M341.98 75.0001C341.66 72.8201 340.22 71.5401 335.16 71.5401C330.04 71.5401 328.63 72.8501 328.33 75.0701C322.43 75.0701 319.73 59.0001 319.73 59.0001C319.64 75.4101 322.23 86.7101 335.16 86.7101C348.66 86.7101 351.71 71.6501 350.43 57.6901C350.42 57.7001 348.51 75.0001 341.98 75.0001ZM335.05 76.4101C333.4 76.4101 331.85 76.1601 330.42 75.7801C331.06 74.8801 332.41 74.6201 335.15 74.6201C337.84 74.6201 339.19 74.8701 339.84 75.7301C338.36 76.1401 336.75 76.4101 335.05 76.4101Z" fill="#474747"/>
<path d="M348.97 50.9601C349.08 50.8401 349.17 50.7001 349.28 50.5801C347 44.2401 341.54 40.5601 335.15 40.5601C329.18 40.5601 324.02 43.7901 321.51 49.3901C321.73 49.7101 321.98 50.0001 322.3 50.2101C325.59 52.4601 342.48 58.0701 348.97 50.9601Z" fill="#EAB794"/>
<path d="M321.53 49.32C318.2 47.24 320.04 39.61 328.49 37.56C339.16 34.96 348.56 41 348.42 34.51C351.59 36.53 354.85 44.26 349.07 50.02C342.37 56.72 324.92 51.44 321.53 49.32Z" fill="#474747"/>
<path d="M366.06 218.53C366.06 181.71 370.86 107.22 370.86 107.22C370.86 102.46 367.24 97.19 362.8 95.47L347.48 89.53C347.48 89.53 340.44 175.19 354.5 183.44C356.02 224.96 366.06 224.67 366.06 218.53Z" fill="#DDDDDD"/>
<path d="M354.36 112.68L351.84 104.84L353.82 103.57L352.5 91.1601C352.5 91.1601 347.68 87.8701 347.47 89.2001C343.16 116.79 346.12 150.61 346.12 150.61L354.36 112.68Z" fill="#F4F4F4"/>
<path d="M339.2 41.9001C325.87 42.4801 320.96 49.4001 320.96 45.6501C320.96 41.9001 325.75 38.3601 331.66 37.7401C337.57 37.1201 342.95 41.7301 339.2 41.9001Z" fill="#606060"/>
<path d="M363.09 96.06L353.51 92.66L354.53 98.04C359.33 97.71 365.57 97.09 363.09 96.06Z" fill="#F6F7F5"/>
<path d="M363.75 116.57H351.93V122.49H363.75V116.57Z" fill="#003E4D"/>
<path d="M363.43 116.89H352.25V122.18H363.43V116.89Z" fill="#F4F4F4"/>
<path d="M358.61 115.94H357.06V117.24H358.61V115.94Z" fill="#B7BDBD"/>
<path d="M356.54 117.4H353V121.76H356.54V117.4Z" fill="#B7BDBD"/>
<path d="M330.57 319.75C330.57 321.65 328.38 323.18 325.69 323.18H322.43C319.73 323.18 317.55 321.64 317.55 319.75V312.43C317.55 310.53 319.74 310.22 322.43 310.22H325.69C328.39 310.22 330.57 310.53 330.57 312.43V319.75Z" fill="#003E61"/>
<path d="M330.57 317.77C330.57 319.19 328.38 320.34 325.69 320.34H322.43C319.73 320.34 317.55 319.19 317.55 317.77V312.28C317.55 310.86 319.74 307.81 322.43 307.81H325.69C328.39 307.81 330.57 310.86 330.57 312.28V317.77Z" fill="#DDDDDD"/>
<path d="M353.06 319.75C353.06 321.65 350.87 323.18 348.18 323.18H344.92C342.22 323.18 340.04 321.64 340.04 319.75V312.43C340.04 310.53 342.23 310.22 344.92 310.22H348.18C350.88 310.22 353.06 310.53 353.06 312.43V319.75Z" fill="#003E61"/>
<path d="M353.06 317.77C353.06 319.19 350.87 320.34 348.18 320.34H344.92C342.22 320.34 340.04 319.19 340.04 317.77V312.28C340.04 310.86 342.23 307.81 344.92 307.81H348.18C350.88 307.81 353.06 310.86 353.06 312.28V317.77Z" fill="#DDDDDD"/>
<path d="M362.96 127.53C365.43 148.07 361.78 152.66 353.14 181.6C353.02 181.68 352.91 181.81 352.81 181.95C353.34 182.58 353.9 183.08 354.5 183.44C354.73 189.82 355.17 195.21 355.74 199.75C360.1 195.25 363.74 190.83 366.78 186.53C367.53 165.84 368.74 143.28 369.64 127.53H362.96Z" fill="#B7BDBD"/>
<path d="M362.54 189.35C360.51 190.62 352.32 179.98 355.09 178.18C366.99 149.29 369.14 148.59 362.9 127.06C364.84 118.58 361.2 101.34 364.06 100.46L364.27 96.1901C374.21 101.49 374.09 106.94 377.43 116.55C382.51 131.16 389.87 155.24 362.54 189.35Z" fill="#DDDDDD"/>
<path d="M346.34 191.39C349.31 193.29 352.27 195.22 355.41 196.88C356.4 195.02 359.84 190.46 360.73 188C359.23 187.81 356.73 185.32 355.47 182.96C353.23 184.06 349.14 185.26 348.54 186.26C347.36 188.25 347.01 190.5 346.34 191.39Z" fill="#EAB794"/>
<path d="M303.9 218.53C303.9 181.71 299.1 107.22 299.1 107.22C299.1 102.46 302.72 97.19 307.16 95.47L322.48 89.53C322.48 89.53 329.52 175.19 315.46 183.44C313.95 224.96 303.9 224.67 303.9 218.53Z" fill="#DDDDDD"/>
<path d="M315.61 112.68L318.13 104.84L316.15 103.57L317.47 91.1601C317.47 91.1601 322.29 87.8701 322.5 89.2001C326.81 116.79 323.85 150.61 323.85 150.61L315.61 112.68Z" fill="#F4F4F4"/>
<path d="M306.87 96.06L316.45 92.66L315.43 98.04C310.63 97.71 304.4 97.09 306.87 96.06Z" fill="#F6F7F5"/>
<path d="M307 127.53C304.53 148.07 308.18 152.66 316.82 181.6C316.95 181.68 317.05 181.81 317.15 181.95C316.62 182.58 316.06 183.08 315.46 183.44C315.23 189.82 314.79 195.21 314.22 199.75C309.86 195.25 306.22 190.83 303.18 186.53C302.43 165.84 301.22 143.28 300.32 127.53H307Z" fill="#B7BDBD"/>
<path d="M307.42 189.35C309.45 190.62 317.64 179.98 314.87 178.18C302.97 149.29 300.82 148.59 307.06 127.06C305.12 118.58 308.76 101.34 305.9 100.46L305.69 96.1901C295.75 101.49 295.87 106.94 292.53 116.55C287.45 131.16 280.1 155.24 307.42 189.35Z" fill="#DDDDDD"/>
<path d="M323.62 191.39C320.65 193.29 317.69 195.22 314.55 196.88C313.56 195.02 310.12 190.46 309.23 188C310.73 187.81 313.23 185.32 314.49 182.96C316.73 184.06 320.82 185.26 321.42 186.26C322.61 188.25 322.95 190.5 323.62 191.39Z" fill="#EAB794"/>
<path d="M323.98 129.19C326.84 125.85 328.78 119.65 328.8 112.52H328.21C328.19 119.12 326.51 124.9 323.98 128.19V129.19Z" fill="#B7BDBD"/>
<path d="M314.17 128.02C311.72 124.7 310.09 119.01 310.08 112.52H309.49C309.51 119.53 311.38 125.64 314.17 129.02V128.02Z" fill="#B7BDBD"/>
<path d="M314.81 129.14C314.81 129.37 314.62 129.56 314.39 129.56C314.16 129.56 313.97 129.37 313.97 129.14V127.89C313.97 127.66 314.16 127.47 314.39 127.47C314.62 127.47 314.81 127.66 314.81 127.89V129.14Z" fill="#B7BDBD"/>
<path d="M324.19 129.14C324.19 129.37 324 129.56 323.77 129.56C323.54 129.56 323.35 129.37 323.35 129.14V127.89C323.35 127.66 323.54 127.47 323.77 127.47C324 127.47 324.19 127.66 324.19 127.89V129.14Z" fill="#B7BDBD"/>
<path d="M316.27 128.65C316.27 129.07 315.93 129.41 315.51 129.41H315.41C314.99 129.41 314.65 129.07 314.65 128.65C314.65 128.23 314.99 127.89 315.41 127.89H315.51C315.93 127.89 316.27 128.23 316.27 128.65Z" fill="#B7BDBD"/>
<path d="M323.56 128.65C323.56 129.07 323.22 129.41 322.8 129.41H322.7C322.28 129.41 321.94 129.07 321.94 128.65C321.94 128.23 322.28 127.89 322.7 127.89H322.8C323.22 127.89 323.56 128.23 323.56 128.65Z" fill="#B7BDBD"/>
<path d="M327.92 112.95V112.66C327.9 102.59 323.96 94.3899 319.15 94.3899C314.33 94.3899 310.4 102.59 310.38 112.66V112.95H309.21V112.66C309.23 101.86 313.7 93.0699 319.16 93.0699C324.62 93.0699 329.08 101.86 329.11 112.66V112.95H327.92Z" fill="#003E4D"/>
<path d="M324.22 88.29C322.12 89.83 320.5 91.81 319.58 94.06H318.61C319.62 91.3 321.61 88.9 324.22 87.12V88.29ZM345.54 87.14V88.3C347.63 89.84 351.31 110.28 349.85 124.04H350.93C351.95 105.16 348.14 88.91 345.54 87.14Z" fill="#003E4D"/>
<path d="M350.36 136.21C346.88 136.21 344.06 133.38 344.06 129.91C344.06 126.43 346.89 123.61 350.36 123.61C353.84 123.61 356.66 126.44 356.66 129.91C356.66 133.38 353.83 136.21 350.36 136.21Z" fill="#003E4D"/>
<path d="M344.47 129.91C344.47 126.66 347.11 124.02 350.36 124.02C353.61 124.02 356.25 126.66 356.25 129.91C356.25 133.16 353.61 135.8 350.36 135.8C347.11 135.8 344.47 133.16 344.47 129.91Z" fill="#B7BDBD"/>
<path d="M348.93 129.91C348.93 129.12 349.57 128.48 350.36 128.48C351.15 128.48 351.79 129.12 351.79 129.91C351.79 130.7 351.15 131.34 350.36 131.34C349.57 131.34 348.93 130.7 348.93 129.91Z" fill="#6A686B"/>
<path d="M352.82 130.99C352.25 131.73 351.36 132.21 350.36 132.21C349.36 132.21 348.47 131.73 347.9 130.99H346.02C346.19 133.24 348.06 135.02 350.36 135.02C352.66 135.02 354.53 133.24 354.7 130.99H352.82Z" fill="#DDDDDD"/>
<path d="M239.51 241.72C238.74 241.7 237.97 241.69 237.19 241.67C239.2 263.15 240.87 280.34 242.42 296.09C242.56 297.5 242.95 303.95 243.07 305.19C243.18 306.32 241.15 312.41 241.25 313.39C241.75 318.43 244.11 320 244.11 320L257.43 320.87L258.75 314.6L257.7 307.77L259.06 242.08C252.54 241.98 246.02 241.86 239.51 241.72Z" fill="#DDDDDD"/>
<path d="M264.87 242.2L267.91 308.44L266.57 314.4L268.47 320.54L280.43 320.74C280.43 320.74 282.69 318.85 283.15 313.77C283.27 312.4 281.39 305.68 281.54 304.03C282.94 288.54 285.41 265.59 287.5 242.51C279.96 242.44 272.41 242.33 264.87 242.2Z" fill="#DDDDDD"/>
<path d="M296.3 106.78C294.94 103.91 292.52 101.42 289.75 100.36L273.13 93.9599V67.0399H252.57V93.9599L235.95 100.36C233.19 101.42 230.77 103.92 229.41 106.78L262.49 120.75L296.3 106.78Z" fill="#E29A59"/>
<path d="M279.88 61.7399C279.88 84.9799 269.16 89.6299 262.84 89.6299C256.52 89.6299 245.8 84.9799 245.8 61.7399C245.8 50.0399 253.43 42.8899 262.84 42.8899C272.26 42.8799 279.88 50.0399 279.88 61.7399Z" fill="#EFAF6A"/>
<path d="M249.08 66.0999C249.77 69.7799 248.96 73.0199 247.26 73.3399C245.57 73.6599 243.63 70.93 242.94 67.26C242.25 63.58 243.06 60.34 244.76 60.02C246.45 59.69 248.39 62.4199 249.08 66.0999Z" fill="#EFAF6A"/>
<path d="M276.62 66.0999C275.93 69.7799 276.74 73.0199 278.44 73.3399C280.14 73.6599 282.07 70.93 282.76 67.26C283.45 63.58 282.64 60.34 280.94 60.02C279.25 59.69 277.32 62.4199 276.62 66.0999Z" fill="#EFAF6A"/>
<path d="M245.82 39.72V60C253 48.79 273.07 50.67 279.82 59.8V39.24C273.07 30.08 253 28.52 245.82 39.72Z" fill="#16C4B3"/>
<path d="M291.13 256.23C291.13 238.18 291 196.12 293.45 161.93C295.44 134.2 300.11 111.6 300.11 111.6C300.11 107 296.37 101.92 291.76 100.27L273.95 93.83L262.57 117.05L251.75 93.83L233.94 100.27C229.34 101.92 225.59 107 225.59 111.6C225.59 111.6 229.73 129.52 231.87 162.49C233.84 192.71 233.82 237.27 233.82 256.13C233.83 264.44 291.13 264.22 291.13 256.23Z" fill="#16C4B3"/>
<path d="M262.55 33.6299C256.4 33.6099 250.27 35.7299 247 40.5099V46.0499L262.55 33.6299Z" fill="#29D6C1"/>
<path d="M271.8 102.47L274.56 95.0699L291.39 101.15C295.35 102.57 271.8 102.47 271.8 102.47Z" fill="#29D6C1"/>
<path d="M234.3 101.15L251.11 95.0699L256.61 106.75C256.62 106.76 219.89 108.22 234.3 101.15Z" fill="#29D6C1"/>
<path d="M279.8 59.78C273.06 50.7 253.12 48.82 245.89 59.9C245.89 59.91 245.89 59.92 245.89 59.94C245.89 59.94 259.75 47.31 279.8 59.78Z" fill="#E29A59"/>
<path d="M252.57 70.4099V85.3399C255.71 90.5899 259.95 92.7999 262.85 93.3199C265.75 93.8399 269.99 93.4699 273.13 89.5399V74.0899L262.85 69.6699L252.57 70.4099Z" fill="#D67F43"/>
<path d="M245.82 59.1899L245.08 59.9899L247.67 70.4999L248.19 68.7599L245.82 59.1899Z" fill="#E7EAE1"/>
<path d="M279.82 59.1899L280.56 59.9899L277.96 70.4999L277.45 68.7599L279.82 59.1899Z" fill="#E7EAE1"/>
<path d="M277.56 58.95C277.47 58.66 277.3 58.48 276.98 58.48C276.98 58.48 267.27 58.48 266.23 58.48C265.32 58.48 263.95 59.07 262.73 59.07C261.51 59.07 260.13 58.48 259.23 58.48C258.18 58.48 248.48 58.48 248.48 58.48C248.16 58.48 247.98 58.66 247.9 58.95H244.92V59.93H247.89C248.24 62.17 249.42 66.23 250.02 66.23H258.35C259.32 66.23 260.74 64.27 261.26 63.02C261.58 62.25 262.26 61.91 262.75 61.91C263.24 61.91 263.91 62.25 264.24 63.02C264.76 64.27 266.18 66.23 267.15 66.23H275.48C276.08 66.23 277.26 62.17 277.61 59.93H280.58V58.95H277.56ZM258.35 65.93C257.58 65.93 251.07 65.94 250.42 65.94C249.77 65.94 247.7 59.26 249.43 59.26C249.43 59.26 257.62 59.26 258.45 59.26C263.25 59.27 259.12 65.93 258.35 65.93ZM275.02 65.94C274.37 65.94 267.86 65.93 267.09 65.93C266.32 65.93 262.19 59.27 266.99 59.27C267.82 59.27 276.01 59.27 276.01 59.27C277.73 59.27 275.67 65.94 275.02 65.94Z" fill="#003E4D"/>
<path opacity="0.3" d="M258.35 65.93C257.58 65.93 251.07 65.94 250.42 65.94C249.77 65.94 247.7 59.26 249.43 59.26C249.43 59.26 257.62 59.26 258.45 59.26C263.25 59.27 259.12 65.93 258.35 65.93Z" fill="#E7EAE1"/>
<path opacity="0.3" d="M275.02 65.9399C274.37 65.9399 267.86 65.9299 267.09 65.9299C266.32 65.9299 262.19 59.2699 266.99 59.2699C267.82 59.2699 276.01 59.2699 276.01 59.2699C277.73 59.2699 275.67 65.9399 275.02 65.9399Z" fill="#E7EAE1"/>
<path d="M278.22 68.79L262.84 65.35L247.47 68.79C247.99 73.75 249.41 80.92 249.41 80.92C253.07 87.67 258.98 89.64 262.84 89.64C266.7 89.64 272.61 88.12 276.27 81.53C276.28 81.53 277.71 73.68 278.22 68.79Z" fill="#E7EAE1"/>
<path d="M262.85 66.08V72.75C262.85 72.75 250.33 75.77 248.36 69.46L262.85 66.08Z" fill="#F6F7F5"/>
<path d="M285.98 119.84H273.35V126.17H285.98V119.84Z" fill="#003E4D"/>
<path d="M285.64 120.17H273.69V125.82H285.64V120.17Z" fill="#F4F4F4"/>
<path d="M280.49 119.16H278.83V120.55H280.49V119.16Z" fill="#B7BDBD"/>
<path d="M278.27 120.73H274.49V125.38H278.27V120.73Z" fill="#B7BDBD"/>
<path d="M257.43 328.85C257.43 330.88 255.09 332.52 252.21 332.52H248.73C245.85 332.52 243.51 330.88 243.51 328.85V321.03C243.51 319 245.85 318.67 248.73 318.67H252.21C255.09 318.67 257.43 319 257.43 321.03V328.85Z" fill="#003E61"/>
<path d="M257.43 326.74C257.43 328.26 255.09 329.49 252.21 329.49H248.73C245.85 329.49 243.51 328.26 243.51 326.74V320.88C243.51 319.36 245.85 316.1 248.73 316.1H252.21C255.09 316.1 257.43 319.36 257.43 320.88V326.74Z" fill="#3F5E77"/>
<path d="M281.45 328.85C281.45 330.88 279.11 332.52 276.23 332.52H272.75C269.87 332.52 267.53 330.88 267.53 328.85V321.03C267.53 319 269.87 318.67 272.75 318.67H276.23C279.11 318.67 281.45 319 281.45 321.03V328.85Z" fill="#003E61"/>
<path d="M281.45 326.74C281.45 328.26 279.11 329.49 276.23 329.49H272.75C269.87 329.49 267.53 328.26 267.53 326.74V320.88C267.53 319.36 269.87 316.1 272.75 316.1H276.23C279.11 316.1 281.45 319.36 281.45 320.88V326.74Z" fill="#3F5E77"/>
<path d="M225.88 112.43C225.85 112.54 225.81 112.65 225.78 112.76C226.61 118.01 230.03 140.42 232.14 165.51C248.06 163.4 283.44 153.38 288.27 151.91C287.05 145.99 275.37 140.88 275.37 140.88C275.37 140.88 236.56 144.48 236.76 141.42C236.96 138.36 238.95 121.76 238.95 121.76L225.88 112.43Z" fill="#0EAF9C"/>
<path d="M225.88 109.37C220.93 125.73 212.56 158.18 219.1 162.27C225.63 166.35 275.77 152.67 282.5 150.63C281.28 144.71 275.16 142.79 275.16 142.79C275.16 142.79 233.18 148.6 233.38 145.54C233.58 142.48 239.3 120.44 239.3 120.44L225.88 109.37Z" fill="#16C4B3"/>
<path d="M299.74 112.43C299.77 112.54 299.81 112.65 299.84 112.76C299.01 118.01 295.09 143.8 292.99 168.9C277.07 166.79 250.12 151.09 245.29 149.63C246.51 143.71 248.47 141.56 248.47 141.56C248.47 141.56 290.41 151.46 290.2 148.4C290 145.34 286.67 121.79 286.67 121.79L299.74 112.43Z" fill="#0EAF9C"/>
<path d="M299.74 109.37C304.69 125.73 313.06 158.18 306.53 162.27C300 166.35 253.72 150.37 246.98 148.33C248.2 142.41 249.46 137.25 249.46 137.25C249.46 137.25 289.91 145.77 292.22 146.24C294.89 146.79 292.12 142.81 286.32 120.44L299.74 109.37Z" fill="#16C4B3"/>
<path d="M250.26 138.99C251.1 139.56 286.76 145.85 293.46 146.54C314.15 156.28 267.85 148.51 250.26 138.99Z" fill="#29D6C1"/>
<path d="M301.94 142.05C296.43 137.36 290.61 137.17 290.61 137.17L290.23 135.61C288.24 135.48 275.15 142.79 275.15 142.79C275.15 142.79 294.45 145.85 298.62 148.2C300.51 149.25 305.04 144.68 301.94 142.05Z" fill="#F4F4F4"/>
<path d="M290.88 137.69C296.46 140.06 302.33 145.03 302.2 143.5C302.07 141.97 296.92 138.07 290.88 137.69Z" fill="white"/>
<path d="M243.45 134.26L238.97 135.33C238.97 135.33 238.08 134.85 235.49 135.45C234.6 139.23 233.9 142.43 233.83 143.47C233.82 143.59 233.89 143.7 234.01 143.8C239.36 143.43 247.57 145.51 247.57 145.51L249.46 137.25C249.47 137.24 245.41 134.67 243.45 134.26Z" fill="#F4F4F4"/>
<path d="M235.25 136.26C235.11 136.86 234.98 137.43 234.85 137.99C237.06 137.35 239.69 136.63 242.15 136.32C239.74 135.79 237.31 135.88 235.25 136.26Z" fill="white"/>
</svg>
