<svg width="415" height="274" viewBox="0 0 415 274" fill="none" xmlns="http://www.w3.org/2000/svg">
<path d="M398.778 183.366C395.781 186.63 392.065 189.06 388.032 190.946H388.027C387.648 191.126 387.269 191.3 386.884 191.465H386.879L386.874 191.47L386.87 191.465H386.865C386.865 191.466 386.865 191.467 386.865 191.467C386.864 191.468 386.864 191.468 386.864 191.469C386.863 191.469 386.863 191.47 386.862 191.47C386.861 191.47 386.861 191.47 386.86 191.47H386.855L386.85 191.465C386.845 191.47 386.846 191.47 386.841 191.465L386.836 191.47L386.831 191.465H386.826C386.821 191.47 386.821 191.47 386.816 191.465H386.811C384.112 192.629 381.34 193.617 378.512 194.423C361.885 199.126 344.41 200.036 327.382 197.086C327.056 197.028 326.735 196.969 326.409 196.911V157.577C326.73 157.441 327.056 157.305 327.382 157.174C329.507 156.296 331.659 155.49 333.837 154.754C336.97 153.687 340.146 152.772 343.366 152.009C353.873 149.474 364.713 148.6 375.492 149.42C377.452 149.565 379.408 149.775 381.358 150.05C385.44 150.617 389.72 151.607 393.485 153.323H393.49C394.04 153.581 394.58 153.847 395.115 154.133C398.462 155.942 401.283 158.43 403.005 161.839C403.624 163.064 404.069 164.368 404.329 165.714V165.724C404.426 166.189 404.494 166.66 404.547 167.125C405.16 172.867 402.772 179.012 398.778 183.366Z" fill="#4BD37B"/>
<path d="M404.547 167.126C404.5 167.137 404.451 167.144 404.401 167.145C396.069 167.509 387.747 168.049 379.437 168.765H379.422C379.388 168.77 379.359 168.77 379.325 168.774C370.793 169.512 362.278 170.435 353.781 171.544C353.421 171.592 353.066 171.641 352.711 171.684C346.835 172.465 340.97 173.331 335.116 174.284C332.533 174.705 329.955 175.145 327.382 175.603C327.056 175.661 326.735 175.714 326.409 175.777V174.308C326.735 174.245 327.06 174.191 327.382 174.133C335.953 172.62 344.553 171.299 353.183 170.171C355.353 169.88 357.525 169.605 359.701 169.347C365.986 168.59 372.281 167.937 378.585 167.387C379.048 167.349 379.505 167.31 379.967 167.271C388.037 166.587 396.119 166.068 404.212 165.714C404.251 165.713 404.29 165.716 404.329 165.724C405.107 165.792 405.272 166.956 404.547 167.126Z" fill="white"/>
<path d="M387.243 190.036C376.862 190.112 366.635 185.724 359.292 178.461C357.22 176.403 355.395 174.114 353.851 171.637C353.357 170.846 352.199 171.719 352.689 172.503C358.392 181.621 367.891 188.116 378.363 190.504C381.337 191.175 384.38 191.5 387.429 191.471C388.36 191.464 388.167 190.03 387.243 190.036V190.036Z" fill="white"/>
<path d="M343.366 152.01C343.322 152.146 343.242 152.268 343.136 152.364C343.029 152.46 342.899 152.527 342.758 152.558C340.379 153.179 338.081 154.074 335.909 155.225C332.738 156.895 329.858 159.064 327.382 161.65C327.25 161.781 327.124 161.912 327.002 162.048C326.798 162.261 326.603 162.48 326.409 162.703V160.588C326.72 160.259 327.046 159.934 327.382 159.623C329.337 157.757 331.503 156.123 333.837 154.754C336.97 153.687 340.146 152.773 343.366 152.01Z" fill="white"/>
<path d="M394.346 152.941C387.743 155.771 382.217 160.627 378.574 166.804C378.501 166.981 378.5 167.18 378.572 167.357C378.644 167.534 378.783 167.676 378.96 167.752C379.137 167.822 379.335 167.821 379.512 167.749C379.689 167.678 379.832 167.541 379.91 167.367C383.387 161.533 388.633 156.951 394.891 154.282C395.75 153.916 395.206 152.575 394.346 152.941L394.346 152.941Z" fill="white"/>
<path d="M414.252 111.753C413.123 116.031 410.959 119.905 408.269 123.441L408.264 123.446C408.016 123.775 407.758 124.11 407.49 124.43V124.435C405.623 126.729 403.606 128.898 401.454 130.928C393.716 138.28 384.975 144.505 375.492 149.42C360.572 157.189 343.897 161.781 327.382 162.043C327.255 162.048 327.129 162.048 327.002 162.048C326.803 162.053 326.603 162.053 326.409 162.053V140.012C326.725 139.41 327.051 138.809 327.382 138.212C331.674 130.514 336.907 123.375 342.963 116.962C343.109 116.802 343.259 116.642 343.41 116.486C345.687 114.091 348.074 111.81 350.571 109.644C360.177 101.223 371.279 94.6684 383.304 90.3182C387.181 88.9312 391.433 87.8207 395.567 87.6024C396.175 87.5685 396.779 87.5539 397.387 87.5588C401.196 87.6121 404.849 88.5093 407.967 90.7304C409.084 91.5299 410.085 92.4779 410.944 93.548C411.246 93.9214 411.523 94.3045 411.791 94.6973V94.7022C415.011 99.5032 415.76 106.045 414.252 111.753Z" fill="#4BD37B"/>
<path d="M411.791 94.6974V94.7022C411.755 94.7335 411.716 94.7612 411.674 94.7847C404.474 98.9601 397.366 103.288 390.348 107.767C390.338 107.772 390.333 107.777 390.324 107.781C390.296 107.801 390.266 107.819 390.236 107.835C383.022 112.442 375.91 117.204 368.9 122.122C368.608 122.325 368.312 122.534 368.015 122.742C363.175 126.152 358.385 129.634 353.645 133.188C344.694 139.91 335.94 146.88 327.382 154.1C327.056 154.371 326.735 154.648 326.409 154.924V153.038C326.73 152.761 327.056 152.485 327.382 152.213C330.661 149.454 333.968 146.733 337.305 144.051C338.303 143.251 339.305 142.451 340.307 141.66C349.209 134.595 358.31 127.792 367.611 121.254H367.616C369.445 119.968 371.277 118.695 373.113 117.432C378.328 113.853 383.601 110.36 388.932 106.952C389.317 106.705 389.706 106.458 390.095 106.21C396.92 101.865 403.834 97.6621 410.837 93.6014C410.871 93.5807 410.907 93.5628 410.944 93.548C411.674 93.257 412.36 94.2172 411.791 94.6974Z" fill="white"/>
<path d="M407.144 123.001C397.987 127.876 386.885 128.726 376.999 125.694C374.205 124.831 371.522 123.649 369.001 122.171C368.194 121.699 367.576 123.008 368.376 123.476C377.674 128.909 389.112 130.262 399.499 127.526C402.446 126.744 405.291 125.623 407.978 124.185C408.799 123.748 407.96 122.567 407.144 123.001V123.001Z" fill="white"/>
<path d="M338.629 140.745C338.176 138.206 338.02 135.623 338.166 133.049C338.493 127.177 340.297 121.482 343.41 116.487C345.689 114.092 348.077 111.811 350.572 109.644C350.596 109.785 350.582 109.931 350.532 110.066C350.482 110.2 350.397 110.32 350.287 110.412C348.471 112.064 346.853 113.921 345.465 115.944C340.509 123.156 338.575 132.012 340.075 140.625C340.099 140.722 340.097 140.825 340.071 140.922C340.044 141.019 339.993 141.107 339.922 141.179C339.818 141.269 339.692 141.331 339.557 141.358C339.421 141.384 339.281 141.375 339.151 141.332C339.02 141.288 338.903 141.21 338.811 141.107C338.72 141.004 338.657 140.879 338.629 140.745Z" fill="white"/>
<path d="M396.15 86.8617C391.621 92.4253 388.991 99.2847 388.643 106.442C388.66 106.632 388.752 106.809 388.898 106.932C389.045 107.056 389.234 107.117 389.426 107.102C389.616 107.082 389.79 106.99 389.914 106.844C390.037 106.699 390.1 106.512 390.088 106.322C390.449 99.5452 392.96 93.0581 397.257 87.7958C397.847 87.0743 396.741 86.1387 396.15 86.8617Z" fill="white"/>
<path d="M345.774 102.796V102.801C345.74 103.218 345.701 103.63 345.657 104.042V104.052C345.319 106.986 344.791 109.896 344.077 112.762C343.736 114.168 343.366 115.565 342.963 116.962C342.914 117.141 342.86 117.321 342.807 117.495V117.5C341.619 121.562 340.199 125.553 338.555 129.454C335.531 136.636 331.787 143.496 327.382 149.929C327.065 150.399 326.74 150.87 326.409 151.335V75.3913C326.735 75.3719 327.056 75.3719 327.382 75.3816C327.537 75.3816 327.693 75.3865 327.849 75.3962C329.221 75.4681 330.577 75.7309 331.877 76.177C332.334 76.3273 332.776 76.497 333.214 76.6862C338.521 79.0043 342.69 84.1157 344.5 89.7363C345.857 93.9457 346.129 98.3734 345.774 102.796Z" fill="#4BD37B"/>
<path d="M333.214 76.686C333.203 76.7335 333.185 76.7792 333.161 76.8217C331.191 80.6384 329.264 84.4744 327.382 88.3298C327.056 88.9942 326.73 89.6634 326.409 90.3278V87.0301C326.73 86.3705 327.054 85.711 327.382 85.0515C328.836 82.1126 330.315 79.1867 331.818 76.2737C331.835 76.2397 331.854 76.2073 331.877 76.1767C332.324 75.5366 333.433 75.9731 333.214 76.686Z" fill="white"/>
<path d="M345.93 103.577C345.843 103.732 345.755 103.887 345.657 104.042C344.229 106.524 342.529 108.84 340.589 110.948C336.862 114.979 332.374 118.237 327.382 120.536C327.06 120.691 326.735 120.837 326.409 120.972V119.396C326.735 119.251 327.06 119.1 327.382 118.945C334.608 115.509 340.611 109.956 344.587 103.029C344.645 102.93 344.723 102.845 344.816 102.778C344.91 102.712 345.016 102.667 345.129 102.645C345.241 102.623 345.357 102.626 345.469 102.653C345.58 102.68 345.684 102.73 345.774 102.801C345.836 102.842 345.888 102.894 345.929 102.955C345.971 103.016 345.999 103.085 346.014 103.157C346.028 103.229 346.028 103.303 346.014 103.375C345.999 103.447 345.971 103.516 345.93 103.577Z" fill="white"/>
<path d="M327.382 16.0035V52.8602H326.409V52.4674H0.972902V52.8602H0V16.0035C0.00417783 11.7604 1.6968 7.69227 4.70639 4.69193C7.71599 1.69158 11.7967 0.00416498 16.0529 0H311.329C315.585 0.00416498 319.666 1.69158 322.675 4.69193C325.685 7.69227 327.377 11.7604 327.382 16.0035Z" fill="#F2994A"/>
<path d="M311.329 0H16.0529C11.7967 0.00416498 7.71599 1.69158 4.70639 4.69193C1.6968 7.69227 0.00417783 11.7604 0 16.0035V226.474C0.00417783 230.717 1.6968 234.786 4.70639 237.786C7.71599 240.786 11.7967 242.474 16.0529 242.478H311.329C315.585 242.474 319.666 240.786 322.675 237.786C325.685 234.786 327.377 230.717 327.382 226.474V16.0035C327.377 11.7604 325.685 7.69227 322.675 4.69193C319.666 1.69158 315.585 0.00416498 311.329 0ZM326.409 226.474C326.404 230.46 324.813 234.281 321.986 237.099C319.159 239.917 315.327 241.503 311.329 241.508H16.0529C12.055 241.503 8.2223 239.917 5.39536 237.099C2.56842 234.281 0.978003 230.46 0.972902 226.474V16.0035C0.978003 12.0179 2.56842 8.19703 5.39536 5.37878C8.2223 2.56053 12.055 0.974997 16.0529 0.969912H311.329C315.327 0.974998 319.159 2.56053 321.986 5.37878C324.813 8.19703 326.404 12.0179 326.409 16.0035V226.474Z" fill="#3F3D56"/>
<path d="M66.1574 36.1292C71.5306 36.1292 75.8864 31.7867 75.8864 26.4301C75.8864 21.0734 71.5306 16.731 66.1574 16.731C60.7842 16.731 56.4283 21.0734 56.4283 26.4301C56.4283 31.7867 60.7842 36.1292 66.1574 36.1292Z" fill="white"/>
<path d="M261.224 36.1292C266.597 36.1292 270.953 31.7867 270.953 26.4301C270.953 21.0734 266.597 16.731 261.224 16.731C255.851 16.731 251.495 21.0734 251.495 26.4301C251.495 31.7867 255.851 36.1292 261.224 36.1292Z" fill="white"/>
<path d="M94.2667 134.576H36.3906C33.9387 134.573 31.588 133.601 29.8542 131.873C28.1205 130.144 27.1452 127.801 27.1425 125.357V98.0862C27.1452 95.6418 28.1205 93.2983 29.8542 91.5699C31.588 89.8415 33.9387 88.8692 36.3906 88.8665H94.2667C96.7186 88.8692 99.0693 89.8415 100.803 91.5699C102.537 93.2983 103.512 95.6418 103.515 98.0862V125.357C103.512 127.801 102.537 130.144 100.803 131.873C99.0693 133.601 96.7186 134.573 94.2667 134.576Z" fill="#2D9CDB"/>
<path d="M192.724 134.576H134.848C132.396 134.573 130.045 133.601 128.311 131.873C126.578 130.144 125.602 127.801 125.599 125.357V98.0862C125.602 95.6418 126.578 93.2983 128.311 91.5699C130.045 89.8415 132.396 88.8692 134.848 88.8665H192.724C195.176 88.8692 197.526 89.8415 199.26 91.5699C200.994 93.2983 201.969 95.6418 201.972 98.0862V125.357C201.969 127.801 200.994 130.144 199.26 131.873C197.526 133.601 195.176 134.573 192.724 134.576Z" fill="#2D9CDB"/>
<path d="M192.724 205.036H134.848C132.321 205.033 129.899 204.031 128.113 202.251C126.327 200.47 125.322 198.055 125.319 195.537V168.266C125.322 165.748 126.327 163.333 128.113 161.552C129.899 159.772 132.321 158.77 134.848 158.767H192.724C195.25 158.77 197.672 159.772 199.458 161.552C201.244 163.333 202.249 165.748 202.252 168.266V195.537C202.249 198.055 201.244 200.47 199.458 202.251C197.672 204.031 195.25 205.033 192.724 205.036Z" fill="#F2F2F2"/>
<path d="M94.077 205.036H36.2009C33.6746 205.033 31.2527 204.031 29.4664 202.251C27.6801 200.47 26.6753 198.055 26.6725 195.537V168.266C26.6753 165.748 27.6801 163.333 29.4664 161.552C31.2527 159.772 33.6746 158.77 36.2009 158.767H94.077C96.6032 158.77 99.0251 159.772 100.811 161.552C102.598 163.333 103.603 165.748 103.605 168.266V195.537C103.603 198.055 102.598 200.47 100.811 202.251C99.0251 204.031 96.6032 205.033 94.077 205.036Z" fill="#F2F2F2"/>
<path d="M291.181 205.036H233.305C230.779 205.033 228.357 204.031 226.57 202.251C224.784 200.47 223.779 198.055 223.776 195.537V168.266C223.779 165.748 224.784 163.333 226.57 161.552C228.357 159.772 230.779 158.77 233.305 158.767H291.181C293.707 158.77 296.129 159.772 297.915 161.552C299.702 163.333 300.706 165.748 300.709 168.266V195.537C300.706 198.055 299.702 200.47 297.915 202.251C296.129 204.031 293.707 205.033 291.181 205.036Z" fill="#F2F2F2"/>
<path d="M291.181 134.631H233.305C230.779 134.628 228.357 133.626 226.57 131.846C224.784 130.065 223.779 127.65 223.776 125.132V97.8612C223.779 95.3427 224.784 92.9282 226.57 91.1474C228.357 89.3666 230.779 88.3649 233.305 88.3621H291.181C293.707 88.3649 296.129 89.3666 297.915 91.1474C299.702 92.9282 300.706 95.3427 300.709 97.8612V125.132C300.706 127.65 299.702 130.065 297.915 131.846C296.129 133.626 293.707 134.628 291.181 134.631Z" fill="#F2F2F2"/>
<path d="M65.3287 127.367C73.9962 127.367 81.0225 120.362 81.0225 111.721C81.0225 103.08 73.9962 96.0757 65.3287 96.0757C56.6612 96.0757 49.6349 103.08 49.6349 111.721C49.6349 120.362 56.6612 127.367 65.3287 127.367Z" fill="white"/>
<path d="M63.7731 117.69C63.42 117.69 63.0763 117.577 62.7938 117.365L62.7763 117.352L59.0881 114.537C58.9171 114.407 58.7735 114.244 58.6655 114.058C58.5576 113.873 58.4875 113.668 58.4591 113.455C58.4307 113.242 58.4447 113.026 58.5003 112.818C58.5558 112.611 58.6518 112.416 58.7827 112.246C58.9137 112.076 59.077 111.933 59.2635 111.825C59.4499 111.718 59.6557 111.648 59.8692 111.62C60.0826 111.592 60.2996 111.606 60.5075 111.662C60.7155 111.717 60.9105 111.813 61.0812 111.944L63.4702 113.77L69.1155 106.43C69.2465 106.26 69.4097 106.117 69.596 106.01C69.7824 105.903 69.988 105.833 70.2014 105.805C70.4147 105.777 70.6315 105.791 70.8394 105.846C71.0472 105.902 71.2421 105.997 71.4129 106.128L71.3778 106.176L71.4137 106.129C71.7582 106.393 71.9836 106.782 72.0404 107.211C72.0973 107.641 71.981 108.075 71.717 108.419L65.0767 117.052C64.9231 117.251 64.7256 117.412 64.4996 117.523C64.2735 117.633 64.0249 117.69 63.7731 117.69Z" fill="#6C63FF"/>
<path d="M164.066 127.142C172.733 127.142 179.76 120.137 179.76 111.497C179.76 102.856 172.733 95.8511 164.066 95.8511C155.399 95.8511 148.372 102.856 148.372 111.497C148.372 120.137 155.399 127.142 164.066 127.142Z" fill="white"/>
<path d="M162.51 117.465C162.157 117.466 161.814 117.352 161.531 117.141L161.514 117.128L157.825 114.313C157.48 114.049 157.255 113.66 157.198 113.23C157.14 112.801 157.257 112.366 157.521 112.022C157.786 111.679 158.176 111.453 158.607 111.397C159.038 111.34 159.474 111.456 159.818 111.719L162.207 113.545L167.853 106.206C167.984 106.035 168.147 105.893 168.333 105.785C168.52 105.678 168.725 105.608 168.939 105.58C169.152 105.552 169.369 105.566 169.577 105.622C169.784 105.677 169.979 105.773 170.15 105.903L170.115 105.951L170.151 105.904C170.495 106.168 170.721 106.557 170.778 106.987C170.835 107.416 170.718 107.85 170.454 108.194L163.814 116.828C163.66 117.027 163.463 117.188 163.237 117.298C163.011 117.409 162.762 117.466 162.51 117.465Z" fill="#6C63FF"/>
<path d="M270.132 185.326C270.648 184.764 271.034 184.096 271.262 183.369C271.491 182.642 271.557 181.874 271.456 181.119C271.354 180.365 271.088 179.641 270.676 179C270.264 178.358 269.716 177.815 269.071 177.408L260.309 130.768L249.653 134.707L261.616 179.314C261.002 180.44 260.823 181.752 261.114 183.001C261.405 184.25 262.146 185.349 263.196 186.091C264.246 186.832 265.531 187.163 266.81 187.022C268.088 186.881 269.271 186.277 270.132 185.326Z" fill="#A0616A"/>
<path d="M185.108 114.159C185.134 114.448 185.138 114.739 185.119 115.03L205.837 130.926L211.712 128.521L216.512 136.886L206.526 142.152C205.719 142.577 204.796 142.73 203.894 142.588C202.993 142.445 202.162 142.015 201.527 141.362L180.818 120.078C179.722 120.325 178.576 120.232 177.534 119.814C176.491 119.396 175.602 118.671 174.982 117.736C174.363 116.801 174.044 115.7 174.068 114.58C174.092 113.46 174.457 112.374 175.115 111.466C175.773 110.558 176.693 109.871 177.752 109.497C178.811 109.123 179.96 109.079 181.044 109.371C182.129 109.663 183.099 110.278 183.825 111.133C184.551 111.988 184.998 113.044 185.108 114.159H185.108Z" fill="#A0616A"/>
<path d="M233.51 268.107H227.547L224.709 250.024L233.512 250.025L233.51 268.107Z" fill="#A0616A"/>
<path d="M235.031 273.871L215.802 273.87V273.628C215.802 272.648 215.995 271.677 216.371 270.772C216.747 269.867 217.299 269.044 217.994 268.351C218.689 267.658 219.514 267.109 220.422 266.734C221.33 266.359 222.304 266.166 223.286 266.166H223.287L235.032 266.166L235.031 273.871Z" fill="#2F2E41"/>
<path d="M255.887 268.107H249.924L247.086 250.024L255.888 250.025L255.887 268.107Z" fill="#A0616A"/>
<path d="M257.408 273.871L238.178 273.87V273.628C238.178 272.648 238.372 271.677 238.748 270.772C239.124 269.867 239.676 269.044 240.371 268.351C241.066 267.658 241.891 267.109 242.799 266.734C243.707 266.359 244.68 266.166 245.663 266.166H245.664L257.408 266.166L257.408 273.871Z" fill="#2F2E41"/>
<path d="M226.308 264.533C225.764 264.534 225.239 264.332 224.836 263.966C224.433 263.601 224.182 263.099 224.132 262.559L218.934 192.876L219.18 192.856L254.944 189.925L254.954 190.178L257.797 262.364C257.808 262.658 257.76 262.95 257.655 263.224C257.55 263.498 257.39 263.749 257.186 263.96C256.982 264.171 256.737 264.339 256.466 264.454C256.195 264.569 255.904 264.628 255.61 264.628H248.597C248.074 264.631 247.567 264.445 247.169 264.105C246.772 263.765 246.511 263.294 246.434 262.778L236.911 204.464C236.901 204.404 236.87 204.35 236.822 204.312C236.774 204.274 236.714 204.255 236.653 204.259C236.592 204.264 236.535 204.291 236.493 204.335C236.451 204.38 236.428 204.438 236.427 204.499L235.995 262.075C235.991 262.631 235.774 263.164 235.388 263.567C235.003 263.969 234.478 264.209 233.921 264.239L226.426 264.53C226.386 264.532 226.347 264.533 226.308 264.533Z" fill="#2D9CDB"/>
<path d="M232.413 104.811C239.011 104.811 244.36 99.4785 244.36 92.9003C244.36 86.322 239.011 80.9893 232.413 80.9893C225.814 80.9893 220.465 86.322 220.465 92.9003C220.465 99.4785 225.814 104.811 232.413 104.811Z" fill="#A0616A"/>
<path d="M234.726 197.32C229.504 197.304 224.307 196.596 219.272 195.214C218.787 195.073 218.366 194.771 218.08 194.357C217.793 193.943 217.658 193.443 217.698 192.941C219.306 168.842 219.684 150.141 216.302 137.201C214.861 131.686 215.515 125.878 218.098 121.265C221.984 114.324 229.128 110.099 236.748 110.245C237.112 110.252 237.48 110.265 237.852 110.284C249.416 110.878 258.427 121.307 257.939 133.534L255.613 191.81C255.605 192.235 255.47 192.649 255.226 192.998C254.983 193.347 254.641 193.616 254.244 193.771C248.004 196.112 241.392 197.313 234.726 197.32Z" fill="#2D9CDB"/>
<path d="M218.268 141.675L209.319 130.742C209.064 130.431 208.88 130.069 208.778 129.681C208.677 129.292 208.66 128.886 208.73 128.491C208.8 128.095 208.955 127.72 209.183 127.389C209.412 127.059 209.709 126.781 210.055 126.576L222.178 119.374C223.782 118.084 225.834 117.481 227.883 117.696C229.933 117.912 231.813 118.929 233.111 120.525C234.409 122.12 235.02 124.164 234.809 126.207C234.598 128.251 233.582 130.128 231.985 131.426L222.511 141.791C222.239 142.088 221.907 142.323 221.536 142.48C221.166 142.637 220.765 142.713 220.363 142.702C219.96 142.691 219.565 142.593 219.203 142.416C218.842 142.239 218.523 141.986 218.268 141.675Z" fill="#2D9CDB"/>
<path d="M246.422 140.303C246.054 140.139 245.726 139.898 245.461 139.596C245.195 139.295 244.998 138.939 244.882 138.554L240.854 125.119C239.979 123.258 239.88 121.128 240.579 119.195C241.278 117.262 242.717 115.684 244.581 114.808C246.445 113.931 248.582 113.827 250.523 114.519C252.463 115.211 254.049 116.642 254.933 118.498L262.724 130.229C262.947 130.563 263.094 130.942 263.156 131.339C263.219 131.735 263.194 132.141 263.085 132.527C262.976 132.914 262.785 133.272 262.525 133.578C262.264 133.885 261.94 134.131 261.576 134.301L248.756 140.284C248.391 140.454 247.993 140.544 247.591 140.548C247.188 140.551 246.789 140.468 246.422 140.303Z" fill="#2D9CDB"/>
<path d="M238.317 102.674L229.46 100.653C228.547 100.444 227.449 100.047 227.323 99.1209C227.152 97.8769 228.948 97.0103 228.782 95.7657C228.622 94.5602 226.986 94.4049 225.82 94.049C224.734 93.6692 223.838 92.8828 223.323 91.8563C222.808 90.8299 222.714 89.6439 223.061 88.5495C221.798 90.3225 218.915 90.4744 217.278 89.0379C215.641 87.6015 215.327 84.9953 216.31 83.0546C216.842 82.1014 217.591 81.2866 218.497 80.6765C219.404 80.0664 220.442 79.6781 221.527 79.5433C223.709 79.2966 225.916 79.7067 227.862 80.7207C227.992 79.3467 229.713 78.7896 231.097 78.7773C233.973 78.8108 236.767 79.737 239.09 81.4273C241.412 83.1176 243.149 85.4878 244.058 88.208C245.756 93.6647 244.62 99.6463 239.867 102.839L238.317 102.674Z" fill="#2F2E41"/>
<path d="M327.522 274H142.184C142.055 274 141.931 273.949 141.84 273.858C141.748 273.767 141.697 273.644 141.697 273.515C141.697 273.386 141.748 273.263 141.84 273.172C141.931 273.081 142.055 273.03 142.184 273.03H327.522C327.651 273.03 327.774 273.081 327.865 273.172C327.957 273.263 328.008 273.386 328.008 273.515C328.008 273.644 327.957 273.767 327.865 273.858C327.774 273.949 327.651 274 327.522 274Z" fill="#3F3D56"/>
</svg>
