<svg width="81" height="80" viewBox="0 0 81 80" fill="none" xmlns="http://www.w3.org/2000/svg">
<g clip-path="url(#clip0_324_2945)">
<path d="M8.57143 11V50.3327L2.05429 57.0433C0.749216 58.363 0.010835 60.1528 0 62.0226C0.00901203 63.8703 0.736159 65.6397 2.02339 66.9463C3.31062 68.2528 5.05389 68.9909 6.87429 69H73.1257C74.9461 68.9909 76.6894 68.2528 77.9766 66.9463C79.2638 65.6397 79.991 63.8703 80 62.0226C79.9888 60.1511 79.2506 58.3597 77.9457 57.0375L71.4286 50.3298V11H8.57143ZM14.2857 16.8H65.7143V48.7H14.2857V16.8ZM37.1429 22.6V31.3H28.5714V37.1H37.1429V45.8H42.8571V37.1H51.4286V31.3H42.8571V22.6H37.1429ZM12.6771 54.5H67.32L73.9286 61.1149C74.1555 61.3613 74.283 61.6853 74.2857 62.0226C74.294 62.1794 74.2696 62.3362 74.2142 62.4829C74.1588 62.6295 74.0737 62.7627 73.9643 62.8737C73.8549 62.9848 73.7237 63.0712 73.5792 63.1274C73.4347 63.1836 73.2802 63.2084 73.1257 63.2H6.87429C6.71979 63.2084 6.56528 63.1836 6.42081 63.1274C6.27634 63.0712 6.14515 62.9848 6.03574 62.8737C5.92634 62.7627 5.84118 62.6295 5.7858 62.4829C5.73041 62.3362 5.70605 62.1794 5.71429 62.0226C5.71429 61.7036 5.84857 61.344 6.07143 61.1149L12.68 54.5H12.6771Z" fill="white"/>
</g>
<defs>
<clipPath id="clip0_324_2945">
<rect width="80" height="80" fill="white" transform="translate(0.5)"/>
</clipPath>
</defs>
</svg>
