<svg width="81" height="80" viewBox="0 0 81 80" fill="none" xmlns="http://www.w3.org/2000/svg">
<path d="M31.4989 48.751V50.5C31.4989 54.0804 32.9212 57.5142 35.4528 60.0459C37.9844 62.5777 41.418 64 44.9983 64C48.5785 64 52.0121 62.5777 54.5437 60.0459C57.0753 57.5142 58.4976 54.0804 58.4976 50.5V45.49C56.4952 44.7823 54.8075 43.3894 53.7327 41.5576C52.658 39.7258 52.2654 37.5729 52.6244 35.4796C52.9835 33.3863 54.0709 31.4874 55.6946 30.1184C57.3183 28.7494 59.3737 27.9985 61.4974 27.9985C63.6212 27.9985 65.6766 28.7494 67.3003 30.1184C68.924 31.4874 70.0114 33.3863 70.3704 35.4796C70.7294 37.5729 70.3369 39.7258 69.2621 41.5576C68.1874 43.3894 66.4997 44.7823 64.4973 45.49V50.5C64.4973 55.6717 62.4429 60.6316 58.7861 64.2886C55.1294 67.9455 50.1697 70 44.9983 70C39.8268 70 34.8671 67.9455 31.2104 64.2886C27.5536 60.6316 25.4992 55.6717 25.4992 50.5V48.751C21.3052 48.0408 17.4981 45.8687 14.7526 42.6195C12.0071 39.3703 10.5005 35.2539 10.5 31V16C10.5 14.4087 11.1321 12.8826 12.2573 11.7574C13.3824 10.6321 14.9085 10 16.4997 10H19.4995C20.2952 10 21.0582 10.3161 21.6208 10.8787C22.1833 11.4413 22.4994 12.2044 22.4994 13C22.4994 13.7956 22.1833 14.5587 21.6208 15.1213C21.0582 15.6839 20.2952 16 19.4995 16H16.4997V31C16.4997 34.1826 17.7639 37.2348 20.0142 39.4853C22.2646 41.7357 25.3167 43 28.4991 43C31.6815 43 34.7336 41.7357 36.9839 39.4853C39.2343 37.2348 40.4985 34.1826 40.4985 31V16H37.4986C36.703 16 35.94 15.6839 35.3774 15.1213C34.8148 14.5587 34.4988 13.7956 34.4988 13C34.4988 12.2044 34.8148 11.4413 35.3774 10.8787C35.94 10.3161 36.703 10 37.4986 10H40.4985C42.0897 10 43.6158 10.6321 44.7409 11.7574C45.8661 12.8826 46.4982 14.4087 46.4982 16V31C46.4976 35.2539 44.9911 39.3703 42.2456 42.6195C39.5001 45.8687 35.6929 48.0408 31.4989 48.751ZM61.4974 40C62.293 40 63.0561 39.6839 63.6186 39.1213C64.1812 38.5587 64.4973 37.7956 64.4973 37C64.4973 36.2044 64.1812 35.4413 63.6186 34.8787C63.0561 34.3161 62.293 34 61.4974 34C60.7018 34 59.9388 34.3161 59.3762 34.8787C58.8136 35.4413 58.4976 36.2044 58.4976 37C58.4976 37.7956 58.8136 38.5587 59.3762 39.1213C59.9388 39.6839 60.7018 40 61.4974 40Z" fill="white"/>
</svg>
