<svg width="81" height="80" viewBox="0 0 81 80" fill="none" xmlns="http://www.w3.org/2000/svg">
<path d="M13.7108 10.0026C13.4443 10.0046 13.1892 10.1122 13.0007 10.3021C12.8122 10.4919 12.7054 10.7488 12.7033 11.0173V17.3058C12.7033 17.8574 13.1606 18.3205 13.7108 18.3205H67.2892C67.8394 18.3205 68.2967 17.8574 68.2967 17.3058V11.0147C68.2946 10.7462 68.1878 10.4893 67.9993 10.2995C67.8108 10.1096 67.5557 10.002 67.2892 10L13.7108 10.0026ZM13.5946 20.7376C13.3448 20.7354 13.1023 20.8222 12.9099 20.9827C12.7175 21.1431 12.5876 21.3669 12.5432 21.6144L9.52067 38.0421C9.5 38.1124 9.5 38.18 9.5 38.2503V43.7583C9.5 44.3567 9.9805 44.8406 10.5747 44.8406H70.4253C71.0195 44.8406 71.5 44.3567 71.5 43.7583V38.2268C71.5 38.1566 71.5 38.0889 71.4767 38.0187L68.4568 21.6144C68.4124 21.3669 68.2825 21.1431 68.0901 20.9827C67.8977 20.8222 67.6552 20.7354 67.4054 20.7376H13.5946ZM13.8917 47.2369C13.7353 47.2358 13.5803 47.2661 13.4357 47.3258C13.2911 47.3856 13.1596 47.4737 13.0491 47.5851C12.9385 47.6964 12.851 47.8288 12.7917 47.9744C12.7323 48.1201 12.7023 48.2762 12.7033 48.4337V68.8031C12.7033 69.4718 13.2278 69.9999 13.8917 69.9999H50.3373C51.0012 69.9999 51.5257 69.4718 51.5257 68.8031V51.6599C51.5257 50.9912 52.0527 50.4631 52.7166 50.4631H63.1016C63.7681 50.4631 64.2925 50.9912 64.2925 51.6599V68.8031C64.2925 69.4718 64.8195 69.9999 65.4808 69.9999H67.0825C67.2392 70.0017 67.3946 69.9719 67.5397 69.9124C67.6848 69.8529 67.8166 69.7649 67.9275 69.6534C68.0384 69.542 68.1261 69.4094 68.1855 69.2634C68.2449 69.1174 68.2748 68.9609 68.2734 68.8031V48.4337C68.2741 48.2763 68.2438 48.1204 68.1844 47.9749C68.1249 47.8293 68.0374 47.6971 67.9269 47.5859C67.8164 47.4746 67.6851 47.3865 67.5406 47.3265C67.3962 47.2666 67.2413 47.2362 67.0851 47.2369H13.8917ZM18.6502 51.2696H38.9216C39.4692 51.2696 39.9291 51.7301 39.9291 52.2843V64.9785C39.9291 65.53 39.4692 65.9932 38.9216 65.9932H18.6502C18.3836 65.9911 18.1285 65.8836 17.94 65.6937C17.7515 65.5039 17.6447 65.247 17.6427 64.9785V52.2817C17.6427 51.7067 18.1025 51.267 18.6502 51.267V51.2696Z" fill="white"/>
</svg>
