<svg width="84" height="80" viewBox="0 0 84 80" fill="none" xmlns="http://www.w3.org/2000/svg">
<g filter="url(#filter0_dd_324_2954)">
<path d="M61.3279 40.2353H43.1461C41.941 40.2362 40.7856 40.6084 39.9335 41.27C39.0811 41.9317 38.6018 42.829 38.6006 43.7647V54.3529H13.6007V36.7059H9.05524V64.9412H13.6007V57.8823H68.1461V64.9412H72.6915V49.0588C72.6879 46.7196 71.4896 44.4768 69.3592 42.8228C67.229 41.1686 64.3407 40.2381 61.3279 40.2353ZM68.1461 54.3529H43.1461V43.7647H61.3279C63.1356 43.766 64.869 44.3243 66.147 45.3169C67.4253 46.3094 68.1444 47.6551 68.1461 49.0588V54.3529Z" fill="white"/>
<path d="M26.1007 42C26.7749 42 27.434 42.1553 27.9947 42.4461C28.5553 42.7369 28.9921 43.1503 29.2503 43.6341C29.5082 44.1178 29.5759 44.65 29.4442 45.1635C29.3126 45.677 28.988 46.1487 28.5113 46.5188C28.0345 46.889 27.427 47.1411 26.7658 47.2433C26.1044 47.3453 25.419 47.293 24.7961 47.0927C24.1731 46.8922 23.6407 46.553 23.2661 46.1176C22.8915 45.6824 22.6916 45.1706 22.6916 44.6471C22.6928 43.9452 23.0523 43.2725 23.6914 42.7763C24.3305 42.2801 25.1969 42.0009 26.1007 42ZM26.1007 38.4706C24.5274 38.4706 22.9895 38.8327 21.6814 39.5115C20.3732 40.1901 19.3537 41.1548 18.7516 42.2835C18.1496 43.4119 17.992 44.6539 18.299 45.852C18.6059 47.0502 19.3635 48.1508 20.476 49.0144C21.5884 49.8782 23.0058 50.4664 24.5488 50.7049C26.0918 50.9432 27.6912 50.8209 29.1448 50.3533C30.5982 49.8859 31.8406 49.0942 32.7145 48.0785C33.5887 47.0628 34.0551 45.8686 34.0551 44.6471C34.0551 43.0089 33.2171 41.4379 31.7254 40.2797C30.2336 39.1213 28.2103 38.4706 26.1007 38.4706Z" fill="white"/>
<path d="M52.237 22.5882H43.1461V15.5294H38.6006V22.5882H29.5097V26.1177H38.6006V33.1765H43.1461V26.1177H52.237V22.5882Z" fill="white"/>
</g>
<defs>
<filter id="filter0_dd_324_2954" x="-1.5" y="0" width="88" height="88" filterUnits="userSpaceOnUse" color-interpolation-filters="sRGB">
<feFlood flood-opacity="0" result="BackgroundImageFix"/>
<feColorMatrix in="SourceAlpha" type="matrix" values="0 0 0 0 0 0 0 0 0 0 0 0 0 0 0 0 0 0 127 0" result="hardAlpha"/>
<feOffset dy="4"/>
<feGaussianBlur stdDeviation="2"/>
<feComposite in2="hardAlpha" operator="out"/>
<feColorMatrix type="matrix" values="0 0 0 0 0 0 0 0 0 0 0 0 0 0 0 0 0 0 0.25 0"/>
<feBlend mode="normal" in2="BackgroundImageFix" result="effect1_dropShadow_324_2954"/>
<feColorMatrix in="SourceAlpha" type="matrix" values="0 0 0 0 0 0 0 0 0 0 0 0 0 0 0 0 0 0 127 0" result="hardAlpha"/>
<feOffset dy="4"/>
<feGaussianBlur stdDeviation="2"/>
<feComposite in2="hardAlpha" operator="out"/>
<feColorMatrix type="matrix" values="0 0 0 0 0 0 0 0 0 0 0 0 0 0 0 0 0 0 0.25 0"/>
<feBlend mode="normal" in2="effect1_dropShadow_324_2954" result="effect2_dropShadow_324_2954"/>
<feBlend mode="normal" in="SourceGraphic" in2="effect2_dropShadow_324_2954" result="shape"/>
</filter>
</defs>
</svg>
