<svg width="50" height="50" viewBox="0 0 50 50" fill="none" xmlns="http://www.w3.org/2000/svg">
<path d="M35.4167 4.16663H27.0834V12.6229C30.0653 12.9506 32.9241 13.9934 35.4167 15.6625V4.16663ZM22.9167 4.16663H14.5834V15.6625C17.0761 13.9934 19.9348 12.9506 22.9167 12.6229V4.16663ZM25.0001 45.8333C28.8678 45.8333 32.5772 44.2968 35.3121 41.5619C38.047 38.827 39.5834 35.1177 39.5834 31.25C39.5834 27.3822 38.047 23.6729 35.3121 20.938C32.5772 18.2031 28.8678 16.6666 25.0001 16.6666C21.1323 16.6666 17.423 18.2031 14.6881 20.938C11.9532 23.6729 10.4167 27.3822 10.4167 31.25C10.4167 35.1177 11.9532 38.827 14.6881 41.5619C17.423 44.2968 21.1323 45.8333 25.0001 45.8333ZM22.448 28.0854L25.0001 22.9166L27.5522 28.0854L33.2563 28.9125L29.1292 32.9375L30.1042 38.6187L25.0001 35.9375L19.898 38.6187L20.873 32.9375L16.7459 28.9125L22.448 28.0854Z" fill="black"/>
</svg>
