<svg width="50" height="38" viewBox="0 0 50 38" fill="none" xmlns="http://www.w3.org/2000/svg">
<path d="M0 6.5C0 4.8424 0.65848 3.25268 1.83058 2.08058C3.00269 0.90848 4.5924 0.25 6.25 0.25H43.75C45.4076 0.25 46.9973 0.90848 48.1694 2.08058C49.3415 3.25268 50 4.8424 50 6.5V9.625H0V6.5ZM0 15.875V31.5C0 33.1576 0.65848 34.7473 1.83058 35.9194C3.00269 37.0915 4.5924 37.75 6.25 37.75H43.75C45.4076 37.75 46.9973 37.0915 48.1694 35.9194C49.3415 34.7473 50 33.1576 50 31.5V15.875H0ZM9.375 22.125H12.5C13.3288 22.125 14.1237 22.4542 14.7097 23.0403C15.2958 23.6263 15.625 24.4212 15.625 25.25V28.375C15.625 29.2038 15.2958 29.9987 14.7097 30.5847C14.1237 31.1708 13.3288 31.5 12.5 31.5H9.375C8.5462 31.5 7.75134 31.1708 7.16529 30.5847C6.57924 29.9987 6.25 29.2038 6.25 28.375V25.25C6.25 24.4212 6.57924 23.6263 7.16529 23.0403C7.75134 22.4542 8.5462 22.125 9.375 22.125Z" fill="black"/>
</svg>
