<svg width="81" height="80" viewBox="0 0 81 80" fill="none" xmlns="http://www.w3.org/2000/svg">
<path fill-rule="evenodd" clip-rule="evenodd" d="M27.1667 53.3333V70H53.8333V53.3333H70.5V26.6667H53.8333V10H27.1667V26.6667H10.5V53.3333H27.1667ZM44.6667 27.505H40.2833C40.1283 27.4977 39.9736 27.5244 39.83 27.5833C38.4383 28.2617 37.565 29.46 37.03 30.88C36.93 31.1417 36.845 31.4067 36.77 31.6717H33.34C33.4767 31.0267 33.6617 30.36 33.9117 29.7017C34.6483 27.75 35.9933 25.7467 38.3683 24.5867C39.025 24.2667 39.7017 24.1717 40.285 24.17H44.6683C45.1104 24.17 45.5343 24.3456 45.8468 24.6582C46.1594 24.9707 46.335 25.3946 46.335 25.8367C46.335 26.2787 46.1594 26.7026 45.8468 27.0152C45.5343 27.3277 45.1104 27.5033 44.6683 27.5033L44.6667 27.505ZM30.5 33.3383C29.58 33.3383 28.8117 34.0983 29.0617 34.985C30.0233 38.4167 33.9383 41.0867 38.8333 41.5867V44.1833C37.675 44.2117 36.4717 44.305 35.45 44.6017C34.6533 44.835 33.8083 45.2317 33.1617 45.9583C32.485 46.7183 32.1667 47.6783 32.1667 48.75C32.1667 49.8217 32.4833 50.7833 33.16 51.545C33.8067 52.2733 34.6517 52.6733 35.45 52.9067C35.9833 53.0617 36.5667 53.1617 37.1667 53.225V49.87C36.902 49.8341 36.6403 49.7795 36.3833 49.7067C35.9333 49.5733 35.735 49.4267 35.6533 49.3333C35.6 49.2733 35.5 49.1383 35.5 48.75C35.5 48.3667 35.6 48.2333 35.65 48.175C35.7333 48.0817 35.93 47.9333 36.3833 47.8017C37.0217 47.6167 37.845 47.5467 38.8333 47.52V56.6717H33.8333V60.005H47.1667V56.6717H42.1667V47.4433C44.0033 47.3 45.4917 46.8967 46.6117 46.175C48.1867 45.1583 48.8333 43.6467 48.8333 42.0417C48.8333 41.17 48.6417 40.3317 48.2167 39.59C50.09 38.4067 51.4283 36.8033 51.9383 34.985C52.1883 34.0983 51.4217 33.3383 50.5 33.3383H30.5ZM42.1667 44.0967C43.515 43.9667 44.3333 43.6767 44.805 43.3733C45.3133 43.045 45.5 42.66 45.5 42.0417C45.5 41.5733 45.3933 41.255 45.1183 40.9917C44.1569 41.2864 43.1688 41.4857 42.1683 41.5867V44.0967H42.1667Z" fill="white"/>
</svg>
