<svg width="504" height="336" viewBox="0 0 504 336" fill="none" xmlns="http://www.w3.org/2000/svg">
<path d="M468.854 126.672C468.854 126.672 397.958 49.1904 289.699 22.7808C181.44 -3.6288 165.514 82.7232 134.736 116.726C103.958 150.797 47.9136 146.966 20.4288 188.698C-7.05596 230.496 23.184 304.08 157.853 322.762C292.522 341.443 284.256 269.472 367.786 282.643C451.248 295.949 547.411 225.053 468.854 126.672Z" fill="url(#paint0_linear_166_3060)"/>
<path opacity="0.7" d="M468.854 126.672C468.854 126.672 397.958 49.1904 289.699 22.7808C181.44 -3.6288 165.514 82.7232 134.736 116.726C103.958 150.797 47.9136 146.966 20.4288 188.698C-7.05596 230.496 23.184 304.08 157.853 322.762C292.522 341.443 284.256 269.472 367.786 282.643C451.248 295.949 547.411 225.053 468.854 126.672Z" fill="white"/>
<path d="M188.698 11.9616V319.872" stroke="url(#paint1_linear_166_3060)" stroke-miterlimit="10" stroke-linecap="round" stroke-linejoin="round"/>
<path d="M395.875 35.8848H303.609V162.893H395.875V35.8848Z" fill="#DFEBFB" stroke="url(#paint2_linear_166_3060)" stroke-miterlimit="10" stroke-linecap="round" stroke-linejoin="round"/>
<path d="M391.44 41.5296H307.978V157.181H391.44V41.5296Z" fill="#DFEBFB" stroke="url(#paint3_linear_166_3060)" stroke-miterlimit="10" stroke-linecap="round" stroke-linejoin="round"/>
<path d="M358.512 59.472L337.949 80.0352" stroke="#DFEBFB" stroke-miterlimit="10" stroke-linecap="round" stroke-linejoin="round"/>
<path d="M369.264 48.72L360.595 57.3888" stroke="#DFEBFB" stroke-miterlimit="10" stroke-linecap="round" stroke-linejoin="round"/>
<path d="M344.602 66.0576L332.237 78.4224" stroke="#DFEBFB" stroke-miterlimit="10" stroke-linecap="round" stroke-linejoin="round"/>
<path d="M341.645 147.302L337.949 150.931" stroke="#DFEBFB" stroke-miterlimit="10" stroke-linecap="round" stroke-linejoin="round"/>
<path d="M369.264 119.616L343.661 145.219" stroke="#DFEBFB" stroke-miterlimit="10" stroke-linecap="round" stroke-linejoin="round"/>
<path d="M344.602 137.021L332.237 149.386" stroke="#DFEBFB" stroke-miterlimit="10" stroke-linecap="round" stroke-linejoin="round"/>
<path d="M352.8 104.16C352.8 102.614 351.523 101.405 350.045 101.405C348.499 101.405 347.29 102.682 347.29 104.16C347.29 105.706 348.566 106.915 350.045 106.915C351.523 106.915 352.8 105.638 352.8 104.16Z" fill="#DFEBFB" stroke="url(#paint4_linear_166_3060)" stroke-miterlimit="10" stroke-linecap="round" stroke-linejoin="round"/>
<path d="M391.44 103.757H307.978V108.864H391.44V103.757Z" fill="#DFEBFB" stroke="url(#paint5_linear_166_3060)" stroke-miterlimit="10" stroke-linecap="round" stroke-linejoin="round"/>
<path d="M398.63 28.2912H301.459V39.1776H398.63V28.2912Z" fill="#DFEBFB" stroke="url(#paint6_linear_166_3060)" stroke-miterlimit="10" stroke-linecap="round" stroke-linejoin="round"/>
<path d="M398.63 159.13H301.459V170.016H398.63V159.13Z" fill="#DFEBFB" stroke="url(#paint7_linear_166_3060)" stroke-miterlimit="10" stroke-linecap="round" stroke-linejoin="round"/>
<path d="M432.835 13.104H266.717V16.3296H432.835V13.104Z" fill="#DFEBFB" stroke="url(#paint8_linear_166_3060)" stroke-miterlimit="10" stroke-linecap="round" stroke-linejoin="round"/>
<path d="M278.88 181.91H275.654C273.974 181.91 272.63 180.566 272.63 178.886V13.3728C272.63 11.6928 273.974 10.3488 275.654 10.3488H278.88C280.56 10.3488 281.904 11.6928 281.904 13.3728V178.886C281.904 180.566 280.56 181.91 278.88 181.91Z" fill="#DFEBFB" stroke="url(#paint9_linear_166_3060)" stroke-miterlimit="10" stroke-linecap="round" stroke-linejoin="round"/>
<path d="M287.549 181.91H284.323C282.643 181.91 281.299 180.566 281.299 178.886V13.3728C281.299 11.6928 282.643 10.3488 284.323 10.3488H287.549C289.229 10.3488 290.573 11.6928 290.573 13.3728V178.886C290.573 180.566 289.229 181.91 287.549 181.91Z" fill="#DFEBFB" stroke="url(#paint10_linear_166_3060)" stroke-miterlimit="10" stroke-linecap="round" stroke-linejoin="round"/>
<path d="M296.217 181.91H292.992C291.312 181.91 289.968 180.566 289.968 178.886V13.3728C289.968 11.6928 291.312 10.3488 292.992 10.3488H296.217C297.897 10.3488 299.241 11.6928 299.241 13.3728V178.886C299.241 180.566 297.897 181.91 296.217 181.91Z" fill="#DFEBFB" stroke="url(#paint11_linear_166_3060)" stroke-miterlimit="10" stroke-linecap="round" stroke-linejoin="round"/>
<path d="M304.954 181.91H301.728C300.048 181.91 298.704 180.566 298.704 178.886V13.3728C298.704 11.6928 300.048 10.3488 301.728 10.3488H304.954C306.634 10.3488 307.978 11.6928 307.978 13.3728V178.886C307.978 180.566 306.634 181.91 304.954 181.91Z" fill="#DFEBFB" stroke="url(#paint12_linear_166_3060)" stroke-miterlimit="10" stroke-linecap="round" stroke-linejoin="round"/>
<path d="M398.295 181.91H395.069C393.389 181.91 392.045 180.566 392.045 178.886V13.3728C392.045 11.6928 393.389 10.3488 395.069 10.3488H398.295C399.975 10.3488 401.319 11.6928 401.319 13.3728V178.886C401.319 180.566 399.975 181.91 398.295 181.91Z" fill="#DFEBFB" stroke="url(#paint13_linear_166_3060)" stroke-miterlimit="10" stroke-linecap="round" stroke-linejoin="round"/>
<path d="M406.963 181.91H403.737C402.057 181.91 400.713 180.566 400.713 178.886V13.3728C400.713 11.6928 402.057 10.3488 403.737 10.3488H406.963C408.643 10.3488 409.987 11.6928 409.987 13.3728V178.886C409.987 180.566 408.643 181.91 406.963 181.91Z" fill="#DFEBFB" stroke="url(#paint14_linear_166_3060)" stroke-miterlimit="10" stroke-linecap="round" stroke-linejoin="round"/>
<path d="M415.699 181.91H412.474C410.794 181.91 409.45 180.566 409.45 178.886V13.3728C409.45 11.6928 410.794 10.3488 412.474 10.3488H415.699C417.379 10.3488 418.723 11.6928 418.723 13.3728V178.886C418.656 180.566 417.312 181.91 415.699 181.91Z" fill="#DFEBFB" stroke="url(#paint15_linear_166_3060)" stroke-miterlimit="10" stroke-linecap="round" stroke-linejoin="round"/>
<path d="M424.368 181.91H421.142C419.462 181.91 418.118 180.566 418.118 178.886V13.3728C418.118 11.6928 419.462 10.3488 421.142 10.3488H424.368C426.048 10.3488 427.392 11.6928 427.392 13.3728V178.886C427.392 180.566 426.048 181.91 424.368 181.91Z" fill="#DFEBFB" stroke="url(#paint16_linear_166_3060)" stroke-miterlimit="10" stroke-linecap="round" stroke-linejoin="round"/>
<path d="M452.255 194.611C452.255 194.544 452.255 194.544 452.255 194.544H452.188C450.307 198.845 449.03 203.347 447.955 207.85C446.879 212.419 446.14 216.989 445.603 221.693L445.267 225.187C445.199 225.792 445.132 226.33 445.132 226.934L445.065 228.682C444.998 229.824 444.931 231.034 444.931 232.176V235.67L444.998 237.418C444.998 238.022 445.065 238.56 445.132 239.165C445.199 240.307 445.267 241.517 445.401 242.659C445.603 245.011 446.006 247.296 446.342 249.581C446.342 249.581 446.342 249.648 446.409 249.648C446.476 249.648 446.476 249.648 446.476 249.581C446.476 248.438 446.409 247.229 446.409 246.086C446.409 244.944 446.275 243.734 446.275 242.592C446.275 241.45 446.275 240.24 446.207 239.098V237.35V235.603V232.109L446.275 228.614L446.342 226.867C446.342 226.262 446.409 225.725 446.409 225.12L446.611 221.626C447.014 216.989 447.619 212.419 448.559 207.85C449.433 203.482 450.575 198.979 452.255 194.611Z" fill="#45C6A0"/>
<path d="M452.726 212.822C452.726 212.822 452.726 212.755 452.659 212.755C452.659 212.755 452.592 212.755 452.592 212.822C451.584 215.712 450.777 218.669 450.105 221.626C449.433 224.65 448.963 227.674 448.627 230.698C448.291 233.722 447.955 236.813 447.955 239.837C447.888 242.928 447.955 245.952 448.291 249.043C448.291 249.043 448.291 249.11 448.358 249.11C448.425 249.11 448.425 249.11 448.425 249.043C448.761 246.019 448.963 242.928 449.232 239.904C449.433 236.88 449.501 233.856 449.702 230.765C449.904 227.741 450.24 224.717 450.777 221.693C451.248 218.736 451.92 215.712 452.726 212.822Z" fill="#45C6A0"/>
<path d="M462.806 219.206C462.806 219.206 462.739 219.139 462.739 219.206C460.185 220.819 457.968 222.835 456.019 225.053C455.078 226.195 454.137 227.405 453.398 228.749L452.861 229.757L452.457 230.832C452.323 231.168 452.189 231.571 452.054 231.907C451.92 232.243 451.853 232.646 451.718 232.982C450.979 235.872 450.441 238.896 450.307 241.853C450.173 244.877 450.24 247.834 450.643 250.79C450.643 250.79 450.643 250.858 450.71 250.858C450.777 250.858 450.777 250.858 450.777 250.79L451.517 241.92C451.853 238.963 451.987 236.074 452.659 233.184C452.726 232.848 452.861 232.512 452.928 232.109C452.995 231.773 453.129 231.37 453.264 231.034L453.6 230.026L454.07 229.085C454.742 227.808 455.616 226.598 456.489 225.389C458.304 223.037 460.387 220.954 462.806 219.206C462.873 219.206 462.873 219.274 462.806 219.206Z" fill="#45C6A0"/>
<path d="M457.968 230.63C456.624 231.504 455.683 232.915 454.876 234.326C454.137 235.738 453.532 237.283 453.129 238.829C452.995 239.232 452.928 239.635 452.86 239.971L452.592 241.181C452.457 241.987 452.323 242.794 452.323 243.6C452.323 244.406 452.323 245.213 452.323 246.019C452.39 246.826 452.457 247.632 452.659 248.438C452.659 248.438 452.659 248.506 452.726 248.506C452.793 248.506 452.793 248.506 452.793 248.438C452.995 247.632 453.129 246.893 453.196 246.086C453.331 245.28 453.465 244.541 453.532 243.734C453.667 242.995 453.734 242.189 453.801 241.382C453.936 240.643 453.936 239.837 454.137 239.098C454.406 237.552 454.876 236.074 455.481 234.595C456.086 233.184 456.825 231.773 458.035 230.765V230.698C458.035 230.563 457.968 230.563 457.968 230.63Z" fill="#45C6A0"/>
<path d="M443.789 239.501C443.453 235.536 442.781 231.638 442.176 227.808C441.571 223.91 440.899 220.013 440.16 216.182C439.421 212.285 438.681 208.454 437.808 204.624L437.741 204.557L437.673 204.624C438.345 208.522 438.95 212.419 439.555 216.317C440.16 220.214 440.697 224.112 441.168 228.01C441.638 231.907 442.041 235.805 442.512 239.702L443.923 251.395C443.923 251.395 443.923 251.462 443.99 251.462C444.057 251.462 444.057 251.462 444.057 251.395C444.125 250.387 444.125 249.446 444.125 248.438C444.125 247.43 444.057 246.49 444.057 245.482C444.125 243.398 443.99 241.45 443.789 239.501Z" fill="#45C6A0"/>
<path d="M441.437 239.434C441.235 237.888 440.966 236.342 440.63 234.797L440.093 232.512C439.891 231.773 439.757 230.966 439.488 230.227C438.681 227.203 437.673 224.179 436.464 221.29L435.993 220.214L435.456 219.139C435.12 218.4 434.717 217.728 434.313 217.056C433.507 215.712 432.633 214.368 431.491 213.293H431.424V213.36C432.499 214.502 433.305 215.846 434.045 217.19C434.381 217.862 434.717 218.602 435.053 219.274L435.523 220.349L435.926 221.424C437.001 224.314 437.875 227.338 438.547 230.362C438.883 231.907 439.152 233.386 439.421 234.931L439.757 237.216C439.891 237.955 440.025 238.762 440.16 239.501C440.429 241.046 440.697 242.592 440.966 244.138C441.235 245.683 441.504 247.229 441.84 248.774C441.84 248.774 441.84 248.842 441.907 248.842C441.974 248.842 441.974 248.842 441.974 248.774C441.974 247.229 441.974 245.616 441.84 244.07C441.84 242.525 441.638 240.979 441.437 239.434Z" fill="#45C6A0"/>
<path d="M438.211 239.635C437.471 237.552 436.665 235.536 435.724 233.587C434.783 231.638 433.775 229.69 432.566 227.808C432.566 227.808 432.499 227.741 432.499 227.808C432.499 227.808 432.431 227.875 432.499 227.875C433.507 229.757 434.38 231.773 435.187 233.789C435.993 235.805 436.732 237.821 437.337 239.904C437.942 241.987 438.412 244.07 438.95 246.154C439.555 248.237 440.025 250.32 440.63 252.47C440.63 252.47 440.63 252.538 440.697 252.538C440.764 252.538 440.764 252.538 440.764 252.47C440.764 250.253 440.563 248.102 440.159 245.952C439.689 243.734 438.95 241.718 438.211 239.635Z" fill="#45C6A0"/>
<path d="M438.076 246.49C437.673 245.213 437.068 244.003 436.329 242.861C435.59 241.718 434.784 240.643 433.776 239.702C433.238 239.232 432.768 238.829 432.163 238.493C431.625 238.157 431.02 237.821 430.348 237.686C430.348 237.686 430.281 237.686 430.281 237.754V237.821C431.491 238.358 432.432 239.232 433.305 240.173C434.179 241.114 434.851 242.189 435.388 243.331C435.993 244.474 436.262 245.683 436.8 246.893C437.001 247.498 437.27 248.102 437.539 248.707C437.74 249.312 438.009 249.917 438.345 250.522C438.345 250.522 438.345 250.522 438.412 250.589C438.48 250.589 438.48 250.589 438.48 250.522C438.48 249.85 438.48 249.178 438.412 248.506C438.345 247.834 438.211 247.162 438.076 246.49Z" fill="#45C6A0"/>
<path d="M438.278 210.134C438.278 210.134 431.827 208.656 430.349 201.734C428.87 194.813 433.641 197.77 429.341 186.883C425.04 175.997 426.048 173.51 427.526 170.352C429.005 167.194 429.811 168.202 431.155 172.368C432.499 176.534 437.27 182.918 439.085 195.014C440.966 207.043 438.278 210.134 438.278 210.134Z" fill="#45C6A0"/>
<path d="M451.046 198.442C451.046 198.442 446.745 196.963 446.611 188.832C446.477 180.701 449.769 182.381 450.24 172.301C450.71 162.221 451.382 155.098 453.197 154.963C455.011 154.829 459.782 159.936 461.462 171.158C463.142 182.381 459.312 189.84 456.019 193.133C452.726 196.426 451.046 198.442 451.046 198.442Z" fill="#45C6A0"/>
<path d="M435.993 219.878C435.993 219.878 434.985 213.898 433.037 211.142C431.021 208.32 426.787 205.834 423.965 200.39C421.142 194.947 417.984 192.259 418.185 200.054C418.32 207.85 421.814 211.814 426.115 214.435C430.349 217.123 435.993 219.878 435.993 219.878Z" fill="#45C6A0"/>
<path d="M434.179 230.16C434.179 230.16 430.214 222.566 424.435 216.922C418.656 211.277 414.019 208.522 415.699 211.277C417.379 214.099 419.328 213.898 422.15 218.87C424.973 223.843 424.166 227.472 428.131 230.294C432.029 233.117 434.179 230.16 434.179 230.16Z" fill="#45C6A0"/>
<path d="M433.709 239.904C433.574 239.434 433.373 235.738 427.728 232.781C422.083 229.824 416.841 230.966 417.446 232.445C418.118 233.923 421.613 236.41 425.04 237.888C428.534 239.434 433.709 239.904 433.709 239.904Z" fill="#45C6A0"/>
<path d="M450.71 220.214C450.71 220.214 448.224 217.056 449.568 210.47C450.912 203.885 453.869 205.498 457.162 202.07C460.454 198.576 459.782 198.106 463.142 194.477C466.435 190.848 469.392 188.832 470.736 190.31C472.08 191.789 470.064 196.426 468.115 199.046C466.099 201.667 463.008 203.011 461.53 206.304C460.051 209.597 460.723 214.906 456.893 217.392C452.995 219.878 450.71 220.214 450.71 220.214Z" fill="#45C6A0"/>
<path d="M458.976 222.029C458.976 222.029 464.956 215.242 469.257 210.269C473.558 205.296 475.238 201.533 475.372 204.826C475.507 208.118 476.851 210.806 473.356 215.107C469.862 219.408 458.976 222.029 458.976 222.029Z" fill="#45C6A0"/>
<path d="M455.817 232.982C455.817 232.982 455.683 230.362 465.091 224.246C474.499 218.131 478.464 216.989 477.523 219.475C476.515 221.962 472.416 224.448 467.913 228.883C463.411 233.318 455.817 232.982 455.817 232.982Z" fill="#45C6A0"/>
<path d="M438.681 209.462C438.681 209.462 436.464 197.568 434.179 189.168C431.894 180.768 430.349 175.594 430.349 175.594" stroke="#45C6A0" stroke-miterlimit="10" stroke-linecap="round" stroke-linejoin="round"/>
<path d="M450.643 198.509C450.643 198.509 454.675 185.674 455.952 177.878C457.296 170.083 455.817 164.304 455.145 160.877" stroke="#45C6A0" stroke-miterlimit="10" stroke-linecap="round" stroke-linejoin="round"/>
<path d="M435.456 219.677C435.456 219.677 432.969 215.309 429.341 211.008C425.712 206.707 422.889 204.422 421.209 200.256" stroke="#45C6A0" stroke-miterlimit="10" stroke-linecap="round" stroke-linejoin="round"/>
<path d="M450.71 220.214C450.71 220.214 452.054 212.285 455.145 208.118C458.304 203.952 464.553 197.568 467.04 193.402" stroke="#45C6A0" stroke-miterlimit="10" stroke-linecap="round" stroke-linejoin="round"/>
<path d="M433.306 239.702C433.306 239.702 427.728 236.074 423.763 234.125" stroke="#45C6A0" stroke-miterlimit="10" stroke-linecap="round" stroke-linejoin="round"/>
<path d="M465.158 273.034C464.755 263.021 453.667 256.301 453.667 256.301H446.611H443.654H436.598C436.598 256.301 425.443 263.021 425.107 273.034C424.704 283.046 437.74 319.872 437.74 319.872H443.654H446.611H452.524C452.524 319.872 465.494 283.114 465.158 273.034Z" fill="#AFC3FE" stroke="#263238" stroke-miterlimit="10" stroke-linecap="round" stroke-linejoin="round"/>
<path d="M455.817 246.49H434.044L436.531 256.368H453.331L455.817 246.49Z" fill="#AFC3FE" stroke="#263238" stroke-miterlimit="10" stroke-linecap="round" stroke-linejoin="round"/>
<path d="M102.749 24.3936H70.627V65.7216H102.749V24.3936Z" stroke="url(#paint17_linear_166_3060)" stroke-miterlimit="10" stroke-linecap="round" stroke-linejoin="round"/>
<path d="M100.665 27.0144H72.71V62.9664H100.665V27.0144Z" stroke="url(#paint18_linear_166_3060)" stroke-miterlimit="10" stroke-linecap="round" stroke-linejoin="round"/>
<path d="M91.1903 39.2448H82.1855V50.8704H91.1903V39.2448Z" stroke="url(#paint19_linear_166_3060)" stroke-miterlimit="10" stroke-linecap="round" stroke-linejoin="round"/>
<path d="M143.808 55.2384H111.686V96.5664H143.808V55.2384Z" stroke="url(#paint20_linear_166_3060)" stroke-miterlimit="10" stroke-linecap="round" stroke-linejoin="round"/>
<path d="M141.724 57.9264H113.769V93.8784H141.724V57.9264Z" stroke="url(#paint21_linear_166_3060)" stroke-miterlimit="10" stroke-linecap="round" stroke-linejoin="round"/>
<path d="M132.249 70.0896H123.245V81.7152H132.249V70.0896Z" stroke="url(#paint22_linear_166_3060)" stroke-miterlimit="10" stroke-linecap="round" stroke-linejoin="round"/>
<path d="M102.749 72.1729H70.627V96.2977H102.749V72.1729Z" stroke="url(#paint23_linear_166_3060)" stroke-miterlimit="10" stroke-linecap="round" stroke-linejoin="round"/>
<path d="M100.665 73.7184H72.71V94.752H100.665V73.7184Z" stroke="url(#paint24_linear_166_3060)" stroke-miterlimit="10" stroke-linecap="round" stroke-linejoin="round"/>
<path d="M91.1903 80.8417H82.1855V87.6289H91.1903V80.8417Z" stroke="url(#paint25_linear_166_3060)" stroke-miterlimit="10" stroke-linecap="round" stroke-linejoin="round"/>
<path d="M235.066 149.117L215.779 158.189L218.131 169.814L237.418 165.917L235.066 149.117Z" fill="url(#paint26_linear_166_3060)"/>
<path d="M218.131 169.814C218.131 169.814 221.088 159.13 219.341 158.525C217.594 157.92 215.779 158.189 215.779 158.189C215.779 158.189 217.19 168.739 218.131 169.814Z" fill="url(#paint27_linear_166_3060)"/>
<path d="M208.589 171.965C208.589 171.965 213.024 169.814 213.898 169.008C214.771 168.269 216.384 164.102 216.384 164.102C216.384 164.102 219.61 164.237 219.341 163.027C219.072 161.818 214.301 159.802 211.21 161.683C208.118 163.565 206.371 171.629 206.371 171.629C206.371 171.629 206.304 173.242 208.589 171.965Z" fill="url(#paint28_linear_166_3060)"/>
<path d="M196.627 170.15L210.672 157.248C210.672 157.248 212.083 154.493 212.621 153.619C213.159 152.746 215.712 152.074 217.527 150.931C219.274 149.789 219.879 147.907 220.752 148.042C221.626 148.109 221.626 148.714 221.491 150.058C221.357 151.402 219.543 153.082 219.207 153.35C218.803 153.552 223.104 154.09 224.851 153.955C226.599 153.888 229.152 153.283 229.152 153.283C229.152 153.283 232.311 149.251 232.915 150.528C233.52 151.872 230.295 158.794 229.421 160.138C228.547 161.482 223.709 162.422 220.752 162.826C217.795 163.229 213.696 162.96 213.696 162.96L207.245 174.115L196.627 170.15Z" fill="url(#paint29_linear_166_3060)"/>
<path d="M214.368 160.205C214.368 160.205 218.131 158.928 219.341 158.525C220.551 158.122 226.867 157.987 226.867 157.987C226.867 157.987 230.698 151.334 230.967 152.275C231.168 153.216 229.421 158.256 229.085 159.197C228.749 160.138 228.077 160.608 227.405 160.742" fill="url(#paint30_linear_166_3060)"/>
<path d="M250.455 296.486C250.455 296.486 248.035 300.451 246.019 303.072C244.003 305.693 236.746 310.33 235.2 311.203C233.655 312.077 226.599 314.294 226.8 315.37C227.002 316.445 226.8 318.864 228.346 319.334C229.891 319.805 253.277 319.334 253.277 319.334H268.935C268.935 319.334 269.808 313.354 269.405 310.531C268.935 307.642 266.112 301.056 266.112 301.056L250.455 296.486Z" fill="url(#paint31_linear_166_3060)" stroke="#263238" stroke-miterlimit="10" stroke-linecap="round" stroke-linejoin="round"/>
<path d="M269.271 316.781H227.002C227.136 317.856 227.338 319.133 228.413 319.402C229.959 319.872 253.344 319.402 253.344 319.402H269.002C268.935 319.402 269.136 318.259 269.271 316.781Z" fill="url(#paint32_linear_166_3060)" stroke="#263238" stroke-miterlimit="10" stroke-linecap="round" stroke-linejoin="round"/>
<path d="M237.015 199.786C237.015 199.786 242.055 229.286 243.869 237.686C245.616 246.086 250.925 293.866 250.925 293.866L248.506 295.21L249.178 298.704C249.178 298.704 253.815 301.123 256.906 301.795C259.997 302.467 267.456 303.341 267.456 303.341L270.346 300.451C270.346 300.451 272.967 292.522 271.219 279.283C269.472 266.045 266.381 227.942 266.784 221.76C267.255 215.578 266.986 205.699 266.986 205.699C266.986 205.699 242.525 201.936 237.015 199.786Z" fill="url(#paint33_linear_166_3060)" stroke="#263238" stroke-miterlimit="10" stroke-linecap="round" stroke-linejoin="round"/>
<path d="M268.262 299.578C268.262 299.578 264.298 306.634 262.08 308.179C259.862 309.725 250.186 314.16 250.186 315.907C250.186 317.654 250.656 319.67 251.731 319.872C252.806 320.074 281.501 319.872 281.501 319.872C281.501 319.872 287.885 320.746 290.304 317.856C292.723 314.966 289.43 303.946 289.43 303.946L268.262 299.578Z" fill="url(#paint34_linear_166_3060)" stroke="#263238" stroke-miterlimit="10" stroke-linecap="round" stroke-linejoin="round"/>
<path d="M290.304 317.856C290.372 317.789 290.439 317.722 290.439 317.654H250.32C250.522 318.797 250.992 319.738 251.732 319.872C252.807 320.074 281.501 319.872 281.501 319.872C281.501 319.872 287.885 320.678 290.304 317.856Z" fill="white" stroke="#263238" stroke-miterlimit="10" stroke-linecap="round" stroke-linejoin="round"/>
<path d="M259.258 203.683C259.258 203.683 261.005 231.034 263.424 242.928C265.843 254.822 268.061 292.925 268.061 292.925C268.061 292.925 266.515 295.344 266.515 296.016C266.515 296.688 267.389 301.997 267.389 301.997C267.389 301.997 272.698 304.013 277.536 305.491C282.375 307.037 290.304 307.91 290.304 307.91C290.304 307.91 290.506 304.147 290.775 299.981C291.043 295.814 289.229 292.723 289.431 291.581C289.632 290.506 290.976 251.059 289.431 242.458C287.885 233.856 287.683 234.326 287.683 230.966C287.683 227.606 289.901 198.374 289.901 198.374C289.901 198.374 270.749 205.901 259.258 203.683Z" fill="url(#paint35_linear_166_3060)" stroke="#263238" stroke-miterlimit="10" stroke-linecap="round" stroke-linejoin="round"/>
<path d="M255.36 76.4064C255.36 76.4064 236.477 93.408 236.006 95.3568C235.536 97.2384 231.907 200.189 231.907 200.189C231.907 200.189 250.723 206.842 267.254 206.842C283.718 206.842 295.546 200.189 295.546 200.189C295.546 200.189 299.981 95.4912 298.166 91.5264C296.419 87.5616 279.082 74.928 274.982 73.8528C270.883 72.8448 259.661 74.4576 255.36 76.4064Z" fill="white" stroke="url(#paint36_linear_166_3060)" stroke-miterlimit="10" stroke-linecap="round" stroke-linejoin="round"/>
<path d="M257.846 154.896L282.038 156.442L281.837 160.877L258.048 158.861" stroke="url(#paint37_linear_166_3060)" stroke-miterlimit="10" stroke-linecap="round" stroke-linejoin="round"/>
<path d="M251.933 112.694C251.933 112.694 250.656 124.118 247.363 149.453C244.071 174.787 244.407 200.928 244.407 200.928" fill="white"/>
<path d="M251.933 112.694C251.933 112.694 250.656 124.118 247.363 149.453C244.071 174.787 244.407 200.928 244.407 200.928" stroke="url(#paint38_linear_166_3060)" stroke-miterlimit="10" stroke-linecap="round" stroke-linejoin="round"/>
<path d="M251.865 91.7952L250.521 101.942L252.403 110.208L258.115 102.48L263.961 94.08L275.587 74.8608L265.171 72.8448L253.142 82.992C253.21 82.992 252 90.72 251.865 91.7952Z" fill="white" stroke="#263238" stroke-miterlimit="10" stroke-linecap="round" stroke-linejoin="round"/>
<path d="M254.419 88.704L255.763 93.9456L250.521 101.942L252.403 110.208L258.115 102.48V94.5504L261.609 89.6448L258.518 83.5296L254.419 88.704Z" fill="white" stroke="url(#paint39_linear_166_3060)" stroke-miterlimit="10" stroke-linecap="round" stroke-linejoin="round"/>
<path d="M258.115 87.36L251.865 91.7952C251.865 91.7952 251.731 87.7632 253.209 82.992C254.688 78.2208 255.36 76.4736 255.36 76.4736L273.504 73.1136L274.982 73.92L275.654 74.8608L264.029 94.08L258.115 87.36Z" fill="white" stroke="#263238" stroke-miterlimit="10" stroke-linecap="round" stroke-linejoin="round"/>
<path d="M244.944 42.5376C244.944 42.5376 244.138 50.5344 244.675 50.9376C245.213 51.3408 246.019 54.432 246.019 54.432C246.019 54.432 243.466 62.832 244.541 63.1008C245.616 63.3696 247.498 64.7136 247.498 64.7136C247.498 64.7136 250.186 74.8608 251.53 75.6672C252.874 76.4736 255.427 76.4736 255.427 76.4736L255.562 79.8336C255.562 79.8336 257.578 87.2928 258.25 87.4272C258.922 87.5616 275.05 73.92 275.05 73.92L273.706 60.3456C273.706 60.3456 277.2 59.5392 278.006 56.448C278.813 53.3568 277.2 49.392 277.2 49.392C277.2 49.392 277.267 39.5136 275.184 35.4144C272.63 30.3744 259.997 30.7776 253.142 31.92C246.355 33.1296 242.995 37.3632 243.264 39.1104C243.466 40.7904 244.944 42.5376 244.944 42.5376Z" fill="url(#paint40_linear_166_3060)" stroke="#D0E9F7" stroke-opacity="0.5" stroke-miterlimit="10" stroke-linecap="round" stroke-linejoin="round"/>
<path d="M275.117 35.3472C272.563 30.3072 259.93 30.7104 253.075 31.8528C246.288 33.0624 242.928 37.296 243.197 39.0432C243.466 40.7904 244.944 42.5376 244.944 42.5376C244.944 42.5376 247.095 43.6128 248.976 43.0752C250.858 42.5376 259.123 40.7904 261.274 41.5968C263.424 42.4032 261.274 44.5536 261.139 46.368C261.005 48.2496 262.752 50.4 264.499 50.5344C266.247 50.6688 267.725 54.432 267.725 55.5744C267.725 56.7168 269.203 57.3216 270.144 56.5152C271.085 55.7088 270.413 52.0128 271.757 50.6688C273.101 49.3248 274.714 48.6528 277.2 49.3248C277.066 49.3248 277.133 39.4464 275.117 35.3472Z" fill="#263238"/>
<path d="M255.36 76.4064C255.36 76.4064 258.451 74.928 261.341 73.4496C264.297 71.9712 266.918 68.2752 267.187 67.872C267.456 67.4688 265.709 72.7776 263.289 75.0624C260.87 77.3472 255.427 79.6992 255.427 79.6992L255.36 76.4064Z" fill="#263238" fill-opacity="0.5" stroke="#263238" stroke-miterlimit="10" stroke-linecap="round" stroke-linejoin="round"/>
<path d="M252.672 66.192C252.672 66.192 256.436 66.192 258.922 63.504" stroke="url(#paint41_linear_166_3060)" stroke-miterlimit="10" stroke-linecap="round" stroke-linejoin="round"/>
<path d="M249.715 52.8192C249.715 52.8192 255.427 52.1472 257.174 52.1472C258.922 52.1472 259.594 52.2816 259.862 52.9536C260.131 53.6256 260.803 57.8592 259.594 59.8752C258.384 61.8912 253.478 61.7568 252 61.0848C250.522 60.4128 248.976 55.776 249.715 52.8192Z" stroke="url(#paint42_linear_166_3060)" stroke-miterlimit="10" stroke-linecap="round" stroke-linejoin="round"/>
<path d="M259.862 52.9536L270.413 52.2816" stroke="url(#paint43_linear_166_3060)" stroke-miterlimit="10" stroke-linecap="round" stroke-linejoin="round"/>
<path d="M249.715 52.8192C249.715 52.8192 246.221 52.0128 245.549 53.2224C245.549 53.2224 241.383 52.8192 241.383 53.76C241.383 54.7008 239.904 58.1952 244.339 59.472" stroke="url(#paint44_linear_166_3060)" stroke-miterlimit="10" stroke-linecap="round" stroke-linejoin="round"/>
<path d="M253.344 56.1792C253.344 56.1792 254.688 57.792 257.242 56.1792" stroke="url(#paint45_linear_166_3060)" stroke-miterlimit="10" stroke-linecap="round" stroke-linejoin="round"/>
<path d="M252.269 52.0128C252.269 52.0128 254.554 50.5344 257.847 51.2064" stroke="url(#paint46_linear_166_3060)" stroke-miterlimit="10" stroke-linecap="round" stroke-linejoin="round"/>
<path d="M277.67 73.9872C277.67 73.9872 275.05 81.7824 273.168 94.0128" stroke="url(#paint47_linear_166_3060)" stroke-width="3" stroke-miterlimit="10" stroke-linecap="round" stroke-linejoin="round"/>
<path d="M271.354 121.632C270.682 121.699 269.808 121.565 268.733 120.826" stroke="url(#paint48_linear_166_3060)" stroke-width="3" stroke-miterlimit="10" stroke-linecap="round" stroke-linejoin="round"/>
<path d="M274.982 100.8C274.982 100.8 275.52 110.208 272.966 120.691C272.966 120.691 272.429 121.498 271.354 121.632" stroke="url(#paint49_linear_166_3060)" stroke-miterlimit="10" stroke-linecap="round" stroke-linejoin="round"/>
<path d="M272.966 121.632C273.638 121.699 274.512 121.565 275.587 120.826" stroke="url(#paint50_linear_166_3060)" stroke-width="3" stroke-miterlimit="10" stroke-linecap="round" stroke-linejoin="round"/>
<path d="M269.27 100.8C269.27 100.8 268.733 110.208 271.286 120.691C271.286 120.691 271.824 121.498 272.899 121.632" stroke="url(#paint51_linear_166_3060)" stroke-miterlimit="10" stroke-linecap="round" stroke-linejoin="round"/>
<path d="M269.271 102.614C269.271 102.614 269.136 96.6336 270.211 94.8864C271.287 93.1392 275.117 93.4752 275.319 96.6336C275.587 99.792 274.848 103.555 274.848 103.555" stroke="url(#paint52_linear_166_3060)" stroke-width="3" stroke-miterlimit="10" stroke-linecap="round" stroke-linejoin="round"/>
<path d="M251.462 79.1616C251.462 79.1616 244.608 94.3488 244.944 119.28" stroke="url(#paint53_linear_166_3060)" stroke-width="3" stroke-miterlimit="10" stroke-linecap="round" stroke-linejoin="round"/>
<path d="M250.118 116.861C250.118 116.861 240.24 115.114 239.366 115.114C238.493 115.114 234.931 115.114 234.394 115.248C233.856 115.382 225.254 119.078 224.65 119.952C224.045 120.826 226.128 127.882 226.397 128.352C226.666 128.822 233.453 128.486 234.192 128.486C234.931 128.486 234.931 126.269 234.931 126.269C234.931 126.269 236.678 126 237.888 125.261C239.098 124.522 240.509 123.178 240.509 123.178L248.438 124.656L250.118 116.861Z" fill="url(#paint54_linear_166_3060)" stroke="url(#paint55_linear_166_3060)" stroke-miterlimit="10" stroke-linecap="round" stroke-linejoin="round"/>
<path d="M234.999 126.269L231.504 126.134L231.034 123.581" stroke="url(#paint56_linear_166_3060)" stroke-miterlimit="10" stroke-linecap="round" stroke-linejoin="round"/>
<path d="M243.264 115.651L242.256 123.581L244.339 123.917L245.616 116.189L243.264 115.651Z" fill="url(#paint57_linear_166_3060)" stroke="url(#paint58_linear_166_3060)" stroke-miterlimit="10" stroke-linecap="round" stroke-linejoin="round"/>
<path d="M246.086 115.718C246.019 116.189 245.28 116.458 244.406 116.323C243.533 116.256 242.861 115.786 242.928 115.315C242.995 114.845 243.734 114.576 244.608 114.71C245.482 114.845 246.154 115.248 246.086 115.718Z" fill="url(#paint59_linear_166_3060)" stroke="url(#paint60_linear_166_3060)" stroke-miterlimit="10" stroke-linecap="round" stroke-linejoin="round"/>
<path d="M281.03 100.8L281.299 117.869L247.699 116.39L246.826 130.234C246.826 130.234 288.49 138.768 290.976 138.634C293.462 138.499 299.645 137.424 301.862 135.408C304.08 133.325 303.61 122.438 303.61 122.438C303.61 122.438 299.914 92.1312 298.032 87.8304C296.15 83.5296 281.232 78.5568 280.627 78.4224" fill="white"/>
<path d="M281.03 100.8L281.299 117.869L247.699 116.39L246.826 130.234C246.826 130.234 288.49 138.768 290.976 138.634C293.462 138.499 299.645 137.424 301.862 135.408C304.08 133.325 303.61 122.438 303.61 122.438C303.61 122.438 299.914 92.1312 298.032 87.8304C296.15 83.5296 281.232 78.5568 280.627 78.4224" stroke="url(#paint61_linear_166_3060)" stroke-miterlimit="10" stroke-linecap="round" stroke-linejoin="round"/>
<path d="M281.367 117.936L293.731 118.474" stroke="url(#paint62_linear_166_3060)" stroke-miterlimit="10" stroke-linecap="round" stroke-linejoin="round"/>
<path d="M180.633 228.413H97.4399C93.0719 228.413 89.5103 224.851 89.5103 220.483V128.89C89.5103 124.522 93.0719 120.96 97.4399 120.96H180.633C185.001 120.96 188.563 124.522 188.563 128.89V220.55C188.563 224.851 185.001 228.413 180.633 228.413Z" fill="#8BA1DD" stroke="#263238" stroke-miterlimit="10" stroke-linecap="round" stroke-linejoin="round"/>
<path d="M102.144 319.872H96.4319L94.5503 273.907H104.025L102.144 319.872Z" fill="#8BA1DD" stroke="#263238" stroke-miterlimit="10" stroke-linecap="round" stroke-linejoin="round"/>
<path d="M183.254 319.872H177.542L175.661 273.907H185.136L183.254 319.872Z" fill="#8BA1DD" stroke="#263238" stroke-miterlimit="10" stroke-linecap="round" stroke-linejoin="round"/>
<path d="M267.389 319.872H261.677L259.795 273.907H269.27L267.389 319.872Z" fill="#8BA1DD" stroke="#263238" stroke-miterlimit="10" stroke-linecap="round" stroke-linejoin="round"/>
<path d="M380.016 319.872H374.304L372.422 273.907H381.898L380.016 319.872Z" fill="#8BA1DD" stroke="#263238" stroke-miterlimit="10" stroke-linecap="round" stroke-linejoin="round"/>
<path d="M394.33 261.005H88.9058V276.125H394.33V261.005Z" fill="#8BA1DD" stroke="#263238" stroke-miterlimit="10" stroke-linecap="round" stroke-linejoin="round"/>
<path d="M394.397 261.005H261.878V276.125H394.397V261.005Z" fill="#8BA1DD" stroke="#263238" stroke-miterlimit="10" stroke-linecap="round" stroke-linejoin="round"/>
<path d="M89.04 237.686H394.531C396.413 237.686 397.958 236.141 397.958 234.259V214.771C397.958 212.89 396.413 211.344 394.531 211.344H89.04C87.1584 211.344 85.6128 212.89 85.6128 214.771V234.259C85.6128 236.141 87.1584 237.686 89.04 237.686Z" fill="#8BA1DD" stroke="#263238" stroke-miterlimit="10" stroke-linecap="round" stroke-linejoin="round"/>
<path d="M89.04 264.23H394.531C396.413 264.23 397.958 262.685 397.958 260.803V241.315C397.958 239.434 396.413 237.888 394.531 237.888H89.04C87.1584 237.888 85.6128 239.434 85.6128 241.315V260.803C85.6128 262.685 87.1584 264.23 89.04 264.23Z" fill="#8BA1DD" stroke="#263238" stroke-miterlimit="10" stroke-linecap="round" stroke-linejoin="round"/>
<path d="M271.488 237.686H394.531C396.413 237.686 397.958 236.141 397.958 234.259V214.771C397.958 212.89 396.413 211.344 394.531 211.344H271.488C269.606 211.344 268.061 212.89 268.061 214.771V234.259C268.128 236.141 269.606 237.686 271.488 237.686Z" fill="#8BA1DD" stroke="#263238" stroke-miterlimit="10" stroke-linecap="round" stroke-linejoin="round"/>
<path d="M271.488 264.23H394.531C396.413 264.23 397.958 262.685 397.958 260.803V241.315C397.958 239.434 396.413 237.888 394.531 237.888H271.488C269.606 237.888 268.061 239.434 268.061 241.315V260.803C268.128 262.685 269.606 264.23 271.488 264.23Z" fill="#8BA1DD" stroke="#263238" stroke-miterlimit="10" stroke-linecap="round" stroke-linejoin="round"/>
<path d="M145.018 117.264C145.018 117.264 123.984 113.837 114.845 114.845C105.706 115.853 95.6258 115.315 96.5666 119.28C97.5074 123.178 98.8514 131.04 98.8514 131.04C98.8514 131.04 100.666 169.68 107.05 183.859C113.434 198.038 118.003 207.85 123.043 208.79C128.083 209.798 161.011 203.885 161.011 203.885C161.011 203.885 170.151 203.885 171.091 196.022C172.032 188.16 167.328 154.694 160.608 138.298C153.888 121.901 157.853 119.28 153.283 115.853C148.714 112.358 145.018 117.264 145.018 117.264Z" fill="url(#paint63_linear_166_3060)" stroke="#263238" stroke-miterlimit="10" stroke-linecap="round" stroke-linejoin="round"/>
<path d="M132.72 132.922C132.72 132.922 143.875 137.491 149.319 155.299L132.72 132.922Z" fill="url(#paint64_linear_166_3060)"/>
<path d="M132.72 132.922C132.72 132.922 143.875 137.491 149.319 155.299" stroke="#263238" stroke-miterlimit="10" stroke-linecap="round" stroke-linejoin="round"/>
<path d="M136.349 121.43C136.349 121.43 142.666 125.059 149.319 147.101L136.349 121.43Z" fill="url(#paint65_linear_166_3060)"/>
<path d="M136.349 121.43C136.349 121.43 142.666 125.059 149.319 147.101" stroke="#263238" stroke-miterlimit="10" stroke-linecap="round" stroke-linejoin="round"/>
<path d="M146.563 142.061C146.563 142.061 134.131 147.571 132.72 151.536C131.309 155.501 135.005 182.784 135.005 182.784C135.005 182.784 175.527 167.933 181.911 167.53C188.295 167.126 189.101 166.79 189.101 166.79C189.101 166.79 179.76 151.536 176.266 149.117C172.704 146.698 170.487 145.018 166.791 143.741C163.095 142.531 151.671 141.523 146.563 142.061Z" fill="#E0CFFC" stroke="#263238" stroke-miterlimit="10" stroke-linecap="round" stroke-linejoin="round"/>
<path d="M165.581 131.107L164.304 139.44L147.773 136.214L148.176 129.158C148.176 129.158 148.579 121.699 148.915 120.96C149.184 120.221 150.595 119.952 152.88 120.422C155.165 120.826 162.893 126.336 162.893 126.336L165.581 131.107Z" fill="url(#paint66_linear_166_3060)" stroke="#263238" stroke-miterlimit="10" stroke-linecap="round" stroke-linejoin="round"/>
<path d="M171.427 105.907C171.427 105.907 172.838 109.67 172.905 111.149C172.973 112.627 172.569 114.442 172.973 115.181C173.376 115.92 177.341 120.49 177.341 121.027C177.341 121.565 174.921 123.379 174.921 123.379C174.921 123.379 173.309 132.787 172.771 133.392C172.233 133.997 169.075 133.93 166.521 133.392C163.968 132.854 157.718 131.107 156.71 130.166C155.635 129.226 154.56 126.403 154.56 126.403C154.56 126.403 153.35 127.008 151.939 126.067C150.528 125.126 150.192 121.968 150.192 121.968C150.192 121.968 155.165 116.928 155.299 114.576C155.501 112.224 155.837 106.445 160.205 104.093C164.505 101.741 170.486 103.824 171.427 105.907Z" fill="url(#paint67_linear_166_3060)" stroke="#263238" stroke-miterlimit="10" stroke-linecap="round" stroke-linejoin="round"/>
<path d="M167.798 124.32C167.798 124.32 169.075 125.798 171.629 125.866" stroke="#263238" stroke-miterlimit="10" stroke-linecap="round" stroke-linejoin="round"/>
<path d="M167.395 113.165C167.395 113.165 168.537 111.955 170.621 112.224" stroke="#263238" stroke-miterlimit="10" stroke-linecap="round" stroke-linejoin="round"/>
<path d="M170.419 116.256C170.419 117.062 170.016 117.667 169.613 117.667C169.209 117.667 168.806 116.995 168.806 116.256C168.806 115.517 169.209 114.845 169.613 114.845C170.016 114.845 170.419 115.45 170.419 116.256Z" fill="#263238"/>
<path d="M161.482 106.579C161.482 106.579 160.205 110.88 160.07 113.03C159.936 115.181 159.936 117.466 158.659 118.003C157.382 118.608 150.394 123.581 150.394 123.581C150.394 123.581 149.52 126.605 150.797 127.613C152.074 128.621 152.813 128.755 152.813 128.755C152.813 128.755 152.813 130.166 151.805 130.301C150.797 130.435 149.52 130.57 149.52 130.57L150.797 131.174C150.797 131.174 149.654 132.451 148.646 132.72C147.638 132.989 145.958 133.459 144.211 132.72C142.464 131.981 138.902 130.973 138.634 129.024C138.365 127.008 137.894 120.422 137.894 118.339C137.894 116.256 136.349 112.627 137.021 108.326C137.76 104.026 149.05 95.0208 152.275 94.2144C155.568 93.3408 165.581 95.6256 165.581 95.6256C165.581 95.6256 173.443 97.776 174.586 99.456C175.728 101.203 175.728 104.294 175.728 104.294L172.032 103.286C172.032 103.286 172.771 103.891 172.771 105.034C172.771 106.176 172.368 108.058 172.368 108.058L168.067 104.899C168.067 104.899 165.782 106.646 165.379 106.915C164.976 107.184 162.826 108.461 162.826 108.461L162.96 105.437L161.482 106.579Z" fill="#263238" stroke="#263238" stroke-miterlimit="10" stroke-linecap="round" stroke-linejoin="round"/>
<path d="M152.88 142.666L155.972 175.325L163.095 172.771C163.095 172.771 162.557 163.699 159.399 155.77C156.308 147.84 156.845 143.539 156.845 143.539L152.88 142.666Z" fill="url(#paint68_linear_166_3060)" stroke="#263238" stroke-miterlimit="10" stroke-linecap="round" stroke-linejoin="round"/>
<path d="M155.098 141.859C155.098 141.859 161.616 152.342 163.632 157.786C165.648 163.162 169.882 183.59 169.882 183.59L185.203 180.163C185.203 180.163 175.258 160.003 171.024 153.754C166.79 147.504 163.094 142.397 163.094 142.397L155.098 141.859Z" fill="url(#paint69_linear_166_3060)" stroke="#263238" stroke-miterlimit="10" stroke-linecap="round" stroke-linejoin="round"/>
<path d="M153.149 134.87C153.149 134.87 146.362 132.854 145.959 133.997C145.555 135.139 144.279 143.136 145.421 144.01C146.563 144.883 149.923 146.16 157.987 146.294C166.051 146.429 168.135 146.698 168.605 145.891C169.008 145.152 168.471 141.59 168.605 139.642C168.739 137.76 168.202 136.954 167.194 136.618C166.119 136.282 153.149 134.87 153.149 134.87Z" fill="url(#paint70_linear_166_3060)" stroke="#263238" stroke-miterlimit="10" stroke-linecap="round" stroke-linejoin="round"/>
<path d="M218.601 174.586C218.601 174.586 200.457 170.688 194.006 169.075C187.555 167.462 160.003 176.198 152.611 177.811C145.152 179.424 132.585 183.322 123.177 194.947C113.769 206.573 114.105 272.429 113.769 274.042C113.433 275.654 129.293 283.718 140.649 283.114C152.006 282.509 160.406 279.552 170.083 280.829C179.76 282.106 199.853 291.85 212.15 289.229C224.448 286.608 233.52 284.995 240.643 284.995C247.766 284.995 248.707 287.616 258.451 284.995V211.075H350.313C350.313 211.075 339.629 192.931 333.177 190.378C326.726 187.757 304.685 191.99 296.957 190.042C289.161 188.093 267.523 184.195 262.953 181.978C258.451 179.693 248.707 174.854 240.307 172.906C231.84 171.024 218.601 174.586 218.601 174.586Z" fill="url(#paint71_linear_166_3060)" stroke="#263238" stroke-miterlimit="10" stroke-linecap="round" stroke-linejoin="round"/>
<path d="M280.761 191.789C282.374 192.528 283.382 192.998 283.584 192.998" stroke="#263238" stroke-miterlimit="10" stroke-linecap="round" stroke-linejoin="round"/>
<path d="M234.058 195.619C240.778 190.243 251.328 182.515 256.771 182.986C262.013 183.389 270.749 187.152 276.864 189.974" stroke="#263238" stroke-miterlimit="10" stroke-linecap="round" stroke-linejoin="round"/>
<path d="M228.009 200.726C228.009 200.726 229.689 199.181 232.31 197.03" stroke="#263238" stroke-miterlimit="10" stroke-linecap="round" stroke-linejoin="round"/>
<path d="M192.461 168.874C183.994 168.538 159.533 176.266 152.611 177.811C145.152 179.424 132.586 183.322 123.178 194.947C113.77 206.573 114.106 272.429 113.77 274.042C113.77 274.176 113.77 274.31 113.904 274.445C118.877 268.128 132.518 266.515 132.518 264.97C132.518 263.021 133.459 204.624 134.131 199.786C134.803 194.947 167.798 174.25 167.798 174.25L192.461 168.874Z" fill="url(#paint72_linear_166_3060)" stroke="#263238" stroke-miterlimit="10" stroke-linecap="round" stroke-linejoin="round"/>
<path d="M145.555 156.374L149.654 172.502C149.654 172.502 183.389 163.632 186.077 163.162C188.765 162.758 192.125 163.565 192.998 163.901C193.872 164.17 201.6 169.008 202.205 169.68C202.742 170.419 202.742 170.419 202.742 170.419C202.742 170.419 199.785 170.419 197.501 170.419C195.216 170.419 192.998 170.822 190.713 170.419C188.429 170.016 184.934 169.277 184.934 169.277C184.934 169.277 150.528 185.069 147.437 186.144C144.345 187.286 139.776 189.504 138.096 188.698C136.416 187.824 135.811 186.413 135.408 184.598C135.005 182.784 131.846 154.09 132.317 152.813C132.72 151.536 132.72 149.856 136.013 148.042C139.238 146.227 142.8 147.034 142.8 147.034" fill="#E0CFFC"/>
<path d="M202.205 169.613C201.667 168.874 193.872 164.102 192.998 163.834C192.125 163.565 188.765 162.691 186.077 163.094C185.27 163.229 181.91 164.035 177.542 165.178L179.558 171.629C182.784 170.15 184.934 169.142 184.934 169.142C184.934 169.142 188.496 169.882 190.714 170.285C192.998 170.688 195.216 170.285 197.501 170.285C199.786 170.285 202.742 170.285 202.742 170.285C202.742 170.285 202.81 170.352 202.205 169.613Z" fill="url(#paint73_linear_166_3060)"/>
<path d="M210.672 157.315C210.672 157.315 204.96 157.718 204.221 158.323C203.482 158.928 202.272 163.699 201.869 164.506C201.466 165.312 200.995 166.454 202.541 166.118C204.087 165.782 206.17 161.683 206.17 161.683L210.672 157.315Z" fill="url(#paint74_linear_166_3060)"/>
<path d="M219.005 242.592C219.005 245.616 219.005 247.565 219.005 247.565" stroke="#263238" stroke-miterlimit="10" stroke-linecap="round" stroke-linejoin="round"/>
<path d="M222.835 207.648C222.835 207.648 219.005 208.723 219.005 210.403C219.005 211.478 219.005 227.203 219.005 237.821" stroke="#263238" stroke-miterlimit="10" stroke-linecap="round" stroke-linejoin="round"/>
<path d="M219.005 210.403C219.005 210.403 216.519 212.016 216.787 215.846C217.056 219.677 216.787 233.587 216.787 233.587" stroke="#263238" stroke-miterlimit="10" stroke-linecap="round" stroke-linejoin="round"/>
<path d="M173.914 245.347C173.914 246.691 173.914 247.498 173.914 247.498" stroke="#263238" stroke-miterlimit="10" stroke-linecap="round" stroke-linejoin="round"/>
<path d="M177.744 207.648C177.744 207.648 173.914 208.723 173.914 210.403C173.914 211.613 173.914 231.571 173.914 241.718" stroke="#263238" stroke-miterlimit="10" stroke-linecap="round" stroke-linejoin="round"/>
<path d="M173.914 210.403C173.914 210.403 171.427 212.016 171.696 215.846C171.965 219.677 171.696 233.587 171.696 233.587" stroke="#263238" stroke-miterlimit="10" stroke-linecap="round" stroke-linejoin="round"/>
<path d="M101.942 214.099H29.4336V319.872H101.942V214.099Z" fill="#F9DA75" stroke="#263238" stroke-miterlimit="10" stroke-linecap="round" stroke-linejoin="round"/>
<path d="M101.942 214.099H55.4399V319.872H101.942V214.099Z" fill="#F9DA75" stroke="#263238" stroke-miterlimit="10" stroke-linecap="round" stroke-linejoin="round"/>
<path d="M98.3132 221.827H59.0684V243.398H98.3132V221.827Z" fill="#F9DA75" stroke="#263238" stroke-miterlimit="10" stroke-linecap="round" stroke-linejoin="round"/>
<path d="M86.2172 230.563H71.0972V234.662H86.2172V230.563Z" fill="#F9DA75" stroke="#263238" stroke-miterlimit="10" stroke-linecap="round" stroke-linejoin="round"/>
<path d="M98.3132 251.395H59.0684V272.966H98.3132V251.395Z" fill="#F9DA75" stroke="#263238" stroke-miterlimit="10" stroke-linecap="round" stroke-linejoin="round"/>
<path d="M86.2172 260.064H71.0972V264.163H86.2172V260.064Z" fill="#F9DA75" stroke="#263238" stroke-miterlimit="10" stroke-linecap="round" stroke-linejoin="round"/>
<path d="M98.3132 280.896H59.0684V302.467H98.3132V280.896Z" fill="#F9DA75" stroke="#263238" stroke-miterlimit="10" stroke-linecap="round" stroke-linejoin="round"/>
<path d="M86.2172 289.632H71.0972V293.731H86.2172V289.632Z" fill="#F9DA75" stroke="#263238" stroke-miterlimit="10" stroke-linecap="round" stroke-linejoin="round"/>
<path d="M104.227 210.672H26.4766V217.123H104.227V210.672Z" fill="#F9DA75" stroke="#263238" stroke-miterlimit="10" stroke-linecap="round" stroke-linejoin="round"/>
<path d="M104.294 210.672H50.3999V217.123H104.294V210.672Z" fill="#F9DA75" stroke="#263238" stroke-miterlimit="10" stroke-linecap="round" stroke-linejoin="round"/>
<path d="M70.8289 210.672C73.9201 210.672 76.8769 208.925 78.2209 206.17C79.5649 203.482 80.3041 200.256 80.3041 196.829C80.3041 192.73 79.2289 188.899 77.3473 185.875C74.2561 180.768 72.7777 174.854 72.7777 168.874V168.538H73.4497C74.1889 168.538 74.8609 168 74.9953 167.261C75.0625 166.387 74.3905 165.648 73.5841 165.648H59.5393C58.8001 165.648 58.1281 166.186 57.9937 166.925C57.9265 167.798 58.5985 168.538 59.4049 168.538H60.1441V168.874C60.1441 174.854 58.7329 180.768 55.5745 185.875C53.7601 188.899 52.6177 192.662 52.6177 196.829C52.6177 200.122 53.2897 203.213 54.5665 205.901C55.9105 208.858 58.8673 210.739 62.0929 210.739H70.8289V210.672Z" fill="#F67D48" stroke="#263238" stroke-miterlimit="10" stroke-linecap="round" stroke-linejoin="round"/>
<path d="M85.0754 129.562H47.981V172.637H85.0754V129.562Z" fill="#F67D48" stroke="#263238" stroke-miterlimit="10" stroke-linecap="round" stroke-linejoin="round"/>
<path d="M18.2783 319.872H481.421" stroke="#263238" stroke-miterlimit="10" stroke-linecap="round" stroke-linejoin="round"/>
<defs>
<linearGradient id="paint0_linear_166_3060" x1="245.577" y1="11.7596" x2="281.698" y2="1097.16" gradientUnits="userSpaceOnUse">
<stop stop-color="#9D68C2"/>
<stop offset="1" stop-color="#CCEDFF"/>
</linearGradient>
<linearGradient id="paint1_linear_166_3060" x1="189.191" y1="576.199" x2="244.717" y2="570" gradientUnits="userSpaceOnUse">
<stop stop-color="#755CBB"/>
<stop offset="1" stop-color="#CCEDFF"/>
</linearGradient>
<linearGradient id="paint2_linear_166_3060" x1="349.074" y1="268.623" x2="357.378" y2="61.2526" gradientUnits="userSpaceOnUse">
<stop stop-color="#755CBB"/>
<stop offset="1" stop-color="#CCEDFF"/>
</linearGradient>
<linearGradient id="paint3_linear_166_3060" x1="349.104" y1="253.457" x2="356.715" y2="64.6331" gradientUnits="userSpaceOnUse">
<stop stop-color="#755CBB"/>
<stop offset="1" stop-color="#CCEDFF"/>
</linearGradient>
<linearGradient id="paint4_linear_166_3060" x1="350.005" y1="111.502" x2="350.267" y2="102.499" gradientUnits="userSpaceOnUse">
<stop stop-color="#755CBB"/>
<stop offset="1" stop-color="#CCEDFF"/>
</linearGradient>
<linearGradient id="paint5_linear_166_3060" x1="349.104" y1="113.116" x2="349.119" y2="104.764" gradientUnits="userSpaceOnUse">
<stop stop-color="#755CBB"/>
<stop offset="1" stop-color="#CCEDFF"/>
</linearGradient>
<linearGradient id="paint6_linear_166_3060" x1="349.341" y1="48.2402" x2="349.399" y2="30.4373" gradientUnits="userSpaceOnUse">
<stop stop-color="#755CBB"/>
<stop offset="1" stop-color="#CCEDFF"/>
</linearGradient>
<linearGradient id="paint7_linear_166_3060" x1="349.341" y1="179.079" x2="349.399" y2="161.276" gradientUnits="userSpaceOnUse">
<stop stop-color="#755CBB"/>
<stop offset="1" stop-color="#CCEDFF"/>
</linearGradient>
<linearGradient id="paint8_linear_166_3060" x1="348.573" y1="19.0148" x2="348.576" y2="13.7398" gradientUnits="userSpaceOnUse">
<stop stop-color="#755CBB"/>
<stop offset="1" stop-color="#CCEDFF"/>
</linearGradient>
<linearGradient id="paint9_linear_166_3060" x1="277.2" y1="324.731" x2="394.28" y2="107.173" gradientUnits="userSpaceOnUse">
<stop stop-color="#755CBB"/>
<stop offset="1" stop-color="#CCEDFF"/>
</linearGradient>
<linearGradient id="paint10_linear_166_3060" x1="285.869" y1="324.731" x2="402.948" y2="107.173" gradientUnits="userSpaceOnUse">
<stop stop-color="#755CBB"/>
<stop offset="1" stop-color="#CCEDFF"/>
</linearGradient>
<linearGradient id="paint11_linear_166_3060" x1="294.537" y1="324.731" x2="411.617" y2="107.173" gradientUnits="userSpaceOnUse">
<stop stop-color="#755CBB"/>
<stop offset="1" stop-color="#CCEDFF"/>
</linearGradient>
<linearGradient id="paint12_linear_166_3060" x1="303.274" y1="324.731" x2="420.353" y2="107.173" gradientUnits="userSpaceOnUse">
<stop stop-color="#755CBB"/>
<stop offset="1" stop-color="#CCEDFF"/>
</linearGradient>
<linearGradient id="paint13_linear_166_3060" x1="396.615" y1="324.731" x2="513.694" y2="107.173" gradientUnits="userSpaceOnUse">
<stop stop-color="#755CBB"/>
<stop offset="1" stop-color="#CCEDFF"/>
</linearGradient>
<linearGradient id="paint14_linear_166_3060" x1="405.283" y1="324.731" x2="522.363" y2="107.173" gradientUnits="userSpaceOnUse">
<stop stop-color="#755CBB"/>
<stop offset="1" stop-color="#CCEDFF"/>
</linearGradient>
<linearGradient id="paint15_linear_166_3060" x1="414.019" y1="324.731" x2="531.099" y2="107.173" gradientUnits="userSpaceOnUse">
<stop stop-color="#755CBB"/>
<stop offset="1" stop-color="#CCEDFF"/>
</linearGradient>
<linearGradient id="paint16_linear_166_3060" x1="422.688" y1="324.731" x2="539.767" y2="107.173" gradientUnits="userSpaceOnUse">
<stop stop-color="#755CBB"/>
<stop offset="1" stop-color="#CCEDFF"/>
</linearGradient>
<linearGradient id="paint17_linear_166_3060" x1="86.0938" y1="23.5785" x2="95.9133" y2="168.696" gradientUnits="userSpaceOnUse">
<stop stop-color="#9D68C2"/>
<stop offset="1" stop-color="#CCEDFF"/>
</linearGradient>
<linearGradient id="paint18_linear_166_3060" x1="86.1706" y1="26.3053" x2="94.7092" y2="152.546" gradientUnits="userSpaceOnUse">
<stop stop-color="#9D68C2"/>
<stop offset="1" stop-color="#CCEDFF"/>
</linearGradient>
<linearGradient id="paint19_linear_166_3060" x1="86.5214" y1="39.0155" x2="89.2931" y2="79.8358" gradientUnits="userSpaceOnUse">
<stop stop-color="#9D68C2"/>
<stop offset="1" stop-color="#CCEDFF"/>
</linearGradient>
<linearGradient id="paint20_linear_166_3060" x1="127.153" y1="54.4233" x2="136.972" y2="199.54" gradientUnits="userSpaceOnUse">
<stop stop-color="#9D68C2"/>
<stop offset="1" stop-color="#CCEDFF"/>
</linearGradient>
<linearGradient id="paint21_linear_166_3060" x1="127.23" y1="57.2173" x2="135.768" y2="183.458" gradientUnits="userSpaceOnUse">
<stop stop-color="#9D68C2"/>
<stop offset="1" stop-color="#CCEDFF"/>
</linearGradient>
<linearGradient id="paint22_linear_166_3060" x1="127.581" y1="69.8603" x2="130.352" y2="110.681" gradientUnits="userSpaceOnUse">
<stop stop-color="#9D68C2"/>
<stop offset="1" stop-color="#CCEDFF"/>
</linearGradient>
<linearGradient id="paint23_linear_166_3060" x1="86.0938" y1="71.697" x2="89.4499" y2="156.663" gradientUnits="userSpaceOnUse">
<stop stop-color="#9D68C2"/>
<stop offset="1" stop-color="#CCEDFF"/>
</linearGradient>
<linearGradient id="paint24_linear_166_3060" x1="86.1706" y1="73.3036" x2="89.102" y2="147.382" gradientUnits="userSpaceOnUse">
<stop stop-color="#9D68C2"/>
<stop offset="1" stop-color="#CCEDFF"/>
</linearGradient>
<linearGradient id="paint25_linear_166_3060" x1="86.5214" y1="80.7078" x2="87.469" y2="104.612" gradientUnits="userSpaceOnUse">
<stop stop-color="#9D68C2"/>
<stop offset="1" stop-color="#CCEDFF"/>
</linearGradient>
<linearGradient id="paint26_linear_166_3060" x1="226.597" y1="169.669" x2="226.597" y2="151.97" gradientUnits="userSpaceOnUse">
<stop offset="0.0159875" stop-color="#FFC2A9"/>
<stop offset="1" stop-color="#FF9595"/>
</linearGradient>
<linearGradient id="paint27_linear_166_3060" x1="217.836" y1="169.732" x2="217.836" y2="159.74" gradientUnits="userSpaceOnUse">
<stop offset="0.0159875" stop-color="#FFC2A9"/>
<stop offset="1" stop-color="#FF9595"/>
</linearGradient>
<linearGradient id="paint28_linear_166_3060" x1="212.863" y1="172.376" x2="212.863" y2="162.506" gradientUnits="userSpaceOnUse">
<stop offset="0.0159875" stop-color="#FFC2A9"/>
<stop offset="1" stop-color="#FF9595"/>
</linearGradient>
<linearGradient id="paint29_linear_166_3060" x1="214.806" y1="173.932" x2="214.806" y2="151.63" gradientUnits="userSpaceOnUse">
<stop offset="0.0159875" stop-color="#FFC2A9"/>
<stop offset="1" stop-color="#FF9595"/>
</linearGradient>
<linearGradient id="paint30_linear_166_3060" x1="222.674" y1="160.682" x2="222.674" y2="153.364" gradientUnits="userSpaceOnUse">
<stop offset="0.0159875" stop-color="#FFC2A9"/>
<stop offset="1" stop-color="#FF9595"/>
</linearGradient>
<linearGradient id="paint31_linear_166_3060" x1="248.15" y1="319.382" x2="248.15" y2="299.665" gradientUnits="userSpaceOnUse">
<stop offset="0.0159875" stop-color="#FFC2A9"/>
<stop offset="1" stop-color="#FF9595"/>
</linearGradient>
<linearGradient id="paint32_linear_166_3060" x1="248.133" y1="319.591" x2="248.133" y2="317.171" gradientUnits="userSpaceOnUse">
<stop offset="0.0159875" stop-color="#FFC2A9"/>
<stop offset="1" stop-color="#FF9595"/>
</linearGradient>
<linearGradient id="paint33_linear_166_3060" x1="251.506" y1="349.317" x2="285.685" y2="334.542" gradientUnits="userSpaceOnUse">
<stop stop-color="#1F77D1"/>
<stop offset="1" stop-color="#0686C9"/>
</linearGradient>
<linearGradient id="paint34_linear_166_3060" x1="270.686" y1="319.853" x2="270.686" y2="302.392" gradientUnits="userSpaceOnUse">
<stop offset="0.0159875" stop-color="#FFC2A9"/>
<stop offset="1" stop-color="#FF9595"/>
</linearGradient>
<linearGradient id="paint35_linear_166_3060" x1="272.391" y1="356.542" x2="304.721" y2="344.568" gradientUnits="userSpaceOnUse">
<stop stop-color="#1F77D1"/>
<stop offset="1" stop-color="#0686C9"/>
</linearGradient>
<linearGradient id="paint36_linear_166_3060" x1="264.772" y1="317.809" x2="277.403" y2="100.553" gradientUnits="userSpaceOnUse">
<stop stop-color="#755CBB"/>
<stop offset="1" stop-color="#CCEDFF"/>
</linearGradient>
<linearGradient id="paint37_linear_166_3060" x1="269.767" y1="165.856" x2="269.837" y2="156.075" gradientUnits="userSpaceOnUse">
<stop stop-color="#755CBB"/>
<stop offset="1" stop-color="#CCEDFF"/>
</linearGradient>
<linearGradient id="paint38_linear_166_3060" x1="248.11" y1="274.38" x2="292.146" y2="145.085" gradientUnits="userSpaceOnUse">
<stop stop-color="#755CBB"/>
<stop offset="1" stop-color="#CCEDFF"/>
</linearGradient>
<linearGradient id="paint39_linear_166_3060" x1="255.985" y1="132.417" x2="259.024" y2="89.001" gradientUnits="userSpaceOnUse">
<stop stop-color="#755CBB"/>
<stop offset="1" stop-color="#CCEDFF"/>
</linearGradient>
<linearGradient id="paint40_linear_166_3060" x1="260.738" y1="87.034" x2="260.738" y2="38.9455" gradientUnits="userSpaceOnUse">
<stop offset="0.0159875" stop-color="#FFC2A9"/>
<stop offset="1" stop-color="#FF9595"/>
</linearGradient>
<linearGradient id="paint41_linear_166_3060" x1="255.752" y1="68.4297" x2="255.807" y2="64.0345" gradientUnits="userSpaceOnUse">
<stop stop-color="#755CBB"/>
<stop offset="1" stop-color="#CCEDFF"/>
</linearGradient>
<linearGradient id="paint42_linear_166_3060" x1="254.83" y1="69.3411" x2="255.219" y2="54.0066" gradientUnits="userSpaceOnUse">
<stop stop-color="#755CBB"/>
<stop offset="1" stop-color="#CCEDFF"/>
</linearGradient>
<linearGradient id="paint43_linear_166_3060" x1="265.061" y1="53.513" x2="265.063" y2="52.4141" gradientUnits="userSpaceOnUse">
<stop stop-color="#755CBB"/>
<stop offset="1" stop-color="#CCEDFF"/>
</linearGradient>
<linearGradient id="paint44_linear_166_3060" x1="245.369" y1="65.2294" x2="245.634" y2="53.9254" gradientUnits="userSpaceOnUse">
<stop stop-color="#755CBB"/>
<stop offset="1" stop-color="#CCEDFF"/>
</linearGradient>
<linearGradient id="paint45_linear_166_3060" x1="255.265" y1="57.4927" x2="255.271" y2="56.3205" gradientUnits="userSpaceOnUse">
<stop stop-color="#755CBB"/>
<stop offset="1" stop-color="#CCEDFF"/>
</linearGradient>
<linearGradient id="paint46_linear_166_3060" x1="255.017" y1="52.8299" x2="255.026" y2="51.2248" gradientUnits="userSpaceOnUse">
<stop stop-color="#755CBB"/>
<stop offset="1" stop-color="#CCEDFF"/>
</linearGradient>
<linearGradient id="paint47_linear_166_3060" x1="275.336" y1="73.5922" x2="291.002" y2="140.566" gradientUnits="userSpaceOnUse">
<stop stop-color="#9D68C2"/>
<stop offset="1" stop-color="#CCEDFF"/>
</linearGradient>
<linearGradient id="paint48_linear_166_3060" x1="269.995" y1="120.809" x2="270.043" y2="123.707" gradientUnits="userSpaceOnUse">
<stop stop-color="#9D68C2"/>
<stop offset="1" stop-color="#CCEDFF"/>
</linearGradient>
<linearGradient id="paint49_linear_166_3060" x1="273.124" y1="100.389" x2="293.238" y2="167.878" gradientUnits="userSpaceOnUse">
<stop stop-color="#9D68C2"/>
<stop offset="1" stop-color="#CCEDFF"/>
</linearGradient>
<linearGradient id="paint50_linear_166_3060" x1="274.228" y1="120.809" x2="274.276" y2="123.707" gradientUnits="userSpaceOnUse">
<stop stop-color="#9D68C2"/>
<stop offset="1" stop-color="#CCEDFF"/>
</linearGradient>
<linearGradient id="paint51_linear_166_3060" x1="270.993" y1="100.389" x2="291.108" y2="167.878" gradientUnits="userSpaceOnUse">
<stop stop-color="#9D68C2"/>
<stop offset="1" stop-color="#CCEDFF"/>
</linearGradient>
<linearGradient id="paint52_linear_166_3060" x1="272.208" y1="93.6449" x2="275.055" y2="127.689" gradientUnits="userSpaceOnUse">
<stop stop-color="#9D68C2"/>
<stop offset="1" stop-color="#CCEDFF"/>
</linearGradient>
<linearGradient id="paint53_linear_166_3060" x1="248.077" y1="78.3703" x2="289.477" y2="206.509" gradientUnits="userSpaceOnUse">
<stop stop-color="#9D68C2"/>
<stop offset="1" stop-color="#CCEDFF"/>
</linearGradient>
<linearGradient id="paint54_linear_166_3060" x1="237.327" y1="128.508" x2="237.327" y2="116.973" gradientUnits="userSpaceOnUse">
<stop offset="0.0159875" stop-color="#FFC2A9"/>
<stop offset="1" stop-color="#FF9595"/>
</linearGradient>
<linearGradient id="paint55_linear_166_3060" x1="236.856" y1="114.848" x2="238.175" y2="162.393" gradientUnits="userSpaceOnUse">
<stop stop-color="#9D68C2"/>
<stop offset="1" stop-color="#CCEDFF"/>
</linearGradient>
<linearGradient id="paint56_linear_166_3060" x1="232.943" y1="123.528" x2="233.28" y2="132.997" gradientUnits="userSpaceOnUse">
<stop stop-color="#9D68C2"/>
<stop offset="1" stop-color="#CCEDFF"/>
</linearGradient>
<linearGradient id="paint57_linear_166_3060" x1="243.874" y1="115.488" x2="247.584" y2="144.164" gradientUnits="userSpaceOnUse">
<stop stop-color="#9D68C2"/>
<stop offset="1" stop-color="#CCEDFF"/>
</linearGradient>
<linearGradient id="paint58_linear_166_3060" x1="243.874" y1="115.488" x2="247.584" y2="144.164" gradientUnits="userSpaceOnUse">
<stop stop-color="#9D68C2"/>
<stop offset="1" stop-color="#CCEDFF"/>
</linearGradient>
<linearGradient id="paint59_linear_166_3060" x1="244.507" y1="116.346" x2="244.507" y2="114.908" gradientUnits="userSpaceOnUse">
<stop offset="0.0159875" stop-color="#FFC2A9"/>
<stop offset="1" stop-color="#FF9595"/>
</linearGradient>
<linearGradient id="paint60_linear_166_3060" x1="244.449" y1="114.643" x2="244.614" y2="120.571" gradientUnits="userSpaceOnUse">
<stop stop-color="#9D68C2"/>
<stop offset="1" stop-color="#CCEDFF"/>
</linearGradient>
<linearGradient id="paint61_linear_166_3060" x1="274.188" y1="77.2348" x2="285.987" y2="288.974" gradientUnits="userSpaceOnUse">
<stop stop-color="#9D68C2"/>
<stop offset="1" stop-color="#CCEDFF"/>
</linearGradient>
<linearGradient id="paint62_linear_166_3060" x1="287.32" y1="117.925" x2="287.325" y2="119.822" gradientUnits="userSpaceOnUse">
<stop stop-color="#9D68C2"/>
<stop offset="1" stop-color="#CCEDFF"/>
</linearGradient>
<linearGradient id="paint63_linear_166_3060" x1="127.61" y1="250.778" x2="170.333" y2="207.249" gradientUnits="userSpaceOnUse">
<stop stop-color="#1F77D1"/>
<stop offset="1" stop-color="#0686C9"/>
</linearGradient>
<linearGradient id="paint64_linear_166_3060" x1="139.631" y1="165.234" x2="149.759" y2="155.572" gradientUnits="userSpaceOnUse">
<stop stop-color="#1F77D1"/>
<stop offset="1" stop-color="#0686C9"/>
</linearGradient>
<linearGradient id="paint65_linear_166_3060" x1="141.749" y1="158.498" x2="152.377" y2="151.591" gradientUnits="userSpaceOnUse">
<stop stop-color="#1F77D1"/>
<stop offset="1" stop-color="#0686C9"/>
</linearGradient>
<linearGradient id="paint66_linear_166_3060" x1="156.676" y1="139.305" x2="156.676" y2="122.842" gradientUnits="userSpaceOnUse">
<stop offset="0.0159875" stop-color="#FFC2A9"/>
<stop offset="1" stop-color="#FF9595"/>
</linearGradient>
<linearGradient id="paint67_linear_166_3060" x1="163.764" y1="133.605" x2="163.764" y2="107.293" gradientUnits="userSpaceOnUse">
<stop offset="0.0159875" stop-color="#FFC2A9"/>
<stop offset="1" stop-color="#FF9595"/>
</linearGradient>
<linearGradient id="paint68_linear_166_3060" x1="157.799" y1="142.021" x2="176.638" y2="254.056" gradientUnits="userSpaceOnUse">
<stop stop-color="#9D68C2"/>
<stop offset="1" stop-color="#CCEDFF"/>
</linearGradient>
<linearGradient id="paint69_linear_166_3060" x1="169.594" y1="141.036" x2="180.268" y2="287.462" gradientUnits="userSpaceOnUse">
<stop stop-color="#9D68C2"/>
<stop offset="1" stop-color="#CCEDFF"/>
</linearGradient>
<linearGradient id="paint70_linear_166_3060" x1="156.417" y1="133.394" x2="157.694" y2="178.513" gradientUnits="userSpaceOnUse">
<stop stop-color="#9D68C2"/>
<stop offset="1" stop-color="#CCEDFF"/>
</linearGradient>
<linearGradient id="paint71_linear_166_3060" x1="227.665" y1="166.495" x2="239.1" y2="592.29" gradientUnits="userSpaceOnUse">
<stop stop-color="#9D68C2"/>
<stop offset="1" stop-color="#CCEDFF"/>
</linearGradient>
<linearGradient id="paint72_linear_166_3060" x1="151.66" y1="166.78" x2="177.81" y2="537.368" gradientUnits="userSpaceOnUse">
<stop stop-color="#9D68C2"/>
<stop offset="1" stop-color="#CCEDFF"/>
</linearGradient>
<linearGradient id="paint73_linear_166_3060" x1="190.142" y1="171.568" x2="190.142" y2="164.181" gradientUnits="userSpaceOnUse">
<stop offset="0.0159875" stop-color="#FFC2A9"/>
<stop offset="1" stop-color="#FF9595"/>
</linearGradient>
<linearGradient id="paint74_linear_166_3060" x1="206.071" y1="166.117" x2="206.071" y2="158.537" gradientUnits="userSpaceOnUse">
<stop offset="0.0159875" stop-color="#FFC2A9"/>
<stop offset="1" stop-color="#FF9595"/>
</linearGradient>
</defs>
</svg>
