<svg width="612" height="433" viewBox="0 0 612 433" fill="none" xmlns="http://www.w3.org/2000/svg">
<g clip-path="url(#clip0)">
<path opacity="0.1" d="M203.465 432.757C233.269 432.757 257.429 428.881 257.429 424.099C257.429 419.318 233.269 415.442 203.465 415.442C173.661 415.442 149.5 419.318 149.5 424.099C149.5 428.881 173.661 432.757 203.465 432.757Z" fill="#6C63FF"/>
<path opacity="0.1" d="M496.81 433C534 433 564.149 429.124 564.149 424.343C564.149 419.561 534 415.685 496.81 415.685C459.619 415.685 429.47 419.561 429.47 424.343C429.47 429.124 459.619 433 496.81 433Z" fill="#6C63FF"/>
<path opacity="0.1" d="M7.66494 187.087H63.8728V263.609H11.7799C11.6414 264.395 11.5085 265.186 11.3645 265.977H63.8728V327.69C63.7786 327.663 63.6955 327.629 63.6069 327.596C62.1227 327.01 60.6495 326.39 59.1763 325.726L58.2348 325.3C56.7579 324.603 55.2811 323.866 53.8042 323.088C53.2891 322.817 52.7741 322.534 52.2646 322.247C44.0656 317.659 36.6173 311.846 30.178 305.01C29.9897 304.827 29.8125 304.633 29.6241 304.456C28.727 303.483 27.8464 302.498 26.9935 301.491L26.052 300.385C25.044 299.151 24.0693 297.885 23.1222 296.601C22.9838 296.413 22.8509 296.225 22.7069 296.048C18.8553 290.714 15.6572 284.938 13.1811 278.844C13.1035 278.661 13.0371 278.462 12.9651 278.291C12.2045 276.336 11.5306 274.363 10.9436 272.372C10.6888 271.536 10.4452 270.712 10.2347 269.844C10.1572 269.589 10.0907 269.34 10.0298 269.091C6.88405 256.827 6.51299 244.087 6.51299 231.436C6.51299 229.959 6.51299 228.476 6.51299 227.011C6.51299 221.894 6.57391 216.743 6.66252 211.599C6.66252 210.266 6.7179 208.938 6.74559 207.599C6.82313 204.203 6.93389 200.806 7.07789 197.41C7.11112 196.464 7.15542 195.523 7.20527 194.583C7.20527 194.041 7.23296 193.499 7.28834 192.956C7.42126 190.987 7.53203 189.034 7.66494 187.087Z" fill="#6C63FF"/>
<path opacity="0.1" d="M63.8728 101.886H33.0413C38.0531 94.0502 43.5291 86.5209 49.44 79.3378C54.0202 73.7175 58.8551 68.2409 63.8728 62.9636V101.886Z" fill="#6C63FF"/>
<path opacity="0.1" d="M63.8728 104.253V184.72H7.84218C7.84218 184.487 7.88095 184.249 7.89756 184.017C7.9474 183.381 7.99725 182.745 8.05263 182.114C8.11355 181.373 8.18001 180.626 8.25201 179.901C8.32401 179.177 8.40154 178.292 8.48462 177.489C8.56769 176.687 8.64523 175.874 8.73938 175.072C8.83353 174.27 8.9166 173.468 9.01629 172.671C9.11598 171.875 9.20459 171.067 9.30982 170.27C9.39289 169.607 9.4815 168.948 9.57011 168.284C9.69749 167.35 9.83041 166.409 9.97441 165.48C9.97441 165.342 10.0132 165.198 10.0353 165.065C11.0462 158.262 12.4235 151.518 14.1613 144.863C15.9804 137.881 18.3033 131.041 21.1119 124.395C24.0968 117.442 27.5917 110.719 31.5681 104.281L63.8728 104.253Z" fill="#6C63FF"/>
<path opacity="0.1" d="M77.292 187.082V263.609H197.345V187.082H77.292ZM77.292 265.971V331.69C77.9787 331.833 78.6599 331.972 79.3356 332.088C80.2549 332.265 81.1688 332.425 82.1047 332.564C82.2819 332.591 82.4647 332.619 82.6585 332.636C83.0241 332.696 83.4007 332.746 83.7662 332.796C84.6911 332.923 85.6104 333.028 86.5353 333.111C86.9728 333.156 87.4159 333.194 87.859 333.228L88.9279 333.311C89.5094 333.355 90.0853 333.388 90.6558 333.405C91.0102 333.405 91.3647 333.438 91.7302 333.449C92.0071 333.449 92.284 333.449 92.572 333.449C92.86 333.449 93.2698 333.449 93.6188 333.449C94.095 333.449 94.5713 333.449 95.0421 333.449H95.679C96.1553 333.449 96.6316 333.449 97.1023 333.405H97.1356C97.4623 333.405 97.7946 333.405 98.1269 333.36C98.2191 333.366 98.3116 333.366 98.4038 333.36C98.6807 333.36 98.9576 333.36 99.2235 333.322H99.4173L101.273 333.178C101.882 333.122 102.497 333.051 103.117 332.984L104.38 332.835C109.517 332.116 114.597 331.036 119.582 329.604C130.78 326.484 141.735 322.12 152.928 318.922C167.399 314.801 183.388 312.776 197.373 317.816V265.971H77.292ZM197.345 101.886V0.00550666C184.201 -0.13673 171.093 1.3988 158.339 4.57482C127.939 12.2032 100.663 28.749 77.292 49.8807V101.88H83.3176V104.242H77.292V184.719H197.345V104.248H108.057V101.886H197.345ZM351.547 67.472C344.026 67.2064 336.549 64.8277 329.787 61.1546C316.855 54.1291 306.526 43.2812 294.984 34.126C271.004 15.0577 241.263 3.55142 210.753 0.696988V101.886H382.134L382.561 101.438L351.547 67.472ZM367.159 64.706L383.713 82.8505V59.9486C378.169 60.6346 373.312 62.2665 367.181 64.6839L367.159 64.706ZM383.713 348.009V265.971H348.44C348.346 265.623 348.251 265.269 348.141 264.915C348.246 265.269 348.334 265.623 348.434 265.971H210.775V325.3C212.082 326.268 213.373 327.286 214.652 328.321C216.031 329.427 217.393 330.594 218.761 331.739L220.14 332.879C220.799 333.432 221.464 333.985 222.134 334.505C223.463 335.582 224.805 336.644 226.16 337.692C226.831 338.245 227.517 338.743 228.198 339.263C239.013 347.522 250.421 354.975 262.331 361.562C265 363.037 267.694 364.477 270.411 365.882C272.222 366.806 274.044 367.724 275.872 368.615C278.619 369.953 281.388 371.244 284.179 372.487C309.914 384.026 337.126 391.943 365.038 396.014C371.237 396.929 377.46 397.648 383.707 398.171V348.003H384.261L383.713 348.009ZM210.775 104.248V184.719H383.735V104.248H210.775ZM210.775 187.082V263.609H383.735V187.082H210.775ZM397.16 59.8491V85.3951L418.288 62.2388C411.288 61.1103 404.245 60.3045 397.16 59.8214V59.8491ZM397.16 187.109V263.609H565.384V187.082L397.16 187.109ZM564.77 354.083L565.362 265.971H397.16V399.051C407.995 399.506 418.848 399.376 429.669 398.664H429.858C435.027 398.339 440.172 397.867 445.293 397.248H445.409C472.73 394.072 499.444 386.952 524.717 376.11L564.77 354.083ZM597.822 199.683C597.191 198.195 596.532 196.718 595.861 195.258C594.61 192.492 593.286 189.803 591.924 187.115H578.798V263.609H611.983C611.967 241.946 606.478 219.819 597.839 199.655L597.822 199.683ZM578.798 265.999V341.785C588.147 332.835 596.044 322.595 601.732 310.89C608.572 296.795 611.701 281.532 611.956 265.988L578.798 265.999ZM578.798 164.81V184.725H590.694C587.095 177.87 583.13 171.212 578.815 164.783L578.798 164.81ZM464.71 74.8625C463.835 74.5306 462.96 74.1931 462.079 73.8668C452.792 70.441 443.302 67.5922 433.662 65.3367L401.33 100.779L400.71 101.438L401.125 101.891H516.199C500.173 90.8719 482.894 81.7898 464.727 74.8348L464.71 74.8625ZM519.572 104.275H399.519L397.16 106.433V184.719H417.84H417.873H565.407V146.799C552.061 130.677 536.657 116.371 519.589 104.248L519.572 104.275Z" fill="#D0E9F7"/>
<path opacity="0.1" d="M63.8728 144.84V184.72H7.84218C7.84218 184.487 7.88095 184.249 7.89756 184.017C7.9474 183.381 7.99725 182.745 8.05263 182.114C8.11355 181.373 8.18001 180.626 8.25201 179.901C8.32401 179.177 8.40154 178.292 8.48462 177.489C8.56769 176.687 8.64523 175.874 8.73938 175.072C8.83353 174.27 8.9166 173.468 9.01629 172.671C9.11598 171.875 9.20459 171.067 9.30982 170.27C9.39289 169.607 9.4815 168.948 9.57011 168.284C9.69749 167.35 9.83041 166.409 9.97441 165.48C9.97441 165.341 10.0132 165.198 10.0353 165.065C11.0462 158.262 12.4235 151.518 14.1613 144.863L63.8728 144.84Z" fill="#6C63FF"/>
<path opacity="0.1" d="M7.66494 187.087H63.8728V263.609H11.7799C11.6414 264.395 11.5085 265.186 11.3645 265.977H63.8728V327.69C63.7786 327.663 63.6955 327.629 63.6069 327.596C62.1227 327.01 60.6495 326.39 59.1763 325.726L58.2348 325.3C56.7579 324.603 55.2811 323.866 53.8042 323.088C53.2891 322.817 52.7741 322.534 52.2646 322.247C44.0656 317.659 36.6173 311.846 30.178 305.01C29.9897 304.827 29.8125 304.633 29.6241 304.456C28.727 303.483 27.8464 302.498 26.9935 301.491L26.052 300.385C25.044 299.151 24.0693 297.885 23.1222 296.601C22.9838 296.413 22.8509 296.225 22.7069 296.048C18.8553 290.714 15.6572 284.938 13.1811 278.844C13.1035 278.661 13.0371 278.462 12.9651 278.291C12.2045 276.336 11.5306 274.363 10.9436 272.372C10.6888 271.536 10.4452 270.712 10.2347 269.844C10.1572 269.589 10.0907 269.34 10.0298 269.091C6.88405 256.827 6.51299 244.087 6.51299 231.436C6.51299 229.959 6.51299 228.476 6.51299 227.011C6.51299 221.894 6.57391 216.743 6.66252 211.599C6.66252 210.266 6.7179 208.938 6.74559 207.599C6.82313 204.203 6.93389 200.806 7.07789 197.41C7.11112 196.464 7.15542 195.523 7.20527 194.583C7.20527 194.041 7.23296 193.499 7.28834 192.956C7.42126 190.987 7.53203 189.034 7.66494 187.087Z" fill="#D0E9F7"/>
<path opacity="0.1" d="M119.554 115.771V184.72H77.292V115.771H83.3176V92.4261H108.051V115.771H119.554Z" fill="#6C63FF"/>
<path opacity="0.1" d="M119.554 187.082H77.2975V263.604H119.554V187.082Z" fill="#6C63FF"/>
<path opacity="0.1" d="M77.292 265.977H119.554V329.593C114.569 331.024 109.489 332.102 104.352 332.818L103.089 332.973C102.469 333.045 101.854 333.106 101.245 333.167C100.636 333.228 100.004 333.272 99.3896 333.31H99.1958C98.93 333.31 98.642 333.344 98.3817 333.349H98.0992C97.7669 333.349 97.4346 333.382 97.1023 333.393C96.6316 333.421 96.1608 333.427 95.679 333.432C95.4741 333.432 95.2802 333.432 95.0753 333.432C94.599 333.432 94.1283 333.432 93.652 333.432H92.6053C92.3228 333.432 92.0514 333.432 91.7579 333.432L90.689 333.393C90.1352 333.393 89.5371 333.333 88.9611 333.294L87.8977 333.216L86.5741 333.095C85.6437 333.012 84.7188 332.907 83.805 332.779L82.6973 332.625L82.1435 332.547C81.2186 332.403 80.3048 332.248 79.3744 332.071C78.6931 331.955 78.0175 331.811 77.3307 331.673L77.292 265.977Z" fill="#6C63FF"/>
<path opacity="0.1" d="M383.735 107.628H348.888V184.714H383.735V107.628Z" fill="#6C63FF"/>
<path opacity="0.1" d="M383.741 187.082V263.609H210.775V230.601H302.904V250.073H348.888V187.082H383.741Z" fill="#6C63FF"/>
<path opacity="0.1" d="M384.289 348.025H383.735V398.227C377.495 397.699 371.274 396.982 365.071 396.075C337.145 391.991 309.922 384.057 284.179 372.498C276.747 369.157 269.466 365.51 262.336 361.556C250.427 354.966 239.017 347.513 228.199 339.257C225.481 337.177 222.799 335.049 220.151 332.874C218.318 331.363 216.496 329.814 214.652 328.31C213.373 327.275 212.082 326.257 210.775 325.284V265.977H348.429C348.334 265.623 348.24 265.269 348.141 264.92C348.246 265.269 348.346 265.623 348.44 265.977H383.735V347.992C383.923 347.998 384.106 348.014 384.289 348.025Z" fill="#6C63FF"/>
<path opacity="0.1" d="M474.618 101.886H451.911V94.838H462.09V73.8447C462.973 74.1655 463.851 74.4956 464.727 74.8349V94.838H474.618V101.886Z" fill="#6C63FF"/>
<path opacity="0.1" d="M529.325 184.72H417.851C417.851 184.72 417.851 184.72 417.889 184.747L417.84 184.72H397.16V107.633H403.019V164.611H429.797V130.867H451.917V104.253H474.623V130.889H496.743V164.633H529.325V184.72Z" fill="#6C63FF"/>
<path opacity="0.1" d="M397.16 187.082V263.609H529.325V187.082H397.16ZM565.202 353.69L565.384 293.116H529.325V266.01H397.16V399.051C407.995 399.506 418.848 399.376 429.669 398.664H429.858C435.027 398.339 440.172 397.867 445.293 397.248H445.409C472.73 394.072 499.444 386.952 524.717 376.111" fill="#6C63FF"/>
<path opacity="0.1" d="M581.146 265.977H611.978C611.706 281.516 608.583 296.778 601.749 310.873C596.061 322.584 588.158 332.824 578.82 341.769V293.088H581.146V265.977Z" fill="#6C63FF"/>
<path opacity="0.1" d="M611.994 263.609H581.146V199.656H597.839C606.478 219.819 611.967 241.947 611.994 263.609Z" fill="#6C63FF"/>
<path opacity="0.1" d="M383.741 129.058H365.071V153.227H383.741V129.058Z" fill="#6C63FF"/>
<path opacity="0.1" d="M383.741 179.154H365.071V184.72H383.741V179.154Z" fill="#6C63FF"/>
<path opacity="0.1" d="M383.741 187.082H365.071V203.318H383.741V187.082Z" fill="#6C63FF"/>
<path opacity="0.1" d="M383.741 229.251H365.071V253.42H383.741V229.251Z" fill="#6C63FF"/>
<path opacity="0.1" d="M383.741 279.347H365.071V303.516H383.741V279.347Z" fill="#6C63FF"/>
<path opacity="0.1" d="M383.735 347.992C383.923 347.992 384.106 347.992 384.289 348.025H383.735V353.64H365.071V329.444H383.735V347.992Z" fill="#6C63FF"/>
<path opacity="0.1" d="M383.735 379.529V398.199C377.495 397.672 371.274 396.954 365.071 396.047V379.529H383.735Z" fill="#6C63FF"/>
<path opacity="0.1" d="M290.786 261.833H210.775V263.609H290.786V261.833Z" fill="#6C63FF"/>
<path opacity="0.1" d="M290.786 265.971H210.775V272.775H290.786V265.971Z" fill="#6C63FF"/>
<path opacity="0.1" d="M290.786 295.08H210.775V306.022H290.786V295.08Z" fill="#6C63FF"/>
<path opacity="0.1" d="M290.781 328.326V339.268H228.198C225.481 337.196 222.797 335.068 220.146 332.885C218.313 331.374 216.496 329.825 214.646 328.326H290.781Z" fill="#6C63FF"/>
<path opacity="0.1" d="M290.781 361.567V372.498H284.174C276.749 369.153 269.47 365.504 262.336 361.551L290.781 361.567Z" fill="#6C63FF"/>
<path opacity="0.1" d="M445.426 194.5H429.675V210.232H445.426V194.5Z" fill="#6C63FF"/>
<path opacity="0.1" d="M104.391 121.197H88.6399V136.93H104.391V121.197Z" fill="#6C63FF"/>
<path opacity="0.1" d="M104.391 157.741H88.6399V173.473H104.391V157.741Z" fill="#6C63FF"/>
<path opacity="0.1" d="M104.391 194.284H88.6399V210.017H104.391V194.284Z" fill="#6C63FF"/>
<path opacity="0.1" d="M104.391 230.822H88.6399V246.555H104.391V230.822Z" fill="#6C63FF"/>
<path opacity="0.1" d="M104.391 267.365H88.6399V283.098H104.391V267.365Z" fill="#6C63FF"/>
<path opacity="0.1" d="M104.391 303.909H88.6399V319.641H104.391V303.909Z" fill="#6C63FF"/>
<path opacity="0.1" d="M505.555 194.5H489.804V210.232H505.555V194.5Z" fill="#6C63FF"/>
<path opacity="0.1" d="M445.426 233.306H429.675V249.038H445.426V233.306Z" fill="#6C63FF"/>
<path opacity="0.1" d="M505.555 233.306H489.804V249.038H505.555V233.306Z" fill="#6C63FF"/>
<path opacity="0.1" d="M445.426 272.106H429.675V287.839H445.426V272.106Z" fill="#6C63FF"/>
<path opacity="0.1" d="M505.555 272.106H489.804V287.839H505.555V272.106Z" fill="#6C63FF"/>
<path opacity="0.1" d="M445.426 310.912H429.675V326.645H445.426V310.912Z" fill="#6C63FF"/>
<path opacity="0.1" d="M505.555 310.912H489.804V326.645H505.555V310.912Z" fill="#6C63FF"/>
<path opacity="0.1" d="M445.426 349.718H429.675V365.451H445.426V349.718Z" fill="#6C63FF"/>
<path opacity="0.1" d="M505.555 349.718H489.804V365.451H505.555V349.718Z" fill="#6C63FF"/>
<path opacity="0.1" d="M429.675 398.664V388.518H445.42V397.22L429.675 398.664Z" fill="#6C63FF"/>
<path opacity="0.1" d="M9.96886 165.054V174.054H63.8728V165.054H9.96886ZM15.341 173.49H10.9436V165.607H15.3742L15.341 173.49ZM20.7076 173.49H16.2769V165.607H20.7076V173.49ZM26.0631 173.49H21.6324V165.607H26.0631V173.49ZM31.4296 173.49H27.0046V165.607H31.4352L31.4296 173.49ZM36.7907 173.49H32.3601V165.607H36.7907V173.49ZM42.1572 173.49H37.7266V165.607H42.1572V173.49ZM47.5238 173.49H43.0932V165.607H47.5238V173.49ZM52.8848 173.49H48.4542V165.607H52.8848V173.49ZM58.2459 173.49H53.8153V165.607H58.2459V173.49ZM63.6069 173.49H59.1763V165.607H63.6069V173.49Z" fill="#6C63FF"/>
<path opacity="0.1" d="M9.96886 191.242V200.242H63.8728V191.242H9.96886ZM15.341 199.672H10.9436V191.811H15.3742L15.341 199.672ZM20.7076 199.672H16.2769V191.811H20.7076V199.672ZM26.0631 199.672H21.6324V191.811H26.0631V199.672ZM31.4296 199.672H27.0046V191.811H31.4352L31.4296 199.672ZM36.7907 199.672H32.3601V191.811H36.7907V199.672ZM42.1572 199.672H37.7266V191.811H42.1572V199.672ZM47.5238 199.672H43.0932V191.811H47.5238V199.672ZM52.8848 199.672H48.4542V191.811H52.8848V199.672ZM58.2459 199.672H53.8153V191.811H58.2459V199.672ZM63.6069 199.672H59.1763V191.811H63.6069V199.672Z" fill="#6C63FF"/>
<path opacity="0.1" d="M9.96886 217.44V226.457H63.8728V217.44H9.96886ZM15.341 225.871H10.9436V218.005H15.3742L15.341 225.871ZM20.7076 225.871H16.2769V218.005H20.7076V225.871ZM26.0631 225.871H21.6324V218.005H26.0631V225.871ZM31.4296 225.871H27.0046V218.005H31.4352L31.4296 225.871ZM36.7907 225.871H32.3601V218.005H36.7907V225.871ZM42.1572 225.871H37.7266V218.005H42.1572V225.871ZM47.5238 225.871H43.0932V218.005H47.5238V225.871ZM52.8848 225.871H48.4542V218.005H52.8848V225.871ZM58.2459 225.871H53.8153V218.005H58.2459V225.871ZM63.6069 225.871H59.1763V218.005H63.6069V225.871Z" fill="#6C63FF"/>
<path opacity="0.1" d="M9.96886 243.639V252.629H63.8728V243.639H9.96886ZM15.341 252.07H10.9436V244.198H15.3742L15.341 252.07ZM20.7076 252.07H16.2769V244.198H20.7076V252.07ZM26.0631 252.07H21.6324V244.198H26.0631V252.07ZM31.4296 252.07H27.0046V244.198H31.4352L31.4296 252.07ZM36.7907 252.07H32.3601V244.198H36.7907V252.07ZM42.1572 252.07H37.7266V244.198H42.1572V252.07ZM47.5238 252.07H43.0932V244.198H47.5238V252.07ZM52.8848 252.07H48.4542V244.198H52.8848V252.07ZM58.2459 252.07H53.8153V244.198H58.2459V252.07ZM63.6069 252.07H59.1763V244.198H63.6069V252.07Z" fill="#6C63FF"/>
<path opacity="0.1" d="M10.2015 269.832C10.4175 270.679 10.6611 271.525 10.9159 272.361V270.397H15.3465V278.263H12.9761C13.0481 278.446 13.1201 278.645 13.1921 278.816H63.8728V269.832H10.2015ZM20.7242 278.263H16.2936V270.397H20.7242V278.263ZM26.0797 278.263H21.6491V270.397H26.0797V278.263ZM31.4462 278.263H27.0046V270.397H31.4352L31.4462 278.263ZM36.8073 278.263H32.3767V270.397H36.8073V278.263ZM42.1738 278.263H37.7432V270.397H42.1738V278.263ZM47.5404 278.263H43.1098V270.397H47.5404V278.263ZM52.9015 278.263H48.4708V270.397H52.9015V278.263ZM58.2625 278.263H53.8319V270.397H58.2625V278.263ZM63.6235 278.263H59.1929V270.397H63.6235V278.263Z" fill="#6C63FF"/>
<path opacity="0.1" d="M22.7179 296.031C22.8564 296.208 22.9893 296.408 23.1333 296.585H26.0631V300.363C26.3787 300.739 26.6889 301.115 27.0101 301.469V296.562H31.4407V304.456H29.6463C29.8235 304.639 29.9952 304.833 30.2001 305.01H63.8894V296.031H22.7179ZM36.7907 304.456H32.3601V296.596H36.7907V304.456ZM42.1572 304.456H37.7266V296.596H42.1572V304.456ZM47.5238 304.456H43.0932V296.596H47.5238V304.456ZM52.8848 304.456H48.4542V296.596H52.8848V304.456ZM58.2459 304.456H53.8153V296.596H58.2459V304.456ZM63.6069 304.456H59.1763V296.596H63.6069V304.456Z" fill="#6C63FF"/>
<path opacity="0.1" d="M52.2867 322.225C52.7907 322.512 53.3058 322.778 53.8264 323.066V322.789H58.257V325.278L59.1985 325.715V322.789H63.6291V327.574C63.714 327.616 63.8031 327.65 63.8949 327.674V322.225H52.2867Z" fill="#6C63FF"/>
<path opacity="0.1" d="M417.851 184.72H417.884H417.851ZM383.735 347.987H384.289H383.735ZM348.141 264.915C348.246 265.269 348.335 265.623 348.434 265.971C348.346 265.623 348.251 265.269 348.141 264.915ZM417.851 184.703H417.884H417.851ZM83.3397 101.869V104.231H108.079V101.869H83.3397ZM383.735 347.987H384.289H383.735ZM348.141 264.915C348.246 265.269 348.335 265.623 348.434 265.971C348.346 265.623 348.251 265.269 348.141 264.915ZM417.851 184.703H417.884H417.851ZM383.735 347.97H384.289H383.735ZM348.141 264.915C348.246 265.269 348.335 265.623 348.434 265.971C348.346 265.623 348.251 265.269 348.141 264.915Z" fill="#6C63FF"/>
<path d="M255.646 210.028C255.646 210.028 253.464 209.723 253.464 206.548C253.464 203.373 251.902 197.443 251.902 197.443C251.902 197.415 250.551 187.115 248.685 185.477C246.818 183.84 244.42 174.226 244.42 174.226C244.42 174.226 244.01 169.009 243.174 167.886C242.338 166.763 241.208 164.014 239.541 160.092C237.874 156.17 230.923 153.453 230.923 153.453C230.923 153.453 218.357 146.174 214.796 143.8C214.472 143.605 214.17 143.377 213.893 143.12C213.273 142.307 210.57 142.29 210.57 142.29C210.288 140.509 210.016 138.462 209.928 136.609C209.928 136.41 209.928 136.211 209.9 136.012C213.871 133.667 216.862 129.971 218.324 125.601C218.39 125.39 218.446 125.169 218.507 124.959C218.744 124.881 218.963 124.754 219.149 124.586C219.335 124.418 219.484 124.214 219.587 123.985C219.908 123.272 219.913 122.436 220.312 121.773C220.777 120.987 221.663 120.567 222.361 119.975C224.122 118.481 224.576 115.964 224.493 113.674C224.438 111.821 224.139 109.951 224.255 108.109L224.288 107.644C224.322 107.368 224.36 107.091 224.41 106.826C224.682 105.454 225.274 104.159 225.607 102.798C225.939 101.438 225.972 99.9052 225.197 98.7324C224.061 97.012 221.697 96.669 219.62 96.492C217.266 96.2929 215.161 96.5529 213.655 94.6001C212.95 93.5795 212.157 92.6225 211.285 91.7402C210.975 91.4525 207.962 89.6159 207.962 89.4942C205.021 88.1339 201.688 87.8786 198.574 88.7751C197.013 89.2287 195.539 89.97 193.955 90.3406C190.538 91.1483 186.606 90.2742 183.704 92.227C182.087 93.3333 181.118 95.0925 180.209 96.8073C179.471 98.2198 178.722 99.6304 177.961 101.039C176.737 103.357 175.491 105.714 174.976 108.28C174.868 108.839 174.801 109.405 174.776 109.973V110.001C174.776 110.205 174.776 110.41 174.776 110.615V110.875C174.776 111.068 174.776 111.257 174.81 111.428C174.843 111.6 174.837 111.655 174.854 111.771C174.871 111.887 174.898 112.147 174.932 112.324C174.965 112.501 175.031 112.811 175.098 113.054C175.125 113.159 175.164 113.259 175.197 113.359C175.253 113.547 175.319 113.729 175.391 113.912C175.43 114.006 175.469 114.105 175.513 114.199C175.596 114.393 175.696 114.581 175.795 114.753C175.84 114.83 175.873 114.902 175.917 114.974C176.072 115.231 176.242 115.479 176.427 115.715C177.612 117.192 179.357 118.133 180.647 119.516C180.647 119.571 180.647 119.626 180.647 119.676C180.647 119.831 180.647 119.98 180.647 120.135C180.715 123.219 181.537 126.24 183.041 128.935C184.545 131.63 186.685 133.917 189.276 135.597C189.276 135.807 189.303 136.023 189.314 136.233C189.422 137.875 189.402 139.523 189.253 141.162C189.028 140.896 188.746 140.685 188.427 140.543C188.109 140.402 187.763 140.333 187.415 140.343C187.177 140.331 186.938 140.352 186.706 140.404L186.656 140.365V140.415C185.438 140.714 183.937 141.98 182.502 145.582C182.502 145.582 178.138 150.494 174.815 150.289C171.492 150.085 163.08 155.401 163.08 155.401C163.08 155.401 154.872 160.722 153.111 166.144C152.126 169.218 150.946 172.226 149.577 175.149L139.431 196.032L137.559 212.6C137.559 212.6 138.595 219.968 138.39 221.091C138.185 222.214 142.649 232.343 142.649 232.343C142.649 232.343 157.397 258.227 163.423 259.554L163.855 259.25C164.113 259.385 164.386 259.487 164.669 259.554L165.91 258.68C165.984 259.654 165.953 260.634 165.816 261.601C164.985 264.157 166.126 280.835 167.577 284.105C169.028 287.374 168.513 330.24 168.513 330.24L168.308 334.024C168.308 334.024 168.308 334.146 168.358 334.356L168.308 335.252L168.457 335.33C168.613 336.53 168.562 337.748 168.308 338.931C167.787 340.59 167.577 345.281 167.577 345.281C167.577 345.281 163.429 371.768 165.395 377.09C167.361 382.411 169.033 388.242 169.033 388.242C169.033 388.242 171.11 394.88 169.133 396.014C167.156 397.148 161.534 399.051 162.692 401.817C163.744 404.373 167.737 411.221 168.33 412.222L168.28 412.748L167.466 421.56C167.598 422.724 167.914 423.859 168.402 424.923C169.294 426.843 171.027 428.834 174.322 428.619C174.876 428.58 175.519 428.514 176.139 428.431C182.17 427.623 189.597 424.934 189.597 424.934C189.211 424.69 188.858 424.398 188.545 424.066C188.248 423.779 188.013 423.435 187.854 423.055C187.695 422.674 187.615 422.265 187.62 421.853C187.708 420.249 184.701 412.604 183.953 410.723C183.837 410.452 183.776 410.297 183.776 410.297C183.776 410.297 190.632 403.139 189.492 396.794C189.492 396.794 181.904 392.368 184.402 389.94C186.9 387.512 191.364 380.536 191.364 380.536C191.364 380.536 191.568 354.453 191.364 350.559C191.15 347.856 191.278 345.137 191.746 342.466C191.829 342.062 191.928 341.669 192.034 341.282C195.488 341.797 198.975 342.061 202.468 342.073C203.742 342.073 205.038 342.073 206.345 341.995C206.345 342.364 206.361 342.763 206.394 343.19C206.682 349.652 207.22 360.981 207.657 365.19C208.277 371.226 211.706 387.489 211.706 387.489C211.706 387.489 205.165 391.683 212.846 402.016C212.846 402.016 212.846 405.761 212.337 406.303C211.793 408.075 211.355 409.878 211.024 411.702C210.703 413.65 210.57 415.619 211.091 416.642C212.337 419.087 219.814 418.888 219.814 418.888L219.996 418.855C221.408 418.709 222.834 418.845 224.193 419.254C225.551 419.664 226.815 420.338 227.911 421.239C230.752 423.518 241.535 422.517 247.372 421.792C249.659 421.505 251.188 421.239 251.188 421.239C251.262 420.981 251.288 420.711 251.265 420.443C251.204 419.01 250.08 415.868 242.46 413.063C242.46 413.063 235.293 408.25 235.393 404.057H235.243H234.412C235.016 404.024 235.404 404.057 235.404 404.057C235.404 404.057 232.596 393.823 233.742 392.994C234.889 392.164 231.455 380.824 231.455 380.824C231.455 380.824 229.489 361.794 229.384 360.461C229.388 359.317 229.562 358.18 229.899 357.086L229.384 346.653C229.384 346.653 229.284 343.185 229.384 342.056C229.367 341.077 229.287 340.099 229.146 339.13C229.096 338.743 229.046 338.339 228.99 337.941C231.677 337.26 233.421 336.63 233.421 336.63L233.111 300.313C235.393 295.888 235.814 286.179 235.803 279.292C235.803 274.866 235.603 271.592 235.603 271.592L238.721 266.508C238.721 266.508 239.441 260.423 238.3 259.09C237.796 258.487 238.023 257.862 238.439 257.347C238.654 257.176 238.882 257.021 239.12 256.882C239.12 256.882 239.087 256.833 239.048 256.761C239.266 256.579 239.497 256.414 239.74 256.268C239.74 256.268 238.633 254.554 239.624 253.829C240.554 254.459 241.385 254.935 242.016 255.322C241.972 255.726 241.928 255.959 241.928 255.959L242.194 255.405C242.803 255.748 243.174 255.959 243.174 255.959C243.174 255.959 248.059 246.239 247.953 244.806C247.848 243.374 251.276 237.338 251.276 237.338C251.276 237.338 251.692 234.169 253.564 232.841C255.436 231.513 255.015 221.894 255.015 221.894C255.015 221.894 255.535 216.882 256.781 214.835C258.028 212.788 255.646 210.028 255.646 210.028ZM162.182 205.763L162.277 208.08C161.723 207.19 161.324 206.548 161.324 206.548L162.182 205.763Z" fill="url(#paint0_linear)"/>
<path d="M243.44 251.76L242.244 256.849C242.244 256.849 232.662 251.965 230.934 245.758C229.206 239.551 233.825 237.195 233.825 237.195L242.753 240.973L243.44 251.76Z" fill="white"/>
<path opacity="0.1" d="M243.44 251.76L242.244 256.849C242.244 256.849 232.662 251.965 230.934 245.758C229.206 239.551 233.825 237.195 233.825 237.195L242.753 240.973L243.44 251.76Z" fill="black"/>
<path d="M189.669 424.968C189.669 424.968 180.808 428.22 174.716 428.63C171.481 428.846 169.781 426.865 168.906 424.957C168.428 423.896 168.119 422.766 167.992 421.61L168.784 412.842L169.205 408.173L182.148 404.815L183.981 410.413L184.153 410.839C184.889 412.709 187.841 420.315 187.753 421.903C187.749 422.31 187.828 422.713 187.984 423.088C188.14 423.464 188.37 423.804 188.661 424.088C188.958 424.423 189.297 424.719 189.669 424.968Z" fill="white"/>
<path d="M250.196 420.509C250.219 420.775 250.192 421.043 250.119 421.3C250.119 421.3 231.167 424.459 227.29 421.3C226.197 420.377 224.923 419.693 223.55 419.291C222.176 418.889 220.734 418.778 219.315 418.966C219.315 418.966 211.982 419.165 210.759 416.753C210.249 415.741 210.382 413.777 210.698 411.841C211.02 410.026 211.449 408.233 211.982 406.469L212.276 406.237L214.021 404.837L234.446 404.234H234.601C234.501 408.405 241.535 413.19 241.535 413.19C249.006 415.956 250.108 419.082 250.196 420.509Z" fill="white"/>
<path opacity="0.1" d="M250.196 420.509C250.216 420.776 250.188 421.044 250.113 421.3C250.113 421.3 231.167 424.459 227.29 421.3C226.198 420.378 224.925 419.694 223.552 419.292C222.18 418.89 220.739 418.779 219.321 418.966C219.321 418.966 211.982 419.165 210.764 416.753C210.255 415.735 210.382 413.777 210.698 411.841C213.522 412.123 217.98 412.825 219.73 414.502C222.378 417.052 226.864 419.596 229.616 419.796C231.771 419.934 244.658 420.343 250.196 420.509Z" fill="black"/>
<path opacity="0.1" d="M189.669 424.968C189.669 424.968 180.808 428.22 174.716 428.63C171.481 428.846 169.781 426.865 168.911 424.951C171.166 425.709 174.295 426.506 175.939 425.775C177.889 424.912 184.801 424.354 188.677 424.116C188.973 424.438 189.305 424.725 189.669 424.968Z" fill="black"/>
<path d="M202.817 162.841C195.506 160.003 186.102 150.627 188.45 146.245C188.972 145.14 189.282 143.947 189.364 142.727C189.515 141.072 189.537 139.407 189.431 137.749C189.266 135.032 188.939 132.327 188.45 129.65C188.45 129.65 211.274 130.164 209.944 133.522C209.557 134.507 209.496 136.216 209.601 138.13C209.706 140.044 209.983 142.207 210.271 144.038C210.67 146.55 211.069 148.464 211.069 148.464C211.069 148.464 209.673 150.416 208.853 150.522C208.034 150.627 213.306 166.885 202.817 162.841Z" fill="#CF6F80"/>
<path opacity="0.1" d="M184.136 410.839L183.964 411.027C177.141 402.785 168.889 413.058 168.889 413.058L168.767 412.842L169.188 408.173L182.131 404.815L183.964 410.413L184.136 410.839Z" fill="black"/>
<path opacity="0.1" d="M234.606 404.815C234.606 404.815 229.622 404.71 226.963 407.056C224.305 409.401 211.456 407.565 212.01 407.056C212.174 406.803 212.273 406.515 212.298 406.215L214.043 404.815L234.468 404.212C234.545 404.583 234.606 404.815 234.606 404.815Z" fill="black"/>
<path d="M192.626 340.087C192.255 341.004 191.973 341.954 191.784 342.925C191.323 345.583 191.194 348.289 191.402 350.979C191.607 354.852 191.402 380.801 191.402 380.801C191.402 380.801 187.022 387.722 184.579 390.161C182.137 392.601 189.564 396.982 189.564 396.982C190.671 403.288 183.959 410.413 183.959 410.413C177.136 402.171 168.884 412.449 168.884 412.449C168.884 412.449 164.398 404.705 163.279 401.939C162.16 399.173 167.66 397.259 169.593 396.136C171.526 395.013 169.499 388.391 169.499 388.391C169.499 388.391 167.865 382.588 165.926 377.294C163.988 372 168.064 345.647 168.064 345.647C168.064 345.647 168.275 340.967 168.779 339.335C169.033 338.157 169.083 336.945 168.928 335.75C168.895 335.346 168.856 335.009 168.828 334.782C168.801 334.555 168.779 334.45 168.779 334.45L168.856 334.317L171.625 329.162C171.625 329.162 193.955 336.84 192.626 340.087Z" fill="#F2994A"/>
<path d="M234.606 404.207C234.606 404.207 229.622 404.102 226.963 406.419C224.305 408.737 211.456 406.928 212.01 406.419C212.564 405.91 212.52 402.143 212.52 402.143C204.982 391.865 211.412 387.694 211.412 387.694C211.412 387.694 208.045 371.513 207.436 365.511C207.009 361.318 206.483 350.05 206.201 343.616C206.079 340.85 206.007 338.947 206.007 338.947L212.165 337.708L212.957 337.548L227.811 334.572C227.811 334.572 228.221 337.338 228.498 339.6C228.636 340.566 228.713 341.54 228.73 342.515C228.63 343.622 228.73 347.085 228.73 347.085L229.234 357.468C228.905 358.557 228.735 359.688 228.73 360.826C228.83 362.148 230.763 381.078 230.763 381.078C230.763 381.078 234.124 392.374 232.978 393.187C231.832 394 234.606 404.207 234.606 404.207Z" fill="#F2994A"/>
<path opacity="0.1" d="M209.944 133.522C209.557 134.507 209.496 136.216 209.601 138.13C206.544 139.969 203.03 140.909 199.462 140.843C195.894 140.776 192.417 139.706 189.431 137.754C189.266 135.036 188.939 132.329 188.45 129.65C188.45 129.65 211.274 130.153 209.944 133.522Z" fill="black"/>
<path d="M218.767 121.297C218.771 123.29 218.457 125.272 217.836 127.166C216.449 131.411 213.604 135.029 209.803 137.382C206.003 139.734 201.493 140.669 197.07 140.02C192.647 139.372 188.595 137.183 185.631 133.84C182.668 130.497 180.983 126.215 180.874 121.75C180.874 121.596 180.874 121.452 180.874 121.297C180.831 118.784 181.289 116.288 182.222 113.954C183.155 111.62 184.544 109.495 186.308 107.703C188.072 105.91 190.175 104.487 192.496 103.515C194.816 102.544 197.307 102.043 199.823 102.043C202.339 102.043 204.83 102.544 207.151 103.515C209.471 104.487 211.574 105.91 213.338 107.703C215.102 109.495 216.491 111.62 217.424 113.954C218.357 116.288 218.815 118.784 218.772 121.297H218.767Z" fill="#CF6F80"/>
<path opacity="0.1" d="M202.817 162.841C195.506 160.003 186.102 150.627 188.45 146.246C188.972 145.14 189.282 143.947 189.364 142.727L199.372 150.942L205.564 156.015L210.271 144.044C210.67 146.555 211.069 148.469 211.069 148.469C211.069 148.469 209.673 150.422 208.853 150.527C208.034 150.632 213.306 166.885 202.817 162.841Z" fill="black"/>
<path d="M228.697 199.147L220.34 339.379L209.44 340.093L181.217 258.78L185.847 162.244L186.822 141.848L199.372 152.142L205.569 157.215L210.415 144.896L219.426 152.74L228.697 199.147Z" fill="#F2994A"/>
<path opacity="0.1" d="M192.626 340.087C192.255 341.004 191.973 341.954 191.784 342.925C183.854 341.702 176.151 339.298 168.934 335.794L168.784 335.717L168.834 334.826L168.862 334.362L171.631 329.206C171.631 329.206 193.955 336.84 192.626 340.087Z" fill="black"/>
<path opacity="0.1" d="M212.293 342.947C210.265 343.291 208.22 343.524 206.167 343.644C206.045 340.878 205.973 338.975 205.973 338.975L212.132 337.736L212.293 342.947Z" fill="black"/>
<path opacity="0.1" d="M228.464 339.628C224.527 340.651 218.446 341.802 213.002 341.083L212.924 337.576L227.778 334.599C227.778 334.599 228.187 337.338 228.464 339.628Z" fill="black"/>
<path opacity="0.1" d="M212.902 341.724C190.195 345.597 169.399 334.494 169.399 334.494L169.598 330.733C169.598 330.733 170.113 288.088 168.684 284.818C167.255 281.549 166.142 264.97 166.951 262.425C167.759 259.881 163.999 221.722 163.999 221.722L163.39 206.233L141.093 197.21L151.062 176.455C152.408 173.545 153.566 170.552 154.529 167.493C156.262 162.105 164.309 156.811 164.309 156.811C164.309 156.811 172.561 151.523 175.823 151.722C179.085 151.921 183.361 147.042 183.361 147.042C186.518 139.004 189.375 142.644 189.375 142.644C189.375 143.026 189.375 142.644 189.22 143.834C188.113 152.657 207.131 180.537 207.402 181.03L209.213 225.096L211.047 280.863L212.902 341.724Z" fill="black"/>
<path d="M212.293 341.725C189.586 345.597 168.784 334.494 168.784 334.494L168.989 330.733C168.989 330.733 169.504 288.088 168.07 284.818C166.635 281.549 165.528 264.97 166.342 262.425C167.156 259.881 163.39 221.722 163.39 221.722L162.775 206.233L140.467 197.177L150.436 176.422C151.779 173.511 152.937 170.517 153.903 167.46C155.631 162.072 163.683 156.778 163.683 156.778C163.683 156.778 171.935 151.49 175.192 151.689C178.448 151.888 182.729 147.009 182.729 147.009C185.892 138.971 189.375 142.611 189.375 142.611C189.375 142.993 189.043 143.164 189.22 143.8C191.657 152.358 206.522 180.504 206.793 180.997L208.626 225.063L210.459 280.83L212.293 341.725Z" fill="white"/>
<path opacity="0.1" d="M206.173 182.252C203.731 181.234 190.793 166.481 190.793 166.481V163.123C190.322 162.017 187.526 162.692 185.255 163.466L186.23 143.07L187.337 143.988C189.763 152.541 205.89 181.76 206.173 182.252Z" fill="black"/>
<path d="M206.788 181.03C204.34 180.012 191.402 165.259 191.402 165.259V161.901C190.932 160.794 188.135 161.469 185.864 162.244L186.844 141.848L187.952 142.766C190.383 151.318 206.516 180.543 206.788 181.03Z" fill="white"/>
<path opacity="0.1" d="M169.399 254.609C169.703 254.609 185.188 252.983 185.188 252.983C185.188 252.983 194.565 271.398 193.95 275.879C193.335 280.36 192.222 284.326 188.45 283.623C184.679 282.921 168.153 284.177 168.153 284.177L169.399 254.609Z" fill="black"/>
<path d="M168.784 253.386C169.089 253.386 184.574 251.76 184.574 251.76C184.574 251.76 193.944 270.181 193.335 274.656C192.726 279.132 191.602 283.104 187.836 282.401C184.07 281.698 167.538 282.954 167.538 282.954L168.784 253.386Z" fill="white"/>
<path d="M180.453 244.74C180.453 244.74 194.664 252.369 194.969 254.697C195.274 257.026 187.736 253.68 186.108 253.276C185.036 253.018 183.945 252.848 182.846 252.767L171.985 253.06L180.453 244.74Z" fill="#CF6F80"/>
<path opacity="0.1" d="M202.207 183.204C203.033 183.204 203.703 182.535 203.703 181.71C203.703 180.885 203.033 180.217 202.207 180.217C201.382 180.217 200.712 180.885 200.712 181.71C200.712 182.535 201.382 183.204 202.207 183.204Z" fill="black"/>
<path d="M202.207 182.595C203.033 182.595 203.703 181.927 203.703 181.102C203.703 180.277 203.033 179.608 202.207 179.608C201.382 179.608 200.712 180.277 200.712 181.102C200.712 181.927 201.382 182.595 202.207 182.595Z" fill="#3F3D56"/>
<path opacity="0.1" d="M204.96 247.86C205.786 247.86 206.455 247.191 206.455 246.366C206.455 245.542 205.786 244.873 204.96 244.873C204.134 244.873 203.465 245.542 203.465 246.366C203.465 247.191 204.134 247.86 204.96 247.86Z" fill="black"/>
<path d="M204.96 247.246C205.786 247.246 206.455 246.577 206.455 245.752C206.455 244.928 205.786 244.259 204.96 244.259C204.134 244.259 203.465 244.928 203.465 245.752C203.465 246.577 204.134 247.246 204.96 247.246Z" fill="#3F3D56"/>
<path opacity="0.1" d="M203.697 215.532C204.523 215.532 205.193 214.863 205.193 214.038C205.193 213.213 204.523 212.545 203.697 212.545C202.871 212.545 202.202 213.213 202.202 214.038C202.202 214.863 202.871 215.532 203.697 215.532Z" fill="black"/>
<path d="M203.697 214.923C204.523 214.923 205.193 214.255 205.193 213.43C205.193 212.605 204.523 211.936 203.697 211.936C202.871 211.936 202.202 212.605 202.202 213.43C202.202 214.255 202.871 214.923 203.697 214.923Z" fill="#3F3D56"/>
<path d="M238.167 252.457C238.167 252.457 239.186 253.984 238.167 254.697C237.148 255.411 238.267 257.137 238.267 257.137C238.267 257.137 235.725 258.625 236.844 259.964C237.962 261.302 237.254 267.349 237.254 267.349L234.196 272.405C234.196 272.405 234.379 275.663 234.39 280.066C234.39 286.937 233.986 296.596 231.749 300.999L232.059 337.128C232.059 337.128 221.353 341.033 212.392 339.844L211.063 281.87C211.063 281.87 213.002 248.994 213.716 242.688C214.134 239.414 214.304 236.113 214.225 232.813C214.225 232.813 213.921 222.945 212.896 218.364C212.896 218.364 211.789 198.521 211.678 193.028C211.628 190.401 211.767 182.734 211.922 175.443C212.093 167.471 212.287 159.953 212.287 159.953L210.266 143.977C210.266 143.977 212.287 143.773 212.896 144.586C213.169 144.841 213.466 145.068 213.782 145.266C217.272 147.623 229.6 154.87 229.6 154.87C229.6 154.87 236.423 157.58 238.057 161.464C239.69 165.347 240.826 168.102 241.618 169.208C242.41 170.315 242.842 175.514 242.842 175.514C242.842 175.514 245.19 185.085 247.023 186.705C248.856 188.326 250.196 198.638 250.196 198.638L233.997 211.361C233.997 211.361 232.574 232.526 232.269 233.344C231.965 234.163 238.167 252.457 238.167 252.457Z" fill="white"/>
<path d="M238.782 252.457C238.782 252.457 239.796 253.984 238.782 254.697C237.769 255.411 238.876 257.137 238.876 257.137C238.876 257.137 236.351 258.642 237.458 259.98C238.566 261.319 237.868 267.365 237.868 267.365L234.811 272.421C234.811 272.421 234.994 275.68 235.011 280.083C235.011 286.954 234.606 296.612 232.369 301.016L232.673 337.144C232.673 337.144 221.951 341.05 213.002 339.86L211.678 281.886C211.678 281.886 213.616 249.011 214.331 242.704C214.749 239.43 214.918 236.129 214.835 232.83C214.835 232.83 214.53 222.961 213.511 218.381C213.511 218.381 212.403 198.538 212.287 193.045C212.237 190.417 212.381 182.75 212.531 175.459C212.702 167.488 212.896 159.97 212.896 159.97L210.227 143.778C210.227 143.778 212.896 143.778 213.511 144.603C213.781 144.86 214.078 145.088 214.397 145.283C217.886 147.64 230.22 154.886 230.22 154.886C230.22 154.886 237.038 157.597 238.671 161.48C240.305 165.364 241.44 168.118 242.238 169.225C243.036 170.331 243.456 175.531 243.456 175.531C243.456 175.531 245.805 185.101 247.638 186.722C249.471 188.343 250.795 198.632 250.795 198.632L234.595 211.355C234.595 211.355 233.172 232.52 232.862 233.339C232.552 234.158 238.782 252.457 238.782 252.457Z" fill="white"/>
<path opacity="0.1" d="M219.382 164.667L220.844 168.926L213.146 176.671C213.317 168.705 213.511 161.182 213.511 161.182L210.842 144.99C210.842 144.99 213.511 144.99 214.126 145.814C214.395 146.071 214.693 146.297 215.012 146.489L221.558 165.353L219.382 164.667Z" fill="black"/>
<path d="M218.767 163.444L220.234 167.704L212.536 175.448C212.708 167.477 212.902 159.959 212.902 159.959L210.227 143.767C210.227 143.767 212.902 143.767 213.511 144.591C213.783 144.848 214.08 145.075 214.397 145.272L220.949 164.13L218.767 163.444Z" fill="white"/>
<path opacity="0.1" d="M218.767 121.297C218.771 123.29 218.457 125.272 217.836 127.166C217.732 127.182 217.625 127.178 217.522 127.152C217.419 127.126 217.323 127.08 217.238 127.017C217.094 122.038 214.641 117.364 211.622 113.386C210.775 112.185 209.748 111.122 208.576 110.233C207.392 109.345 205.919 108.929 204.445 109.066C202.783 109.293 201.316 110.421 199.638 110.565C197.422 110.748 195.44 109.215 193.241 109.138C192.347 109.146 191.465 109.345 190.655 109.721C189.844 110.097 189.123 110.641 188.539 111.317C187.384 112.682 186.526 114.272 186.019 115.986C185.148 118.585 184.674 121.301 184.612 124.041C184.585 125.59 184.435 127.531 182.995 128.095C183.104 126.956 182.974 125.807 182.615 124.721C182.255 123.634 181.674 122.634 180.907 121.784L180.874 121.75C180.874 121.596 180.874 121.452 180.874 121.297C180.831 118.784 181.289 116.288 182.222 113.954C183.155 111.62 184.544 109.495 186.308 107.703C188.072 105.91 190.175 104.487 192.496 103.515C194.816 102.544 197.307 102.043 199.823 102.043C202.339 102.043 204.83 102.544 207.151 103.515C209.471 104.487 211.574 105.91 213.338 107.703C215.102 109.495 216.491 111.62 217.424 113.954C218.357 116.288 218.815 118.784 218.772 121.297H218.767Z" fill="black"/>
<path d="M207.668 91.2423C204.79 89.8901 201.517 89.6344 198.464 90.5232C196.929 90.9768 195.484 91.7125 193.928 92.0832C190.605 92.8853 186.728 92.0168 183.876 93.9584C182.292 95.0648 181.339 96.8129 180.453 98.5112L178.238 102.726C177.031 105.033 175.812 107.379 175.308 109.918C174.804 112.457 175.109 115.3 176.72 117.342C177.894 118.83 179.628 119.765 180.902 121.164C181.665 122.015 182.244 123.015 182.602 124.1C182.96 125.185 183.09 126.333 182.984 127.47C184.43 126.917 184.568 124.97 184.601 123.421C184.663 120.681 185.137 117.966 186.008 115.367C186.514 113.652 187.372 112.062 188.528 110.698C189.112 110.022 189.833 109.478 190.644 109.102C191.455 108.727 192.336 108.527 193.23 108.518C195.445 108.596 197.433 110.123 199.627 109.94C201.288 109.802 202.761 108.668 204.434 108.446C205.909 108.307 207.382 108.723 208.565 109.614C209.736 110.501 210.762 111.565 211.606 112.767C214.63 116.744 217.083 121.407 217.227 126.397C217.853 126.856 218.756 126.259 219.066 125.551C219.376 124.843 219.387 124.013 219.78 123.338C220.234 122.558 221.104 122.143 221.785 121.557C223.513 120.069 223.945 117.563 223.879 115.289C223.812 113.016 223.369 110.709 223.801 108.474C224.061 107.102 224.648 105.819 224.97 104.463C225.291 103.108 225.33 101.587 224.571 100.42C223.463 98.7048 221.132 98.3673 219.099 98.2069C216.79 98.0078 214.724 98.2622 213.251 96.3206C212.559 95.3073 211.781 94.3559 210.925 93.4772C210.631 93.1895 207.668 91.364 207.668 91.2423Z" fill="#512E4E"/>
<path opacity="0.1" d="M147.473 207.898L141.685 197.21L139.852 213.701C139.852 213.701 140.871 221.025 140.666 222.148C140.461 223.271 144.842 233.339 144.842 233.339C144.842 233.339 159.314 259.084 165.223 260.412L185.188 246.162L179.894 239.446C179.894 239.446 178.061 238.733 177.601 239.446C177.601 239.446 167.771 222.552 166.751 221.329C165.732 220.107 165.932 217.667 165.932 217.667C165.932 217.667 164.403 216.041 164.913 214.514C165.422 212.987 161.961 207.693 161.961 207.693L165.118 204.745L147.473 207.898Z" fill="black"/>
<path d="M141.99 195.993L140.461 197.21L138.628 213.701C138.628 213.701 139.647 221.025 139.442 222.148C139.237 223.271 143.624 233.339 143.624 233.339C143.624 233.339 158.09 259.084 163.999 260.412L183.97 246.162L178.67 239.446C178.67 239.446 176.837 238.732 176.377 239.446C176.377 239.446 166.547 222.552 165.528 221.329C164.509 220.107 164.713 217.667 164.713 217.667C164.713 217.667 163.185 216.041 163.694 214.514C164.204 212.987 160.737 207.693 160.737 207.693L163.894 204.745L141.99 195.993Z" fill="white"/>
<path opacity="0.1" d="M236.844 260.594C237.951 261.939 237.254 267.974 237.254 267.974L234.196 273.03C234.196 273.03 234.379 276.294 234.39 280.692L229.251 282.296C228.786 282.441 228.294 282.473 227.815 282.389C227.335 282.305 226.883 282.108 226.495 281.814C226.108 281.52 225.796 281.137 225.587 280.699C225.377 280.26 225.276 279.778 225.291 279.292L226.177 250.742L238.167 255.322C237.148 256.031 238.267 257.768 238.267 257.768C238.267 257.768 235.725 259.25 236.844 260.594Z" fill="black"/>
<path d="M237.458 259.98C238.566 261.325 237.868 267.365 237.868 267.365L234.811 272.421C234.811 272.421 234.994 275.68 235.011 280.083L229.777 281.715C229.322 281.856 228.84 281.887 228.371 281.804C227.902 281.722 227.459 281.529 227.08 281.241C226.701 280.953 226.396 280.578 226.19 280.149C225.985 279.72 225.886 279.248 225.9 278.772L226.792 250.134L238.788 254.714C237.763 255.422 238.882 257.154 238.882 257.154C238.882 257.154 236.351 258.642 237.458 259.98Z" fill="white"/>
<path d="M241.429 246.372C241.429 246.372 240.615 251.566 238.577 251.871C236.539 252.175 235.625 260.273 233.593 259.986C231.56 259.698 232.906 252.457 232.978 251.052C233.05 249.647 230.763 243.827 232.474 242.505C234.185 241.183 239.602 242.505 239.602 242.505L241.429 246.372Z" fill="#CF6F80"/>
<path opacity="0.1" d="M245.766 206.371L249.609 198.627C249.609 198.627 251.138 204.529 251.138 207.682C251.138 210.835 253.276 211.145 253.276 211.145C253.276 211.145 255.618 213.911 254.383 215.925C253.148 217.938 252.65 222.95 252.65 222.95C252.65 222.95 253.054 232.515 251.221 233.837C249.388 235.159 249.006 238.318 249.006 238.318C249.006 238.318 245.639 244.32 245.744 245.747C245.849 247.174 241.058 256.838 241.058 256.838C241.058 256.838 243.401 244.829 229.749 239.64C229.749 239.64 229.644 235.563 230.663 234.445C231.682 233.328 233.272 232.819 232.275 227.171C231.278 221.523 231.987 214.774 231.987 213.419C231.987 212.063 235.044 203.611 235.044 203.611L245.766 206.371Z" fill="black"/>
<path d="M247.427 197.52L250.784 198.627C250.784 198.627 252.318 204.529 252.318 207.682C252.318 210.835 254.455 211.145 254.455 211.145C254.455 211.145 256.798 213.911 255.563 215.925C254.328 217.938 253.835 222.95 253.835 222.95C253.835 222.95 254.239 232.515 252.406 233.837C250.573 235.159 250.163 238.318 250.163 238.318C250.163 238.318 246.802 244.32 246.907 245.747C247.012 247.174 242.216 256.838 242.216 256.838C242.216 256.838 244.564 244.829 230.907 239.64C230.907 239.64 230.807 235.563 231.826 234.445C232.845 233.328 234.435 232.819 233.438 227.171C232.441 221.523 233.15 214.774 233.15 213.419C233.15 212.063 236.207 203.611 236.207 203.611L247.427 197.52Z" fill="white"/>
<path opacity="0.1" d="M173.298 398.254C173.298 398.254 178.648 394.897 182.159 397.336C185.67 399.776 173.298 398.254 173.298 398.254Z" fill="black"/>
<path opacity="0.1" d="M214.868 387.871C214.868 387.871 219.603 387.263 223.58 391.539C227.556 395.815 214.868 387.871 214.868 387.871Z" fill="black"/>
<g opacity="0.1">
<path opacity="0.1" d="M221.796 120.345C221.115 120.932 220.24 121.352 219.786 122.132C219.398 122.801 219.387 123.626 219.077 124.345C218.767 125.064 217.864 125.65 217.238 125.197C217.094 120.218 214.635 115.544 211.617 111.561C210.773 110.359 209.747 109.295 208.576 108.408C207.391 107.517 205.916 107.101 204.439 107.24C202.778 107.467 201.316 108.596 199.638 108.734C197.422 108.922 195.434 107.39 193.235 107.312C192.342 107.321 191.461 107.521 190.651 107.898C189.841 108.274 189.121 108.82 188.539 109.497C187.383 110.859 186.525 112.448 186.019 114.161C185.149 116.76 184.675 119.475 184.612 122.215C184.579 123.758 184.435 125.684 183.006 126.259C183.04 126.668 183.04 127.078 183.006 127.487C184.446 126.934 184.59 124.987 184.623 123.438C184.685 120.698 185.159 117.982 186.03 115.383C186.536 113.669 187.394 112.078 188.55 110.714C189.133 110.039 189.853 109.495 190.663 109.119C191.473 108.743 192.354 108.544 193.247 108.535C195.462 108.612 197.456 110.139 199.649 109.956C201.31 109.818 202.783 108.684 204.45 108.463C205.927 108.324 207.402 108.74 208.588 109.63C209.758 110.518 210.784 111.581 211.628 112.783C214.646 116.761 217.105 121.424 217.249 126.414C217.875 126.873 218.778 126.275 219.088 125.567C219.398 124.859 219.409 124.03 219.797 123.355C220.251 122.575 221.126 122.16 221.807 121.573C223.535 120.085 223.967 117.579 223.901 115.306C223.901 115.234 223.901 115.162 223.901 115.096C223.796 117.065 223.269 119.073 221.796 120.345Z" fill="black"/>
<path opacity="0.1" d="M180.913 119.953C179.639 118.553 177.9 117.618 176.731 116.136C175.747 114.823 175.185 113.243 175.12 111.605C174.946 113.652 175.518 115.694 176.731 117.353C177.9 118.841 179.639 119.776 180.913 121.175C182.136 122.544 182.87 124.279 183.001 126.11C183.086 124.996 182.944 123.876 182.586 122.818C182.227 121.76 181.658 120.786 180.913 119.953Z" fill="black"/>
<path opacity="0.1" d="M224.981 103.252C224.654 104.607 224.073 105.896 223.807 107.263C223.649 108.176 223.592 109.103 223.635 110.028C223.654 109.501 223.711 108.976 223.807 108.457C224.073 107.085 224.654 105.802 224.981 104.447C225.171 103.699 225.233 102.925 225.164 102.157C225.129 102.526 225.068 102.892 224.981 103.252Z" fill="black"/>
</g>
<path opacity="0.1" d="M73.5093 420.747C103.313 420.747 127.474 416.871 127.474 412.09C127.474 407.308 103.313 403.432 73.5093 403.432C43.7054 403.432 19.5445 407.308 19.5445 412.09C19.5445 416.871 43.7054 420.747 73.5093 420.747Z" fill="#6C63FF"/>
<path d="M75.2484 246.245H71.7759V324.338H75.2484V246.245Z" fill="#535461"/>
<path d="M97.0691 324.1L96.8531 327.618L96.543 332.597L96.4156 334.666L96.111 339.644L95.9781 341.713L95.6679 346.692L92.1678 403.156C92.0156 405.585 90.9424 407.865 89.1666 409.532C87.3907 411.199 85.0457 412.127 82.6087 412.128H64.41C61.9736 412.127 59.6292 411.199 57.8542 409.532C56.0793 407.865 55.0073 405.585 54.8565 403.156L51.3729 346.653L51.0628 341.675L50.9354 339.606L50.6253 334.627L50.4979 332.558L50.1877 327.579L49.9662 324.061C49.9277 323.384 50.0282 322.706 50.2614 322.069C50.4946 321.432 50.8556 320.85 51.3224 320.357C51.7891 319.864 52.3517 319.472 52.9756 319.205C53.5995 318.937 54.2716 318.799 54.9506 318.8H92.1733C92.8498 318.806 93.5178 318.95 94.1363 319.224C94.7548 319.498 95.3106 319.895 95.7694 320.392C96.2281 320.889 96.5802 321.474 96.8037 322.111C97.0272 322.749 97.1176 323.426 97.0691 324.1Z" fill="#3F3D56"/>
<path d="M96.8531 327.618L96.543 332.58H50.4757L50.1656 327.618H96.8531Z" fill="#9D9CB5"/>
<path d="M96.4156 334.649L96.111 339.617H50.9132L50.6031 334.649H96.4156Z" fill="#9D9CB5"/>
<path d="M95.9781 341.691L95.6735 346.653H51.3508L51.0406 341.691H95.9781Z" fill="#9D9CB5"/>
<path d="M44.8654 275.514C65.0856 290.129 73.5259 312.987 73.5259 312.987C73.5259 312.987 49.1576 312.151 28.9319 297.536C8.70614 282.921 0.282448 260.069 0.282448 260.069C0.282448 260.069 24.6397 260.899 44.8654 275.514Z" fill="#2D9CDB"/>
<path d="M0.265831 260.069C0.265831 260.069 25.5646 274.092 33.6782 285.703C41.7917 297.315 73.5259 312.987 73.5259 312.987" stroke="#535461" stroke-width="2" stroke-miterlimit="10"/>
<path d="M57.9191 246.073C68.9237 254.023 73.526 266.464 73.526 266.464C73.526 266.464 60.2618 266.01 49.2518 258.061C38.2417 250.112 33.6505 237.665 33.6505 237.665C33.6505 237.665 46.9091 238.118 57.9191 246.073Z" fill="#2D9CDB"/>
<path d="M33.6505 237.665C33.6505 237.665 47.4186 245.299 51.8326 251.616C56.2466 257.934 73.526 266.464 73.526 266.464" stroke="#535461" stroke-width="2" stroke-miterlimit="10"/>
<path d="M89.5038 265.833C76.86 279.712 74.185 297.851 74.185 297.851C74.185 297.851 92.0127 293.481 104.645 279.596C117.278 265.711 119.964 247.578 119.964 247.578C119.964 247.578 102.148 251.954 89.5038 265.833Z" fill="#2D9CDB"/>
<path d="M119.975 247.583C119.975 247.583 103.505 261.811 99.3176 271.614C95.1307 281.416 74.185 297.851 74.185 297.851" stroke="#535461" stroke-width="2" stroke-miterlimit="10"/>
<path d="M553.643 260.948C553.643 260.948 544.5 215.51 548 209.856C548 209.856 548.127 204.601 547.917 197.902C547.917 197.647 547.917 197.393 547.917 197.133C548.533 197.543 549.175 197.913 549.839 198.239C553.063 199.894 556.766 200.372 560.306 199.589L557.537 196.508C556.872 195.772 556.18 194.976 556.036 194.002C555.892 193.028 556.291 192.16 556.634 191.291C559.265 184.653 559.403 176.306 554.336 171.238C550.055 166.979 549.013 161.48 544.367 157.591C540.972 154.742 539.105 150.566 537.344 146.528C535.854 143.115 534.354 139.674 533.501 136.056C532.836 133.229 532.57 130.303 531.656 127.542C530.743 124.782 529.031 122.099 526.356 120.865C525.404 120.428 524.346 120.179 523.476 119.599C522.336 118.83 521.649 117.579 520.824 116.484C516.631 110.952 502.592 114.211 495.946 116.457C494.139 117.022 492.466 117.948 491.028 119.178L491.089 119.079C491.139 118.996 491.199 118.913 491.255 118.83C490.527 119.417 489.899 120.118 489.394 120.904C488.425 122.436 488.021 124.223 487.212 125.883C486.237 127.847 480.815 133.329 483.147 135.536C483.31 135.684 483.497 135.804 483.701 135.89C484.576 136.254 485.54 136.35 486.47 136.166L486.37 136.404C485.574 138.352 485.166 140.436 485.168 142.539C485.168 151.628 492.673 158.996 501.938 158.996C503.68 158.998 505.412 158.731 507.072 158.205C507.111 158.416 507.144 158.626 507.183 158.836C507.183 158.919 507.211 159.002 507.222 159.085L506.928 159.494C506.913 159.469 506.897 159.445 506.878 159.422L498.183 171.559C496.854 172.494 489.2 178.026 488.768 182.175C488.314 186.717 487.86 192.033 487.86 192.033L487.799 193.172C487.419 193.489 486.975 193.72 486.496 193.849C486.018 193.978 485.518 194.002 485.03 193.919C482.316 193.476 482.316 203.876 482.316 203.876C482.316 203.876 480.511 205.536 479.27 204.098C478.029 202.659 474.751 207.533 474.751 207.533L454.204 208.418L453.733 208.446L452.625 205.021C452.506 204.66 452.249 204.361 451.91 204.188C451.571 204.015 451.177 203.982 450.814 204.098C450.729 204.126 450.645 204.161 450.565 204.203L450.488 204.247L450.344 204.347L450.272 204.413C450.232 204.449 450.195 204.488 450.161 204.529L450.094 204.607L450.061 204.64C449.933 204.816 449.849 205.02 449.814 205.236C449.779 205.451 449.796 205.671 449.862 205.879L450.814 208.816C446.849 209.613 442.795 211.859 446.101 218.043L429.343 214.951L434.765 219.498L462.755 225.268C462.384 225.932 462.628 226.894 463.785 228.25C468.769 234.097 477.852 235.684 481.507 236.094C482.473 238.251 483.679 240.292 485.102 242.179L484.786 248.004C484.786 248.004 475.532 292.403 473.837 294.654C474.693 293.686 475.476 292.656 476.18 291.573C473.494 300.695 469.739 313.18 468.753 315.05C467.169 318.037 465.701 330.124 467.507 330.899C468.061 331.137 469.645 331.02 471.904 330.849V331.85L471.804 369.793C471.804 369.793 472.259 393.066 471.012 395.284C469.766 397.502 469.434 402.154 469.434 402.154C469.434 402.154 464.45 411.332 460.501 415.022C460.474 415.05 460.444 415.076 460.412 415.099L460.29 414.236C460.29 414.236 455.544 420.221 445.044 419.884C445.044 419.884 438.724 423.989 448.095 424.21C457.466 424.431 469.434 423.878 469.434 423.878C469.434 423.878 477.791 411.155 484.792 412.814V422.456H486.935V412.659C487.929 412.006 488.78 411.157 489.436 410.166C490.092 409.174 490.539 408.059 490.751 406.89C490.934 405.684 490.8 404.452 490.361 403.314C489.922 402.176 489.194 401.172 488.248 400.401C487.823 400.017 487.482 399.55 487.246 399.028C487.011 398.506 486.886 397.942 486.88 397.369L486.802 397.436C486.802 397.242 486.752 397.043 486.73 396.838C486.115 391.86 485.346 381.587 488.065 373.986C491.792 363.564 492.922 349.049 490.208 340.408C489.332 337.646 488.613 334.837 488.054 331.994C487.987 331.634 487.926 331.291 487.871 330.971C489.726 331.221 491.563 331.591 493.37 332.077C499.656 333.808 513.408 334.129 525.149 334.035C525.177 334.356 525.21 334.694 525.249 335.031C525.458 337.377 525.896 339.696 526.556 341.957C528.029 346.382 528.705 365.893 528.705 365.893C528.705 365.893 530.604 381.936 529.569 388.463C529.015 392.092 528.461 395.737 528.145 399.4V399.471C528.145 399.471 525.033 408.322 522.756 413.13C522.701 413.251 522.64 413.373 522.585 413.489C521.978 413.544 521.381 413.676 520.807 413.882C520.807 413.882 517.755 419.967 514.715 420.974C511.674 421.981 512.682 425.294 519.566 424.077C526.45 422.86 536.846 421.864 536.846 421.864L537.294 415.658L539.41 413.013L538.856 419.204L541.11 418.761L540.811 411.232L544.273 406.906C544.273 406.906 548.454 403.189 542.24 395.876V396.036C542.174 395.931 542.113 395.82 542.041 395.715V395.682C541.011 394.089 540.191 391.118 541.692 385.847C544.406 376.321 545.984 367.674 545.984 367.674C545.984 367.674 552.043 344.513 544.76 333.554H545.081C544.335 332.012 543.807 330.373 543.514 328.686C543.477 328.487 543.444 328.282 543.414 328.072C548.803 327.762 554.092 326.789 558.406 324.686C558.39 324.664 555.792 269.7 553.643 260.948ZM485.229 222.613V222.723L484.122 222.779L485.229 222.613ZM481.43 223.138C481.248 223.179 481.077 223.26 480.932 223.376C480.455 224.049 480.156 224.831 480.062 225.65L478.334 225.262C478.334 225.262 477.121 225.002 475.377 224.709L474.551 223.88C476.822 223.691 479.181 223.415 481.43 223.138Z" fill="url(#paint1_linear)"/>
<path d="M538.601 411.31L537.942 419.148L540.152 418.706L539.82 410.203L538.601 411.31Z" fill="#1D2366"/>
<path d="M488.187 374.091C485.523 381.67 486.276 391.898 486.874 396.866C487.096 398.703 487.3 399.82 487.3 399.82C487.3 399.82 483.318 408.881 482.986 409.224C482.654 409.567 471.267 416.51 471.267 416.51L463.309 421.151C463.309 421.151 455.234 417.616 459.105 416.399C459.896 416.082 460.609 415.597 461.193 414.977C465.07 411.299 469.938 402.154 469.938 402.154C469.938 402.154 470.27 397.513 471.489 395.306C472.707 393.099 472.264 369.904 472.264 369.904L472.358 332.094V327.165L487.505 327.275C487.601 328.949 487.819 330.613 488.159 332.254C488.703 335.087 489.407 337.887 490.269 340.64C492.938 349.264 491.831 363.708 488.187 374.091Z" fill="#FFB0B1"/>
<path opacity="0.1" d="M487.301 399.82C487.301 399.82 483.319 408.881 482.986 409.224C482.654 409.567 471.267 416.51 471.267 416.51L463.309 421.151C463.309 421.151 455.234 417.616 459.105 416.399C459.896 416.082 460.609 415.597 461.193 414.977L461.537 417.395L464.189 417.284L486.896 396.877C487.096 398.703 487.301 399.82 487.301 399.82Z" fill="black"/>
<path d="M487.024 397.391L464.189 417.937L461.536 418.047L460.983 414.175C460.983 414.175 456.342 420.138 446.029 419.807C446.029 419.807 439.838 423.895 449.014 424.116C458.191 424.337 469.91 423.784 469.91 423.784C469.91 423.784 478.096 411.061 484.947 412.72V422.329H487.051V412.632C488.03 411.974 488.865 411.125 489.506 410.136C490.148 409.148 490.582 408.039 490.784 406.879C490.966 405.683 490.837 404.46 490.41 403.329C489.982 402.197 489.27 401.194 488.342 400.417C487.927 400.029 487.597 399.561 487.37 399.04C487.143 398.52 487.025 397.959 487.024 397.391Z" fill="#1D2366"/>
<path d="M540.706 385.907C539.233 391.163 540.036 394.122 541.044 395.71V395.743C542.337 397.703 543.236 399.896 543.691 402.199L543.78 402.697L533.39 417.826L527.752 420.039C527.752 420.039 518.686 416.947 520.342 416.061C520.757 415.846 521.405 414.695 522.147 413.107C524.363 408.322 527.42 399.494 527.42 399.494V399.422C527.741 395.776 528.25 392.142 528.815 388.524C529.829 382.013 527.968 366.031 527.968 366.031C527.968 366.031 527.303 346.598 525.863 342.178C525.213 339.931 524.781 337.626 524.573 335.296C524.274 332.531 524.208 330.251 524.208 330.251C524.208 330.251 530.178 321.954 541.121 330.915C541.996 331.63 542.766 332.464 543.409 333.394C550.968 344.136 544.882 367.802 544.882 367.802C544.882 367.802 543.359 376.409 540.706 385.907Z" fill="#FFB0B1"/>
<path opacity="0.1" d="M543.796 402.697L533.406 417.826L527.769 420.039C527.769 420.039 518.702 416.947 520.358 416.061C520.774 415.846 521.422 414.695 522.164 413.107C526.002 413.074 527.99 416.725 527.99 416.725L532.853 415.951C532.853 415.951 539.266 403.36 540.706 402.591C542.146 401.823 540.927 396.844 540.927 396.844V395.577C540.966 395.621 540.999 395.671 541.044 395.715V395.749C542.337 397.709 543.236 399.901 543.691 402.204L543.796 402.697Z" fill="black"/>
<path d="M528.322 417.052C528.322 417.052 525.553 411.973 520.248 413.849C520.248 413.849 517.262 419.934 514.277 420.918C511.292 421.903 512.289 425.222 519.035 424.011C525.78 422.799 535.949 421.798 535.949 421.798L536.392 415.608L543.248 406.884C543.248 406.884 547.335 403.183 541.254 395.898V397.165C541.254 397.165 542.473 402.143 541.033 402.912C539.593 403.681 533.202 416.277 533.202 416.277L528.322 417.052Z" fill="#1D2366"/>
<path opacity="0.1" d="M487.522 327.264C487.618 328.937 487.836 330.602 488.176 332.243C481.939 331.33 476.152 331.784 472.358 332.082V327.154L487.522 327.264Z" fill="black"/>
<path opacity="0.1" d="M544.023 334.771C544.023 334.771 535.162 335.202 524.595 335.291C524.296 332.525 524.23 330.246 524.23 330.246C524.23 330.246 530.2 321.948 541.143 330.91C542.019 331.624 542.789 332.459 543.431 333.388C543.602 333.86 543.8 334.321 544.023 334.771Z" fill="black"/>
<path d="M544.023 333.775C544.023 333.775 505.211 335.65 493.381 332.337C481.552 329.023 469.827 331.894 468.061 331.125C466.294 330.356 467.728 318.314 469.279 315.332C470.83 312.35 479.336 282.196 479.336 282.196L487.522 239.568L496.145 237.195L496.754 237.023L511.78 232.885L522.79 229.848C522.79 229.848 544.682 315.221 542.805 321.517C542.123 323.927 542.013 326.463 542.484 328.924C542.771 330.604 543.289 332.237 544.023 333.775Z" fill="#2D9CDB"/>
<path d="M458.989 210.415C458.989 210.415 451.235 218.713 457.106 223.337C462.976 227.962 466.837 223.78 466.837 223.78L458.989 210.415Z" fill="#C7DAF5"/>
<path opacity="0.1" d="M458.989 210.415C458.989 210.415 451.235 218.713 457.106 223.337C462.976 227.962 466.837 223.78 466.837 223.78L458.989 210.415Z" fill="black"/>
<path d="M521.632 155.86C521.632 155.86 520.724 156.723 519.356 157.995C517.407 159.815 514.521 162.476 511.962 164.705C508.418 167.787 505.494 170.049 506.54 168.118C507.587 166.188 507.388 162.824 506.867 159.677C506.828 159.467 506.795 159.256 506.756 159.052C506.325 156.74 505.754 154.457 505.045 152.214C505.045 152.214 510.772 144.824 513.94 141.909C515.119 140.802 515.944 140.349 515.994 141.117C516.05 142.152 516.825 144.437 517.789 146.86C517.816 146.937 517.844 147.009 517.877 147.086C518.52 148.746 519.245 150.45 519.882 151.921C520.857 154.178 521.632 155.86 521.632 155.86Z" fill="#FFB0B1"/>
<path opacity="0.1" d="M517.877 147.086C517.339 149.977 516.033 152.671 514.097 154.886C512.16 157.101 509.663 158.755 506.867 159.677C506.427 157.152 505.818 154.659 505.045 152.214C505.045 152.214 515.828 138.302 515.994 141.117C516.033 142.185 516.875 144.553 517.877 147.086Z" fill="black"/>
<path opacity="0.1" d="M505.793 163.394L507.188 161.43C507.188 161.43 508.113 167.062 511.514 164.578C514.914 162.094 515.08 183.27 515.08 183.27L511.431 237.775L485.057 236.199L485.805 209.862L488.79 196.585L496.173 177.285L500.565 170.906L505.793 163.394Z" fill="black"/>
<path d="M515.08 183.608L511.757 232.891L511.409 238.113L496.704 237.233L496.151 237.2L485.074 236.536L485.822 210.194L488.807 196.917L496.189 177.617L500.581 171.238L505.809 163.698L507.205 161.74C507.205 161.74 508.13 167.372 511.53 164.888L511.602 164.838C514.925 162.736 515.08 183.608 515.08 183.608Z" fill="#1D2366"/>
<path d="M489.178 192.304C489.178 192.304 487.854 195.07 485.196 194.622C482.538 194.173 482.543 204.579 482.543 204.579C482.543 204.579 480.776 206.238 479.558 204.8C478.34 203.362 475.127 208.224 475.127 208.224L455.001 209.109C455.001 209.109 463.957 213.198 462.201 225.567C462.201 225.567 492.606 223.686 493.603 220.815C494.6 217.944 489.178 192.304 489.178 192.304Z" fill="white"/>
<path opacity="0.03" d="M489.178 192.304C489.178 192.304 487.854 195.07 485.196 194.622C482.538 194.173 482.543 204.579 482.543 204.579C482.543 204.579 480.776 206.238 479.558 204.8C478.34 203.362 475.127 208.224 475.127 208.224L455.001 209.109C455.001 209.109 463.957 213.198 462.201 225.567C462.201 225.567 492.606 223.686 493.603 220.815C494.6 217.944 489.178 192.304 489.178 192.304Z" fill="black"/>
<path d="M430.688 215.609L435.994 220.134L479.669 229.301L474.252 223.78L430.688 215.609Z" fill="white"/>
<path d="M505.876 165.137C505.15 166.243 503.073 171.908 501.34 176.853C499.894 180.974 498.687 184.598 498.687 184.598C498.687 184.598 495.868 202.93 494.428 206.244C492.988 209.558 493.769 222.48 493.769 222.48L488.403 254.393C488.403 254.393 485.971 270.85 482.216 280.681C478.511 290.356 474.385 294.892 474.258 295.036C475.919 292.79 484.974 248.568 484.974 248.568L487.965 192.796C487.965 192.796 488.403 187.497 488.846 182.966C489.289 178.435 498.261 172.251 498.261 172.251L506.911 159.965C507.781 161.126 507.199 163.151 505.876 165.137Z" fill="white"/>
<path d="M483.318 236.813C483.318 236.813 470.58 236.26 464.411 228.858C458.241 221.457 478.672 225.904 478.672 225.904L483.983 227.121L483.318 236.813Z" fill="#FFB0B1"/>
<path opacity="0.1" d="M542.805 321.522C542.123 323.933 542.013 326.469 542.484 328.929C528.588 329.914 513.724 326.163 513.724 326.163C510.954 328.708 503.66 332.459 503.66 332.459L499.684 283.225C497.142 276.587 496.145 241.808 496.145 241.808C496.145 241.808 496.372 239.988 496.699 237.261C496.699 237.195 496.699 237.123 496.727 237.056C497.718 229.439 499.684 215.139 500.648 213.208C501.977 210.553 496.56 203.489 496.56 203.489L499.025 182.496L499.324 179.962C504.519 177.644 508.501 170.243 508.501 170.243L511.558 164.893C514.881 162.764 515.053 183.635 515.053 183.635L511.73 232.918L522.74 229.881C522.74 229.881 544.682 315.227 542.805 321.522Z" fill="black"/>
<path d="M557.066 324.924C541.919 332.436 514.388 325.477 514.388 325.477C511.619 328.022 504.325 331.773 504.325 331.773L500.343 282.539C497.807 275.901 496.81 241.122 496.81 241.122C496.81 241.122 500.011 215.172 501.34 212.523C501.728 211.748 501.539 210.598 501.08 209.358C498.82 203.46 497.988 197.112 498.654 190.832L499.717 181.81L500.011 179.282C505.211 176.958 509.193 169.557 509.193 169.557L511.962 164.711L517.058 155.782L519.472 151.556L519.882 151.927L523.011 154.759C523.011 154.759 524.34 155.865 526.334 157.525C530.671 161.176 538.164 167.604 542.03 171.537C545.43 175 546.504 188.47 546.815 198.61C547.02 205.287 546.898 210.52 546.898 210.52C543.47 216.157 552.436 261.413 552.436 261.413C554.524 270.159 557.066 324.924 557.066 324.924Z" fill="white"/>
<path opacity="0.03" d="M527.99 169.446C527.99 169.446 517.595 189.211 518.802 196.724C520.009 204.236 523.443 212.738 521.787 214.724C521.218 215.477 520.483 216.087 519.638 216.509C518.794 216.93 517.863 217.15 516.919 217.153C515.258 217.263 510.827 220.356 510.827 220.688C510.827 221.02 506.734 221.02 503.073 222.568C499.413 224.117 494.007 224.997 494.007 224.997C494.007 224.997 483.485 224.665 482.504 225.661C481.524 226.656 480.516 232.614 482.615 237.366C484.714 242.118 487.046 245.664 488.807 246.311C490.568 246.958 501.744 243.219 510.81 242.334C519.877 241.449 529.718 234.274 529.718 234.274C529.718 234.274 540.556 230.402 542.456 223.891C544.356 217.38 540.135 181.594 540.135 181.594C540.135 181.594 536.945 164.916 527.99 169.446Z" fill="black"/>
<path opacity="0.03" d="M526.661 167.787C526.661 167.787 516.266 187.557 517.484 195.064C518.702 202.571 522.125 211.079 520.464 213.07C519.897 213.823 519.162 214.435 518.319 214.856C517.475 215.278 516.544 215.498 515.601 215.499C513.94 215.609 509.509 218.702 509.509 219.034C509.509 219.365 505.416 219.365 501.755 220.909C498.095 222.452 492.689 223.337 492.689 223.337C492.689 223.337 482.167 223.005 481.192 224.001C480.217 224.997 479.198 230.96 481.303 235.707C483.407 240.453 485.733 244.004 487.494 244.652C489.255 245.299 500.432 241.559 509.498 240.68C518.564 239.8 528.405 232.614 528.405 232.614C528.405 232.614 539.238 228.742 541.116 222.237C542.993 215.731 538.795 179.934 538.795 179.934C538.795 179.934 535.616 163.261 526.661 167.787Z" fill="black"/>
<path d="M527.663 168.45C527.663 168.45 517.268 188.221 518.486 195.728C519.705 203.235 523.128 211.743 521.472 213.729C520.905 214.484 520.17 215.096 519.325 215.519C518.48 215.941 517.548 216.162 516.603 216.163C514.942 216.273 510.511 219.366 510.511 219.692C510.511 220.018 506.424 220.024 502.758 221.573C499.092 223.122 493.692 224.001 493.692 224.001C493.692 224.001 483.169 223.669 482.189 224.665C481.208 225.661 480.201 231.624 482.3 236.37C484.399 241.117 486.73 244.668 488.491 245.315C490.252 245.963 501.429 242.223 510.495 241.338C519.561 240.453 529.402 233.278 529.402 233.278C529.402 233.278 540.241 229.406 542.14 222.895C544.04 216.384 539.848 180.598 539.848 180.598C539.848 180.598 536.613 163.947 527.663 168.45Z" fill="white"/>
<path opacity="0.1" d="M527.436 221.479C527.436 221.479 519.129 219.819 522.02 222.585C524.911 225.351 524.894 227.774 528.433 227.663C531.972 227.553 527.436 221.479 527.436 221.479Z" fill="black"/>
<path opacity="0.1" d="M541.476 280.99C541.476 280.99 537.721 283.529 544.904 289.382C552.087 295.235 541.476 280.99 541.476 280.99Z" fill="black"/>
<path opacity="0.1" d="M534.309 301.862C534.309 302.194 532.98 314.032 537.953 316.992C542.927 319.951 534.309 301.862 534.309 301.862Z" fill="black"/>
<path d="M455.345 209.082C451.335 209.22 442.673 210.443 447.165 218.812C451.136 226.219 457.809 221.268 461.564 217.512C460.648 214.01 458.422 210.993 455.345 209.082Z" fill="#FFB0B1"/>
<path d="M461.614 217.447L461.781 217.274L461.614 217.447Z" fill="#FFB0B1"/>
<path opacity="0.1" d="M526.334 157.862C522.081 160.767 518.514 163.217 517.816 163.726C515.911 165.137 512.278 173.418 509.935 177.644C508.069 181.046 502.005 181.92 499.717 182.136L500.011 179.608C505.211 177.285 509.193 169.883 509.193 169.883L519.472 151.882L523.011 155.096C523.011 155.096 524.34 156.203 526.334 157.862Z" fill="black"/>
<path d="M526.334 157.53C522.081 160.435 518.514 162.885 517.816 163.4C515.911 164.805 512.278 173.086 509.935 177.312C508.069 180.714 502.005 181.588 499.717 181.804L500.011 179.276C505.211 176.953 509.193 169.551 509.193 169.551L519.472 151.551L523.011 154.753C523.011 154.753 524.34 155.849 526.334 157.53Z" fill="#DCE7FF"/>
<path d="M518.149 143.435C518.151 146.756 517.143 149.999 515.258 152.734C513.031 155.968 509.718 158.298 505.919 159.301C502.12 160.304 498.087 159.913 494.552 158.2C491.017 156.487 488.213 153.564 486.651 149.963C485.088 146.362 484.869 142.321 486.035 138.572C487.2 134.824 489.672 131.617 493.002 129.534C496.332 127.45 500.299 126.628 504.184 127.216C508.069 127.804 511.615 129.764 514.177 132.74C516.739 135.716 518.148 139.51 518.149 143.435Z" fill="#FFB0B1"/>
<path opacity="0.1" d="M546.815 198.615C544.566 197.234 542.734 195.268 541.515 192.929C540.59 191.103 539.975 188.996 538.397 187.701C536.973 186.539 535.074 186.257 533.301 185.737C527.475 184.017 522.59 178.706 522.408 172.643C522.319 169.789 523.211 166.94 522.806 164.113C522.576 162.513 521.94 160.999 520.957 159.716C520.468 159.102 519.933 158.526 519.356 157.995C518.581 157.265 517.766 156.557 517.058 155.782C516.611 155.303 516.221 154.774 515.895 154.206C515.631 153.741 515.418 153.25 515.258 152.74C514.15 149.354 515.158 145.338 513.94 141.914L513.873 141.726C513.413 140.509 512.477 139.292 511.176 139.198C509.874 139.104 508.761 140.183 507.521 140.664C504.923 141.671 502.121 139.956 499.955 138.208C497.79 136.46 495.348 134.463 492.595 134.85C490.773 135.11 489.333 136.349 487.655 136.991C487.276 137.137 486.885 137.25 486.486 137.328C487.907 133.791 490.516 130.857 493.866 129.033C497.216 127.208 501.097 126.605 504.844 127.329C508.59 128.052 511.968 130.056 514.396 132.996C516.824 135.936 518.151 139.629 518.149 143.441C518.15 144.592 518.03 145.74 517.789 146.865C517.816 146.942 517.844 147.014 517.877 147.092C518.52 148.751 519.245 150.455 519.882 151.927L523.011 154.759C523.011 154.759 524.34 155.865 526.334 157.525C530.671 161.176 538.164 167.604 542.03 171.537C545.43 175.011 546.493 188.476 546.815 198.615Z" fill="black"/>
<path d="M487.461 126.884C488.253 125.274 488.646 123.471 489.593 121.944C490.984 119.731 493.409 118.315 495.902 117.458C502.409 115.217 516.16 111.965 520.27 117.458C521.078 118.564 521.749 119.792 522.867 120.556C523.72 121.136 524.75 121.385 525.686 121.822C528.306 123.05 529.978 125.728 530.87 128.461C531.762 131.193 532.028 134.125 532.681 136.941C533.517 140.553 534.985 143.977 536.447 147.38C538.169 151.396 539.997 155.561 543.32 158.399C547.856 162.271 548.858 167.753 553.067 172.002C558.052 177.047 557.891 185.372 555.321 191.983C554.984 192.851 554.602 193.759 554.734 194.682C554.867 195.606 555.554 196.447 556.202 197.183L558.927 200.253C552.48 201.807 545.186 198.444 542.185 192.542C541.26 190.716 540.645 188.614 539.061 187.314C537.643 186.152 535.738 185.876 533.972 185.356C528.145 183.63 523.26 178.314 523.078 172.251C522.989 169.402 523.881 166.553 523.476 163.732C523.252 162.121 522.612 160.596 521.621 159.306C520.098 157.32 517.8 155.987 516.559 153.774C514.46 150.074 516.055 145.266 514.543 141.294C514.078 140.077 513.148 138.86 511.846 138.766C510.545 138.672 509.431 139.751 508.185 140.232C505.593 141.239 502.791 139.53 500.626 137.776C498.46 136.023 496.018 134.031 493.26 134.424C491.438 134.678 490.003 135.918 488.325 136.565C487.085 137.04 484.57 137.466 483.485 136.421C481.192 134.313 486.503 128.853 487.461 126.884Z" fill="#591D4B"/>
<path opacity="0.1" d="M543.724 190.716C542.794 188.891 542.185 186.788 540.601 185.494C539.183 184.332 537.278 184.05 535.506 183.53C529.685 181.81 524.8 176.494 524.612 170.431C524.523 167.582 525.415 164.727 525.016 161.906C524.784 160.306 524.145 158.792 523.161 157.508C521.632 155.522 519.334 154.189 518.099 151.977C516 148.281 517.595 143.474 516.077 139.497C515.618 138.285 514.682 137.068 513.386 136.969C512.09 136.869 510.966 137.959 509.725 138.44C507.133 139.447 504.325 137.732 502.165 135.984C500.005 134.236 497.552 132.239 494.799 132.626C492.977 132.886 491.537 134.125 489.865 134.767C488.624 135.243 486.104 135.674 485.019 134.629C482.737 132.416 488.048 126.967 489.001 125.009C489.793 123.393 490.186 121.596 491.139 120.069C491.188 119.986 491.244 119.903 491.299 119.82C490.587 120.409 489.972 121.108 489.477 121.889C488.53 123.416 488.137 125.208 487.345 126.829C486.387 128.787 481.076 134.252 483.363 136.449C484.471 137.5 486.963 137.068 488.203 136.592C489.865 135.945 491.316 134.706 493.138 134.452C495.907 134.059 498.344 136.056 500.504 137.804C502.664 139.552 505.488 141.267 508.069 140.26C509.31 139.779 510.395 138.695 511.724 138.794C513.053 138.894 513.94 140.105 514.421 141.322C515.933 145.294 514.338 150.101 516.437 153.802C517.678 155.976 519.976 157.337 521.499 159.334C522.49 160.624 523.13 162.149 523.355 163.759C523.759 166.581 522.867 169.43 522.956 172.278C523.139 178.363 528.023 183.657 533.85 185.383C535.605 185.903 537.522 186.18 538.939 187.342C540.529 188.642 541.155 190.744 542.063 192.569C545.065 198.472 552.359 201.835 558.805 200.281L557.52 198.831C551.932 198.914 546.278 195.739 543.724 190.716Z" fill="black"/>
<path opacity="0.1" d="M505.543 165.469C504.818 166.575 502.741 172.24 501.008 177.185C499.385 176.555 497.912 172.533 497.912 172.533L506.563 160.241C507.449 161.458 506.867 163.477 505.543 165.469Z" fill="black"/>
<path d="M505.876 165.137C505.15 166.243 503.073 171.908 501.34 176.853C499.717 176.228 498.244 172.201 498.244 172.201L506.895 159.915C507.781 161.126 507.199 163.151 505.876 165.137Z" fill="#DCE7FF"/>
<path d="M455.577 221.65L450.781 206.543C450.724 206.366 450.703 206.179 450.719 205.994C450.734 205.809 450.786 205.629 450.872 205.464C450.957 205.299 451.074 205.153 451.216 205.033C451.359 204.913 451.523 204.823 451.701 204.767C452.057 204.656 452.444 204.69 452.776 204.862C453.108 205.034 453.358 205.33 453.473 205.685L458.269 220.776L457.793 223.935L455.577 221.65Z" fill="#BE8B87"/>
<path opacity="0.1" d="M451.235 205.215C451.593 205.102 451.981 205.135 452.314 205.307C452.647 205.479 452.899 205.776 453.013 206.133L457.809 221.224L457.449 223.592L457.798 223.957L458.275 220.798L453.451 205.707C453.336 205.352 453.086 205.056 452.754 204.884C452.422 204.712 452.035 204.678 451.678 204.789C451.378 204.886 451.119 205.081 450.942 205.342C451.036 205.292 451.134 205.249 451.235 205.215Z" fill="white"/>
<path d="M455.577 221.65L458.269 220.798L457.876 223.387L457.793 223.957L457.006 223.138L455.577 221.65Z" fill="#EFC8C4"/>
<path d="M457.006 223.138C457.053 223.079 457.111 223.03 457.178 222.994C457.217 222.97 457.262 222.957 457.308 222.957C457.354 222.957 457.399 222.97 457.438 222.994C457.476 223.04 457.508 223.09 457.532 223.144C457.569 223.205 457.619 223.257 457.678 223.296C457.738 223.335 457.805 223.361 457.876 223.371L457.793 223.924L457.006 223.138Z" fill="#727A9C"/>
<path d="M450.754 211.909C450.754 211.909 460.373 211.853 458.108 215.941C455.843 220.029 452.304 220.522 452.304 220.522L450.754 211.909Z" fill="#FFB0B1"/>
<path d="M390.924 28.4448H390.508C373.982 28.4448 359.367 37.1796 350.96 50.0688C342.553 37.1796 327.937 28.4448 311.411 28.4448H310.996C298.593 28.5628 286.738 33.565 278.008 42.3644C269.277 51.1638 264.376 63.0492 264.369 75.4378C264.369 90.8219 271.114 112.651 284.268 130.612C309.328 164.838 350.96 194.782 350.96 194.782C350.96 194.782 392.591 164.844 417.646 130.612C430.805 112.651 437.545 90.8219 437.545 75.4378C437.538 63.0501 432.637 51.1655 423.908 42.3663C415.178 33.5671 403.325 28.5643 390.924 28.4448ZM384.981 133.246C383.099 133.238 381.263 132.663 379.714 131.595C378.165 130.527 376.976 129.016 376.303 127.26H366.422C365.772 127.256 365.139 127.049 364.611 126.668C364.084 126.288 363.689 125.752 363.482 125.136L360.447 116.003L350.843 149.52C350.656 150.166 350.265 150.733 349.727 151.137C349.19 151.541 348.536 151.76 347.864 151.761H347.67C346.968 151.727 346.299 151.453 345.775 150.986C345.251 150.519 344.903 149.886 344.79 149.194L334.893 89.7377L327.66 124.92C327.494 125.589 327.109 126.182 326.566 126.606C326.023 127.03 325.353 127.261 324.664 127.26H310.746C310.329 127.278 309.913 127.211 309.522 127.064C309.131 126.916 308.774 126.692 308.473 126.403C308.172 126.114 307.932 125.768 307.768 125.384C307.604 125.001 307.519 124.588 307.519 124.171C307.519 123.754 307.604 123.341 307.768 122.957C307.932 122.573 308.172 122.227 308.473 121.938C308.774 121.65 309.131 121.425 309.522 121.278C309.913 121.13 310.329 121.063 310.746 121.081H322.227L332.473 73.7783C332.641 73.0789 333.047 72.4596 333.622 72.0263C334.197 71.5929 334.904 71.3724 335.624 71.4025C336.343 71.4325 337.03 71.7113 337.566 72.191C338.103 72.6708 338.456 73.3218 338.565 74.0327L348.672 134.684L357.279 104.696C357.458 104.064 357.837 103.507 358.359 103.109C358.881 102.71 359.518 102.49 360.175 102.483H360.236C360.887 102.483 361.521 102.689 362.048 103.07C362.575 103.452 362.968 103.99 363.171 104.607L368.66 121.098H376.181C376.716 119.475 377.689 118.031 378.993 116.926C380.297 115.821 381.882 115.097 383.572 114.835C385.262 114.573 386.992 114.782 388.57 115.439C390.149 116.097 391.515 117.177 392.517 118.561C393.52 119.945 394.12 121.579 394.252 123.282C394.384 124.985 394.042 126.692 393.264 128.213C392.486 129.735 391.303 131.012 389.844 131.904C388.385 132.796 386.708 133.268 384.998 133.268L384.981 133.246Z" fill="#2D9CDB"/>
</g>
<defs>
<linearGradient id="paint0_linear" x1="197.345" y1="428.646" x2="197.345" y2="88.2496" gradientUnits="userSpaceOnUse">
<stop stop-color="#808080" stop-opacity="0.25"/>
<stop offset="0.54" stop-color="#808080" stop-opacity="0.12"/>
<stop offset="1" stop-color="#808080" stop-opacity="0.1"/>
</linearGradient>
<linearGradient id="paint1_linear" x1="123623" y1="256834" x2="123623" y2="82105.3" gradientUnits="userSpaceOnUse">
<stop stop-color="#808080" stop-opacity="0.25"/>
<stop offset="0.54" stop-color="#808080" stop-opacity="0.12"/>
<stop offset="1" stop-color="#808080" stop-opacity="0.1"/>
</linearGradient>
<clipPath id="clip0">
<rect width="612" height="433" fill="white"/>
</clipPath>
</defs>
</svg>
